<?xml version="1.0" encoding="UTF-8"?>
<svg xmlns="http://www.w3.org/2000/svg" xmlns:xlink="http://www.w3.org/1999/xlink" width="625.182" height="994.423"><rect width="100%" height="100%" fill="#FFFFFF"/><g transform="scale(1.333) translate(831,871)" style="fill:none;"><g transform="translate(-804,-635)"><path d="M52,21Q52,14 131,14" stroke="#00534e" stroke-width="1"/></g><g transform="translate(-743,-638)"><g transform="scale(0.005859375)" style="fill:#4F4F4F;"><g transform="translate(0 2048) scale (1 -1)"><path d="M1907 848L1645 848Q1621 496 1604 358L1833 358L1833 203L1587 203Q1568 -40 1495.5 -87.5Q1423 -135 1325 -135Q1211 -135 1075 -113L1014 63Q1223 20 1366 20Q1419 20 1430 203L473 203L455 109L295 135L408 848L158 848L158 1004L424 1004Q464 1283 496 1604L1708 1604Q1678 1157 1659 1004L1907 1004ZM1538 1448L883 1448Q1110 1366 1325 1147L1210 1038Q1046 1235 735 1366L825 1448L641 1448L584 1004L1499 1004ZM1487 848L813 848Q1107 700 1260 485L1139 385Q969 608 678 770L780 848L563 848Q532 588 492 358L1446 358Q1489 772 1487 848Z"/></g><g transform="translate(2048 2048) scale (1 -1)"><path d="M1886 745L1141 745L1141 61Q1141 -10 1096 -55Q1051 -100 971 -100L719 -100L645 59L903 47Q985 44 985 143L985 745L201 745L201 895L985 895L985 1100Q1234 1263 1409 1462L453 1462L453 1612L1632 1612L1632 1497Q1420 1214 1141 1024L1141 895L1886 895Z"/></g><g transform="translate(4096 2048) scale (1 -1)"><path d="M1133 0Q1133 -127 1084.5 -194Q1036 -261 965 -289L916 -213Q1028 -165 1029 0L928 0L928 205L1133 205Z"/></g><g transform="translate(6144 2048) scale (1 -1)"><path d="M1931 57L1829 -84Q1201 168 1055 694Q892 172 270 -104L152 35Q754 282 893 729L266 729L266 879L926 879Q948 983 961 1227L393 1227L393 1382L963 1382L963 1708L1130 1708L1130 1382L1683 1382L1683 1227L1124 1227Q1118 986 1100 879L1817 879L1817 729L1214 729Q1352 282 1931 57Z"/></g><g transform="translate(8192 2048) scale (1 -1)"><path d="M1915 926L1706 926L1706 678L395 678L395 827L946 827L946 926L164 926L164 1075L946 1075L946 1178L395 1178L395 1327L946 1327L946 1427L217 1427L217 1577L946 1577L946 1714L1102 1714L1102 1577L1845 1577L1845 1427L1102 1427L1102 1327L1706 1327L1706 1075L1915 1075ZM1550 1075L1550 1178L1102 1178L1102 1075ZM1550 827L1550 926L1102 926L1102 827ZM1901 377L1528 377Q1450 277 1331 178Q1679 88 1868 -16L1767 -143Q1500 -4 1169 66Q812 -117 242 -135L166 18Q651 28 930 117L930 121Q595 183 446 193Q486 223 631 377L164 377L164 526L748 526Q781 565 860 676L1014 616L948 526L1901 526ZM1323 377L836 377L745 285Q903 265 1133 223Q1261 300 1323 377Z"/></g></g></g><g transform="translate(-673,-844)"><path d="M43,223Q43,-20 156,14" stroke="#707070" stroke-width="1"/></g><g transform="translate(-673,-761)"><path d="M43,140Q43,-20 168,14" stroke="#707070" stroke-width="1"/></g><g transform="translate(-673,-713)"><path d="M43,92Q43,-20 225,14" stroke="#707070" stroke-width="1"/></g><g transform="translate(-673,-669)"><path d="M43,48Q43,-11 106,14" stroke="#707070" stroke-width="1"/></g><g transform="translate(-673,-635)"><path d="M43,14Q43,388 170,354" stroke="#707070" stroke-width="1"/></g><g transform="translate(-673,-635)"><path d="M43,14Q43,295 165,261" stroke="#707070" stroke-width="1"/></g><g transform="translate(-673,-635)"><path d="M43,14Q43,125 223,91" stroke="#707070" stroke-width="1"/></g><g transform="translate(-673,-635)"><path d="M76,14Q76,31 219,31" stroke="#707070" stroke-width="1"/></g><g transform="translate(-673,-635)"><path d="M43,14Q43,187 190,153" stroke="#707070" stroke-width="1"/></g><g transform="translate(-673,-635)"><path d="M43,14Q43,244 205,210" stroke="#707070" stroke-width="1"/></g><g transform="translate(-673,-635)"><path d="M43,14Q43,436 195,402" stroke="#707070" stroke-width="1"/></g><g transform="translate(-673,-635)"><path d="M43,14Q43,502 106,468" stroke="#707070" stroke-width="1"/></g><g transform="translate(-567,-713)"><path d="M119,14L50,58" stroke-dasharray="4, 4" stroke="#707070" stroke-width="1"/></g><g transform="translate(-494,-695)"><rect x="0" y="2" width="24" height="12" fill="#FFFFFF" stroke="#FFFFFF"/><g transform="scale(0.005859375)" style="fill:#4F4F4F;"><g transform="translate(0 2048) scale (1 -1)"><path d="M1931 57L1829 -84Q1201 168 1055 694Q892 172 270 -104L152 35Q754 282 893 729L266 729L266 879L926 879Q948 983 961 1227L393 1227L393 1382L963 1382L963 1708L1130 1708L1130 1382L1683 1382L1683 1227L1124 1227Q1118 986 1100 879L1817 879L1817 729L1214 729Q1352 282 1931 57Z"/></g><g transform="translate(2048 2048) scale (1 -1)"><path d="M1915 926L1706 926L1706 678L395 678L395 827L946 827L946 926L164 926L164 1075L946 1075L946 1178L395 1178L395 1327L946 1327L946 1427L217 1427L217 1577L946 1577L946 1714L1102 1714L1102 1577L1845 1577L1845 1427L1102 1427L1102 1327L1706 1327L1706 1075L1915 1075ZM1550 1075L1550 1178L1102 1178L1102 1075ZM1550 827L1550 926L1102 926L1102 827ZM1901 377L1528 377Q1450 277 1331 178Q1679 88 1868 -16L1767 -143Q1500 -4 1169 66Q812 -117 242 -135L166 18Q651 28 930 117L930 121Q595 183 446 193Q486 223 631 377L164 377L164 526L748 526Q781 565 860 676L1014 616L948 526L1901 526ZM1323 377L836 377L745 285Q903 265 1133 223Q1261 300 1323 377Z"/></g></g></g><g transform="translate(-517.5,-844)"><path d="M55,28L62,83" stroke-dasharray="8, 8" stroke="#707070" stroke-width="2"/></g><g transform="translate(-488.5,-806)"><rect x="0" y="2" width="60" height="12" fill="#FFFFFF" stroke="#FFFFFF"/><g transform="scale(0.005859375)" style="fill:#4F4F4F;"><g transform="translate(0 2048) scale (1 -1)"><path d="M1931 57L1829 -84Q1201 168 1055 694Q892 172 270 -104L152 35Q754 282 893 729L266 729L266 879L926 879Q948 983 961 1227L393 1227L393 1382L963 1382L963 1708L1130 1708L1130 1382L1683 1382L1683 1227L1124 1227Q1118 986 1100 879L1817 879L1817 729L1214 729Q1352 282 1931 57Z"/></g><g transform="translate(2048 2048) scale (1 -1)"><path d="M1915 926L1706 926L1706 678L395 678L395 827L946 827L946 926L164 926L164 1075L946 1075L946 1178L395 1178L395 1327L946 1327L946 1427L217 1427L217 1577L946 1577L946 1714L1102 1714L1102 1577L1845 1577L1845 1427L1102 1427L1102 1327L1706 1327L1706 1075L1915 1075ZM1550 1075L1550 1178L1102 1178L1102 1075ZM1550 827L1550 926L1102 926L1102 827ZM1901 377L1528 377Q1450 277 1331 178Q1679 88 1868 -16L1767 -143Q1500 -4 1169 66Q812 -117 242 -135L166 18Q651 28 930 117L930 121Q595 183 446 193Q486 223 631 377L164 377L164 526L748 526Q781 565 860 676L1014 616L948 526L1901 526ZM1323 377L836 377L745 285Q903 265 1133 223Q1261 300 1323 377Z"/></g><g transform="translate(4096 2048) scale (1 -1)"><path d="M1133 0Q1133 -127 1084.5 -194Q1036 -261 965 -289L916 -213Q1028 -165 1029 0L928 0L928 205L1133 205Z"/></g><g transform="translate(6144 2048) scale (1 -1)"><path d="M1909 362Q1870 170 1805 65.5Q1740 -39 1597 -39L1376 -39Q1159 -39 1159 156L1159 776L932 776Q919 412 762.5 197.5Q606 -17 268 -133L174 10Q780 174 768 776L457 776L457 1589L1628 1589L1628 776L1315 776L1315 180Q1315 144 1340.5 127.5Q1366 111 1386 111L1616 111Q1684 111 1708 205L1763 426ZM1466 926L1466 1440L627 1440L627 926Z"/></g><g transform="translate(8192 2048) scale (1 -1)"><path d="M2003 170L1864 47Q1507 307 1407 770L1407 -131L1251 -131L1247 780Q1190 369 813 27L682 141Q836 251 957 436Q1078 621 1114 799L801 799L801 948L1251 948L1251 1266L885 1266L885 1415L1251 1415L1251 1706L1407 1706L1407 1415L1772 1415L1772 1266L1407 1266L1407 948L1845 948L1845 799L1538 799Q1674 316 2003 170ZM805 1290Q790 778 623 422Q725 349 770 307L666 190Q597 256 553 287Q405 38 180 -145L61 -29Q314 174 420 371Q334 426 166 492Q263 849 317 1141L117 1141L117 1290L346 1290L408 1655L559 1620Q537 1498 508 1290ZM643 1141L477 1141Q424 879 342 578Q397 547 489 510Q582 726 643 1141Z"/></g></g></g><g transform="translate(-508,-388)"><path d="M34,93L27,28" stroke-dasharray="8, 8" stroke="#707070" stroke-width="2"/></g><g transform="translate(-489,-345)"><rect x="0" y="2" width="24" height="12" fill="#FFFFFF" stroke="#FFFFFF"/><g transform="scale(0.005859375)" style="fill:#4F4F4F;"><g transform="translate(0 2048) scale (1 -1)"><path d="M1931 57L1829 -84Q1201 168 1055 694Q892 172 270 -104L152 35Q754 282 893 729L266 729L266 879L926 879Q948 983 961 1227L393 1227L393 1382L963 1382L963 1708L1130 1708L1130 1382L1683 1382L1683 1227L1124 1227Q1118 986 1100 879L1817 879L1817 729L1214 729Q1352 282 1931 57Z"/></g><g transform="translate(2048 2048) scale (1 -1)"><path d="M1915 926L1706 926L1706 678L395 678L395 827L946 827L946 926L164 926L164 1075L946 1075L946 1178L395 1178L395 1327L946 1327L946 1427L217 1427L217 1577L946 1577L946 1714L1102 1714L1102 1577L1845 1577L1845 1427L1102 1427L1102 1327L1706 1327L1706 1075L1915 1075ZM1550 1075L1550 1178L1102 1178L1102 1075ZM1550 827L1550 926L1102 926L1102 827ZM1901 377L1528 377Q1450 277 1331 178Q1679 88 1868 -16L1767 -143Q1500 -4 1169 66Q812 -117 242 -135L166 18Q651 28 930 117L930 121Q595 183 446 193Q486 223 631 377L164 377L164 526L748 526Q781 565 860 676L1014 616L948 526L1901 526ZM1323 377L836 377L745 285Q903 265 1133 223Q1261 300 1323 377Z"/></g></g></g><g transform="translate(-804 -628)"><rect x="0" y="0" width="62" height="28" rx="10" ry="10" style="fill:#22AAE0;stroke:#707070;stroke-width:1px;"/><g transform="translate (5 5) scale(0.005859375)" style="fill:#4F4F4F;"><g transform="translate(56.83333333333303 2048) scale (1 -1)"><path d="M1982 303Q1959 77 1886 -16Q1813 -109 1636 -109L1053 -109Q946 -109 886.5 -45Q827 19 827 129L827 760L698 702L662 907L827 979L827 1442L1034 1442L1034 1067L1225 1149L1225 1712L1432 1712L1432 1237L1868 1423L1869 1348Q1869 1189 1858 923.5Q1847 658 1836 589.5Q1825 521 1777.5 468.5Q1730 416 1614 416Q1567 416 1511 426L1456 649Q1510 641 1567 641Q1601 641 1617.5 661.5Q1634 682 1642.5 822Q1651 962 1651 1120L1432 1024L1432 248L1225 248L1225 934L1034 850L1034 190Q1034 100 1122 100L1597 100Q1676 100 1714 154Q1752 208 1761 383ZM768 326Q528 221 160 80L78 281L352 381L352 1006L121 1006L121 1217L352 1217L352 1681L561 1681L561 1217L752 1217L752 1006L561 1006L561 461L768 543Z"/></g><g transform="translate(2104.833333333333 2048) scale (1 -1)"><path d="M1907 344L1475 344L1475 -135L1268 -135L1268 344L834 344L834 594L672 469Q620 593 553 688L553 -133L346 -133L346 559Q281 498 221 449L76 606Q372 820 512 1169L139 1169L139 1379L349 1379L349 1706L556 1706L556 1379L715 1379L715 1187Q675 982 553 801L553 758L670 864Q773 749 834 625L834 1417L1268 1417L1268 1714L1475 1714L1475 1417L1907 1417ZM1702 991L1702 1208L1475 1208L1475 991ZM1268 991L1268 1208L1038 1208L1038 991ZM1702 553L1702 782L1475 782L1475 553ZM1268 553L1268 782L1038 782L1038 553Z"/></g><g transform="translate(4721.833333333333 2048) scale (1 -1)"><path d="M1939 649L137 649L137 840L924 840L924 944L303 944L303 1135L924 1135L924 1239L213 1239L213 1430L700 1430Q603 1536 489 1602L641 1739Q797 1644 903 1507L797 1430L1243 1430L1165 1493Q1313 1594 1407 1745L1581 1636Q1498 1513 1399 1430L1845 1430L1845 1239L1139 1239L1139 1135L1757 1135L1757 944L1139 944L1139 840L1939 840ZM1927 -96L137 -96L137 94L334 94L334 561L1729 561L1729 94L1927 94ZM1524 94L1524 369L1325 369L1325 94ZM1130 94L1130 369L932 369L932 94ZM737 94L737 369L539 369L539 94Z"/></g><g transform="translate(6769.833333333333 2048) scale (1 -1)"><path d="M1946 -53L123 -53L123 156L733 156L733 1421L182 1421L182 1630L1872 1630L1872 1421L1335 1421L1335 156L1946 156ZM1128 156L1128 1421L938 1421L938 156ZM1853 1165Q1774 642 1587 307L1399 408Q1609 816 1647 1231ZM684 373L465 311Q401 754 186 1141L389 1229Q598 854 684 373Z"/></g></g></g><g transform="translate(-673 -635)"><rect x="0" y="0" width="86" height="28" rx="10" ry="10" style="fill:#E0E0E0;stroke:#707070;stroke-width:1px;"/><g transform="translate (5 5) scale(0.005859375)" style="fill:#4F4F4F;"><g transform="translate(56.83333333333303 2048) scale (1 -1)"><path d="M1956 45L1808 -165Q1297 30 1052 633Q861 113 264 -162L123 25Q700 238 866 791L275 791L275 999L909 999Q920 1091 920 1171L920 1425L190 1425L190 1634L1869 1634L1869 1425L1137 1425L1137 1198Q1137 1108 1126 999L1784 999L1784 791L1204 791Q1408 249 1956 45Z"/></g><g transform="translate(2104.833333333333 2048) scale (1 -1)"><path d="M1907 344L1475 344L1475 -135L1268 -135L1268 344L834 344L834 594L672 469Q620 593 553 688L553 -133L346 -133L346 559Q281 498 221 449L76 606Q372 820 512 1169L139 1169L139 1379L349 1379L349 1706L556 1706L556 1379L715 1379L715 1187Q675 982 553 801L553 758L670 864Q773 749 834 625L834 1417L1268 1417L1268 1714L1475 1714L1475 1417L1907 1417ZM1702 991L1702 1208L1475 1208L1475 991ZM1268 991L1268 1208L1038 1208L1038 991ZM1702 553L1702 782L1475 782L1475 553ZM1268 553L1268 782L1038 782L1038 553Z"/></g><g transform="translate(4721.833333333333 2048) scale (1 -1)"><path d="M1870 745Q1870 438 1840 217.5Q1810 -3 1734.5 -66Q1659 -129 1530 -129Q1417 -129 1280 -111L1214 102Q1385 76 1524 76Q1559 76 1583 100.5Q1607 125 1630 264.5Q1653 404 1653 555L414 555L414 1528L752 1528Q796 1617 819 1733L1034 1665Q1016 1592 981 1528L1556 1528L1557 1443Q1557 1285 1537.5 1091.5Q1518 898 1438 853Q1358 808 1237 808Q1126 808 1030 825L983 1034Q1101 1011 1186 1011Q1269 1011 1303 1044.5Q1337 1078 1337 1337L623 1337L623 745ZM1538 252L150 252L150 442L1538 442Z"/></g><g transform="translate(6769.833333333333 2048) scale (1 -1)"><path d="M1907 1128L852 1128L852 1346L1232 1346L1232 1712L1441 1712L1441 1346L1907 1346ZM821 750Q683 668 610 631L610 72Q610 -133 428 -133L221 -133L162 88Q217 80 288 80Q355 80 378 96Q401 112 401 154L401 528Q316 488 186 434L102 645Q249 692 401 762L401 1143L141 1143L141 1356L401 1356L401 1712L610 1712L610 1356L801 1356L801 1143L610 1143L610 864Q765 946 821 979ZM1952 -63L743 -63L743 155L1368 155Q1508 531 1559 1069L1790 1001Q1723 531 1585 155L1952 155ZM1290 317L1077 244Q1036 685 907 940L1108 1026Q1260 699 1290 317Z"/></g><g transform="translate(8817.833333333332 2048) scale (1 -1)"><path d="M1913 1333L1653 1333L1653 1149L1448 1149L1448 1333L1118 1333L1118 1149L913 1149L913 1333L664 1333L664 1530L913 1530L913 1712L1118 1712L1118 1530L1448 1530L1448 1712L1653 1712L1653 1530L1913 1530ZM631 1397L453 1243Q365 1414 193 1559L350 1700Q498 1586 631 1397ZM1929 831L1260 831Q1216 738 1153 651L1776 651L1776 -135L1571 -135L1571 -33L1147 -33L1147 -135L942 -135L942 420Q899 379 791 287L668 457Q901 633 1022 831L676 831L676 1028L1118 1028Q1160 1147 1178 1270L1378 1229Q1359 1133 1331 1028L1929 1028ZM1571 164L1571 455L1147 455L1147 164ZM737 90L426 -121L319 59Q373 96 373 152L373 909L133 909L133 1118L582 1118L582 225L733 319Z"/></g><g transform="translate(10865.833333333332 2048) scale (1 -1)"><path d="M1942 903L1757 903L1757 -135L1552 -135L1552 903L1405 903L1405 596Q1405 337 1366.5 179Q1328 21 1208 -154L1028 -49Q1117 72 1158.5 184.5Q1200 297 1200 537L1200 1561Q1548 1572 1806 1716L1933 1536Q1646 1398 1405 1382L1405 1116L1942 1116ZM1161 324L129 324L129 514L303 514L303 1329L145 1329L145 1520L303 1520L303 1712L508 1712L508 1520L801 1520L801 1712L1006 1712L1006 1520L1145 1520L1145 1329L1006 1329L1006 514L1161 514ZM801 1184L801 1329L508 1329L508 1184ZM801 850L801 997L508 997L508 850ZM801 514L801 664L508 664L508 514ZM1085 104L913 -49Q820 86 668 162L834 295Q966 229 1085 104ZM606 168Q413 -47 219 -152L74 14Q248 96 440 295Z"/></g></g></g><g transform="translate(-517.5 -844)"><rect x="0" y="0" width="110" height="28" rx="10" ry="10" style="fill:#E0E0E0;stroke:#707070;stroke-width:1px;"/><g transform="translate (5 5) scale(0.005859375)" style="fill:#4F4F4F;"><g transform="translate(56.83333333333394 2048) scale (1 -1)"><path d="M1974 27L1817 -141Q1567 4 1353 245.5Q1139 487 1038 737Q861 212 246 -143L100 41Q764 378 883 1022L150 1022L150 1235L909 1235L911 1362L911 1712L1135 1712L1135 1384L1133 1235L1921 1235L1921 1022L1163 1022Q1249 742 1489.5 450Q1730 158 1974 27Z"/></g><g transform="translate(2104.833333333334 2048) scale (1 -1)"><path d="M1935 311L1407 311L1407 -139L1192 -139L1192 311L664 311L664 520L1192 520L1192 737L762 737L762 946L1192 946L1192 1151L707 1151L707 1360L1036 1360Q957 1484 813 1606L969 1739Q1114 1622 1233 1454L1096 1360L1356 1360Q1512 1552 1587 1724L1802 1651Q1732 1505 1614 1360L1923 1360L1923 1151L1407 1151L1407 946L1839 946L1839 737L1407 737L1407 520L1935 520ZM676 1425L537 1255Q400 1412 193 1516L322 1681Q557 1562 676 1425ZM600 954L461 784Q331 941 109 1044L238 1210Q500 1077 600 954ZM631 606Q549 300 322 -123L129 0Q315 310 426 696Z"/></g><g transform="translate(4152.833333333334 2048) scale (1 -1)"><path d="M1907 344L1475 344L1475 -135L1268 -135L1268 344L834 344L834 594L672 469Q620 593 553 688L553 -133L346 -133L346 559Q281 498 221 449L76 606Q372 820 512 1169L139 1169L139 1379L349 1379L349 1706L556 1706L556 1379L715 1379L715 1187Q675 982 553 801L553 758L670 864Q773 749 834 625L834 1417L1268 1417L1268 1714L1475 1714L1475 1417L1907 1417ZM1702 991L1702 1208L1475 1208L1475 991ZM1268 991L1268 1208L1038 1208L1038 991ZM1702 553L1702 782L1475 782L1475 553ZM1268 553L1268 782L1038 782L1038 553Z"/></g><g transform="translate(6769.833333333334 2048) scale (1 -1)"><path d="M1980 242Q1944 6 1888.5 -68Q1833 -142 1759 -142Q1694 -142 1611 -75.5Q1528 -9 1460 121Q1384 39 1272 -55L1128 113Q1284 228 1380 336Q1313 592 1305 954L1090 954L1090 731L1245 786L1245 573L1090 510L1090 117Q1090 -14 1037 -71.5Q984 -129 870 -129L700 -129L633 86Q741 76 816 76Q887 76 887 152L887 432L653 348L580 553Q677 583 887 657L887 954L621 954L621 1161L887 1161L887 1401Q763 1364 696 1350L606 1511L551 1298L551 -133L346 -133L346 784Q297 691 236 598L70 741Q316 1107 432 1733L641 1677L612 1540Q911 1585 1126 1722L1260 1559Q1195 1518 1090 1473L1090 1161L1303 1161L1303 1712L1505 1712L1505 1161L1919 1161L1919 954L1507 954Q1511 723 1538 549Q1623 698 1675 891L1858 815Q1783 544 1604 297Q1680 118 1732 118Q1757 118 1765.5 151Q1774 184 1792 336ZM1894 1323L1702 1239Q1662 1390 1536 1520L1702 1626Q1858 1462 1894 1323Z"/></g><g transform="translate(8817.833333333334 2048) scale (1 -1)"><path d="M1270 1298L760 1298Q678 1128 562 969Q630 935 695 889Q830 1068 888 1226L1095 1152Q924 808 724 602.5Q524 397 201 236L59 418Q339 526 536 728Q385 829 158 918L251 1107L359 1053Q464 1185 512 1298L135 1298L135 1495L601 1494L601 1712L810 1712L810 1494L1270 1495ZM1886 121Q1886 -137 1679 -137L1460 -137L1395 88Q1518 77 1575 77Q1634 77 1655.5 92.5Q1677 108 1677 156L1677 1712L1886 1712ZM1538 279L1329 279L1329 1491L1538 1491ZM1323 -33L1126 -170Q1010 24 791 188Q529 -30 209 -162L61 4Q785 296 1053 854L1245 770Q1144 545 954 342Q1167 183 1323 -33Z"/></g><g transform="translate(10865.833333333334 2048) scale (1 -1)"><path d="M1954 1454L1804 1454L1804 135Q1804 -135 1565 -135L1378 -135L1311 96Q1472 82 1516 82Q1599 82 1599 180L1599 1454L827 1454L827 1651L1954 1651ZM641 1020Q727 917 770 770.5Q813 624 813 510Q813 252 548 252Q505 252 432 264L379 428L379 -133L174 -133L174 1647L768 1647L768 1438Q723 1218 641 1020ZM379 479Q474 455 532 455Q598 455 598 522Q598 738 426 1006Q496 1161 555 1438L379 1438ZM1481 319L1274 319L1274 436L1096 436L1096 311L891 311L891 1231L1481 1231ZM1274 633L1274 1034L1096 1034L1096 633Z"/></g><g transform="translate(12913.833333333334 2048) scale (1 -1)"><path d="M1913 1333L1653 1333L1653 1149L1448 1149L1448 1333L1118 1333L1118 1149L913 1149L913 1333L664 1333L664 1530L913 1530L913 1712L1118 1712L1118 1530L1448 1530L1448 1712L1653 1712L1653 1530L1913 1530ZM631 1397L453 1243Q365 1414 193 1559L350 1700Q498 1586 631 1397ZM1929 831L1260 831Q1216 738 1153 651L1776 651L1776 -135L1571 -135L1571 -33L1147 -33L1147 -135L942 -135L942 420Q899 379 791 287L668 457Q901 633 1022 831L676 831L676 1028L1118 1028Q1160 1147 1178 1270L1378 1229Q1359 1133 1331 1028L1929 1028ZM1571 164L1571 455L1147 455L1147 164ZM737 90L426 -121L319 59Q373 96 373 152L373 909L133 909L133 1118L582 1118L582 225L733 319Z"/></g><g transform="translate(14961.833333333334 2048) scale (1 -1)"><path d="M1942 903L1757 903L1757 -135L1552 -135L1552 903L1405 903L1405 596Q1405 337 1366.5 179Q1328 21 1208 -154L1028 -49Q1117 72 1158.5 184.5Q1200 297 1200 537L1200 1561Q1548 1572 1806 1716L1933 1536Q1646 1398 1405 1382L1405 1116L1942 1116ZM1161 324L129 324L129 514L303 514L303 1329L145 1329L145 1520L303 1520L303 1712L508 1712L508 1520L801 1520L801 1712L1006 1712L1006 1520L1145 1520L1145 1329L1006 1329L1006 514L1161 514ZM801 1184L801 1329L508 1329L508 1184ZM801 850L801 997L508 997L508 850ZM801 514L801 664L508 664L508 514ZM1085 104L913 -49Q820 86 668 162L834 295Q966 229 1085 104ZM606 168Q413 -47 219 -152L74 14Q248 96 440 295Z"/></g></g></g><g transform="translate(-504.57815000000005 -761)"><rect x="0" y="0" width="98" height="28" rx="10" ry="10" style="fill:#E0E0E0;stroke:#707070;stroke-width:1px;"/><g transform="translate (5 5) scale(0.005859375)" style="fill:#4F4F4F;"><g transform="translate(56.83333333333303 2048) scale (1 -1)"><path d="M1964 981L1845 786L1700 885Q1687 480 1671 420Q1655 360 1613.5 327.5Q1572 295 1476 295Q1375 295 1282 309L1231 528Q1338 502 1421 502Q1472 502 1476.5 547.5Q1481 593 1489 821L1026 821L1026 188Q1026 133 1077 133L1593 133Q1667 133 1694 180Q1721 227 1741 387L1956 313Q1955 259 1917.5 133Q1880 7 1813.5 -34.5Q1747 -76 1632 -76L1042 -76Q817 -76 817 143L817 834Q771 797 727 768L588 944Q1058 1225 1190 1718L1395 1679L1366 1587Q1538 1203 1964 981ZM1518 1030Q1350 1184 1266 1354Q1174 1182 1034 1030ZM688 1438L551 1272Q399 1461 205 1540L324 1698Q548 1612 688 1438ZM588 977L449 807Q312 973 109 1067L238 1233Q451 1126 588 977ZM629 618Q514 264 307 -111L117 12Q342 360 438 713Z"/></g><g transform="translate(2104.833333333333 2048) scale (1 -1)"><path d="M1946 604L1753 604L1733 342L1917 342L1917 151L1720 151Q1692 -144 1457 -144Q1393 -144 1276 -125L1221 80Q1316 52 1408 52Q1510 52 1517 151L924 151L915 48L706 51L780 604L587 603L587 795L805 795L842 1136Q768 1021 679 925L532 1079Q774 1355 890 1737L1095 1686Q1082 1624 1056 1563L1919 1563L1919 1373L974 1373Q942 1302 899 1220L1796 1220L1765 795L1946 795ZM1210 1030L1043 1030L1008 795L1182 795ZM1165 604L985 604L946 342L1136 342ZM664 1432L524 1262Q389 1418 193 1516L322 1681Q545 1569 664 1432ZM600 954L461 784Q331 941 109 1044L238 1210Q500 1077 600 954ZM1581 1030L1413 1030L1385 795L1562 795ZM1550 604L1368 604L1339 342L1530 342ZM651 546Q543 207 322 -123L129 0Q347 293 446 636Z"/></g><g transform="translate(4152.833333333333 2048) scale (1 -1)"><path d="M1921 1077L1571 1077Q1451 655 1221 389Q1705 182 1886 27L1745 -143Q1555 15 1051 225Q750 -20 217 -145L100 35Q547 126 819 315Q517 429 297 481Q471 762 623 1077L145 1077L145 1290L721 1290Q830 1541 885 1741L1102 1655Q1035 1463 963 1290L1921 1290ZM1346 1077L870 1077Q730 761 625 592Q740 577 1008 475Q1230 703 1346 1077Z"/></g><g transform="translate(6200.833333333333 2048) scale (1 -1)"><path d="M1907 344L1475 344L1475 -135L1268 -135L1268 344L834 344L834 594L672 469Q620 593 553 688L553 -133L346 -133L346 559Q281 498 221 449L76 606Q372 820 512 1169L139 1169L139 1379L349 1379L349 1706L556 1706L556 1379L715 1379L715 1187Q675 982 553 801L553 758L670 864Q773 749 834 625L834 1417L1268 1417L1268 1714L1475 1714L1475 1417L1907 1417ZM1702 991L1702 1208L1475 1208L1475 991ZM1268 991L1268 1208L1038 1208L1038 991ZM1702 553L1702 782L1475 782L1475 553ZM1268 553L1268 782L1038 782L1038 553Z"/></g><g transform="translate(8817.833333333332 2048) scale (1 -1)"><path d="M1884 1532L1739 1393Q1670 1490 1518 1585L1642 1722Q1802 1650 1884 1532ZM1999 227Q1927 -139 1758 -139Q1592 -139 1457 229Q1322 597 1274 1171L129 1171L129 1380L1262 1380Q1254 1528 1254 1646L1255 1714L1460 1714Q1460 1542 1468 1380L1937 1380L1937 1171L1481 1171Q1521 663 1612.5 392.5Q1704 122 1748 122Q1787 122 1810 317ZM1010 743L819 657Q719 913 592 1034L778 1128Q936 954 1010 743ZM1112 330Q1094 105 1023 18.5Q952 -68 795 -68L690 -68Q465 -68 465 152L465 870L674 870L674 197Q674 141 729 141L786 141Q832 141 855 159.5Q878 178 894.5 261.5Q911 345 913 403ZM1393 244L1219 150Q1138 426 983 598L1163 696Q1345 462 1393 244ZM438 608Q383 336 250 129L70 227Q190 378 256 672Z"/></g><g transform="translate(10865.833333333332 2048) scale (1 -1)"><path d="M1823 926L872 926L872 1659L1823 1659ZM1618 1393L1618 1473L1077 1473L1077 1393ZM1618 1112L1618 1208L1077 1208L1077 1112ZM772 319Q490 196 170 74L88 274Q245 329 346 369L346 975L137 975L137 1186L346 1186L346 1653L555 1653L555 1186L737 1186L737 975L555 975L555 449L772 537ZM1982 127L1915 -92L1513 -92Q1169 -92 956 100Q871 -27 719 -141L563 2Q873 200 918 612L1126 575Q1102 411 1053 283Q1131 202 1249 154L1249 655L733 655L733 848L1944 848L1944 655L1454 655L1454 514L1812 514L1812 322L1454 322L1454 111L1765 111Q1884 111 1982 127Z"/></g><g transform="translate(12913.833333333332 2048) scale (1 -1)"><path d="M1942 903L1757 903L1757 -135L1552 -135L1552 903L1405 903L1405 596Q1405 337 1366.5 179Q1328 21 1208 -154L1028 -49Q1117 72 1158.5 184.5Q1200 297 1200 537L1200 1561Q1548 1572 1806 1716L1933 1536Q1646 1398 1405 1382L1405 1116L1942 1116ZM1161 324L129 324L129 514L303 514L303 1329L145 1329L145 1520L303 1520L303 1712L508 1712L508 1520L801 1520L801 1712L1006 1712L1006 1520L1145 1520L1145 1329L1006 1329L1006 514L1161 514ZM801 1184L801 1329L508 1329L508 1184ZM801 850L801 997L508 997L508 850ZM801 514L801 664L508 664L508 514ZM1085 104L913 -49Q820 86 668 162L834 295Q966 229 1085 104ZM606 168Q413 -47 219 -152L74 14Q248 96 440 295Z"/></g></g></g><g transform="translate(-448 -713)"><rect x="0" y="0" width="58" height="28" rx="10" ry="10" style="fill:#E0E0E0;stroke:#707070;stroke-width:1px;"/><g transform="translate (5 5) scale(0.005859375)" style="fill:#4F4F4F;"><g transform="translate(0 2048) scale (1 -1)"><path d="M1946 625L1450 625L1450 -133L1241 -133L1241 625L725 625L725 838L1241 838L1241 1262L1040 1262Q973 1086 846 889L657 993Q885 1340 940 1724L1143 1679Q1122 1555 1104 1475L1833 1475L1833 1262L1450 1262L1450 838L1946 838ZM651 1372L473 1219Q386 1390 213 1534L369 1675Q521 1558 651 1372ZM844 158L426 -141L319 39Q373 76 373 135L373 909L133 909L133 1118L582 1118L582 205L844 391Z"/></g><g transform="translate(2048 2048) scale (1 -1)"><path d="M1872 -133L1663 -133L1663 -16L1128 -16L1128 -133L920 -133L920 1446L1204 1446Q1285 1596 1305 1755L1534 1708Q1488 1539 1427 1446L1872 1446ZM1663 825L1663 1237L1128 1237L1128 825ZM1663 193L1663 616L1128 616L1128 193ZM862 336Q450 143 182 57L106 252Q206 282 403 356L403 813L195 813L195 1010L403 1010L403 1374L168 1374L168 1571L831 1571L831 1374L612 1374L612 1010L788 1010L788 813L612 813L612 438Q713 479 862 547Z"/></g><g transform="translate(4096 2048) scale (1 -1)"><path d="M1952 -84L115 -84L115 106L928 106L928 311L236 311L236 502L928 502L928 692L328 692L328 1659L1733 1659L1733 692L1137 692L1137 502L1843 502L1843 311L1137 311L1137 106L1952 106ZM1524 1274L1524 1468L1135 1468L1135 1274ZM926 1274L926 1468L537 1468L537 1274ZM1524 883L1524 1081L1135 1081L1135 883ZM926 883L926 1081L537 1081L537 883Z"/></g><g transform="translate(6144 2048) scale (1 -1)"><path d="M916 1587Q608 1229 213 1065L86 1233Q491 1391 751 1712ZM1982 1249L1870 1069Q1467 1206 1165 1590L1336 1697Q1554 1398 1982 1249ZM1663 995L1485 879Q1441 944 1397 997L510 909L444 1117L632 1119Q788 1272 922 1486L1130 1380Q1000 1213 851 1116L1253 1151Q1193 1205 1130 1247L1278 1370Q1471 1252 1663 995ZM1823 78Q1823 -131 1610 -131L1419 -131L1356 76Q1414 69 1503 69Q1608 69 1608 125L1608 666L1065 666L1065 858L1823 858ZM1010 70Q1010 -131 797 -131L614 -131L551 76Q609 69 691 69Q795 69 795 125L795 666L139 666L139 858L1010 858ZM1587 272Q1372 147 1114 57L1030 233Q1161 274 1296 334Q1182 449 1069 508L1200 647Q1328 592 1438 492L1325 346Q1439 399 1516 440ZM752 272Q495 132 219 35L135 211Q275 254 451 330Q361 410 215 485L346 633Q496 572 592 483L477 342Q582 388 680 440Z"/></g></g></g><g transform="translate(-567 -669)"><rect x="0" y="0" width="50" height="28" rx="10" ry="10" style="fill:#E0E0E0;stroke:#707070;stroke-width:1px;"/><g transform="translate (13 5) scale(0.005859375)" style="fill:#4F4F4F;"><g transform="translate(0 2048) scale (1 -1)"><path d="M1884 1532L1739 1393Q1670 1490 1518 1585L1642 1722Q1802 1650 1884 1532ZM1999 227Q1927 -139 1758 -139Q1592 -139 1457 229Q1322 597 1274 1171L129 1171L129 1380L1262 1380Q1254 1528 1254 1646L1255 1714L1460 1714Q1460 1542 1468 1380L1937 1380L1937 1171L1481 1171Q1521 663 1612.5 392.5Q1704 122 1748 122Q1787 122 1810 317ZM1010 743L819 657Q719 913 592 1034L778 1128Q936 954 1010 743ZM1112 330Q1094 105 1023 18.5Q952 -68 795 -68L690 -68Q465 -68 465 152L465 870L674 870L674 197Q674 141 729 141L786 141Q832 141 855 159.5Q878 178 894.5 261.5Q911 345 913 403ZM1393 244L1219 150Q1138 426 983 598L1163 696Q1345 462 1393 244ZM438 608Q383 336 250 129L70 227Q190 378 256 672Z"/></g><g transform="translate(2048 2048) scale (1 -1)"><path d="M1946 -53L123 -53L123 156L733 156L733 1421L182 1421L182 1630L1872 1630L1872 1421L1335 1421L1335 156L1946 156ZM1128 156L1128 1421L938 1421L938 156ZM1853 1165Q1774 642 1587 307L1399 408Q1609 816 1647 1231ZM684 373L465 311Q401 754 186 1141L389 1229Q598 854 684 373Z"/></g></g></g><g transform="translate(-503 -295)"><rect x="0" y="0" width="58" height="28" rx="10" ry="10" style="fill:#FF0000;stroke:#707070;stroke-width:1px;"/><g transform="translate (5 5) scale(0.005859375)" style="fill:#EEEEEE;"><g transform="translate(0 2048) scale (1 -1)"><path d="M1964 324Q1946 204 1907 94Q1868 -16 1811.5 -56Q1755 -96 1645 -96L1335 -96Q1230 -96 1179 -55.5Q1128 -15 1128 104L1128 498L930 498Q892 -71 199 -152L123 43Q444 86 573 191.5Q702 297 721 498L412 498L412 1163L926 1163L926 1323L193 1323L193 1520L926 1520L926 1710L1141 1710L1141 1520L1880 1520L1880 1323L1141 1323L1141 1163L1659 1163L1659 498L1333 498L1333 168Q1333 113 1384 113L1620 113Q1659 113 1683 132Q1707 151 1734 237.5Q1761 324 1765 397ZM1454 694L1454 967L616 967L616 694Z"/></g><g transform="translate(2048 2048) scale (1 -1)"><path d="M1847 1053L879 1053L981 1001Q955 949 932 913L1720 913L1720 715Q1551 376 1195.5 170Q840 -36 221 -143L119 74Q620 125 954 279Q837 416 670 508L831 664Q1005 560 1155 389Q1364 526 1491 717L770 717Q564 511 274 342L135 530Q540 721 756 1053L229 1053L229 1659L1847 1659ZM1642 1249L1642 1462L1376 1462L1376 1249ZM1171 1249L1171 1462L905 1462L905 1249ZM700 1249L700 1462L434 1462L434 1249Z"/></g><g transform="translate(4096 2048) scale (1 -1)"><path d="M1913 1333L1653 1333L1653 1149L1448 1149L1448 1333L1118 1333L1118 1149L913 1149L913 1333L664 1333L664 1530L913 1530L913 1712L1118 1712L1118 1530L1448 1530L1448 1712L1653 1712L1653 1530L1913 1530ZM631 1397L453 1243Q365 1414 193 1559L350 1700Q498 1586 631 1397ZM1929 831L1260 831Q1216 738 1153 651L1776 651L1776 -135L1571 -135L1571 -33L1147 -33L1147 -135L942 -135L942 420Q899 379 791 287L668 457Q901 633 1022 831L676 831L676 1028L1118 1028Q1160 1147 1178 1270L1378 1229Q1359 1133 1331 1028L1929 1028ZM1571 164L1571 455L1147 455L1147 164ZM737 90L426 -121L319 59Q373 96 373 152L373 909L133 909L133 1118L582 1118L582 225L733 319Z"/></g><g transform="translate(6144 2048) scale (1 -1)"><path d="M1942 903L1757 903L1757 -135L1552 -135L1552 903L1405 903L1405 596Q1405 337 1366.5 179Q1328 21 1208 -154L1028 -49Q1117 72 1158.5 184.5Q1200 297 1200 537L1200 1561Q1548 1572 1806 1716L1933 1536Q1646 1398 1405 1382L1405 1116L1942 1116ZM1161 324L129 324L129 514L303 514L303 1329L145 1329L145 1520L303 1520L303 1712L508 1712L508 1520L801 1520L801 1712L1006 1712L1006 1520L1145 1520L1145 1329L1006 1329L1006 514L1161 514ZM801 1184L801 1329L508 1329L508 1184ZM801 850L801 997L508 997L508 850ZM801 514L801 664L508 664L508 514ZM1085 104L913 -49Q820 86 668 162L834 295Q966 229 1085 104ZM606 168Q413 -47 219 -152L74 14Q248 96 440 295Z"/></g></g></g><g transform="translate(-508 -388)"><rect x="0" y="0" width="54.4688" height="28" rx="10" ry="10" style="fill:#E0E0E0;stroke:#707070;stroke-width:1px;"/><g transform="translate (15 5) scale(0.005859375)" style="fill:#4F4F4F;"><g transform="translate(0 2048) scale (1 -1)"><path d="M1843 1163L764 1163L764 1616L958 1616L958 1360L1206 1360L1206 1712L1401 1712L1401 1360L1649 1360L1649 1616L1843 1616ZM711 293Q328 115 158 57L82 252Q195 289 313 332L313 813L168 813L168 1010L313 1010L313 1374L143 1374L143 1571L705 1571L705 1374L518 1374L518 1010L670 1010L670 813L518 813L518 414L711 496ZM1952 856L1425 856Q1400 780 1374 717L1862 717L1862 63Q1862 -42 1816 -87.5Q1770 -133 1655 -133L1542 -133L1526 -63L1364 -63L1364 518L1253 518L1253 -63L1063 -63L1063 518L952 518L952 -133L756 -133L756 717L1155 717Q1177 770 1204 856L707 856L707 1053L1952 1053ZM1667 131L1667 518L1554 518L1554 72L1584 70Q1667 70 1667 131Z"/></g><g transform="translate(2048 2048) scale (1 -1)"><path d="M1946 -53L123 -53L123 156L733 156L733 1421L182 1421L182 1630L1872 1630L1872 1421L1335 1421L1335 156L1946 156ZM1128 156L1128 1421L938 1421L938 156ZM1853 1165Q1774 642 1587 307L1399 408Q1609 816 1647 1231ZM684 373L465 311Q401 754 186 1141L389 1229Q598 854 684 373Z"/></g></g></g><g transform="translate(-450 -558)"><rect x="0" y="0" width="46" height="28" rx="10" ry="10" style="fill:#E0E0E0;stroke:#707070;stroke-width:1px;"/><g transform="translate (5 5) scale(0.005859375)" style="fill:#4F4F4F;"><g transform="translate(0 2048) scale (1 -1)"><path d="M985 639L834 518Q744 648 657 729L657 -135L449 -135L449 618Q335 409 236 274L63 408Q285 666 434 1012L129 1012L129 1208L449 1208L449 1403Q323 1374 227 1362L133 1544Q551 1608 815 1729L932 1552Q819 1503 657 1456L657 1208L936 1208L936 1012L657 1012L657 858L725 920Q889 802 985 639ZM1952 520L1708 461L1708 -135L1499 -135L1499 410L856 250L821 455L1499 623L1499 1712L1708 1712L1708 674L1931 729ZM1440 1280L1286 1116Q1166 1280 958 1438L1110 1585Q1334 1411 1440 1280ZM1403 793L1249 629Q1152 763 907 950L1059 1098Q1256 970 1403 793Z"/></g><g transform="translate(2048 2048) scale (1 -1)"><path d="M1980 242Q1944 6 1888.5 -68Q1833 -142 1759 -142Q1694 -142 1611 -75.5Q1528 -9 1460 121Q1384 39 1272 -55L1128 113Q1284 228 1380 336Q1313 592 1305 954L1090 954L1090 731L1245 786L1245 573L1090 510L1090 117Q1090 -14 1037 -71.5Q984 -129 870 -129L700 -129L633 86Q741 76 816 76Q887 76 887 152L887 432L653 348L580 553Q677 583 887 657L887 954L621 954L621 1161L887 1161L887 1401Q763 1364 696 1350L606 1511L551 1298L551 -133L346 -133L346 784Q297 691 236 598L70 741Q316 1107 432 1733L641 1677L612 1540Q911 1585 1126 1722L1260 1559Q1195 1518 1090 1473L1090 1161L1303 1161L1303 1712L1505 1712L1505 1161L1919 1161L1919 954L1507 954Q1511 723 1538 549Q1623 698 1675 891L1858 815Q1783 544 1604 297Q1680 118 1732 118Q1757 118 1765.5 151Q1774 184 1792 336ZM1894 1323L1702 1239Q1662 1390 1536 1520L1702 1626Q1858 1462 1894 1323Z"/></g><g transform="translate(4096 2048) scale (1 -1)"><path d="M1942 903L1757 903L1757 -135L1552 -135L1552 903L1405 903L1405 596Q1405 337 1366.5 179Q1328 21 1208 -154L1028 -49Q1117 72 1158.5 184.5Q1200 297 1200 537L1200 1561Q1548 1572 1806 1716L1933 1536Q1646 1398 1405 1382L1405 1116L1942 1116ZM1161 324L129 324L129 514L303 514L303 1329L145 1329L145 1520L303 1520L303 1712L508 1712L508 1520L801 1520L801 1712L1006 1712L1006 1520L1145 1520L1145 1329L1006 1329L1006 514L1161 514ZM801 1184L801 1329L508 1329L508 1184ZM801 850L801 997L508 997L508 850ZM801 514L801 664L508 664L508 514ZM1085 104L913 -49Q820 86 668 162L834 295Q966 229 1085 104ZM606 168Q413 -47 219 -152L74 14Q248 96 440 295Z"/></g></g></g><g transform="translate(-454 -618)"><rect x="0" y="0" width="58" height="28" rx="10" ry="10" style="fill:#E0E0E0;stroke:#707070;stroke-width:1px;"/><g transform="translate (5 5) scale(0.005859375)" style="fill:#4F4F4F;"><g transform="translate(0 2048) scale (1 -1)"><path d="M1964 324Q1946 204 1907 94Q1868 -16 1811.5 -56Q1755 -96 1645 -96L1335 -96Q1230 -96 1179 -55.5Q1128 -15 1128 104L1128 498L930 498Q892 -71 199 -152L123 43Q444 86 573 191.5Q702 297 721 498L412 498L412 1163L926 1163L926 1323L193 1323L193 1520L926 1520L926 1710L1141 1710L1141 1520L1880 1520L1880 1323L1141 1323L1141 1163L1659 1163L1659 498L1333 498L1333 168Q1333 113 1384 113L1620 113Q1659 113 1683 132Q1707 151 1734 237.5Q1761 324 1765 397ZM1454 694L1454 967L616 967L616 694Z"/></g><g transform="translate(2048 2048) scale (1 -1)"><path d="M1251 459L1081 328Q1007 546 799 748L799 -133L590 -133L590 606Q457 402 254 211L82 365Q412 631 582 1012L143 1012L143 1208L590 1208L590 1450Q402 1432 219 1425L127 1628L239 1626Q762 1626 1122 1739L1237 1561Q1064 1510 799 1473L799 1208L1217 1208L1217 1012L799 1012L799 813L915 909Q1141 692 1251 459ZM1888 121Q1888 -133 1657 -133L1458 -133L1393 100Q1524 80 1608 80Q1679 80 1679 160L1679 1720L1888 1720ZM1538 307L1329 307L1329 1501L1538 1501Z"/></g><g transform="translate(4096 2048) scale (1 -1)"><path d="M1980 242Q1944 6 1888.5 -68Q1833 -142 1759 -142Q1694 -142 1611 -75.5Q1528 -9 1460 121Q1384 39 1272 -55L1128 113Q1284 228 1380 336Q1313 592 1305 954L1090 954L1090 731L1245 786L1245 573L1090 510L1090 117Q1090 -14 1037 -71.5Q984 -129 870 -129L700 -129L633 86Q741 76 816 76Q887 76 887 152L887 432L653 348L580 553Q677 583 887 657L887 954L621 954L621 1161L887 1161L887 1401Q763 1364 696 1350L606 1511L551 1298L551 -133L346 -133L346 784Q297 691 236 598L70 741Q316 1107 432 1733L641 1677L612 1540Q911 1585 1126 1722L1260 1559Q1195 1518 1090 1473L1090 1161L1303 1161L1303 1712L1505 1712L1505 1161L1919 1161L1919 954L1507 954Q1511 723 1538 549Q1623 698 1675 891L1858 815Q1783 544 1604 297Q1680 118 1732 118Q1757 118 1765.5 151Q1774 184 1792 336ZM1894 1323L1702 1239Q1662 1390 1536 1520L1702 1626Q1858 1462 1894 1323Z"/></g><g transform="translate(6144 2048) scale (1 -1)"><path d="M1942 903L1757 903L1757 -135L1552 -135L1552 903L1405 903L1405 596Q1405 337 1366.5 179Q1328 21 1208 -154L1028 -49Q1117 72 1158.5 184.5Q1200 297 1200 537L1200 1561Q1548 1572 1806 1716L1933 1536Q1646 1398 1405 1382L1405 1116L1942 1116ZM1161 324L129 324L129 514L303 514L303 1329L145 1329L145 1520L303 1520L303 1712L508 1712L508 1520L801 1520L801 1712L1006 1712L1006 1520L1145 1520L1145 1329L1006 1329L1006 514L1161 514ZM801 1184L801 1329L508 1329L508 1184ZM801 850L801 997L508 997L508 850ZM801 514L801 664L508 664L508 514ZM1085 104L913 -49Q820 86 668 162L834 295Q966 229 1085 104ZM606 168Q413 -47 219 -152L74 14Q248 96 440 295Z"/></g></g></g><g transform="translate(-483 -496)"><rect x="0" y="0" width="70" height="28" rx="10" ry="10" style="fill:#E0E0E0;stroke:#707070;stroke-width:1px;"/><g transform="translate (5 5) scale(0.005859375)" style="fill:#4F4F4F;"><g transform="translate(0 2048) scale (1 -1)"><path d="M711 1675Q685 1559 625 1384L565 1219L565 -137L356 -137L356 786Q310 703 231 584L59 733Q363 1163 496 1733ZM1954 1024L1780 1024L1780 461L1567 461L1567 598L1262 598Q1247 347 1149 190Q1051 33 768 -158L608 16Q870 171 952 291Q1034 411 1049 598L750 598L750 809L1055 809L1055 1024L643 1024L643 1233L1055 1233L1055 1446L750 1446L750 1657L1780 1657L1780 1233L1954 1233ZM1567 1233L1567 1446L1266 1446L1266 1233ZM1567 809L1567 1024L1266 1024L1266 809Z"/></g><g transform="translate(2048 2048) scale (1 -1)"><path d="M1954 1454L1804 1454L1804 135Q1804 -135 1565 -135L1378 -135L1311 96Q1472 82 1516 82Q1599 82 1599 180L1599 1454L827 1454L827 1651L1954 1651ZM641 1020Q727 917 770 770.5Q813 624 813 510Q813 252 548 252Q505 252 432 264L379 428L379 -133L174 -133L174 1647L768 1647L768 1438Q723 1218 641 1020ZM379 479Q474 455 532 455Q598 455 598 522Q598 738 426 1006Q496 1161 555 1438L379 1438ZM1481 319L1274 319L1274 436L1096 436L1096 311L891 311L891 1231L1481 1231ZM1274 633L1274 1034L1096 1034L1096 633Z"/></g><g transform="translate(4096 2048) scale (1 -1)"><path d="M1872 -133L1663 -133L1663 -16L1128 -16L1128 -133L920 -133L920 1446L1204 1446Q1285 1596 1305 1755L1534 1708Q1488 1539 1427 1446L1872 1446ZM1663 825L1663 1237L1128 1237L1128 825ZM1663 193L1663 616L1128 616L1128 193ZM862 336Q450 143 182 57L106 252Q206 282 403 356L403 813L195 813L195 1010L403 1010L403 1374L168 1374L168 1571L831 1571L831 1374L612 1374L612 1010L788 1010L788 813L612 813L612 438Q713 479 862 547Z"/></g><g transform="translate(6144 2048) scale (1 -1)"><path d="M1954 304Q1954 142 1891 19Q1828 -104 1688 -104L1417 -104Q1316 -104 1260 -45.5Q1204 13 1204 104L1204 660L852 597L842 806L1204 871L1204 1327Q1026 1289 924 1278L840 1489Q1350 1531 1745 1714L1870 1530Q1705 1457 1421 1380L1421 909L1917 1006L1927 798L1421 700L1421 164Q1421 100 1483 100L1624 100Q1745 100 1745 390L1745 399L1954 319ZM840 1143L606 1143L606 854L788 954L788 729Q680 664 606 625L606 80Q606 -137 416 -137L233 -137L164 88Q234 78 279 78Q347 78 372 92Q397 106 397 154L397 520Q318 482 193 428L100 629Q259 688 397 752L397 1143L143 1143L143 1356L397 1356L397 1712L606 1712L606 1356L840 1356Z"/></g><g transform="translate(8192 2048) scale (1 -1)"><path d="M1942 903L1757 903L1757 -135L1552 -135L1552 903L1405 903L1405 596Q1405 337 1366.5 179Q1328 21 1208 -154L1028 -49Q1117 72 1158.5 184.5Q1200 297 1200 537L1200 1561Q1548 1572 1806 1716L1933 1536Q1646 1398 1405 1382L1405 1116L1942 1116ZM1161 324L129 324L129 514L303 514L303 1329L145 1329L145 1520L303 1520L303 1712L508 1712L508 1520L801 1520L801 1712L1006 1712L1006 1520L1145 1520L1145 1329L1006 1329L1006 514L1161 514ZM801 1184L801 1329L508 1329L508 1184ZM801 850L801 997L508 997L508 850ZM801 514L801 664L508 664L508 514ZM1085 104L913 -49Q820 86 668 162L834 295Q966 229 1085 104ZM606 168Q413 -47 219 -152L74 14Q248 96 440 295Z"/></g></g></g><g transform="translate(-468 -439)"><rect x="0" y="0" width="34" height="28" rx="10" ry="10" style="fill:#E0E0E0;stroke:#707070;stroke-width:1px;"/><g transform="translate (5 5) scale(0.005859375)" style="fill:#4F4F4F;"><g transform="translate(0 2048) scale (1 -1)"><path d="M1948 1483L731 1483L731 1667L1948 1667ZM1806 891L879 891L879 1401L1806 1401ZM1602 1077L1602 1217L1083 1217L1083 1077ZM1872 -133L1667 -133L1667 -37L1020 -37L1020 -133L815 -133L815 435L670 345Q620 547 539 666L539 -133L332 -133L332 561Q273 509 217 467L59 623Q375 839 510 1168L133 1168L133 1379L336 1379L336 1706L543 1706L543 1379L733 1379L733 1195Q658 962 539 784L539 717L675 829Q762 691 815 541L815 807L1872 807ZM1667 479L1667 623L1448 623L1448 479ZM1243 479L1243 623L1020 623L1020 479ZM1667 147L1667 295L1448 295L1448 147ZM1243 147L1243 295L1020 295L1020 147Z"/></g><g transform="translate(2048 2048) scale (1 -1)"><path d="M1866 -133L1657 -133L1657 -16L1122 -16L1122 -133L913 -133L913 1446L1198 1446Q1278 1596 1298 1755L1528 1708Q1482 1539 1421 1446L1866 1446ZM1657 825L1657 1237L1122 1237L1122 825ZM1657 193L1657 616L1122 616L1122 193ZM877 635L698 543Q653 717 594 815L594 -133L389 -133L389 592Q306 397 229 289L80 432Q272 690 365 1108L143 1108L143 1317L389 1317L389 1712L594 1712L594 1317L819 1317L819 1108L594 1108L594 940L690 1004Q812 845 877 635Z"/></g></g></g><g transform="translate(-478 -247)"><rect x="0" y="0" width="46" height="28" rx="10" ry="10" style="fill:#E0E0E0;stroke:#707070;stroke-width:1px;"/><g transform="translate (5 5) scale(0.005859375)" style="fill:#4F4F4F;"><g transform="translate(0 2048) scale (1 -1)"><path d="M1884 1532L1739 1393Q1670 1490 1518 1585L1642 1722Q1802 1650 1884 1532ZM1999 227Q1927 -139 1758 -139Q1592 -139 1457 229Q1322 597 1274 1171L129 1171L129 1380L1262 1380Q1254 1528 1254 1646L1255 1714L1460 1714Q1460 1542 1468 1380L1937 1380L1937 1171L1481 1171Q1521 663 1612.5 392.5Q1704 122 1748 122Q1787 122 1810 317ZM1010 743L819 657Q719 913 592 1034L778 1128Q936 954 1010 743ZM1112 330Q1094 105 1023 18.5Q952 -68 795 -68L690 -68Q465 -68 465 152L465 870L674 870L674 197Q674 141 729 141L786 141Q832 141 855 159.5Q878 178 894.5 261.5Q911 345 913 403ZM1393 244L1219 150Q1138 426 983 598L1163 696Q1345 462 1393 244ZM438 608Q383 336 250 129L70 227Q190 378 256 672Z"/></g><g transform="translate(2048 2048) scale (1 -1)"><path d="M1903 1432L1903 1223L1120 1223Q1042 1015 932 834L750 971Q979 1280 1032 1716L1247 1671Q1218 1529 1190 1432ZM1178 770Q1068 330 905 57L741 172Q720 -1 657.5 -65.5Q595 -130 460 -130Q326 -130 236 -109L188 121Q294 80 435 80Q516 80 528 178Q541 331 545 563L370 563L363 433L147 453L197 1222L555 1222L555 1458L127 1458L127 1655L760 1655L760 1026L401 1026L383 759L758 759L759 595Q759 365 748 231Q875 459 973 848ZM1440 83Q1440 -133 1244 -133L1047 -133L979 90Q1073 75 1148 75Q1235 75 1235 145L1235 1151L1440 1151ZM1933 186L1726 57Q1665 467 1497 840L1692 918Q1875 553 1933 186Z"/></g><g transform="translate(4096 2048) scale (1 -1)"><path d="M1942 903L1757 903L1757 -135L1552 -135L1552 903L1405 903L1405 596Q1405 337 1366.5 179Q1328 21 1208 -154L1028 -49Q1117 72 1158.5 184.5Q1200 297 1200 537L1200 1561Q1548 1572 1806 1716L1933 1536Q1646 1398 1405 1382L1405 1116L1942 1116ZM1161 324L129 324L129 514L303 514L303 1329L145 1329L145 1520L303 1520L303 1712L508 1712L508 1520L801 1520L801 1712L1006 1712L1006 1520L1145 1520L1145 1329L1006 1329L1006 514L1161 514ZM801 1184L801 1329L508 1329L508 1184ZM801 850L801 997L508 997L508 850ZM801 514L801 664L508 664L508 514ZM1085 104L913 -49Q820 86 668 162L834 295Q966 229 1085 104ZM606 168Q413 -47 219 -152L74 14Q248 96 440 295Z"/></g></g></g><g transform="translate(-567 -181)"><rect x="0" y="0" width="135" height="28" rx="10" ry="10" style="fill:#E0E0E0;stroke:#707070;stroke-width:1px;"/><g transform="translate (5 5) scale(0.005859375)" style="fill:#4F4F4F;"><g transform="translate(28.16666666666606 2048) scale (1 -1)"><path d="M651 1372L473 1219Q386 1390 213 1534L369 1675Q521 1558 651 1372ZM1968 348Q1939 124 1868 14Q1797 -96 1630 -96L1116 -96Q1009 -96 950 -32.5Q891 31 891 141L891 1036L1597 1036L1597 1440L825 1440L825 1649L1806 1649L1806 731L1597 731L1597 825L1102 825L1102 203Q1102 113 1190 113L1569 113Q1639 113 1683 161Q1727 209 1749 420ZM829 111L418 -150L319 39Q381 81 381 131L381 909L133 909L133 1118L590 1118L590 211L829 362Z"/></g><g transform="translate(2076.166666666666 2048) scale (1 -1)"><path d="M928 887L748 793Q715 974 614 1159L614 -133L401 -133L401 1169Q359 932 258 723L80 823Q186 1042 231 1317L401 1251L401 1712L614 1712L614 1262L725 1335Q879 1131 928 887ZM1972 387Q1953 142 1886.5 43.5Q1820 -55 1667 -55L995 -55Q869 -55 800.5 13Q732 81 732 184Q732 245 757 310Q782 375 911.5 575.5Q1041 776 1203.5 985Q1366 1194 1544 1391L758 1391L758 1604L1849 1604L1849 1391Q1642 1190 1454.5 960.5Q1267 731 1118.5 507Q970 283 961.5 260.5Q953 238 953 222Q953 160 1016 160L1628 160Q1723 160 1746 260Q1769 360 1769 469Z"/></g><g transform="translate(4124.166666666666 2048) scale (1 -1)"><path d="M1921 1077L1571 1077Q1451 655 1221 389Q1705 182 1886 27L1745 -143Q1555 15 1051 225Q750 -20 217 -145L100 35Q547 126 819 315Q517 429 297 481Q471 762 623 1077L145 1077L145 1290L721 1290Q830 1541 885 1741L1102 1655Q1035 1463 963 1290L1921 1290ZM1346 1077L870 1077Q730 761 625 592Q740 577 1008 475Q1230 703 1346 1077Z"/></g><g transform="translate(6172.166666666666 2048) scale (1 -1)"><path d="M1907 344L1475 344L1475 -135L1268 -135L1268 344L834 344L834 594L672 469Q620 593 553 688L553 -133L346 -133L346 559Q281 498 221 449L76 606Q372 820 512 1169L139 1169L139 1379L349 1379L349 1706L556 1706L556 1379L715 1379L715 1187Q675 982 553 801L553 758L670 864Q773 749 834 625L834 1417L1268 1417L1268 1714L1475 1714L1475 1417L1907 1417ZM1702 991L1702 1208L1475 1208L1475 991ZM1268 991L1268 1208L1038 1208L1038 991ZM1702 553L1702 782L1475 782L1475 553ZM1268 553L1268 782L1038 782L1038 553Z"/></g><g transform="translate(8789.166666666666 2048) scale (1 -1)"><path d="M1919 1380L1659 1380L1659 1264L1450 1264L1450 1380L1167 1380L1167 1264L958 1264L958 1380L692 1380L692 1571L958 1571L958 1712L1167 1712L1167 1571L1450 1571L1450 1712L1659 1712L1659 1571L1919 1571ZM651 1372L473 1219Q386 1390 213 1534L369 1675Q521 1558 651 1372ZM1987 16L1884 -174Q1480 -96 1307 223Q1182 -61 721 -174L629 16Q991 100 1090 250L754 250L754 152L414 -86L307 94Q373 138 373 186L373 909L133 909L133 1118L582 1118L582 260L692 340L692 440L1165 440Q1178 496 1184 559L793 559L793 1221L1821 1221L1821 559L1397 559Q1386 485 1376 440L1923 440L1923 250L1530 250Q1704 42 1987 16ZM1612 967L1612 1036L1001 1036L1001 967ZM1612 745L1612 817L1001 817L1001 745Z"/></g><g transform="translate(11406.166666666666 2048) scale (1 -1)"><path d="M692 1384L553 1214Q374 1418 178 1511L309 1675Q531 1565 692 1384ZM1827 762L750 762L750 1661L1827 1661ZM1618 1309L1618 1470L958 1470L958 1309ZM1618 952L1618 1116L958 1116L958 952ZM629 907L489 737Q326 928 94 1040L223 1206Q486 1073 629 907ZM1954 -90L563 -90L563 100L1163 100L1163 317L696 317L696 508L1163 508L1163 713L1378 713L1378 508L1872 508L1872 317L1378 317L1378 100L1954 100ZM651 586Q510 150 297 -145L119 -14Q364 346 459 674Z"/></g><g transform="translate(14023.166666666666 2048) scale (1 -1)"><path d="M1950 86L1286 86Q1286 -28 1244.5 -79.5Q1203 -131 1087 -131L883 -131L817 33Q920 22 990 22Q1046 22 1061.5 37Q1077 52 1077 86L459 86L459 250L1077 250L1077 307L614 307L614 471L1077 471L1077 532Q906 525 763 525L592 528L532 688Q656 680 809 680Q1342 680 1688 762L1804 612Q1576 567 1286 545L1286 471L1782 471L1782 307L1286 307L1286 250L1950 250ZM1952 872L1840 728Q1704 824 1616 936L1616 771L1424 771L1424 936Q1328 808 1200 720L1072 864Q1280 976 1384 1136L1216 1136L1216 1300L1424 1300L1424 1397L920 1397L920 1300L1160 1300L1160 1136L920 1136L920 1040L1000 1120Q1088 1048 1160 968L1024 856Q976 928 920 984L920 739L728 739L728 936Q664 824 536 736L448 840L448 600Q448 360 404 204Q360 48 240 -144L64 8Q240 234 240 576L240 1579L984 1579L984 1712L1192 1712L1192 1579L1952 1579L1952 1397L1616 1397L1616 1300L1896 1300L1896 1136L1648 1136Q1782 976 1952 872ZM728 1397L448 1397L448 896Q600 992 688 1136L488 1136L488 1300L728 1300Z"/></g><g transform="translate(16640.166666666664 2048) scale (1 -1)"><path d="M1944 698L1144 698L1144 485L1772 485L1772 289L1144 289L1144 -137L921 -137L921 289L293 289L293 485L921 485L921 698L121 698L121 895L719 895Q617 1104 485 1219L627 1303L237 1303L237 1499L921 1499L921 1710L1144 1710L1144 1499L1828 1499L1828 1303L1405 1303L1571 1229Q1463 1029 1341 895L1944 895ZM1362 1303L688 1303Q839 1160 924 963L782 895L1085 895Q1259 1097 1362 1303Z"/></g><g transform="translate(19257.166666666664 2048) scale (1 -1)"><path d="M692 1384L553 1214Q374 1418 178 1511L309 1675Q531 1565 692 1384ZM1827 762L750 762L750 1661L1827 1661ZM1618 1309L1618 1470L958 1470L958 1309ZM1618 952L1618 1116L958 1116L958 952ZM629 907L489 737Q326 928 94 1040L223 1206Q486 1073 629 907ZM1954 -90L563 -90L563 100L1163 100L1163 317L696 317L696 508L1163 508L1163 713L1378 713L1378 508L1872 508L1872 317L1378 317L1378 100L1954 100ZM651 586Q510 150 297 -145L119 -14Q364 346 459 674Z"/></g></g></g></g></svg>