<?xml version="1.0" encoding="UTF-8"?>
<svg xmlns="http://www.w3.org/2000/svg" xmlns:xlink="http://www.w3.org/1999/xlink" width="523.874" height="343.919"><rect width="100%" height="100%" fill="#FFFFFF"/><g transform="scale(1.333) translate(79,110)" style="fill:none;"><g transform="translate(-47,-10)"><path d="M17,43Q17,-20 99,14" stroke="#707070" stroke-width="1"/></g><g transform="translate(52,-13)"><path d="M88,17Q88,11 140,14" stroke="#707070" stroke-width="1"/></g><g transform="translate(-47,19)"><path d="M17,14Q17,114 81,80" stroke="#707070" stroke-width="1"/></g><g transform="translate(-52,-83)"><path d="M17,28L22,102" stroke-dasharray="4, 4" stroke="#707070" stroke-width="1"/></g><g transform="translate(-44,-36)"><rect x="0" y="2" width="24" height="12" fill="#FFFFFF" stroke="#FFFFFF"/><g transform="scale(0.005859375)" style="fill:#4F4F4F;"><g transform="translate(0 2048) scale (1 -1)"><path d="M1935 301Q1904 60 1841 -26.5Q1778 -113 1726 -113L1427 -113Q1262 -84 1262 63L1262 985L1640 985L1640 1468L1219 1468L1219 1618L1796 1618L1796 766L1640 766L1640 836L1423 836L1423 78Q1423 29 1501 29L1671 29Q1740 29 1780 352ZM1176 1468L872 1468L872 1257L1139 1257L1139 -137L977 -137L977 12L358 12L358 -137L203 -137L203 1257L481 1257L481 1468L129 1468L129 1618L1176 1618ZM719 1251L719 1468L637 1468L637 1251ZM977 725L977 1102L866 1102L866 756Q876 722 977 725ZM977 453L977 588L856 588Q783 601 751 655.5Q719 710 719 750L719 1102L639 1102Q627 706 444 489L358 539L358 453ZM481 1102L356 1102L356 625Q478 798 481 1102ZM983 162L983 303L358 303L358 162Z"/></g><g transform="translate(2048 2048) scale (1 -1)"><path d="M688 1655Q665 1547 602 1379L539 1214L539 -127L383 -127L383 944Q346 864 219 731L78 819Q367 1124 545 1712ZM1858 59Q1858 4 1810.5 -53.5Q1763 -111 1651 -111L1518 -111L1464 45L1653 39Q1702 36 1702 88L1702 522L1350 522L1350 344L1438 358Q1436 365 1374 449L1513 494Q1647 339 1675 147L1526 104Q1522 153 1501 229L961 139L897 285Q1129 312 1188 322L1188 522L829 522L829 -127L674 -127L674 672L1188 672L1188 815L776 815L776 1622L1759 1622L1759 815L1350 815L1350 672L1858 672ZM1604 1294L1604 1473L1350 1473L1350 1294ZM1188 1294L1188 1473L932 1473L932 1294ZM1597 965L1597 1145L1350 1145L1350 965ZM1188 965L1188 1145L932 1145L932 965Z"/></g></g></g><g transform="translate(-52 -83)"><rect x="0" y="0" width="34" height="28" rx="10" ry="10" style="fill:#22AAE0;stroke:#707070;stroke-width:1px;"/><g transform="translate (5 5) scale(0.005859375)" style="fill:#4F4F4F;"><g transform="translate(0 2048) scale (1 -1)"><path d="M1735 -133L1526 -133L1526 2L541 2L541 -133L332 -133L332 983L929 983L929 1212L1138 1212L1138 983L1735 983ZM1526 592L1526 786L1138 786L1138 592ZM929 592L929 786L541 786L541 592ZM1526 199L1526 395L1138 395L1138 199ZM929 199L929 395L541 395L541 199ZM1876 1071L1661 1071L1661 1291L405 1291L405 1071L190 1071L190 1488L925 1488L925 1712L1141 1712L1141 1488L1876 1488Z"/></g><g transform="translate(2048 2048) scale (1 -1)"><path d="M1942 903L1757 903L1757 -135L1552 -135L1552 903L1405 903L1405 596Q1405 337 1366.5 179Q1328 21 1208 -154L1028 -49Q1117 72 1158.5 184.5Q1200 297 1200 537L1200 1561Q1548 1572 1806 1716L1933 1536Q1646 1398 1405 1382L1405 1116L1942 1116ZM1161 324L129 324L129 514L303 514L303 1329L145 1329L145 1520L303 1520L303 1712L508 1712L508 1520L801 1520L801 1712L1006 1712L1006 1520L1145 1520L1145 1329L1006 1329L1006 514L1161 514ZM801 1184L801 1329L508 1329L508 1184ZM801 850L801 997L508 997L508 850ZM801 514L801 664L508 664L508 514ZM1085 104L913 -49Q820 86 668 162L834 295Q966 229 1085 104ZM606 168Q413 -47 219 -152L74 14Q248 96 440 295Z"/></g></g></g><g transform="translate(-47 19)"><rect x="0" y="0" width="34" height="28" rx="10" ry="10" style="fill:#22AAE0;stroke:#707070;stroke-width:1px;"/><g transform="translate (5 5) scale(0.005859375)" style="fill:#4F4F4F;"><g transform="translate(0 2048) scale (1 -1)"><path d="M1901 1294Q1901 996 1880.5 584.5Q1860 173 1834.5 83.5Q1809 -6 1750.5 -54Q1692 -102 1560 -102Q1507 -102 1446 -94L1391 123Q1490 104 1559 104Q1599 104 1624 139Q1649 174 1670.5 533Q1692 892 1694 1087L1542 1087Q1542 476 1416.5 234.5Q1291 -7 1067 -156L891 4Q1038 75 1133 182L770 182L770 -131L553 -131L553 186L117 186L117 385L553 385L553 481L219 481L219 983L553 983L553 1069L350 1069L350 1348L137 1348L137 1542L350 1542L350 1710L559 1710L559 1542L764 1542L764 1712L973 1712L973 1542L1184 1542L1184 1348L973 1348L973 1069L770 1069L770 983L1104 983L1104 481L770 481L770 385L1180 385L1180 242Q1253 346 1289.5 500Q1326 654 1326 982L1325 1087L1106 1087L1106 1294L1325 1294L1325 1712L1542 1712L1542 1294ZM764 1249L764 1348L559 1348L559 1249ZM895 668L895 795L770 795L770 668ZM553 668L553 795L430 795L430 668Z"/></g><g transform="translate(2048 2048) scale (1 -1)"><path d="M1954 304Q1954 142 1891 19Q1828 -104 1688 -104L1417 -104Q1316 -104 1260 -45.5Q1204 13 1204 104L1204 660L852 597L842 806L1204 871L1204 1327Q1026 1289 924 1278L840 1489Q1350 1531 1745 1714L1870 1530Q1705 1457 1421 1380L1421 909L1917 1006L1927 798L1421 700L1421 164Q1421 100 1483 100L1624 100Q1745 100 1745 390L1745 399L1954 319ZM840 1143L606 1143L606 854L788 954L788 729Q680 664 606 625L606 80Q606 -137 416 -137L233 -137L164 88Q234 78 279 78Q347 78 372 92Q397 106 397 154L397 520Q318 482 193 428L100 629Q259 688 397 752L397 1143L143 1143L143 1356L397 1356L397 1712L606 1712L606 1356L840 1356Z"/></g></g></g><g transform="translate(52 -10)"><rect x="0" y="0" width="98" height="28" rx="10" ry="10" style="fill:#E0E0E0;stroke:#707070;stroke-width:1px;"/><g transform="translate (5 5) scale(0.005859375)" style="fill:#4F4F4F;"><g transform="translate(56.83333333333303 2048) scale (1 -1)"><path d="M1960 328Q1927 35 1854 -32.5Q1781 -100 1659 -100L1366 -100Q1147 -100 1147 117L1147 778L946 778L946 715Q946 400 781 189.5Q616 -21 244 -164L109 39Q731 206 731 686L731 778L195 778L195 987L924 987L924 1712L1139 1712L1139 987L1872 987L1872 778L1362 778L1362 174Q1362 111 1423 111L1632 111Q1682 111 1702.5 166Q1723 221 1735 410ZM1778 1464Q1649 1236 1438 1028L1262 1171Q1502 1385 1595 1591ZM801 1174L614 1034Q486 1275 281 1442L451 1583Q651 1419 801 1174Z"/></g><g transform="translate(2104.833333333333 2048) scale (1 -1)"><path d="M1855 88Q1855 -131 1636 -131L1415 -131L1354 84Q1419 76 1504 76Q1605 76 1628 90Q1651 104 1651 143L1651 483L1241 483Q1185 116 827 -152L668 -6Q859 115 956 281.5Q1053 448 1053 709L1053 1657L1855 1657ZM1651 1171L1651 1458L1260 1458L1260 1171ZM1651 680L1651 975L1260 975L1260 680ZM874 193L668 193L668 313L418 313L418 166L211 166L211 1573L874 1573ZM668 1055L668 1362L418 1362L418 1055ZM668 522L668 844L418 844L418 522Z"/></g><g transform="translate(4152.833333333333 2048) scale (1 -1)"><path d="M1974 168L1917 -55L958 -55Q688 -55 524 104Q427 -56 287 -178L106 -37Q376 185 434 502L643 432Q633 389 614 330Q1268 684 1481 1090L285 1090L285 1303L908 1303L908 1712L1131 1712L1131 1303L1755 1303L1755 1090Q1424 494 778 178Q874 152 952 152L1757 152Q1875 152 1974 168Z"/></g><g transform="translate(6200.833333333333 2048) scale (1 -1)"><path d="M1907 344L1475 344L1475 -135L1268 -135L1268 344L834 344L834 594L672 469Q620 593 553 688L553 -133L346 -133L346 559Q281 498 221 449L76 606Q372 820 512 1169L139 1169L139 1379L349 1379L349 1706L556 1706L556 1379L715 1379L715 1187Q675 982 553 801L553 758L670 864Q773 749 834 625L834 1417L1268 1417L1268 1714L1475 1714L1475 1417L1907 1417ZM1702 991L1702 1208L1475 1208L1475 991ZM1268 991L1268 1208L1038 1208L1038 991ZM1702 553L1702 782L1475 782L1475 553ZM1268 553L1268 782L1038 782L1038 553Z"/></g><g transform="translate(8817.833333333332 2048) scale (1 -1)"><path d="M1954 1454L1804 1454L1804 135Q1804 -135 1565 -135L1378 -135L1311 96Q1472 82 1516 82Q1599 82 1599 180L1599 1454L827 1454L827 1651L1954 1651ZM641 1020Q727 917 770 770.5Q813 624 813 510Q813 252 548 252Q505 252 432 264L379 428L379 -133L174 -133L174 1647L768 1647L768 1438Q723 1218 641 1020ZM379 479Q474 455 532 455Q598 455 598 522Q598 738 426 1006Q496 1161 555 1438L379 1438ZM1481 319L1274 319L1274 436L1096 436L1096 311L891 311L891 1231L1481 1231ZM1274 633L1274 1034L1096 1034L1096 633Z"/></g><g transform="translate(10865.833333333332 2048) scale (1 -1)"><path d="M1970 33L1862 -164Q1588 -79 1370 113Q1196 -43 961 -152L829 27Q1062 125 1227 258Q1047 474 995 723L915 723L915 668Q915 369 850.5 181Q786 -7 639 -162L451 -39Q598 114 652.5 255.5Q707 397 707 666L707 1452L1184 1452L1184 1710L1393 1710L1393 1452L1896 1452Q1850 1157 1800 1014L1579 1040Q1603 1101 1638 1243L1393 1243L1393 932L1743 932L1743 917Q1743 548 1509 258Q1711 100 1970 33ZM1184 932L1184 1243L915 1243L915 932ZM1524 723L1212 723Q1239 545 1366 395Q1491 548 1524 723ZM635 1432L496 1262Q360 1418 164 1516L293 1681Q516 1569 635 1432ZM571 954L432 784Q302 941 80 1044L209 1210Q472 1077 571 954ZM602 606Q520 300 293 -123L100 0Q286 310 397 696Z"/></g><g transform="translate(12913.833333333332 2048) scale (1 -1)"><path d="M1847 1053L879 1053L981 1001Q955 949 932 913L1720 913L1720 715Q1551 376 1195.5 170Q840 -36 221 -143L119 74Q620 125 954 279Q837 416 670 508L831 664Q1005 560 1155 389Q1364 526 1491 717L770 717Q564 511 274 342L135 530Q540 721 756 1053L229 1053L229 1659L1847 1659ZM1642 1249L1642 1462L1376 1462L1376 1249ZM1171 1249L1171 1462L905 1462L905 1249ZM700 1249L700 1462L434 1462L434 1249Z"/></g></g></g><g transform="translate(192 -13)"><rect x="0" y="0" width="94" height="28" rx="10" ry="10" style="fill:#E0E0E0;stroke:#707070;stroke-width:1px;"/><g transform="translate (5 5) scale(0.005859375)" style="fill:#4F4F4F;"><g transform="translate(0 2048) scale (1 -1)"><path d="M1954 1454L1804 1454L1804 135Q1804 -135 1565 -135L1378 -135L1311 96Q1472 82 1516 82Q1599 82 1599 180L1599 1454L827 1454L827 1651L1954 1651ZM641 1020Q727 917 770 770.5Q813 624 813 510Q813 252 548 252Q505 252 432 264L379 428L379 -133L174 -133L174 1647L768 1647L768 1438Q723 1218 641 1020ZM379 479Q474 455 532 455Q598 455 598 522Q598 738 426 1006Q496 1161 555 1438L379 1438ZM1481 319L1274 319L1274 436L1096 436L1096 311L891 311L891 1231L1481 1231ZM1274 633L1274 1034L1096 1034L1096 633Z"/></g><g transform="translate(2048 2048) scale (1 -1)"><path d="M1942 903L1757 903L1757 -135L1552 -135L1552 903L1405 903L1405 596Q1405 337 1366.5 179Q1328 21 1208 -154L1028 -49Q1117 72 1158.5 184.5Q1200 297 1200 537L1200 1561Q1548 1572 1806 1716L1933 1536Q1646 1398 1405 1382L1405 1116L1942 1116ZM1161 324L129 324L129 514L303 514L303 1329L145 1329L145 1520L303 1520L303 1712L508 1712L508 1520L801 1520L801 1712L1006 1712L1006 1520L1145 1520L1145 1329L1006 1329L1006 514L1161 514ZM801 1184L801 1329L508 1329L508 1184ZM801 850L801 997L508 997L508 850ZM801 514L801 664L508 664L508 514ZM1085 104L913 -49Q820 86 668 162L834 295Q966 229 1085 104ZM606 168Q413 -47 219 -152L74 14Q248 96 440 295Z"/></g><g transform="translate(4096 2048) scale (1 -1)"><path d="M1964 324Q1946 204 1907 94Q1868 -16 1811.5 -56Q1755 -96 1645 -96L1335 -96Q1230 -96 1179 -55.5Q1128 -15 1128 104L1128 498L930 498Q892 -71 199 -152L123 43Q444 86 573 191.5Q702 297 721 498L412 498L412 1163L926 1163L926 1323L193 1323L193 1520L926 1520L926 1710L1141 1710L1141 1520L1880 1520L1880 1323L1141 1323L1141 1163L1659 1163L1659 498L1333 498L1333 168Q1333 113 1384 113L1620 113Q1659 113 1683 132Q1707 151 1734 237.5Q1761 324 1765 397ZM1454 694L1454 967L616 967L616 694Z"/></g><g transform="translate(6144 2048) scale (1 -1)"><path d="M1901 1294Q1901 996 1880.5 584.5Q1860 173 1834.5 83.5Q1809 -6 1750.5 -54Q1692 -102 1560 -102Q1507 -102 1446 -94L1391 123Q1490 104 1559 104Q1599 104 1624 139Q1649 174 1670.5 533Q1692 892 1694 1087L1542 1087Q1542 476 1416.5 234.5Q1291 -7 1067 -156L891 4Q1038 75 1133 182L770 182L770 -131L553 -131L553 186L117 186L117 385L553 385L553 481L219 481L219 983L553 983L553 1069L350 1069L350 1348L137 1348L137 1542L350 1542L350 1710L559 1710L559 1542L764 1542L764 1712L973 1712L973 1542L1184 1542L1184 1348L973 1348L973 1069L770 1069L770 983L1104 983L1104 481L770 481L770 385L1180 385L1180 242Q1253 346 1289.5 500Q1326 654 1326 982L1325 1087L1106 1087L1106 1294L1325 1294L1325 1712L1542 1712L1542 1294ZM764 1249L764 1348L559 1348L559 1249ZM895 668L895 795L770 795L770 668ZM553 668L553 795L430 795L430 668Z"/></g><g transform="translate(8192 2048) scale (1 -1)"><path d="M2011 313Q2004 150 1947 26Q1890 -98 1724 -98L1485 -98Q1260 -98 1260 113L1260 1257L1468 1257L1468 770Q1670 871 1776 985L1927 825Q1717 650 1468 543L1468 152Q1468 96 1520 96L1670 96Q1748 96 1782 193Q1800 274 1808 356ZM1198 81L535 -97L448 78L684 139L684 1257L893 1257L893 852L1194 852L1194 662L893 662L893 196L1198 274ZM1891 1329L513 1329L513 760Q513 220 285 -139L90 -8Q308 248 308 758L308 1522L995 1522L995 1712L1204 1712L1204 1522L1891 1522Z"/></g><g transform="translate(10240 2048) scale (1 -1)"><path d="M1980 242Q1944 6 1888.5 -68Q1833 -142 1759 -142Q1694 -142 1611 -75.5Q1528 -9 1460 121Q1384 39 1272 -55L1128 113Q1284 228 1380 336Q1313 592 1305 954L1090 954L1090 731L1245 786L1245 573L1090 510L1090 117Q1090 -14 1037 -71.5Q984 -129 870 -129L700 -129L633 86Q741 76 816 76Q887 76 887 152L887 432L653 348L580 553Q677 583 887 657L887 954L621 954L621 1161L887 1161L887 1401Q763 1364 696 1350L606 1511L551 1298L551 -133L346 -133L346 784Q297 691 236 598L70 741Q316 1107 432 1733L641 1677L612 1540Q911 1585 1126 1722L1260 1559Q1195 1518 1090 1473L1090 1161L1303 1161L1303 1712L1505 1712L1505 1161L1919 1161L1919 954L1507 954Q1511 723 1538 549Q1623 698 1675 891L1858 815Q1783 544 1604 297Q1680 118 1732 118Q1757 118 1765.5 151Q1774 184 1792 336ZM1894 1323L1702 1239Q1662 1390 1536 1520L1702 1626Q1858 1462 1894 1323Z"/></g><g transform="translate(12288 2048) scale (1 -1)"><path d="M1942 903L1757 903L1757 -135L1552 -135L1552 903L1405 903L1405 596Q1405 337 1366.5 179Q1328 21 1208 -154L1028 -49Q1117 72 1158.5 184.5Q1200 297 1200 537L1200 1561Q1548 1572 1806 1716L1933 1536Q1646 1398 1405 1382L1405 1116L1942 1116ZM1161 324L129 324L129 514L303 514L303 1329L145 1329L145 1520L303 1520L303 1712L508 1712L508 1520L801 1520L801 1712L1006 1712L1006 1520L1145 1520L1145 1329L1006 1329L1006 514L1161 514ZM801 1184L801 1329L508 1329L508 1184ZM801 850L801 997L508 997L508 850ZM801 514L801 664L508 664L508 514ZM1085 104L913 -49Q820 86 668 162L834 295Q966 229 1085 104ZM606 168Q413 -47 219 -152L74 14Q248 96 440 295Z"/></g></g></g><g transform="translate(34 78)"><rect x="0" y="0" width="146" height="42" rx="10" ry="10" style="fill:#E0E0E0;stroke:#707070;stroke-width:1px;"/><g transform="translate (5 5) scale(0.005859375)" style="fill:#4F4F4F;"><g transform="translate(56.83333333333394 2048) scale (1 -1)"><path d="M1593 88Q1593 -131 1378 -131L1145 -131L1083 78Q1157 70 1235 70Q1333 70 1354.5 81.5Q1376 93 1376 131L1376 475L668 475Q647 298 535 122Q423 -54 279 -143L106 0Q293 157 379 333.5Q465 510 465 745L465 1657L1593 1657ZM1376 1167L1376 1458L682 1458L682 1167ZM1376 672L1376 971L682 971L682 672Z"/></g><g transform="translate(2104.833333333334 2048) scale (1 -1)"><path d="M1821 1364L236 1364L236 1548L917 1548L917 1712L1140 1712L1140 1548L1821 1548ZM1591 827L467 827L467 1290L1591 1290ZM1386 1011L1386 1106L672 1106L672 1011ZM1837 378L1632 378L1632 571L426 571L426 378L221 378L221 755L1837 755ZM1939 225Q1923 50 1856.5 -24Q1790 -98 1649 -98L1343 -98Q1237 -98 1178.5 -52Q1120 -6 1120 123L1120 497L1327 497L1327 147Q1327 92 1382 92L1604 92Q1656 92 1690 123.5Q1724 155 1733 299ZM905 497Q895 223 737 68.5Q579 -86 184 -152L98 43Q408 70 551 180Q694 290 694 497Z"/></g><g transform="translate(4152.833333333334 2048) scale (1 -1)"><path d="M1898 1272L628 1272L575 1019L1673 1019Q1665 769 1645 581L1897 581L1897 378L1634 378Q1624 240 1592 80Q1529 -123 1343 -123Q1173 -123 997 -80L942 160Q1182 98 1268 98Q1390 98 1399 188L1422 378L126 378L126 581L1434 581L1447 819L532 819L505 679L283 699L489 1739L710 1708L669 1475L1898 1475Z"/></g><g transform="translate(6200.833333333334 2048) scale (1 -1)"><path d="M1903 1073L1694 1073L1694 1269L977 1269L977 1073L768 1073L768 1478L1228 1478L1228 1712L1443 1712L1443 1478L1903 1478ZM762 1632Q700 1438 573 1262Q718 916 718 510Q718 133 654 0Q590 -133 395 -133Q320 -133 260 -123L215 104Q332 77 390 77Q463 77 479.5 147.5Q496 218 496 475L494 604Q366 429 215 311L84 492Q318 663 465 897Q443 1015 420 1083Q317 987 203 920L72 1096Q204 1173 311 1290Q211 1444 104 1528L248 1688Q366 1590 449 1481Q506 1582 547 1718ZM1937 725L1655 725L1655 131Q1655 -133 1399 -133L1214 -133L1147 98Q1308 84 1368 84Q1446 84 1446 182L1446 725L750 725L750 934L1446 934L1446 1165L1655 1165L1655 934L1937 934ZM1327 315L1128 201Q1034 381 881 553L1073 670Q1217 535 1327 315Z"/></g><g transform="translate(8248.833333333334 2048) scale (1 -1)"><path d="M778 1628Q715 1432 592 1260Q737 913 737 482Q737 87 665.5 -25Q594 -137 412 -137Q337 -137 276 -127L231 100Q349 73 407 73Q490 73 508.5 146Q527 219 527 480L524 594Q400 440 231 307L100 487Q351 672 492 883Q468 1002 438 1081Q337 983 219 915L88 1087Q225 1168 334 1286Q237 1443 129 1528L264 1683Q386 1583 471 1470Q538 1586 575 1714ZM1935 870L772 870L772 1061L1028 1061L1028 1296L842 1296L842 1487L1028 1487L1028 1712L1237 1712L1237 1487L1483 1487L1483 1712L1692 1712L1692 1487L1886 1487L1886 1296L1692 1296L1692 1061L1935 1061ZM1483 1061L1483 1296L1237 1296L1237 1061ZM1821 -133L1612 -133L1612 -37L1079 -37L1079 -133L870 -133L870 762L1821 762ZM1612 459L1612 571L1079 571L1079 459ZM1612 154L1612 268L1079 268L1079 154Z"/></g><g transform="translate(10296.833333333334 2048) scale (1 -1)"><path d="M1921 1077L1571 1077Q1451 655 1221 389Q1705 182 1886 27L1745 -143Q1555 15 1051 225Q750 -20 217 -145L100 35Q547 126 819 315Q517 429 297 481Q471 762 623 1077L145 1077L145 1290L721 1290Q830 1541 885 1741L1102 1655Q1035 1463 963 1290L1921 1290ZM1346 1077L870 1077Q730 761 625 592Q740 577 1008 475Q1230 703 1346 1077Z"/></g><g transform="translate(12344.833333333334 2048) scale (1 -1)"><path d="M1907 344L1475 344L1475 -135L1268 -135L1268 344L834 344L834 594L672 469Q620 593 553 688L553 -133L346 -133L346 559Q281 498 221 449L76 606Q372 820 512 1169L139 1169L139 1379L349 1379L349 1706L556 1706L556 1379L715 1379L715 1187Q675 982 553 801L553 758L670 864Q773 749 834 625L834 1417L1268 1417L1268 1714L1475 1714L1475 1417L1907 1417ZM1702 991L1702 1208L1475 1208L1475 991ZM1268 991L1268 1208L1038 1208L1038 991ZM1702 553L1702 782L1475 782L1475 553ZM1268 553L1268 782L1038 782L1038 553Z"/></g><g transform="translate(14961.833333333334 2048) scale (1 -1)"><path d="M1954 1454L1804 1454L1804 135Q1804 -135 1565 -135L1378 -135L1311 96Q1472 82 1516 82Q1599 82 1599 180L1599 1454L827 1454L827 1651L1954 1651ZM641 1020Q727 917 770 770.5Q813 624 813 510Q813 252 548 252Q505 252 432 264L379 428L379 -133L174 -133L174 1647L768 1647L768 1438Q723 1218 641 1020ZM379 479Q474 455 532 455Q598 455 598 522Q598 738 426 1006Q496 1161 555 1438L379 1438ZM1481 319L1274 319L1274 436L1096 436L1096 311L891 311L891 1231L1481 1231ZM1274 633L1274 1034L1096 1034L1096 633Z"/></g><g transform="translate(17009.833333333336 2048) scale (1 -1)"><path d="M1927 334L1561 297L1561 -133L1346 -133L1346 274L178 154L104 344L494 383L494 1460L188 1460L188 1657L1868 1657L1868 1460L1561 1460L1561 494L1927 530ZM1346 1264L1346 1460L709 1460L709 1264ZM1346 870L1346 1067L709 1067L709 870ZM1346 471L1346 674L709 674L709 406Z"/></g><g transform="translate(19057.833333333336 2048) scale (1 -1)"><path d="M1884 1532L1739 1393Q1670 1490 1518 1585L1642 1722Q1802 1650 1884 1532ZM1999 227Q1927 -139 1758 -139Q1592 -139 1457 229Q1322 597 1274 1171L129 1171L129 1380L1262 1380Q1254 1528 1254 1646L1255 1714L1460 1714Q1460 1542 1468 1380L1937 1380L1937 1171L1481 1171Q1521 663 1612.5 392.5Q1704 122 1748 122Q1787 122 1810 317ZM1010 743L819 657Q719 913 592 1034L778 1128Q936 954 1010 743ZM1112 330Q1094 105 1023 18.5Q952 -68 795 -68L690 -68Q465 -68 465 152L465 870L674 870L674 197Q674 141 729 141L786 141Q832 141 855 159.5Q878 178 894.5 261.5Q911 345 913 403ZM1393 244L1219 150Q1138 426 983 598L1163 696Q1345 462 1393 244ZM438 608Q383 336 250 129L70 227Q190 378 256 672Z"/></g><g transform="translate(21105.833333333336 2048) scale (1 -1)"><path d="M1903 1432L1903 1223L1120 1223Q1042 1015 932 834L750 971Q979 1280 1032 1716L1247 1671Q1218 1529 1190 1432ZM1178 770Q1068 330 905 57L741 172Q720 -1 657.5 -65.5Q595 -130 460 -130Q326 -130 236 -109L188 121Q294 80 435 80Q516 80 528 178Q541 331 545 563L370 563L363 433L147 453L197 1222L555 1222L555 1458L127 1458L127 1655L760 1655L760 1026L401 1026L383 759L758 759L759 595Q759 365 748 231Q875 459 973 848ZM1440 83Q1440 -133 1244 -133L1047 -133L979 90Q1073 75 1148 75Q1235 75 1235 145L1235 1151L1440 1151ZM1933 186L1726 57Q1665 467 1497 840L1692 918Q1875 553 1933 186Z"/></g><g transform="translate(10581.333333333334 4778.666666666666) scale (1 -1)"><path d="M1942 903L1757 903L1757 -135L1552 -135L1552 903L1405 903L1405 596Q1405 337 1366.5 179Q1328 21 1208 -154L1028 -49Q1117 72 1158.5 184.5Q1200 297 1200 537L1200 1561Q1548 1572 1806 1716L1933 1536Q1646 1398 1405 1382L1405 1116L1942 1116ZM1161 324L129 324L129 514L303 514L303 1329L145 1329L145 1520L303 1520L303 1712L508 1712L508 1520L801 1520L801 1712L1006 1712L1006 1520L1145 1520L1145 1329L1006 1329L1006 514L1161 514ZM801 1184L801 1329L508 1329L508 1184ZM801 850L801 997L508 997L508 850ZM801 514L801 664L508 664L508 514ZM1085 104L913 -49Q820 86 668 162L834 295Q966 229 1085 104ZM606 168Q413 -47 219 -152L74 14Q248 96 440 295Z"/></g></g></g></g></svg>