<?xml version="1.0" encoding="UTF-8"?>
<svg xmlns="http://www.w3.org/2000/svg" xmlns:xlink="http://www.w3.org/1999/xlink" width="359.91499999999996" height="246.60999999999999"><rect width="100%" height="100%" fill="#FFFFFF"/><g transform="scale(1.333) translate(79,110)" style="fill:none;"><g transform="translate(-47,-4)"><path d="M36,37Q36,-9 164,14" stroke="#707070" stroke-width="1"/></g><g transform="translate(-52,-83)"><path d="M17,28L28,102" stroke-dasharray="4, 4" stroke="#707070" stroke-width="1"/></g><g transform="translate(-41,-36)"><rect x="0" y="2" width="24" height="12" fill="#FFFFFF" stroke="#FFFFFF"/><g transform="scale(0.005859375)" style="fill:#4F4F4F;"><g transform="translate(0 2048) scale (1 -1)"><path d="M1935 301Q1904 60 1841 -26.5Q1778 -113 1726 -113L1427 -113Q1262 -84 1262 63L1262 985L1640 985L1640 1468L1219 1468L1219 1618L1796 1618L1796 766L1640 766L1640 836L1423 836L1423 78Q1423 29 1501 29L1671 29Q1740 29 1780 352ZM1176 1468L872 1468L872 1257L1139 1257L1139 -137L977 -137L977 12L358 12L358 -137L203 -137L203 1257L481 1257L481 1468L129 1468L129 1618L1176 1618ZM719 1251L719 1468L637 1468L637 1251ZM977 725L977 1102L866 1102L866 756Q876 722 977 725ZM977 453L977 588L856 588Q783 601 751 655.5Q719 710 719 750L719 1102L639 1102Q627 706 444 489L358 539L358 453ZM481 1102L356 1102L356 625Q478 798 481 1102ZM983 162L983 303L358 303L358 162Z"/></g><g transform="translate(2048 2048) scale (1 -1)"><path d="M688 1655Q665 1547 602 1379L539 1214L539 -127L383 -127L383 944Q346 864 219 731L78 819Q367 1124 545 1712ZM1858 59Q1858 4 1810.5 -53.5Q1763 -111 1651 -111L1518 -111L1464 45L1653 39Q1702 36 1702 88L1702 522L1350 522L1350 344L1438 358Q1436 365 1374 449L1513 494Q1647 339 1675 147L1526 104Q1522 153 1501 229L961 139L897 285Q1129 312 1188 322L1188 522L829 522L829 -127L674 -127L674 672L1188 672L1188 815L776 815L776 1622L1759 1622L1759 815L1350 815L1350 672L1858 672ZM1604 1294L1604 1473L1350 1473L1350 1294ZM1188 1294L1188 1473L932 1473L932 1294ZM1597 965L1597 1145L1350 1145L1350 965ZM1188 965L1188 1145L932 1145L932 965Z"/></g></g></g><g transform="translate(-52 -83)"><rect x="0" y="0" width="34" height="28" rx="10" ry="10" style="fill:#22AAE0;stroke:#707070;stroke-width:1px;"/><g transform="translate (5 5) scale(0.005859375)" style="fill:#4F4F4F;"><g transform="translate(0 2048) scale (1 -1)"><path d="M1735 -133L1526 -133L1526 2L541 2L541 -133L332 -133L332 983L929 983L929 1212L1138 1212L1138 983L1735 983ZM1526 592L1526 786L1138 786L1138 592ZM929 592L929 786L541 786L541 592ZM1526 199L1526 395L1138 395L1138 199ZM929 199L929 395L541 395L541 199ZM1876 1071L1661 1071L1661 1291L405 1291L405 1071L190 1071L190 1488L925 1488L925 1712L1141 1712L1141 1488L1876 1488Z"/></g><g transform="translate(2048 2048) scale (1 -1)"><path d="M1942 903L1757 903L1757 -135L1552 -135L1552 903L1405 903L1405 596Q1405 337 1366.5 179Q1328 21 1208 -154L1028 -49Q1117 72 1158.5 184.5Q1200 297 1200 537L1200 1561Q1548 1572 1806 1716L1933 1536Q1646 1398 1405 1382L1405 1116L1942 1116ZM1161 324L129 324L129 514L303 514L303 1329L145 1329L145 1520L303 1520L303 1712L508 1712L508 1520L801 1520L801 1712L1006 1712L1006 1520L1145 1520L1145 1329L1006 1329L1006 514L1161 514ZM801 1184L801 1329L508 1329L508 1184ZM801 850L801 997L508 997L508 850ZM801 514L801 664L508 664L508 514ZM1085 104L913 -49Q820 86 668 162L834 295Q966 229 1085 104ZM606 168Q413 -47 219 -152L74 14Q248 96 440 295Z"/></g></g></g><g transform="translate(-47 19)"><rect x="0" y="0" width="46" height="28" rx="10" ry="10" style="fill:#22AAE0;stroke:#707070;stroke-width:1px;"/><g transform="translate (5 5) scale(0.005859375)" style="fill:#4F4F4F;"><g transform="translate(0 2048) scale (1 -1)"><path d="M1950 -84L127 -84L127 84L915 84L915 190L293 190L293 356L915 356L915 449L780 389Q723 511 645 592L811 664L451 664L569 541Q448 454 242 377L119 547Q312 598 399 664L145 664L145 825L928 825L928 891L264 891L264 1041L928 1041L928 1107L330 1107L330 1655L1733 1655L1733 1107L1137 1107L1137 1041L1808 1041L1808 891L1137 891L1137 825L1919 825L1919 664L1765 664Q1859 587 1944 477L1743 381Q1642 518 1530 598L1636 664L1284 664Q1364 586 1427 477L1233 397Q1187 495 1092 594L1266 664L840 664Q919 583 979 477L934 457L1147 457L1147 356L1778 356L1778 190L1147 190L1147 84L1950 84ZM1522 1519L1137 1519L1137 1447L1522 1447ZM928 1447L928 1519L541 1519L541 1447ZM1522 1315L1137 1315L1137 1243L1522 1243ZM928 1243L928 1315L541 1315L541 1243Z"/></g><g transform="translate(2048 2048) scale (1 -1)"><path d="M1978 127L1911 -92L1509 -92Q1176 -92 965 90Q883 -35 739 -141L584 2Q875 190 924 612L1133 575Q1103 391 1059 272Q1136 199 1245 154L1245 655L750 655L750 731L571 631L571 80Q571 -139 381 -139L215 -139L145 86Q215 78 285 78Q362 78 362 154L362 526L180 444L86 647Q195 687 362 766L362 1143L137 1143L137 1356L362 1356L362 1712L571 1712L571 1356L772 1356L772 1143L571 1143L571 866Q699 930 782 979L782 848L1939 848L1939 655L1450 655L1450 514L1808 514L1808 322L1450 322L1450 111L1761 111Q1879 111 1978 127ZM1819 926L850 926L850 1659L1819 1659ZM1614 1393L1614 1473L1055 1473L1055 1393ZM1614 1112L1614 1208L1055 1208L1055 1112Z"/></g><g transform="translate(4096 2048) scale (1 -1)"><path d="M1942 903L1757 903L1757 -135L1552 -135L1552 903L1405 903L1405 596Q1405 337 1366.5 179Q1328 21 1208 -154L1028 -49Q1117 72 1158.5 184.5Q1200 297 1200 537L1200 1561Q1548 1572 1806 1716L1933 1536Q1646 1398 1405 1382L1405 1116L1942 1116ZM1161 324L129 324L129 514L303 514L303 1329L145 1329L145 1520L303 1520L303 1712L508 1712L508 1520L801 1520L801 1712L1006 1712L1006 1520L1145 1520L1145 1329L1006 1329L1006 514L1161 514ZM801 1184L801 1329L508 1329L508 1184ZM801 850L801 997L508 997L508 850ZM801 514L801 664L508 664L508 514ZM1085 104L913 -49Q820 86 668 162L834 295Q966 229 1085 104ZM606 168Q413 -47 219 -152L74 14Q248 96 440 295Z"/></g></g></g><g transform="translate(117 -4)"><rect x="0" y="0" width="46" height="28" rx="10" ry="10" style="fill:#E0E0E0;stroke:#707070;stroke-width:1px;"/><g transform="translate (5 5) scale(0.005859375)" style="fill:#4F4F4F;"><g transform="translate(0 2048) scale (1 -1)"><path d="M456 1424L456 1048L600 1048L600 1424ZM1952 -32L1224 -32L1224 -133L1016 -133L1016 1040L966 982L966 840L808 840L808 164Q808 -132 568 -132L424 -132L352 92Q448 76 512 76Q600 76 600 172L600 640Q480 236 216 -52L48 84Q352 404 456 840L128 840L128 1048L256 1048L256 1424L176 1424L176 1632L936 1632L936 1424L808 1424L808 1048L888 1048L848 1168Q1064 1392 1128 1720L1336 1680Q1288 1486 1216 1358L1416 1358Q1512 1534 1552 1720L1744 1664Q1696 1486 1632 1358L1920 1358L1920 1162L1640 1162L1640 964L1880 964L1880 768L1640 768L1640 566L1896 566L1896 370L1640 370L1640 164L1952 164ZM1432 964L1432 1162L1224 1162L1224 964ZM1432 566L1432 768L1224 768L1224 566ZM1432 164L1432 370L1224 370L1224 164Z"/></g><g transform="translate(2048 2048) scale (1 -1)"><path d="M1937 369L125 369L125 565L299 565L299 1475L719 1475L719 1712L924 1712L924 1475L1139 1475L1139 1712L1343 1712L1343 1475L1765 1475L1765 565L1937 565ZM1561 1024L1561 1278L1343 1278L1343 1024ZM1139 1024L1139 1278L924 1278L924 1024ZM719 1024L719 1278L504 1278L504 1024ZM1561 565L1561 827L1343 827L1343 565ZM1139 565L1139 827L924 827L924 565ZM719 565L719 827L504 827L504 565ZM885 215Q618 -24 217 -168L57 23Q426 110 705 342ZM1974 27L1825 -168Q1571 33 1161 129L1278 322Q1575 270 1974 27Z"/></g><g transform="translate(4096 2048) scale (1 -1)"><path d="M719 266L596 92L494 207Q402 46 221 -133L84 29Q263 185 346 342Q248 423 127 496Q210 877 240 1118L115 1118L115 1323L262 1323Q280 1541 283 1716L487 1690Q482 1521 465 1323L702 1323Q692 706 584 408Q645 352 719 266ZM510 1118L442 1118Q410 862 350 584L426 532Q500 762 510 1118ZM1810 1014Q1878 897 1917.5 733Q1957 569 1957 449Q1957 181 1718 181Q1682 181 1638 186L1587 379L1587 -133L1403 -133L1403 1665L1923 1665L1923 1456Q1897 1333 1810 1014ZM1587 399Q1643 390 1675 390Q1771 390 1771 499Q1771 575 1729.5 727Q1688 879 1616 985Q1663 1155 1726 1460L1587 1460ZM1333 1665L1329 612L1331 281Q1331 40 1263 -31.5Q1195 -103 1064 -103Q1016 -103 981 -94L926 123Q1001 109 1047 109Q1121 109 1127.5 169Q1134 229 1139 596L1034 596Q1021 162 731 -152L582 -25Q837 238 848 596L727 596L727 795L848 795L848 1040L739 1040L739 1239L848 1239L848 1466L678 1466L678 1665ZM1139 1239L1137 1466L1034 1466L1034 1239ZM1141 795L1141 1040L1034 1040L1034 795Z"/></g></g></g></g></svg>