<?xml version="1.0" encoding="UTF-8"?>
<svg xmlns="http://www.w3.org/2000/svg" xmlns:xlink="http://www.w3.org/1999/xlink" width="781.8095000000001" height="1173.0449999999998"><rect width="100%" height="100%" fill="#FFFFFF"/><g transform="scale(1.333) translate(1278.5,1057)" style="fill:none;"><g transform="translate(-1251.5,-1030)"><path d="M59,220Q59,-20 251,14" stroke="#707070" stroke-width="1"/></g><g transform="translate(-1251.5,-859)"><path d="M59,49Q59,-12 252,14" stroke="#707070" stroke-width="1"/></g><g transform="translate(-1251.5,-824)"><path d="M59,14Q59,108 242,74" stroke="#707070" stroke-width="1"/></g><g transform="translate(-1251.5,-824)"><path d="M59,14Q59,191 216,157" stroke="#707070" stroke-width="1"/></g><g transform="translate(-1251.5,-824)"><path d="M59,14Q59,266 252,232" stroke="#707070" stroke-width="1"/></g><g transform="translate(-1000,-632)"><path d="M37,40Q37,-5 157,14" stroke="#707070" stroke-width="1"/></g><g transform="translate(-1000,-606)"><path d="M37,14Q37,86 182,55" stroke="#707070" stroke-width="1"/></g><g transform="translate(-1000,-606)"><path d="M37,14Q37,133 94,99" stroke="#707070" stroke-width="1"/></g><g transform="translate(-1000,-606)"><path d="M37,14Q37,181 94,147" stroke="#707070" stroke-width="1"/></g><g transform="translate(-1000,-606)"><path d="M37,14Q37,229 94,195" stroke="#707070" stroke-width="1"/></g><g transform="translate(-1000,-606)"><path d="M37,14Q37,277 94,243" stroke="#707070" stroke-width="1"/></g><g transform="translate(-1000,-606)"><path d="M37,14Q37,325 94,291" stroke="#707070" stroke-width="1"/></g><g transform="translate(-1000,-606)"><path d="M37,14Q37,373 94,339" stroke="#707070" stroke-width="1"/></g><g transform="translate(-1000,-606)"><path d="M37,14Q37,421 94,387" stroke="#707070" stroke-width="1"/></g><g transform="translate(-1036,-681)"><path d="M73,75L67,28" stroke-dasharray="8, 8" stroke="#707070" stroke-width="2"/></g><g transform="translate(-978,-647)"><rect x="0" y="2" width="24" height="12" fill="#FFFFFF" stroke="#FFFFFF"/><g transform="scale(0.005859375)" style="fill:#4F4F4F;"><g transform="translate(0 2048) scale (1 -1)"><path d="M1931 57L1829 -84Q1201 168 1055 694Q892 172 270 -104L152 35Q754 282 893 729L266 729L266 879L926 879Q948 983 961 1227L393 1227L393 1382L963 1382L963 1708L1130 1708L1130 1382L1683 1382L1683 1227L1124 1227Q1118 986 1100 879L1817 879L1817 729L1214 729Q1352 282 1931 57Z"/></g><g transform="translate(2048 2048) scale (1 -1)"><path d="M1915 926L1706 926L1706 678L395 678L395 827L946 827L946 926L164 926L164 1075L946 1075L946 1178L395 1178L395 1327L946 1327L946 1427L217 1427L217 1577L946 1577L946 1714L1102 1714L1102 1577L1845 1577L1845 1427L1102 1427L1102 1327L1706 1327L1706 1075L1915 1075ZM1550 1075L1550 1178L1102 1178L1102 1075ZM1550 827L1550 926L1102 926L1102 827ZM1901 377L1528 377Q1450 277 1331 178Q1679 88 1868 -16L1767 -143Q1500 -4 1169 66Q812 -117 242 -135L166 18Q651 28 930 117L930 121Q595 183 446 193Q486 223 631 377L164 377L164 526L748 526Q781 565 860 676L1014 616L948 526L1901 526ZM1323 377L836 377L745 285Q903 265 1133 223Q1261 300 1323 377Z"/></g></g></g><g transform="translate(-1000.5,-1030)"><path d="M31,28L36,171" stroke-dasharray="4, 4" stroke="#707070" stroke-width="1"/></g><g transform="translate(-978.5,-948)"><rect x="0" y="2" width="24" height="12" fill="#FFFFFF" stroke="#FFFFFF"/><g transform="scale(0.005859375)" style="fill:#4F4F4F;"><g transform="translate(0 2048) scale (1 -1)"><path d="M1931 57L1829 -84Q1201 168 1055 694Q892 172 270 -104L152 35Q754 282 893 729L266 729L266 879L926 879Q948 983 961 1227L393 1227L393 1382L963 1382L963 1708L1130 1708L1130 1382L1683 1382L1683 1227L1124 1227Q1118 986 1100 879L1817 879L1817 729L1214 729Q1352 282 1931 57Z"/></g><g transform="translate(2048 2048) scale (1 -1)"><path d="M1915 926L1706 926L1706 678L395 678L395 827L946 827L946 926L164 926L164 1075L946 1075L946 1178L395 1178L395 1327L946 1327L946 1427L217 1427L217 1577L946 1577L946 1714L1102 1714L1102 1577L1845 1577L1845 1427L1102 1427L1102 1327L1706 1327L1706 1075L1915 1075ZM1550 1075L1550 1178L1102 1178L1102 1075ZM1550 827L1550 926L1102 926L1102 827ZM1901 377L1528 377Q1450 277 1331 178Q1679 88 1868 -16L1767 -143Q1500 -4 1169 66Q812 -117 242 -135L166 18Q651 28 930 117L930 121Q595 183 446 193Q486 223 631 377L164 377L164 526L748 526Q781 565 860 676L1014 616L948 526L1901 526ZM1323 377L836 377L745 285Q903 265 1133 223Q1261 300 1323 377Z"/></g></g></g><g transform="translate(-1251.5 -824)"><rect x="0" y="0" width="117" height="28" rx="10" ry="10" style="fill:#22AAE0;stroke:#707070;stroke-width:1px;"/><g transform="translate (5 5) scale(0.005859375)" style="fill:#4F4F4F;"><g transform="translate(27.16666666666606 2048) scale (1 -1)"><path d="M664 1432L524 1262Q389 1418 193 1516L322 1681Q545 1569 664 1432ZM1794 895L719 895L719 1661L1794 1661ZM1585 1372L1585 1468L928 1468L928 1372ZM1585 1087L1585 1186L928 1186L928 1087ZM600 954L461 784Q331 941 109 1044L238 1210Q500 1077 600 954ZM1997 332Q1973 30 1916.5 -33Q1860 -96 1753 -96L1540 -96Q1309 -96 1309 127L1309 836L1520 836L1520 602Q1691 705 1784 813L1935 662Q1769 501 1520 373L1520 150Q1520 102 1577 102L1679 102Q1743 102 1761 168.5Q1779 235 1788 389ZM1241 45Q960 -45 632 -135L530 78L690 112L686 836L897 836L897 645L1223 645L1223 453L897 453L897 158Q1116 222 1241 266ZM631 606Q534 247 322 -123L129 0Q315 310 426 696Z"/></g><g transform="translate(2075.166666666666 2048) scale (1 -1)"><path d="M1728 -104L1389 -104Q1265 -104 1214 -53Q1163 -2 1163 115L1163 512L917 512L917 392L708 392L708 1134L917 1134L917 721L1163 721L1163 1250Q937 1218 711 1205L651 1424Q907 1431 1163 1464L1163 1712L1372 1712L1372 1486Q1578 1528 1785 1606L1885 1405Q1628 1319 1372 1275L1372 721L1618 721L1618 1134L1827 1134L1827 414L1618 414L1618 512L1372 512L1372 162Q1372 106 1427 106L1690 106Q1739 106 1751 160Q1763 214 1769 316L1978 216Q1960 56 1911 -24Q1862 -104 1728 -104ZM629 1430L489 1260Q342 1432 176 1513L305 1679Q497 1583 629 1430ZM598 948L459 778Q311 955 104 1053L233 1219Q478 1092 598 948ZM655 602Q485 100 311 -117L111 6Q322 283 446 702Z"/></g><g transform="translate(4123.166666666666 2048) scale (1 -1)"><path d="M1944 989L1571 989L1571 340L852 340L852 989L616 989L616 149L1876 149L1876 -60L616 -60L616 -150L406 -150L406 989L125 989L125 1196L406 1196L406 1554L616 1554L616 1196L852 1196L852 1712L1063 1712L1063 1196L1360 1196L1360 1712L1571 1712L1571 1196L1944 1196ZM1360 549L1360 989L1063 989L1063 549Z"/></g><g transform="translate(6171.166666666666 2048) scale (1 -1)"><path d="M1989 506L1860 319Q1599 393 1405 535L1405 -133L1196 -133L1196 578L1350 578Q1223 683 1155 803L936 803Q879 687 748 578L915 578Q920 535 920 494Q920 15 367 -158L225 31Q526 102 617.5 217Q709 332 709 522L709 547Q510 399 225 317L96 504Q519 586 690 803L371 803L371 1655L1694 1655L1694 803L1403 803Q1597 581 1989 506ZM1485 1315L1485 1470L1137 1470L1137 1315ZM928 1315L928 1470L580 1470L580 1315ZM1485 985L1485 1141L1137 1141L1137 985ZM928 985L928 1141L580 1141L580 985Z"/></g><g transform="translate(8219.166666666666 2048) scale (1 -1)"><path d="M1271 -430L1079 -430Q925 -201 845 49Q765 299 765 530Q765 802 854.5 1046.5Q944 1291 1083 1491L1275 1491Q1138 1188 1087 976Q1036 764 1036 524Q1036 377 1059.5 224.5Q1083 72 1126 -68.5Q1169 -209 1271 -430Z"/></g><g transform="translate(10267.166666666666 2048) scale (1 -1)"><path d="M1073 748L797 698Q782 780 732 822Q682 864 604 864Q500 864 437.5 792.5Q375 721 375 551Q375 360 438.5 282.5Q502 205 608 205Q688 205 739.5 251Q791 297 811 408L1087 360Q1000 -25 596 -25Q362 -25 224 122.5Q86 270 86 530Q86 793 224 939Q362 1085 600 1085Q795 1085 909.5 1002.5Q1024 920 1073 748Z"/></g><g transform="translate(11406.166666666666 2048) scale (1 -1)"><path d="M426 1466L426 928Q563 1085 752 1085Q850 1085 928 1049.5Q1006 1014 1044.5 957.5Q1083 901 1097.5 833.5Q1112 766 1112 623L1112 0L831 0L831 561Q831 727 816 772Q801 817 760 843.5Q719 870 657 870Q588 870 532.5 836.5Q477 803 451.5 734.5Q426 666 426 532L426 0L145 0L145 1466Z"/></g><g transform="translate(12657.166666666666 2048) scale (1 -1)"><path d="M356 737L102 784Q145 938 249.5 1011.5Q354 1085 561 1085Q750 1085 842 1041Q934 997 972 928.5Q1010 860 1010 678L1006 348Q1006 209 1019 142.5Q1032 76 1069 0L793 0Q782 24 770.5 67Q759 110 756 117Q610 -25 426 -25Q262 -25 168 64.5Q74 154 74 291Q74 381 117 450.5Q160 520 236.5 558Q313 596 461 625Q657 662 733 692L733 721Q733 803 693 836.5Q653 870 543 870Q467 870 425 840.5Q383 811 356 737ZM733 510Q680 492 562 467Q444 442 410 418Q354 379 354 319Q354 260 398 217Q442 174 510 174Q557 174 601.5 193Q646 212 676.5 241.5Q707 271 720 308Q733 345 733 455Z"/></g><g transform="translate(13796.166666666666 2048) scale (1 -1)"><path d="M82 547Q82 686 150.5 817Q219 948 346 1016.5Q473 1085 629 1085Q870 1085 1024 928.5Q1178 772 1178 535Q1178 293 1022 134Q866 -25 631 -25Q485 -25 352 42Q219 109 150.5 235.5Q82 362 82 547ZM371 530Q371 373 445.5 289Q520 205 631 205Q739 205 814 289Q889 373 889 532Q889 688 814 772Q739 856 631 856Q520 856 445.5 772Q371 688 371 530Z"/></g><g transform="translate(15047.166666666666 2048) scale (1 -1)"><path d="M47 303L330 346Q367 178 557 178Q650 178 704 208Q758 238 758 295Q758 326 735.5 347.5Q713 369 643 383Q303 459 213 520Q86 606 86 760Q86 897 195.5 991Q305 1085 535 1085Q752 1085 858.5 1014.5Q965 944 1004 805L739 756Q705 885 539 885Q348 885 348 797Q348 752 412 727.5Q476 703 638 666Q859 615 949.5 543Q1040 471 1040 332Q1040 186 918.5 80.5Q797 -25 557 -25Q340 -25 213 63.5Q86 152 47 303Z"/></g><g transform="translate(16186.166666666666 2048) scale (1 -1)"><path d="M779 -430Q861 -254 894.5 -158.5Q928 -63 958 60.5Q988 184 1001 296Q1014 408 1014 524Q1014 764 964 976Q914 1188 777 1491L967 1491Q1119 1276 1201.5 1035.5Q1284 795 1284 547Q1284 305 1207 57.5Q1130 -190 971 -430Z"/></g></g></g><g transform="translate(-1000.5 -1030)"><rect x="0" y="0" width="62" height="28" rx="10" ry="10" style="fill:#E0E0E0;stroke:#707070;stroke-width:1px;"/><g transform="translate (5 5) scale(0.005859375)" style="fill:#4F4F4F;"><g transform="translate(56.83333333333303 2048) scale (1 -1)"><path d="M1982 303Q1959 77 1886 -16Q1813 -109 1636 -109L1053 -109Q946 -109 886.5 -45Q827 19 827 129L827 760L698 702L662 907L827 979L827 1442L1034 1442L1034 1067L1225 1149L1225 1712L1432 1712L1432 1237L1868 1423L1869 1348Q1869 1189 1858 923.5Q1847 658 1836 589.5Q1825 521 1777.5 468.5Q1730 416 1614 416Q1567 416 1511 426L1456 649Q1510 641 1567 641Q1601 641 1617.5 661.5Q1634 682 1642.5 822Q1651 962 1651 1120L1432 1024L1432 248L1225 248L1225 934L1034 850L1034 190Q1034 100 1122 100L1597 100Q1676 100 1714 154Q1752 208 1761 383ZM768 326Q528 221 160 80L78 281L352 381L352 1006L121 1006L121 1217L352 1217L352 1681L561 1681L561 1217L752 1217L752 1006L561 1006L561 461L768 543Z"/></g><g transform="translate(2104.833333333333 2048) scale (1 -1)"><path d="M1907 344L1475 344L1475 -135L1268 -135L1268 344L834 344L834 594L672 469Q620 593 553 688L553 -133L346 -133L346 559Q281 498 221 449L76 606Q372 820 512 1169L139 1169L139 1379L349 1379L349 1706L556 1706L556 1379L715 1379L715 1187Q675 982 553 801L553 758L670 864Q773 749 834 625L834 1417L1268 1417L1268 1714L1475 1714L1475 1417L1907 1417ZM1702 991L1702 1208L1475 1208L1475 991ZM1268 991L1268 1208L1038 1208L1038 991ZM1702 553L1702 782L1475 782L1475 553ZM1268 553L1268 782L1038 782L1038 553Z"/></g><g transform="translate(4721.833333333333 2048) scale (1 -1)"><path d="M1939 649L137 649L137 840L924 840L924 944L303 944L303 1135L924 1135L924 1239L213 1239L213 1430L700 1430Q603 1536 489 1602L641 1739Q797 1644 903 1507L797 1430L1243 1430L1165 1493Q1313 1594 1407 1745L1581 1636Q1498 1513 1399 1430L1845 1430L1845 1239L1139 1239L1139 1135L1757 1135L1757 944L1139 944L1139 840L1939 840ZM1927 -96L137 -96L137 94L334 94L334 561L1729 561L1729 94L1927 94ZM1524 94L1524 369L1325 369L1325 94ZM1130 94L1130 369L932 369L932 94ZM737 94L737 369L539 369L539 94Z"/></g><g transform="translate(6769.833333333333 2048) scale (1 -1)"><path d="M1946 -53L123 -53L123 156L733 156L733 1421L182 1421L182 1630L1872 1630L1872 1421L1335 1421L1335 156L1946 156ZM1128 156L1128 1421L938 1421L938 156ZM1853 1165Q1774 642 1587 307L1399 408Q1609 816 1647 1231ZM684 373L465 311Q401 754 186 1141L389 1229Q598 854 684 373Z"/></g></g></g><g transform="translate(-1000 -859)"><rect x="0" y="0" width="70" height="28" rx="10" ry="10" style="fill:#E0E0E0;stroke:#707070;stroke-width:1px;"/><g transform="translate (5 5) scale(0.005859375)" style="fill:#4F4F4F;"><g transform="translate(0 2048) scale (1 -1)"><path d="M1914 1317L1699 1317L1699 1114L1492 1114L1492 1317L1126 1317L1126 1126L918 1126L918 1317L704 1317L704 1513L918 1513L918 1712L1126 1712L1126 1513L1492 1513L1492 1712L1699 1712L1699 1513L1914 1513ZM729 303Q447 179 170 74L88 274L342 367L342 975L137 975L137 1186L342 1186L342 1653L551 1653L551 1186L727 1186L727 975L551 975L551 449L729 520ZM1982 709L1864 520Q1687 604 1540 717L1540 606L1049 606L1049 709Q941 616 766 502L641 688Q1055 900 1245 1270L1446 1194L1409 1128Q1615 857 1982 709ZM1438 803Q1354 877 1292 961Q1232 884 1151 803ZM1763 -133L1554 -133L1554 -59L1063 -59L1063 -133L854 -133L854 510L1763 510ZM1554 137L1554 313L1063 313L1063 137Z"/></g><g transform="translate(2048 2048) scale (1 -1)"><path d="M1845 1262Q1845 1253 1771 1131Q1697 1009 1618 918L1444 1030Q1542 1141 1614 1262L621 1262Q442 960 242 754L94 928Q418 1236 604 1733L817 1655Q775 1553 731 1466L1845 1466ZM1147 96Q1147 -133 942 -133L733 -133L678 80Q765 61 856 61Q938 61 938 135L938 1169L1147 1169ZM1972 207L1788 96Q1597 492 1272 799L1440 930Q1791 599 1972 207ZM834 821Q591 334 268 31L117 172Q448 471 655 928Z"/></g><g transform="translate(4096 2048) scale (1 -1)"><path d="M1914 1317L1699 1317L1699 1114L1492 1114L1492 1317L1126 1317L1126 1126L918 1126L918 1317L704 1317L704 1513L918 1513L918 1712L1126 1712L1126 1513L1492 1513L1492 1712L1699 1712L1699 1513L1914 1513ZM729 303Q447 179 170 74L88 274L342 367L342 975L137 975L137 1186L342 1186L342 1653L551 1653L551 1186L727 1186L727 975L551 975L551 449L729 520ZM1982 709L1864 520Q1687 604 1540 717L1540 606L1049 606L1049 709Q941 616 766 502L641 688Q1055 900 1245 1270L1446 1194L1409 1128Q1615 857 1982 709ZM1438 803Q1354 877 1292 961Q1232 884 1151 803ZM1763 -133L1554 -133L1554 -59L1063 -59L1063 -133L854 -133L854 510L1763 510ZM1554 137L1554 313L1063 313L1063 137Z"/></g><g transform="translate(6144 2048) scale (1 -1)"><path d="M1847 1053L879 1053L981 1001Q955 949 932 913L1720 913L1720 715Q1551 376 1195.5 170Q840 -36 221 -143L119 74Q620 125 954 279Q837 416 670 508L831 664Q1005 560 1155 389Q1364 526 1491 717L770 717Q564 511 274 342L135 530Q540 721 756 1053L229 1053L229 1659L1847 1659ZM1642 1249L1642 1462L1376 1462L1376 1249ZM1171 1249L1171 1462L905 1462L905 1249ZM700 1249L700 1462L434 1462L434 1249Z"/></g><g transform="translate(8192 2048) scale (1 -1)"><path d="M1942 903L1757 903L1757 -135L1552 -135L1552 903L1405 903L1405 596Q1405 337 1366.5 179Q1328 21 1208 -154L1028 -49Q1117 72 1158.5 184.5Q1200 297 1200 537L1200 1561Q1548 1572 1806 1716L1933 1536Q1646 1398 1405 1382L1405 1116L1942 1116ZM1161 324L129 324L129 514L303 514L303 1329L145 1329L145 1520L303 1520L303 1712L508 1712L508 1520L801 1520L801 1712L1006 1712L1006 1520L1145 1520L1145 1329L1006 1329L1006 514L1161 514ZM801 1184L801 1329L508 1329L508 1184ZM801 850L801 997L508 997L508 850ZM801 514L801 664L508 664L508 514ZM1085 104L913 -49Q820 86 668 162L834 295Q966 229 1085 104ZM606 168Q413 -47 219 -152L74 14Q248 96 440 295Z"/></g></g></g><g transform="translate(-1010 -764)"><rect x="0" y="0" width="74" height="28" rx="10" ry="10" style="fill:#E0E0E0;stroke:#707070;stroke-width:1px;"/><g transform="translate (5 5) scale(0.005859375)" style="fill:#4F4F4F;"><g transform="translate(56.83333333333303 2048) scale (1 -1)"><path d="M1964 47L1882 -154Q1394 -99 1165 12Q946 -93 438 -154L350 47Q777 72 969 139Q855 239 754 410L711 410Q532 225 238 57L84 213Q474 395 684 696L426 696L426 887L795 887Q822 942 844 1004L377 1004L377 786L172 786L172 1194L489 1194Q421 1324 360 1386L442 1430L276 1432L207 1636Q355 1627 534 1627Q1272 1627 1733 1737L1855 1567Q1745 1539 1516 1505L1700 1421Q1645 1289 1579 1194L1896 1194L1896 786L1692 786L1692 1004L1063 1004Q1038 931 1018 887L1642 887L1642 696L926 696L862 596L1675 596L1675 410Q1529 245 1382 139Q1596 65 1964 47ZM1479 1499Q1245 1468 1049 1454Q1125 1370 1186 1241L1085 1194L1307 1194Q1419 1326 1479 1499ZM967 1194Q897 1320 831 1386L928 1446Q700 1433 590 1432Q663 1357 715 1241L629 1194ZM1407 410L985 410Q1075 304 1180 236Q1288 300 1407 410Z"/></g><g transform="translate(2104.833333333333 2048) scale (1 -1)"><path d="M1907 344L1475 344L1475 -135L1268 -135L1268 344L834 344L834 594L672 469Q620 593 553 688L553 -133L346 -133L346 559Q281 498 221 449L76 606Q372 820 512 1169L139 1169L139 1379L349 1379L349 1706L556 1706L556 1379L715 1379L715 1187Q675 982 553 801L553 758L670 864Q773 749 834 625L834 1417L1268 1417L1268 1714L1475 1714L1475 1417L1907 1417ZM1702 991L1702 1208L1475 1208L1475 991ZM1268 991L1268 1208L1038 1208L1038 991ZM1702 553L1702 782L1475 782L1475 553ZM1268 553L1268 782L1038 782L1038 553Z"/></g><g transform="translate(4721.833333333333 2048) scale (1 -1)"><path d="M1933 1464L500 1464L500 760Q500 420 445 216Q390 12 281 -141L100 0Q291 225 291 758L291 1661L1933 1661ZM1950 377Q1928 182 1860 55Q1792 -72 1599 -72L979 -72Q735 -72 735 150L735 1237L1724 1237L1725 1141Q1725 996 1719.5 818Q1714 640 1704.5 594Q1695 548 1668 514.5Q1641 481 1601 465Q1561 449 1464 449Q1277 449 1186 459L1133 676Q1231 662 1374 662Q1478 662 1492.5 694.5Q1507 727 1507 930L1505 1040L946 1040L946 184Q946 129 1001 129L1575 129Q1624 129 1659.5 159.5Q1695 190 1713 299.5Q1731 409 1731 463Z"/></g><g transform="translate(6769.833333333333 2048) scale (1 -1)"><path d="M1978 725L1864 532L1786 561L1786 -133L1577 -133L1577 -37L1049 -37L1049 -133L840 -133L840 569L764 532L643 725Q939 823 1161 967Q1049 1076 981 1184Q914 1106 811 1008L645 1155Q969 1454 1061 1731L1284 1683Q1262 1620 1229 1550L1815 1550L1815 1352Q1687 1129 1499 967Q1736 794 1978 725ZM1563 1352L1128 1352Q1210 1220 1337 1102Q1470 1222 1563 1352ZM1624 637Q1472 717 1319 831Q1182 741 977 637ZM1577 160L1577 440L1049 440L1049 160ZM698 1419L545 1249Q405 1409 193 1516L322 1681Q575 1554 698 1419ZM618 952L479 782Q357 929 109 1044L238 1210Q506 1081 618 952ZM645 606Q578 350 322 -123L129 0Q342 355 440 696Z"/></g><g transform="translate(8817.833333333332 2048) scale (1 -1)"><path d="M1942 903L1757 903L1757 -135L1552 -135L1552 903L1405 903L1405 596Q1405 337 1366.5 179Q1328 21 1208 -154L1028 -49Q1117 72 1158.5 184.5Q1200 297 1200 537L1200 1561Q1548 1572 1806 1716L1933 1536Q1646 1398 1405 1382L1405 1116L1942 1116ZM1161 324L129 324L129 514L303 514L303 1329L145 1329L145 1520L303 1520L303 1712L508 1712L508 1520L801 1520L801 1712L1006 1712L1006 1520L1145 1520L1145 1329L1006 1329L1006 514L1161 514ZM801 1184L801 1329L508 1329L508 1184ZM801 850L801 997L508 997L508 850ZM801 514L801 664L508 664L508 514ZM1085 104L913 -49Q820 86 668 162L834 295Q966 229 1085 104ZM606 168Q413 -47 219 -152L74 14Q248 96 440 295Z"/></g></g></g><g transform="translate(-1036 -681)"><rect x="0" y="0" width="134" height="28" rx="10" ry="10" style="fill:#E0E0E0;stroke:#707070;stroke-width:1px;"/><g transform="translate (5 5) scale(0.005859375)" style="fill:#4F4F4F;"><g transform="translate(56.83333333333394 2048) scale (1 -1)"><path d="M1982 154L1843 -6Q1389 245 1159 651L1159 137Q1159 -11 1099 -73Q1039 -135 915 -135L696 -135L629 86Q733 70 819 70Q900 70 923 94Q946 118 946 170L946 1176L375 1176L375 1384L1098 1384Q907 1496 686 1563L805 1737Q1075 1661 1303 1511L1188 1327L1159 1346L1159 1024Q1204 928 1262 836Q1517 1013 1708 1270L1868 1133Q1647 854 1372 674Q1623 346 1982 154ZM911 1006Q838 414 233 -8L76 137Q512 434 649 797L178 797L178 1006Z"/></g><g transform="translate(2104.833333333334 2048) scale (1 -1)"><path d="M1968 25L1812 -141Q1352 113 1116 524Q752 77 242 -141L92 25Q507 187 831.5 525Q1156 863 1253 1239L827 1239Q658 854 408 614L219 725Q410 889 561 1174Q712 1459 760 1726L969 1677Q943 1561 907 1452L1487 1452L1487 1235Q1424 984 1257 721Q1339 521 1547.5 321Q1756 121 1968 25Z"/></g><g transform="translate(4152.833333333334 2048) scale (1 -1)"><path d="M1911 315L158 315L158 506L926 506L926 625L285 625L285 809L926 809L926 926L319 926L319 1659L1743 1659L1743 926L1135 926L1135 809L1774 809L1774 625L1135 625L1135 506L1911 506ZM1534 1120L1534 1464L1135 1464L1135 1120L1323 1120L1180 1202Q1270 1278 1339 1432L1495 1341Q1436 1215 1352 1120ZM926 1120L926 1464L528 1464L528 1120L711 1120Q652 1266 561 1341L717 1432Q818 1336 877 1202L733 1120ZM1964 -63L1759 -160Q1689 37 1518 201L1706 299Q1842 172 1964 -63ZM1485 -55L1284 -141Q1219 61 1100 199L1286 287Q1407 146 1485 -55ZM608 182Q472 -38 285 -176L117 -39Q299 86 420 281ZM1014 -57L815 -141Q781 46 668 186L854 274Q959 143 1014 -57Z"/></g><g transform="translate(6200.833333333334 2048) scale (1 -1)"><path d="M1937 844L801 844L801 1034L1108 1034Q1073 1130 975 1245L1149 1346L858 1346L858 1536L1259 1536L1259 1715L1471 1715L1471 1536L1876 1536L1876 1346L1587 1346L1759 1260Q1715 1142 1645 1034L1937 1034ZM1550 1346L1167 1346Q1261 1245 1305 1130L1147 1034L1405 1034Q1511 1190 1550 1346ZM754 174L549 174L549 295L371 295L371 147L166 147L166 1554L754 1554ZM549 1036L549 1343L371 1343L371 1036ZM549 504L549 825L371 825L371 504ZM1802 -133L1593 -133L1593 -59L1124 -59L1124 -133L915 -133L915 756L1802 756ZM1593 444L1593 565L1124 565L1124 444ZM1593 131L1593 254L1124 254L1124 131Z"/></g><g transform="translate(8248.833333333334 2048) scale (1 -1)"><path d="M1974 168L1917 -55L958 -55Q688 -55 524 104Q427 -56 287 -178L106 -37Q376 185 434 502L643 432Q633 389 614 330Q1268 684 1481 1090L285 1090L285 1303L908 1303L908 1712L1131 1712L1131 1303L1755 1303L1755 1090Q1424 494 778 178Q874 152 952 152L1757 152Q1875 152 1974 168Z"/></g><g transform="translate(10296.833333333334 2048) scale (1 -1)"><path d="M1907 344L1475 344L1475 -135L1268 -135L1268 344L834 344L834 594L672 469Q620 593 553 688L553 -133L346 -133L346 559Q281 498 221 449L76 606Q372 820 512 1169L139 1169L139 1379L349 1379L349 1706L556 1706L556 1379L715 1379L715 1187Q675 982 553 801L553 758L670 864Q773 749 834 625L834 1417L1268 1417L1268 1714L1475 1714L1475 1417L1907 1417ZM1702 991L1702 1208L1475 1208L1475 991ZM1268 991L1268 1208L1038 1208L1038 991ZM1702 553L1702 782L1475 782L1475 553ZM1268 553L1268 782L1038 782L1038 553Z"/></g><g transform="translate(12913.833333333334 2048) scale (1 -1)"><path d="M2009 12L1876 -178Q1469 -53 1333 354Q1170 -16 680 -178L559 12Q968 118 1116 399L772 399L772 596L1188 596Q1210 684 1217 811L1044 811Q988 726 877 608L700 748Q897 918 965 1133L807 1120L723 1334L890 1341Q1040 1515 1141 1729L1366 1622Q1252 1459 1130 1339Q1335 1348 1559 1370Q1482 1460 1417 1513L1597 1626Q1800 1460 1946 1202L1757 1071Q1719 1151 1681 1206Q1448 1174 1049 1141L1184 1090L1151 1008L1817 1008L1817 811L1430 811Q1423 681 1407 596L1921 596L1921 399L1528 399Q1667 92 2009 12ZM748 975L561 975L561 430L733 500L733 279Q457 154 158 41L72 246L352 350L352 975L133 975L133 1186L352 1186L352 1653L561 1653L561 1186L748 1186Z"/></g><g transform="translate(14961.833333333334 2048) scale (1 -1)"><path d="M1843 1163L764 1163L764 1616L958 1616L958 1360L1206 1360L1206 1712L1401 1712L1401 1360L1649 1360L1649 1616L1843 1616ZM711 293Q328 115 158 57L82 252Q195 289 313 332L313 813L168 813L168 1010L313 1010L313 1374L143 1374L143 1571L705 1571L705 1374L518 1374L518 1010L670 1010L670 813L518 813L518 414L711 496ZM1952 856L1425 856Q1400 780 1374 717L1862 717L1862 63Q1862 -42 1816 -87.5Q1770 -133 1655 -133L1542 -133L1526 -63L1364 -63L1364 518L1253 518L1253 -63L1063 -63L1063 518L952 518L952 -133L756 -133L756 717L1155 717Q1177 770 1204 856L707 856L707 1053L1952 1053ZM1667 131L1667 518L1554 518L1554 72L1584 70Q1667 70 1667 131Z"/></g><g transform="translate(17009.833333333336 2048) scale (1 -1)"><path d="M1970 33L1862 -164Q1588 -79 1370 113Q1196 -43 961 -152L829 27Q1062 125 1227 258Q1047 474 995 723L915 723L915 668Q915 369 850.5 181Q786 -7 639 -162L451 -39Q598 114 652.5 255.5Q707 397 707 666L707 1452L1184 1452L1184 1710L1393 1710L1393 1452L1896 1452Q1850 1157 1800 1014L1579 1040Q1603 1101 1638 1243L1393 1243L1393 932L1743 932L1743 917Q1743 548 1509 258Q1711 100 1970 33ZM1184 932L1184 1243L915 1243L915 932ZM1524 723L1212 723Q1239 545 1366 395Q1491 548 1524 723ZM635 1432L496 1262Q360 1418 164 1516L293 1681Q516 1569 635 1432ZM571 954L432 784Q302 941 80 1044L209 1210Q472 1077 571 954ZM602 606Q520 300 293 -123L100 0Q286 310 397 696Z"/></g><g transform="translate(19057.833333333336 2048) scale (1 -1)"><path d="M1942 903L1757 903L1757 -135L1552 -135L1552 903L1405 903L1405 596Q1405 337 1366.5 179Q1328 21 1208 -154L1028 -49Q1117 72 1158.5 184.5Q1200 297 1200 537L1200 1561Q1548 1572 1806 1716L1933 1536Q1646 1398 1405 1382L1405 1116L1942 1116ZM1161 324L129 324L129 514L303 514L303 1329L145 1329L145 1520L303 1520L303 1712L508 1712L508 1520L801 1520L801 1712L1006 1712L1006 1520L1145 1520L1145 1329L1006 1329L1006 514L1161 514ZM801 1184L801 1329L508 1329L508 1184ZM801 850L801 997L508 997L508 850ZM801 514L801 664L508 664L508 514ZM1085 104L913 -49Q820 86 668 162L834 295Q966 229 1085 104ZM606 168Q413 -47 219 -152L74 14Q248 96 440 295Z"/></g></g></g><g transform="translate(-1000 -606)"><rect x="0" y="0" width="74" height="28" rx="10" ry="10" style="fill:#E0E0E0;stroke:#707070;stroke-width:1px;"/><g transform="translate (5 5) scale(0.005859375)" style="fill:#4F4F4F;"><g transform="translate(56.83333333333303 2048) scale (1 -1)"><path d="M1982 20L1876 -150Q1477 -28 1257 143Q1050 -27 768 -150L645 20Q904 133 1100 289Q1004 393 909 553L813 459L639 594Q974 871 1108 1317L626 1317L797 1208Q712 1021 612 872L612 -133L397 -133L397 608Q326 534 227 453L70 604Q423 885 598 1317L166 1317L166 1526L923 1526L923 1712L1138 1712L1138 1526L1896 1526L1896 1317L1140 1317L1314 1234L1274 1122L1782 1122Q1739 640 1407 285Q1620 127 1982 20ZM1534 913L1176 913Q1115 805 1047 713Q1129 550 1249 424Q1296 471 1339 526Q1237 650 1128 709L1264 850Q1363 790 1450 694Q1501 787 1534 913Z"/></g><g transform="translate(2104.833333333333 2048) scale (1 -1)"><path d="M1907 344L1475 344L1475 -135L1268 -135L1268 344L834 344L834 594L672 469Q620 593 553 688L553 -133L346 -133L346 559Q281 498 221 449L76 606Q372 820 512 1169L139 1169L139 1379L349 1379L349 1706L556 1706L556 1379L715 1379L715 1187Q675 982 553 801L553 758L670 864Q773 749 834 625L834 1417L1268 1417L1268 1714L1475 1714L1475 1417L1907 1417ZM1702 991L1702 1208L1475 1208L1475 991ZM1268 991L1268 1208L1038 1208L1038 991ZM1702 553L1702 782L1475 782L1475 553ZM1268 553L1268 782L1038 782L1038 553Z"/></g><g transform="translate(4721.833333333333 2048) scale (1 -1)"><path d="M1866 1022L492 1022L492 760Q492 389 435 194.5Q378 0 274 -147L94 -20Q287 210 287 758L287 1653L1866 1653ZM1661 1212L1661 1462L492 1462L492 1212ZM1974 362Q1960 268 1916 132.5Q1872 -3 1807.5 -49.5Q1743 -96 1606 -96L973 -96Q861 -96 805.5 -41Q750 14 750 150L750 954L958 954L958 545Q1322 642 1612 860L1776 709Q1412 451 958 352L958 166Q958 96 1022 96L1577 96Q1626 96 1660.5 114.5Q1695 133 1733 263.5Q1771 394 1778 444Z"/></g><g transform="translate(6769.833333333333 2048) scale (1 -1)"><path d="M1964 324Q1946 204 1907 94Q1868 -16 1811.5 -56Q1755 -96 1645 -96L1335 -96Q1230 -96 1179 -55.5Q1128 -15 1128 104L1128 498L930 498Q892 -71 199 -152L123 43Q444 86 573 191.5Q702 297 721 498L412 498L412 1163L926 1163L926 1323L193 1323L193 1520L926 1520L926 1710L1141 1710L1141 1520L1880 1520L1880 1323L1141 1323L1141 1163L1659 1163L1659 498L1333 498L1333 168Q1333 113 1384 113L1620 113Q1659 113 1683 132Q1707 151 1734 237.5Q1761 324 1765 397ZM1454 694L1454 967L616 967L616 694Z"/></g><g transform="translate(8817.833333333332 2048) scale (1 -1)"><path d="M1942 903L1757 903L1757 -135L1552 -135L1552 903L1405 903L1405 596Q1405 337 1366.5 179Q1328 21 1208 -154L1028 -49Q1117 72 1158.5 184.5Q1200 297 1200 537L1200 1561Q1548 1572 1806 1716L1933 1536Q1646 1398 1405 1382L1405 1116L1942 1116ZM1161 324L129 324L129 514L303 514L303 1329L145 1329L145 1520L303 1520L303 1712L508 1712L508 1520L801 1520L801 1712L1006 1712L1006 1520L1145 1520L1145 1329L1006 1329L1006 514L1161 514ZM801 1184L801 1329L508 1329L508 1184ZM801 850L801 997L508 997L508 850ZM801 514L801 664L508 664L508 514ZM1085 104L913 -49Q820 86 668 162L834 295Q966 229 1085 104ZM606 168Q413 -47 219 -152L74 14Q248 96 440 295Z"/></g></g></g><g transform="translate(-843 -632)"><rect x="0" y="0" width="122" height="28" rx="10" ry="10" style="fill:#E0E0E0;stroke:#707070;stroke-width:1px;"/><g transform="translate (5 5) scale(0.005859375)" style="fill:#4F4F4F;"><g transform="translate(56.83333333333394 2048) scale (1 -1)"><path d="M1982 154L1843 -6Q1389 245 1159 651L1159 137Q1159 -11 1099 -73Q1039 -135 915 -135L696 -135L629 86Q733 70 819 70Q900 70 923 94Q946 118 946 170L946 1176L375 1176L375 1384L1098 1384Q907 1496 686 1563L805 1737Q1075 1661 1303 1511L1188 1327L1159 1346L1159 1024Q1204 928 1262 836Q1517 1013 1708 1270L1868 1133Q1647 854 1372 674Q1623 346 1982 154ZM911 1006Q838 414 233 -8L76 137Q512 434 649 797L178 797L178 1006Z"/></g><g transform="translate(2104.833333333334 2048) scale (1 -1)"><path d="M1968 25L1812 -141Q1352 113 1116 524Q752 77 242 -141L92 25Q507 187 831.5 525Q1156 863 1253 1239L827 1239Q658 854 408 614L219 725Q410 889 561 1174Q712 1459 760 1726L969 1677Q943 1561 907 1452L1487 1452L1487 1235Q1424 984 1257 721Q1339 521 1547.5 321Q1756 121 1968 25Z"/></g><g transform="translate(4152.833333333334 2048) scale (1 -1)"><path d="M1960 328Q1927 35 1854 -32.5Q1781 -100 1659 -100L1366 -100Q1147 -100 1147 117L1147 778L946 778L946 715Q946 400 781 189.5Q616 -21 244 -164L109 39Q731 206 731 686L731 778L195 778L195 987L924 987L924 1712L1139 1712L1139 987L1872 987L1872 778L1362 778L1362 174Q1362 111 1423 111L1632 111Q1682 111 1702.5 166Q1723 221 1735 410ZM1778 1464Q1649 1236 1438 1028L1262 1171Q1502 1385 1595 1591ZM801 1174L614 1034Q486 1275 281 1442L451 1583Q651 1419 801 1174Z"/></g><g transform="translate(6200.833333333334 2048) scale (1 -1)"><path d="M1855 88Q1855 -131 1636 -131L1415 -131L1354 84Q1419 76 1504 76Q1605 76 1628 90Q1651 104 1651 143L1651 483L1241 483Q1185 116 827 -152L668 -6Q859 115 956 281.5Q1053 448 1053 709L1053 1657L1855 1657ZM1651 1171L1651 1458L1260 1458L1260 1171ZM1651 680L1651 975L1260 975L1260 680ZM874 193L668 193L668 313L418 313L418 166L211 166L211 1573L874 1573ZM668 1055L668 1362L418 1362L418 1055ZM668 522L668 844L418 844L418 522Z"/></g><g transform="translate(8248.833333333334 2048) scale (1 -1)"><path d="M1974 168L1917 -55L958 -55Q688 -55 524 104Q427 -56 287 -178L106 -37Q376 185 434 502L643 432Q633 389 614 330Q1268 684 1481 1090L285 1090L285 1303L908 1303L908 1712L1131 1712L1131 1303L1755 1303L1755 1090Q1424 494 778 178Q874 152 952 152L1757 152Q1875 152 1974 168Z"/></g><g transform="translate(10296.833333333334 2048) scale (1 -1)"><path d="M1907 344L1475 344L1475 -135L1268 -135L1268 344L834 344L834 594L672 469Q620 593 553 688L553 -133L346 -133L346 559Q281 498 221 449L76 606Q372 820 512 1169L139 1169L139 1379L349 1379L349 1706L556 1706L556 1379L715 1379L715 1187Q675 982 553 801L553 758L670 864Q773 749 834 625L834 1417L1268 1417L1268 1714L1475 1714L1475 1417L1907 1417ZM1702 991L1702 1208L1475 1208L1475 991ZM1268 991L1268 1208L1038 1208L1038 991ZM1702 553L1702 782L1475 782L1475 553ZM1268 553L1268 782L1038 782L1038 553Z"/></g><g transform="translate(12913.833333333334 2048) scale (1 -1)"><path d="M2009 12L1876 -178Q1469 -53 1333 354Q1170 -16 680 -178L559 12Q968 118 1116 399L772 399L772 596L1188 596Q1210 684 1217 811L1044 811Q988 726 877 608L700 748Q897 918 965 1133L807 1120L723 1334L890 1341Q1040 1515 1141 1729L1366 1622Q1252 1459 1130 1339Q1335 1348 1559 1370Q1482 1460 1417 1513L1597 1626Q1800 1460 1946 1202L1757 1071Q1719 1151 1681 1206Q1448 1174 1049 1141L1184 1090L1151 1008L1817 1008L1817 811L1430 811Q1423 681 1407 596L1921 596L1921 399L1528 399Q1667 92 2009 12ZM748 975L561 975L561 430L733 500L733 279Q457 154 158 41L72 246L352 350L352 975L133 975L133 1186L352 1186L352 1653L561 1653L561 1186L748 1186Z"/></g><g transform="translate(14961.833333333334 2048) scale (1 -1)"><path d="M1884 1532L1739 1393Q1670 1490 1518 1585L1642 1722Q1802 1650 1884 1532ZM1999 227Q1927 -139 1758 -139Q1592 -139 1457 229Q1322 597 1274 1171L129 1171L129 1380L1262 1380Q1254 1528 1254 1646L1255 1714L1460 1714Q1460 1542 1468 1380L1937 1380L1937 1171L1481 1171Q1521 663 1612.5 392.5Q1704 122 1748 122Q1787 122 1810 317ZM1010 743L819 657Q719 913 592 1034L778 1128Q936 954 1010 743ZM1112 330Q1094 105 1023 18.5Q952 -68 795 -68L690 -68Q465 -68 465 152L465 870L674 870L674 197Q674 141 729 141L786 141Q832 141 855 159.5Q878 178 894.5 261.5Q911 345 913 403ZM1393 244L1219 150Q1138 426 983 598L1163 696Q1345 462 1393 244ZM438 608Q383 336 250 129L70 227Q190 378 256 672Z"/></g><g transform="translate(17009.833333333336 2048) scale (1 -1)"><path d="M1927 334L1561 297L1561 -133L1346 -133L1346 274L178 154L104 344L494 383L494 1460L188 1460L188 1657L1868 1657L1868 1460L1561 1460L1561 494L1927 530ZM1346 1264L1346 1460L709 1460L709 1264ZM1346 870L1346 1067L709 1067L709 870ZM1346 471L1346 674L709 674L709 406Z"/></g></g></g><g transform="translate(-818 -565)"><rect x="0" y="0" width="98" height="28" rx="10" ry="10" style="fill:#E0E0E0;stroke:#707070;stroke-width:1px;"/><g transform="translate (5 5) scale(0.005859375)" style="fill:#4F4F4F;"><g transform="translate(56.83333333333303 2048) scale (1 -1)"><path d="M1718 -133L1503 -133L1503 -12L561 -12L561 -133L346 -133L346 1444L813 1444Q896 1579 954 1733L1163 1663Q1109 1539 1049 1444L1718 1444ZM1503 819L1503 1235L561 1235L561 819ZM1503 197L1503 614L561 614L561 197Z"/></g><g transform="translate(2104.833333333333 2048) scale (1 -1)"><path d="M1991 772L1872 580Q1696 630 1550 715L1550 184L481 184L481 780Q411 613 227 457L78 629Q219 742 282.5 876Q346 1010 346 1212L346 1681L1694 1681L1694 1147L1358 1147Q1551 874 1991 772ZM1485 1331L1485 1497L555 1497L555 1331ZM1288 918Q1185 1023 1116 1147L553 1147Q547 1015 524 918ZM1341 641L1341 731L690 731L690 641ZM1341 373L1341 465L690 465L690 373ZM1929 -100L141 -100L141 84L1929 84Z"/></g><g transform="translate(4152.833333333333 2048) scale (1 -1)"><path d="M1974 168L1917 -55L958 -55Q688 -55 524 104Q427 -56 287 -178L106 -37Q376 185 434 502L643 432Q633 389 614 330Q1268 684 1481 1090L285 1090L285 1303L908 1303L908 1712L1131 1712L1131 1303L1755 1303L1755 1090Q1424 494 778 178Q874 152 952 152L1757 152Q1875 152 1974 168Z"/></g><g transform="translate(6200.833333333333 2048) scale (1 -1)"><path d="M1907 344L1475 344L1475 -135L1268 -135L1268 344L834 344L834 594L672 469Q620 593 553 688L553 -133L346 -133L346 559Q281 498 221 449L76 606Q372 820 512 1169L139 1169L139 1379L349 1379L349 1706L556 1706L556 1379L715 1379L715 1187Q675 982 553 801L553 758L670 864Q773 749 834 625L834 1417L1268 1417L1268 1714L1475 1714L1475 1417L1907 1417ZM1702 991L1702 1208L1475 1208L1475 991ZM1268 991L1268 1208L1038 1208L1038 991ZM1702 553L1702 782L1475 782L1475 553ZM1268 553L1268 782L1038 782L1038 553Z"/></g><g transform="translate(8817.833333333332 2048) scale (1 -1)"><path d="M1933 932L1716 932L1716 72Q1716 -12 1673 -66.5Q1630 -121 1550 -121L1415 -121L1360 72Q1430 59 1483 59Q1536 59 1536 119L1536 932L1466 932L1466 647Q1466 104 1141 -143L989 -10Q1134 90 1210 241.5Q1286 393 1286 647L1286 932L1040 932L1040 1122L1376 1122L1376 1300L1122 1300L1122 1491L1376 1491L1376 1712L1581 1712L1581 1491L1858 1491L1858 1300L1581 1300L1581 1122L1933 1122ZM991 932L813 932L813 61Q813 -22 769.5 -76.5Q726 -131 647 -131L516 -131L461 61Q530 49 580 49Q633 49 633 106L633 932L567 932L567 629Q567 309 485.5 139.5Q404 -30 256 -160L121 -27Q247 72 317 215Q387 358 387 629L387 932L143 932L143 1122L467 1122L467 1300L213 1300L213 1491L467 1491L467 1712L672 1712L672 1491L938 1491L938 1300L672 1300L672 1122L991 1122ZM1970 315L1815 270Q1803 551 1737 774L1876 821Q1953 604 1970 315ZM1255 774Q1224 468 1135 217L989 262Q1006 299 1028 375L903 350Q892 569 836 762L969 799Q1026 580 1040 422Q1090 611 1110 815ZM354 768Q332 445 246 240L98 283Q188 485 211 797Z"/></g><g transform="translate(10865.833333333332 2048) scale (1 -1)"><path d="M1950 -84L127 -84L127 84L915 84L915 190L293 190L293 356L915 356L915 449L780 389Q723 511 645 592L811 664L451 664L569 541Q448 454 242 377L119 547Q312 598 399 664L145 664L145 825L928 825L928 891L264 891L264 1041L928 1041L928 1107L330 1107L330 1655L1733 1655L1733 1107L1137 1107L1137 1041L1808 1041L1808 891L1137 891L1137 825L1919 825L1919 664L1765 664Q1859 587 1944 477L1743 381Q1642 518 1530 598L1636 664L1284 664Q1364 586 1427 477L1233 397Q1187 495 1092 594L1266 664L840 664Q919 583 979 477L934 457L1147 457L1147 356L1778 356L1778 190L1147 190L1147 84L1950 84ZM1522 1519L1137 1519L1137 1447L1522 1447ZM928 1447L928 1519L541 1519L541 1447ZM1522 1315L1137 1315L1137 1243L1522 1243ZM928 1243L928 1315L541 1315L541 1243Z"/></g><g transform="translate(12913.833333333332 2048) scale (1 -1)"><path d="M1907 1128L852 1128L852 1346L1232 1346L1232 1712L1441 1712L1441 1346L1907 1346ZM821 750Q683 668 610 631L610 72Q610 -133 428 -133L221 -133L162 88Q217 80 288 80Q355 80 378 96Q401 112 401 154L401 528Q316 488 186 434L102 645Q249 692 401 762L401 1143L141 1143L141 1356L401 1356L401 1712L610 1712L610 1356L801 1356L801 1143L610 1143L610 864Q765 946 821 979ZM1952 -63L743 -63L743 155L1368 155Q1508 531 1559 1069L1790 1001Q1723 531 1585 155L1952 155ZM1290 317L1077 244Q1036 685 907 940L1108 1026Q1260 699 1290 317Z"/></g></g></g><g transform="translate(-906 -521)"><rect x="0" y="0" width="86" height="28" rx="10" ry="10" style="fill:#E0E0E0;stroke:#707070;stroke-width:1px;"/><g transform="translate (5 5) scale(0.005859375)" style="fill:#4F4F4F;"><g transform="translate(56.83333333333303 2048) scale (1 -1)"><path d="M1920 1440L1349 1440L1349 880Q1584 976 1768 1184L1912 1024Q1664 776 1349 640L1349 205Q1349 157 1405 157L1637 157Q1723 157 1736 258.5Q1749 360 1751 512L1952 432Q1941 138 1886.5 41Q1832 -56 1714 -56L1374 -56Q1142 -56 1142 168L1142 1440L704 1440Q688 1304 656 1192L1064 1192Q1064 728 856 412Q648 96 232 -144L112 56Q440 208 624 440Q532 552 432 600L544 768Q672 691 736 626Q816 782 853 980L581 980Q473 728 264 512L112 664Q448 968 488 1440L142 1440L142 1648L1920 1648Z"/></g><g transform="translate(2104.833333333333 2048) scale (1 -1)"><path d="M1907 344L1475 344L1475 -135L1268 -135L1268 344L834 344L834 594L672 469Q620 593 553 688L553 -133L346 -133L346 559Q281 498 221 449L76 606Q372 820 512 1169L139 1169L139 1379L349 1379L349 1706L556 1706L556 1379L715 1379L715 1187Q675 982 553 801L553 758L670 864Q773 749 834 625L834 1417L1268 1417L1268 1714L1475 1714L1475 1417L1907 1417ZM1702 991L1702 1208L1475 1208L1475 991ZM1268 991L1268 1208L1038 1208L1038 991ZM1702 553L1702 782L1475 782L1475 553ZM1268 553L1268 782L1038 782L1038 553Z"/></g><g transform="translate(4721.833333333333 2048) scale (1 -1)"><path d="M1914 1317L1699 1317L1699 1114L1492 1114L1492 1317L1126 1317L1126 1126L918 1126L918 1317L704 1317L704 1513L918 1513L918 1712L1126 1712L1126 1513L1492 1513L1492 1712L1699 1712L1699 1513L1914 1513ZM729 303Q447 179 170 74L88 274L342 367L342 975L137 975L137 1186L342 1186L342 1653L551 1653L551 1186L727 1186L727 975L551 975L551 449L729 520ZM1982 709L1864 520Q1687 604 1540 717L1540 606L1049 606L1049 709Q941 616 766 502L641 688Q1055 900 1245 1270L1446 1194L1409 1128Q1615 857 1982 709ZM1438 803Q1354 877 1292 961Q1232 884 1151 803ZM1763 -133L1554 -133L1554 -59L1063 -59L1063 -133L854 -133L854 510L1763 510ZM1554 137L1554 313L1063 313L1063 137Z"/></g><g transform="translate(6769.833333333333 2048) scale (1 -1)"><path d="M1108 1655L1109 1422Q1109 797 1078 433Q1047 69 977.5 -17Q908 -103 761 -103Q695 -103 588 -90L532 127Q672 101 722 101Q802 101 836.5 179Q871 257 883 508L621 508Q524 90 236 -152L76 -25Q329 182 418 508L211 508L211 705L459 705Q476 817 483 993L213 993L213 1190L489 1190L487 1462L156 1462L156 1655ZM909 1190L910 1280Q910 1390 901 1462L688 1462L688 1190ZM905 993L680 993Q674 847 655 705L895 705Q905 823 905 993ZM1737 1008Q1956 777 1956 489Q1956 150 1654 150Q1604 150 1532 160L1485 377Q1547 355 1613 355Q1746 355 1746 512Q1746 745 1481 973Q1622 1251 1671 1444L1438 1444L1438 -133L1233 -133L1233 1653L1905 1653L1905 1444Q1863 1309 1737 1008Z"/></g><g transform="translate(8817.833333333332 2048) scale (1 -1)"><path d="M1954 304Q1954 142 1891 19Q1828 -104 1688 -104L1417 -104Q1316 -104 1260 -45.5Q1204 13 1204 104L1204 660L852 597L842 806L1204 871L1204 1327Q1026 1289 924 1278L840 1489Q1350 1531 1745 1714L1870 1530Q1705 1457 1421 1380L1421 909L1917 1006L1927 798L1421 700L1421 164Q1421 100 1483 100L1624 100Q1745 100 1745 390L1745 399L1954 319ZM840 1143L606 1143L606 854L788 954L788 729Q680 664 606 625L606 80Q606 -137 416 -137L233 -137L164 88Q234 78 279 78Q347 78 372 92Q397 106 397 154L397 520Q318 482 193 428L100 629Q259 688 397 752L397 1143L143 1143L143 1356L397 1356L397 1712L606 1712L606 1356L840 1356Z"/></g><g transform="translate(10865.833333333332 2048) scale (1 -1)"><path d="M1942 903L1757 903L1757 -135L1552 -135L1552 903L1405 903L1405 596Q1405 337 1366.5 179Q1328 21 1208 -154L1028 -49Q1117 72 1158.5 184.5Q1200 297 1200 537L1200 1561Q1548 1572 1806 1716L1933 1536Q1646 1398 1405 1382L1405 1116L1942 1116ZM1161 324L129 324L129 514L303 514L303 1329L145 1329L145 1520L303 1520L303 1712L508 1712L508 1520L801 1520L801 1712L1006 1712L1006 1520L1145 1520L1145 1329L1006 1329L1006 514L1161 514ZM801 1184L801 1329L508 1329L508 1184ZM801 850L801 997L508 997L508 850ZM801 514L801 664L508 664L508 514ZM1085 104L913 -49Q820 86 668 162L834 295Q966 229 1085 104ZM606 168Q413 -47 219 -152L74 14Q248 96 440 295Z"/></g></g></g><g transform="translate(-906 -473)"><rect x="0" y="0" width="98" height="28" rx="10" ry="10" style="fill:#E0E0E0;stroke:#707070;stroke-width:1px;"/><g transform="translate (5 5) scale(0.005859375)" style="fill:#4F4F4F;"><g transform="translate(56.83333333333303 2048) scale (1 -1)"><path d="M858 1257Q669 924 432 610Q709 691 840 752L840 551Q560 437 205 346L137 518Q311 732 428 915L176 870L125 1057Q326 1301 475 1716L686 1642Q522 1303 387 1110L557 1133Q584 1179 668 1348ZM1995 938L1833 795L1763 874Q1758 143 1688.5 7.5Q1619 -128 1378 -128Q1323 -128 1274 -123L1223 102Q1346 82 1413 82Q1453 82 1483 108Q1513 134 1530.5 337.5Q1548 541 1548 748L1348 748Q1319 441 1205 238Q1091 35 821 -139L668 18Q896 136 1007 305Q1118 474 1145 748L958 748L958 891L879 795L717 938Q1015 1231 1108 1702L1307 1642Q1194 1203 1008 956L1698 956Q1478 1230 1372 1642L1571 1702Q1653 1270 1995 938ZM877 238Q500 53 199 -43L125 166Q544 293 877 442Z"/></g><g transform="translate(2104.833333333333 2048) scale (1 -1)"><path d="M1931 682L1735 682L1735 342L1104 342L1104 102Q1104 -133 893 -133L670 -133L606 80Q722 63 799 63Q889 63 889 135L889 342L279 342L279 535L889 535L889 682L129 682L129 872L889 872L889 1014L391 1014Q321 964 236 913L102 1063Q503 1287 629 1726L823 1671Q813 1631 788 1563L1434 1563L1434 1382L1317 1204L1735 1204L1735 872L1931 872ZM1178 1372L705 1372Q659 1284 596 1204L1073 1204Q1135 1295 1178 1372ZM1520 872L1520 1014L1104 1014L1104 872ZM1520 535L1520 682L1104 682L1104 535Z"/></g><g transform="translate(4152.833333333333 2048) scale (1 -1)"><path d="M1921 1077L1571 1077Q1451 655 1221 389Q1705 182 1886 27L1745 -143Q1555 15 1051 225Q750 -20 217 -145L100 35Q547 126 819 315Q517 429 297 481Q471 762 623 1077L145 1077L145 1290L721 1290Q830 1541 885 1741L1102 1655Q1035 1463 963 1290L1921 1290ZM1346 1077L870 1077Q730 761 625 592Q740 577 1008 475Q1230 703 1346 1077Z"/></g><g transform="translate(6200.833333333333 2048) scale (1 -1)"><path d="M1907 344L1475 344L1475 -135L1268 -135L1268 344L834 344L834 594L672 469Q620 593 553 688L553 -133L346 -133L346 559Q281 498 221 449L76 606Q372 820 512 1169L139 1169L139 1379L349 1379L349 1706L556 1706L556 1379L715 1379L715 1187Q675 982 553 801L553 758L670 864Q773 749 834 625L834 1417L1268 1417L1268 1714L1475 1714L1475 1417L1907 1417ZM1702 991L1702 1208L1475 1208L1475 991ZM1268 991L1268 1208L1038 1208L1038 991ZM1702 553L1702 782L1475 782L1475 553ZM1268 553L1268 782L1038 782L1038 553Z"/></g><g transform="translate(8817.833333333332 2048) scale (1 -1)"><path d="M1933 1464L500 1464L500 760Q500 420 445 216Q390 12 281 -141L100 0Q291 225 291 758L291 1661L1933 1661ZM1950 377Q1928 182 1860 55Q1792 -72 1599 -72L979 -72Q735 -72 735 150L735 1237L1724 1237L1725 1141Q1725 996 1719.5 818Q1714 640 1704.5 594Q1695 548 1668 514.5Q1641 481 1601 465Q1561 449 1464 449Q1277 449 1186 459L1133 676Q1231 662 1374 662Q1478 662 1492.5 694.5Q1507 727 1507 930L1505 1040L946 1040L946 184Q946 129 1001 129L1575 129Q1624 129 1659.5 159.5Q1695 190 1713 299.5Q1731 409 1731 463Z"/></g><g transform="translate(10865.833333333332 2048) scale (1 -1)"><path d="M1952 -84L115 -84L115 106L928 106L928 311L236 311L236 502L928 502L928 692L328 692L328 1659L1733 1659L1733 692L1137 692L1137 502L1843 502L1843 311L1137 311L1137 106L1952 106ZM1524 1274L1524 1468L1135 1468L1135 1274ZM926 1274L926 1468L537 1468L537 1274ZM1524 883L1524 1081L1135 1081L1135 883ZM926 883L926 1081L537 1081L537 883Z"/></g><g transform="translate(12913.833333333332 2048) scale (1 -1)"><path d="M1942 903L1757 903L1757 -135L1552 -135L1552 903L1405 903L1405 596Q1405 337 1366.5 179Q1328 21 1208 -154L1028 -49Q1117 72 1158.5 184.5Q1200 297 1200 537L1200 1561Q1548 1572 1806 1716L1933 1536Q1646 1398 1405 1382L1405 1116L1942 1116ZM1161 324L129 324L129 514L303 514L303 1329L145 1329L145 1520L303 1520L303 1712L508 1712L508 1520L801 1520L801 1712L1006 1712L1006 1520L1145 1520L1145 1329L1006 1329L1006 514L1161 514ZM801 1184L801 1329L508 1329L508 1184ZM801 850L801 997L508 997L508 850ZM801 514L801 664L508 664L508 514ZM1085 104L913 -49Q820 86 668 162L834 295Q966 229 1085 104ZM606 168Q413 -47 219 -152L74 14Q248 96 440 295Z"/></g></g></g><g transform="translate(-906 -425)"><rect x="0" y="0" width="98" height="28" rx="10" ry="10" style="fill:#E0E0E0;stroke:#707070;stroke-width:1px;"/><g transform="translate (5 5) scale(0.005859375)" style="fill:#4F4F4F;"><g transform="translate(56.83333333333303 2048) scale (1 -1)"><path d="M1931 1407Q1902 1150 1827 889L1634 936Q1674 1034 1696 1194L1386 1194Q1330 1032 1200 828L1037 953Q1157 1132 1208 1292Q1259 1452 1278 1718L1485 1677Q1465 1507 1444 1407ZM1161 324L129 324L129 514L303 514L303 1329L145 1329L145 1520L303 1520L303 1712L508 1712L508 1520L801 1520L801 1712L1006 1712L1006 1520L1145 1520L1145 1329L1006 1329L1006 514L1161 514ZM801 1184L801 1329L508 1329L508 1184ZM801 850L801 997L508 997L508 850ZM801 514L801 664L508 664L508 514ZM1995 14L1847 -156Q1558 97 1479 348Q1400 104 1141 -156L975 -6Q1362 333 1362 776L1362 1065L1567 1065L1567 817Q1567 627 1684.5 404Q1802 181 1995 14ZM1042 141L879 0Q807 90 668 162L834 295Q967 228 1042 141ZM606 168Q413 -47 219 -152L74 14Q248 96 440 295Z"/></g><g transform="translate(2104.833333333333 2048) scale (1 -1)"><path d="M1878 975L1053 975L1053 635Q1053 153 905 -139L733 0Q848 242 848 670L848 1477L1313 1477Q1214 1569 1116 1602L1272 1743Q1441 1665 1530 1556L1432 1477L1878 1477ZM1673 1165L1673 1286L1053 1286L1053 1165ZM768 854Q758 101 694 -14Q630 -129 465 -129L375 -129L291 84Q349 70 440 70Q481 70 505 86Q529 102 536.5 132Q544 162 559.5 324Q575 486 578 659L152 659L152 840L246 1368L432 1346L344 854L457 854L553 1454L117 1454L117 1649L752 1649L752 1454L655 854ZM1917 47Q1917 -135 1745 -135L1610 -135L1554 61Q1652 53 1706 53Q1733 53 1733 82L1733 322L1673 322L1673 94L1542 94L1542 322L1485 322L1485 -16L1354 -16L1354 322L1292 322L1292 -135L1108 -135L1108 870L1917 870ZM1733 512L1733 678L1673 678L1673 512ZM1542 512L1542 678L1485 678L1485 512ZM1354 512L1354 678L1292 678L1292 512ZM508 311Q363 243 178 182L92 362Q289 412 508 506Z"/></g><g transform="translate(4152.833333333333 2048) scale (1 -1)"><path d="M1974 168L1917 -55L958 -55Q688 -55 524 104Q427 -56 287 -178L106 -37Q376 185 434 502L643 432Q633 389 614 330Q1268 684 1481 1090L285 1090L285 1303L908 1303L908 1712L1131 1712L1131 1303L1755 1303L1755 1090Q1424 494 778 178Q874 152 952 152L1757 152Q1875 152 1974 168Z"/></g><g transform="translate(6200.833333333333 2048) scale (1 -1)"><path d="M1907 344L1475 344L1475 -135L1268 -135L1268 344L834 344L834 594L672 469Q620 593 553 688L553 -133L346 -133L346 559Q281 498 221 449L76 606Q372 820 512 1169L139 1169L139 1379L349 1379L349 1706L556 1706L556 1379L715 1379L715 1187Q675 982 553 801L553 758L670 864Q773 749 834 625L834 1417L1268 1417L1268 1714L1475 1714L1475 1417L1907 1417ZM1702 991L1702 1208L1475 1208L1475 991ZM1268 991L1268 1208L1038 1208L1038 991ZM1702 553L1702 782L1475 782L1475 553ZM1268 553L1268 782L1038 782L1038 553Z"/></g><g transform="translate(8817.833333333332 2048) scale (1 -1)"><path d="M1954 1454L1804 1454L1804 135Q1804 -135 1565 -135L1378 -135L1311 96Q1472 82 1516 82Q1599 82 1599 180L1599 1454L827 1454L827 1651L1954 1651ZM641 1020Q727 917 770 770.5Q813 624 813 510Q813 252 548 252Q505 252 432 264L379 428L379 -133L174 -133L174 1647L768 1647L768 1438Q723 1218 641 1020ZM379 479Q474 455 532 455Q598 455 598 522Q598 738 426 1006Q496 1161 555 1438L379 1438ZM1481 319L1274 319L1274 436L1096 436L1096 311L891 311L891 1231L1481 1231ZM1274 633L1274 1034L1096 1034L1096 633Z"/></g><g transform="translate(10865.833333333332 2048) scale (1 -1)"><path d="M1892 -133L1688 -133L1688 -16L1217 -16L1217 -133L1012 -133L1012 1446L1284 1446Q1355 1622 1374 1757L1604 1710Q1562 1560 1503 1446L1892 1446ZM1688 825L1688 1237L1217 1237L1217 825ZM1688 193L1688 616L1217 616L1217 193ZM907 477Q907 319 776 319L688 319L637 467L637 -135L434 -135L434 1122L344 1122L344 334L164 334L164 1335L434 1335L434 1712L637 1712L637 1335L907 1335ZM727 545L727 1122L637 1122L637 510L696 510Q727 510 727 545Z"/></g><g transform="translate(12913.833333333332 2048) scale (1 -1)"><path d="M1884 1532L1739 1393Q1670 1490 1518 1585L1642 1722Q1802 1650 1884 1532ZM1999 227Q1927 -139 1758 -139Q1592 -139 1457 229Q1322 597 1274 1171L129 1171L129 1380L1262 1380Q1254 1528 1254 1646L1255 1714L1460 1714Q1460 1542 1468 1380L1937 1380L1937 1171L1481 1171Q1521 663 1612.5 392.5Q1704 122 1748 122Q1787 122 1810 317ZM1010 743L819 657Q719 913 592 1034L778 1128Q936 954 1010 743ZM1112 330Q1094 105 1023 18.5Q952 -68 795 -68L690 -68Q465 -68 465 152L465 870L674 870L674 197Q674 141 729 141L786 141Q832 141 855 159.5Q878 178 894.5 261.5Q911 345 913 403ZM1393 244L1219 150Q1138 426 983 598L1163 696Q1345 462 1393 244ZM438 608Q383 336 250 129L70 227Q190 378 256 672Z"/></g></g></g><g transform="translate(-906 -377)"><rect x="0" y="0" width="98" height="28" rx="10" ry="10" style="fill:#E0E0E0;stroke:#707070;stroke-width:1px;"/><g transform="translate (5 5) scale(0.005859375)" style="fill:#4F4F4F;"><g transform="translate(56.83333333333303 2048) scale (1 -1)"><path d="M1067 733L193 733L193 1548Q330 1603 475 1735L635 1599Q521 1507 397 1444L397 1274L582 1274L582 1077L397 1077L397 932L860 932L860 1077L678 1077L678 1274L860 1274L860 1407L666 1407L666 1604L1067 1604ZM1919 995L1726 995Q1657 995 1610 1047.5Q1563 1100 1563 1169L1563 1454L1399 1454L1399 1323Q1399 1111 1241 944L1075 1083Q1194 1183 1194 1354L1194 1653L1767 1653L1767 1243Q1767 1194 1819 1194L1919 1194ZM1974 4L1843 -162Q1625 -42 1489 94Q1368 -25 1163 -162L1008 4Q1213 99 1364 244Q1230 438 1182 725L1124 725L1124 924L1835 924L1835 725Q1772 444 1618 240Q1741 113 1974 4ZM1628 725L1384 725Q1417 536 1495 399Q1604 557 1628 725ZM1135 117Q662 6 195 -47L104 137Q280 153 526 195L526 451L166 451L166 641L1079 641L1079 451L735 451L735 231Q982 277 1135 317Z"/></g><g transform="translate(2104.833333333333 2048) scale (1 -1)"><path d="M1903 1450L162 1450L162 1659L1903 1659ZM1958 43L1851 -150Q1291 35 1075 496Q928 24 193 -150L78 43Q543 138 734.5 335Q926 532 926 895L926 1405L1135 1393L1135 827Q1250 492 1444.5 314.5Q1639 137 1958 43ZM1806 1128Q1721 749 1552 508L1356 604Q1530 852 1610 1192ZM700 1124Q618 777 438 502L254 606Q420 837 506 1186Z"/></g><g transform="translate(4152.833333333333 2048) scale (1 -1)"><path d="M1974 168L1917 -55L958 -55Q688 -55 524 104Q427 -56 287 -178L106 -37Q376 185 434 502L643 432Q633 389 614 330Q1268 684 1481 1090L285 1090L285 1303L908 1303L908 1712L1131 1712L1131 1303L1755 1303L1755 1090Q1424 494 778 178Q874 152 952 152L1757 152Q1875 152 1974 168Z"/></g><g transform="translate(6200.833333333333 2048) scale (1 -1)"><path d="M1907 344L1475 344L1475 -135L1268 -135L1268 344L834 344L834 594L672 469Q620 593 553 688L553 -133L346 -133L346 559Q281 498 221 449L76 606Q372 820 512 1169L139 1169L139 1379L349 1379L349 1706L556 1706L556 1379L715 1379L715 1187Q675 982 553 801L553 758L670 864Q773 749 834 625L834 1417L1268 1417L1268 1714L1475 1714L1475 1417L1907 1417ZM1702 991L1702 1208L1475 1208L1475 991ZM1268 991L1268 1208L1038 1208L1038 991ZM1702 553L1702 782L1475 782L1475 553ZM1268 553L1268 782L1038 782L1038 553Z"/></g><g transform="translate(8817.833333333332 2048) scale (1 -1)"><path d="M1270 1298L760 1298Q678 1128 562 969Q630 935 695 889Q830 1068 888 1226L1095 1152Q924 808 724 602.5Q524 397 201 236L59 418Q339 526 536 728Q385 829 158 918L251 1107L359 1053Q464 1185 512 1298L135 1298L135 1495L601 1494L601 1712L810 1712L810 1494L1270 1495ZM1886 121Q1886 -137 1679 -137L1460 -137L1395 88Q1518 77 1575 77Q1634 77 1655.5 92.5Q1677 108 1677 156L1677 1712L1886 1712ZM1538 279L1329 279L1329 1491L1538 1491ZM1323 -33L1126 -170Q1010 24 791 188Q529 -30 209 -162L61 4Q785 296 1053 854L1245 770Q1144 545 954 342Q1167 183 1323 -33Z"/></g><g transform="translate(10865.833333333332 2048) scale (1 -1)"><path d="M1843 1163L764 1163L764 1616L958 1616L958 1360L1206 1360L1206 1712L1401 1712L1401 1360L1649 1360L1649 1616L1843 1616ZM711 293Q328 115 158 57L82 252Q195 289 313 332L313 813L168 813L168 1010L313 1010L313 1374L143 1374L143 1571L705 1571L705 1374L518 1374L518 1010L670 1010L670 813L518 813L518 414L711 496ZM1952 856L1425 856Q1400 780 1374 717L1862 717L1862 63Q1862 -42 1816 -87.5Q1770 -133 1655 -133L1542 -133L1526 -63L1364 -63L1364 518L1253 518L1253 -63L1063 -63L1063 518L952 518L952 -133L756 -133L756 717L1155 717Q1177 770 1204 856L707 856L707 1053L1952 1053ZM1667 131L1667 518L1554 518L1554 72L1584 70Q1667 70 1667 131Z"/></g><g transform="translate(12913.833333333332 2048) scale (1 -1)"><path d="M1942 903L1757 903L1757 -135L1552 -135L1552 903L1405 903L1405 596Q1405 337 1366.5 179Q1328 21 1208 -154L1028 -49Q1117 72 1158.5 184.5Q1200 297 1200 537L1200 1561Q1548 1572 1806 1716L1933 1536Q1646 1398 1405 1382L1405 1116L1942 1116ZM1161 324L129 324L129 514L303 514L303 1329L145 1329L145 1520L303 1520L303 1712L508 1712L508 1520L801 1520L801 1712L1006 1712L1006 1520L1145 1520L1145 1329L1006 1329L1006 514L1161 514ZM801 1184L801 1329L508 1329L508 1184ZM801 850L801 997L508 997L508 850ZM801 514L801 664L508 664L508 514ZM1085 104L913 -49Q820 86 668 162L834 295Q966 229 1085 104ZM606 168Q413 -47 219 -152L74 14Q248 96 440 295Z"/></g></g></g><g transform="translate(-906 -329)"><rect x="0" y="0" width="86" height="28" rx="10" ry="10" style="fill:#E0E0E0;stroke:#707070;stroke-width:1px;"/><g transform="translate (5 5) scale(0.005859375)" style="fill:#4F4F4F;"><g transform="translate(56.83333333333303 2048) scale (1 -1)"><path d="M1948 -84L731 -84L731 106L1223 106L1223 240L776 240L776 430L909 430L909 674L754 674L754 862L909 862L909 1096L764 1096L764 1286L1223 1286L1223 1421Q1000 1399 817 1393L750 1587Q1274 1590 1737 1716L1876 1540Q1656 1483 1418 1446L1418 1286L1884 1286L1884 1096L1733 1096L1733 862L1923 862L1923 674L1733 674L1733 430L1888 430L1888 240L1418 240L1418 106L1948 106ZM702 94L508 94L508 174L358 174L358 47L164 47L164 1608L702 1608ZM508 1198L508 1413L358 1413L358 1198ZM508 786L508 1001L358 1001L358 786ZM508 371L508 590L358 590L358 371ZM1223 862L1223 1096L1103 1096L1103 862ZM1223 430L1223 674L1103 674L1103 430ZM1539 862L1539 1096L1418 1096L1418 862ZM1539 430L1539 674L1418 674L1418 430Z"/></g><g transform="translate(2104.833333333333 2048) scale (1 -1)"><path d="M1907 344L1475 344L1475 -135L1268 -135L1268 344L834 344L834 594L672 469Q620 593 553 688L553 -133L346 -133L346 559Q281 498 221 449L76 606Q372 820 512 1169L139 1169L139 1379L349 1379L349 1706L556 1706L556 1379L715 1379L715 1187Q675 982 553 801L553 758L670 864Q773 749 834 625L834 1417L1268 1417L1268 1714L1475 1714L1475 1417L1907 1417ZM1702 991L1702 1208L1475 1208L1475 991ZM1268 991L1268 1208L1038 1208L1038 991ZM1702 553L1702 782L1475 782L1475 553ZM1268 553L1268 782L1038 782L1038 553Z"/></g><g transform="translate(4721.833333333333 2048) scale (1 -1)"><path d="M1946 625L1450 625L1450 -133L1241 -133L1241 625L725 625L725 838L1241 838L1241 1262L1040 1262Q973 1086 846 889L657 993Q885 1340 940 1724L1143 1679Q1122 1555 1104 1475L1833 1475L1833 1262L1450 1262L1450 838L1946 838ZM651 1372L473 1219Q386 1390 213 1534L369 1675Q521 1558 651 1372ZM844 158L426 -141L319 39Q373 76 373 135L373 909L133 909L133 1118L582 1118L582 205L844 391Z"/></g><g transform="translate(6769.833333333333 2048) scale (1 -1)"><path d="M1946 817L125 817L125 1008L485 1008Q395 1148 283 1239L461 1337L166 1337L166 1528L598 1528Q558 1594 500 1653L719 1726Q788 1653 860 1528L1190 1528Q1279 1614 1354 1724L1573 1655Q1519 1572 1475 1528L1884 1528L1884 1337L1642 1337L1790 1241Q1713 1109 1589 1008L1946 1008ZM1608 1337L1325 1337L1325 1008L1513 1008L1368 1094Q1519 1192 1608 1337ZM1116 1008L1116 1337L936 1337L936 1008ZM727 1008L727 1337L479 1337Q619 1231 696 1094L535 1008ZM1673 -135L1458 -135L1458 -51L598 -51L598 -135L383 -135L383 735L1673 735ZM1458 432L1458 545L598 545L598 432ZM1458 139L1458 252L598 252L598 139Z"/></g><g transform="translate(8817.833333333332 2048) scale (1 -1)"><path d="M1913 1333L1653 1333L1653 1149L1448 1149L1448 1333L1118 1333L1118 1149L913 1149L913 1333L664 1333L664 1530L913 1530L913 1712L1118 1712L1118 1530L1448 1530L1448 1712L1653 1712L1653 1530L1913 1530ZM631 1397L453 1243Q365 1414 193 1559L350 1700Q498 1586 631 1397ZM1929 831L1260 831Q1216 738 1153 651L1776 651L1776 -135L1571 -135L1571 -33L1147 -33L1147 -135L942 -135L942 420Q899 379 791 287L668 457Q901 633 1022 831L676 831L676 1028L1118 1028Q1160 1147 1178 1270L1378 1229Q1359 1133 1331 1028L1929 1028ZM1571 164L1571 455L1147 455L1147 164ZM737 90L426 -121L319 59Q373 96 373 152L373 909L133 909L133 1118L582 1118L582 225L733 319Z"/></g><g transform="translate(10865.833333333332 2048) scale (1 -1)"><path d="M1942 903L1757 903L1757 -135L1552 -135L1552 903L1405 903L1405 596Q1405 337 1366.5 179Q1328 21 1208 -154L1028 -49Q1117 72 1158.5 184.5Q1200 297 1200 537L1200 1561Q1548 1572 1806 1716L1933 1536Q1646 1398 1405 1382L1405 1116L1942 1116ZM1161 324L129 324L129 514L303 514L303 1329L145 1329L145 1520L303 1520L303 1712L508 1712L508 1520L801 1520L801 1712L1006 1712L1006 1520L1145 1520L1145 1329L1006 1329L1006 514L1161 514ZM801 1184L801 1329L508 1329L508 1184ZM801 850L801 997L508 997L508 850ZM801 514L801 664L508 664L508 514ZM1085 104L913 -49Q820 86 668 162L834 295Q966 229 1085 104ZM606 168Q413 -47 219 -152L74 14Q248 96 440 295Z"/></g></g></g><g transform="translate(-906 -281)"><rect x="0" y="0" width="46" height="28" rx="10" ry="10" style="fill:#E0E0E0;stroke:#707070;stroke-width:1px;"/><g transform="translate (5 5) scale(0.005859375)" style="fill:#4F4F4F;"><g transform="translate(0 2048) scale (1 -1)"><path d="M1896 639L1077 639Q1197 525 1274 346L1090 236Q1022 423 889 545L1030 639L158 639L158 834L717 834L717 1462L213 1462L213 1657L1829 1657L1829 1462L1329 1462L1329 834L1896 834ZM1124 834L1124 1462L922 1462L922 834ZM1790 1339Q1694 1055 1544 868L1372 979Q1516 1142 1612 1413ZM676 952L496 862Q396 1144 256 1303L428 1413Q588 1215 676 952ZM1556 246Q1542 63 1470.5 -16.5Q1399 -96 1241 -96L854 -96Q627 -96 627 125L627 520L838 520L838 158Q838 102 893 102L1225 102Q1275 102 1295 115.5Q1315 129 1333.5 185Q1352 241 1352 319ZM1964 70L1774 -35Q1690 215 1520 397L1686 512Q1869 316 1964 70ZM582 373Q473 128 272 -68L111 68Q300 235 414 473Z"/></g><g transform="translate(2048 2048) scale (1 -1)"><path d="M1989 946L1866 799Q1633 1001 1532 1182L1532 743L1327 743L1327 1190Q1245 997 1053 811L911 936Q1083 1068 1200 1309L1032 1309L1032 1503L1327 1503L1327 1712L1532 1712L1532 1503L1919 1503L1919 1309L1659 1309Q1766 1108 1989 946ZM1012 1094L879 981Q804 1095 737 1153L737 743L532 743L532 1155Q461 983 258 760L117 889Q285 1049 418 1309L139 1309L139 1503L532 1503L532 1712L737 1712L737 1503L977 1503L977 1309L737 1309L737 1190L844 1274Q936 1199 1012 1094ZM1661 510Q1226 -98 346 -152L252 31Q683 54 948 168Q864 282 758 348L915 467Q1004 413 1126 262Q1285 364 1401 504L862 504Q702 346 399 207L272 365Q709 522 895 848L1073 768Q1049 728 1024 694L1661 694Z"/></g><g transform="translate(4096 2048) scale (1 -1)"><path d="M1907 344L1475 344L1475 -135L1268 -135L1268 344L834 344L834 594L672 469Q620 593 553 688L553 -133L346 -133L346 559Q281 498 221 449L76 606Q372 820 512 1169L139 1169L139 1379L349 1379L349 1706L556 1706L556 1379L715 1379L715 1187Q675 982 553 801L553 758L670 864Q773 749 834 625L834 1417L1268 1417L1268 1714L1475 1714L1475 1417L1907 1417ZM1702 991L1702 1208L1475 1208L1475 991ZM1268 991L1268 1208L1038 1208L1038 991ZM1702 553L1702 782L1475 782L1475 553ZM1268 553L1268 782L1038 782L1038 553Z"/></g></g></g><g transform="translate(-906 -233)"><rect x="0" y="0" width="110" height="28" rx="10" ry="10" style="fill:#E0E0E0;stroke:#707070;stroke-width:1px;"/><g transform="translate (5 5) scale(0.005859375)" style="fill:#4F4F4F;"><g transform="translate(56.83333333333394 2048) scale (1 -1)"><path d="M926 743Q822 684 676 618L676 80Q676 -137 485 -137L297 -137L227 88Q299 80 389 80Q467 80 467 154L467 535Q372 500 193 442L100 643Q321 709 467 766L467 1143L127 1143L127 1356L467 1356L467 1712L676 1712L676 1356L918 1356L918 1143L676 1143L676 852Q839 926 926 969ZM1980 2L1845 -143Q1671 -20 1559 104Q1454 -18 1307 -143L1186 -35L1186 -133L977 -133L977 1663L1851 1663Q1851 1483 1825 1340Q1799 1197 1764 1151Q1729 1105 1645 1075.5Q1561 1046 1433 1046L1382 1049L1321 1241Q1390 1234 1445 1234Q1537 1234 1576 1256Q1615 1278 1620 1320.5Q1625 1363 1628 1466L1186 1466L1186 979L1882 979Q1860 554 1669 256Q1800 100 1980 2ZM1665 782L1430 782Q1471 581 1552 430Q1628 581 1665 782ZM1440 256Q1285 483 1241 782L1186 782L1186 29Q1337 132 1440 256Z"/></g><g transform="translate(2104.833333333334 2048) scale (1 -1)"><path d="M1964 41L1874 -154Q1358 -144 1042 -4Q677 -135 170 -154L74 41L141 40Q518 40 797 113Q662 187 575 270Q467 198 311 135L176 309Q525 396 672 647L438 647L438 1174Q361 1088 248 981L82 1116Q402 1383 547 1735L735 1657L702 1577L1894 1577L1894 1403L610 1403Q582 1355 543 1303L1665 1303L1665 647L817 647L907 616L864 555L1665 555L1665 381Q1515 225 1278 98Q1518 39 1853 39ZM1460 1049L1460 1139L643 1139L643 1049ZM1460 811L1460 903L643 903L643 811ZM1374 381L729 381Q853 279 1036 195Q1250 285 1374 381Z"/></g><g transform="translate(4152.833333333334 2048) scale (1 -1)"><path d="M1921 1077L1571 1077Q1451 655 1221 389Q1705 182 1886 27L1745 -143Q1555 15 1051 225Q750 -20 217 -145L100 35Q547 126 819 315Q517 429 297 481Q471 762 623 1077L145 1077L145 1290L721 1290Q830 1541 885 1741L1102 1655Q1035 1463 963 1290L1921 1290ZM1346 1077L870 1077Q730 761 625 592Q740 577 1008 475Q1230 703 1346 1077Z"/></g><g transform="translate(6200.833333333334 2048) scale (1 -1)"><path d="M1907 344L1475 344L1475 -135L1268 -135L1268 344L834 344L834 594L672 469Q620 593 553 688L553 -133L346 -133L346 559Q281 498 221 449L76 606Q372 820 512 1169L139 1169L139 1379L349 1379L349 1706L556 1706L556 1379L715 1379L715 1187Q675 982 553 801L553 758L670 864Q773 749 834 625L834 1417L1268 1417L1268 1714L1475 1714L1475 1417L1907 1417ZM1702 991L1702 1208L1475 1208L1475 991ZM1268 991L1268 1208L1038 1208L1038 991ZM1702 553L1702 782L1475 782L1475 553ZM1268 553L1268 782L1038 782L1038 553Z"/></g><g transform="translate(8817.833333333334 2048) scale (1 -1)"><path d="M692 1384L553 1214Q374 1418 178 1511L309 1675Q531 1565 692 1384ZM1827 762L750 762L750 1661L1827 1661ZM1618 1309L1618 1470L958 1470L958 1309ZM1618 952L1618 1116L958 1116L958 952ZM629 907L489 737Q326 928 94 1040L223 1206Q486 1073 629 907ZM1954 -90L563 -90L563 100L1163 100L1163 317L696 317L696 508L1163 508L1163 713L1378 713L1378 508L1872 508L1872 317L1378 317L1378 100L1954 100ZM651 586Q510 150 297 -145L119 -14Q364 346 459 674Z"/></g><g transform="translate(10865.833333333334 2048) scale (1 -1)"><path d="M1950 -84L127 -84L127 84L915 84L915 190L293 190L293 356L915 356L915 449L780 389Q723 511 645 592L811 664L451 664L569 541Q448 454 242 377L119 547Q312 598 399 664L145 664L145 825L928 825L928 891L264 891L264 1041L928 1041L928 1107L330 1107L330 1655L1733 1655L1733 1107L1137 1107L1137 1041L1808 1041L1808 891L1137 891L1137 825L1919 825L1919 664L1765 664Q1859 587 1944 477L1743 381Q1642 518 1530 598L1636 664L1284 664Q1364 586 1427 477L1233 397Q1187 495 1092 594L1266 664L840 664Q919 583 979 477L934 457L1147 457L1147 356L1778 356L1778 190L1147 190L1147 84L1950 84ZM1522 1519L1137 1519L1137 1447L1522 1447ZM928 1447L928 1519L541 1519L541 1447ZM1522 1315L1137 1315L1137 1243L1522 1243ZM928 1243L928 1315L541 1315L541 1243Z"/></g><g transform="translate(12913.833333333334 2048) scale (1 -1)"><path d="M1942 1446L1309 1446L1309 1165L1794 1165L1794 -133L1589 -133L1589 25L473 25L473 -133L268 -133L268 1165L715 1165L715 1446L115 1446L115 1642L1942 1642ZM1105 1165L1105 1446L920 1446L920 1165ZM1589 221L1589 969L1309 969L1309 622Q1309 571 1341 571Q1370 571 1381 606Q1403 684 1406 802L1571 738L1571 732Q1571 606 1533 501Q1495 374 1356 374L1271 374Q1105 374 1105 555L1105 969L918 969Q915 583 657 326L487 446Q710 657 713 969L473 969L473 221Z"/></g><g transform="translate(14961.833333333334 2048) scale (1 -1)"><path d="M1942 903L1757 903L1757 -135L1552 -135L1552 903L1405 903L1405 596Q1405 337 1366.5 179Q1328 21 1208 -154L1028 -49Q1117 72 1158.5 184.5Q1200 297 1200 537L1200 1561Q1548 1572 1806 1716L1933 1536Q1646 1398 1405 1382L1405 1116L1942 1116ZM1161 324L129 324L129 514L303 514L303 1329L145 1329L145 1520L303 1520L303 1712L508 1712L508 1520L801 1520L801 1712L1006 1712L1006 1520L1145 1520L1145 1329L1006 1329L1006 514L1161 514ZM801 1184L801 1329L508 1329L508 1184ZM801 850L801 997L508 997L508 850ZM801 514L801 664L508 664L508 514ZM1085 104L913 -49Q820 86 668 162L834 295Q966 229 1085 104ZM606 168Q413 -47 219 -152L74 14Q248 96 440 295Z"/></g></g></g></g></svg>