<?xml version="1.0" encoding="UTF-8"?>
<svg xmlns="http://www.w3.org/2000/svg" xmlns:xlink="http://www.w3.org/1999/xlink" width="481.21799999999996" height="238.612"><rect width="100%" height="100%" fill="#FFFFFF"/><g transform="scale(1.333) translate(233,97)" style="fill:none;"><g transform="translate(-206,-26)"><path d="M24,14Q24,22 146,18" stroke="#707070" stroke-width="1"/></g><g transform="translate(-152,-25)"><g transform="scale(0.005859375)" style="fill:#4F4F4F;"><g transform="translate(0 2048) scale (1 -1)"><path d="M1907 848L1645 848Q1621 496 1604 358L1833 358L1833 203L1587 203Q1568 -40 1495.5 -87.5Q1423 -135 1325 -135Q1211 -135 1075 -113L1014 63Q1223 20 1366 20Q1419 20 1430 203L473 203L455 109L295 135L408 848L158 848L158 1004L424 1004Q464 1283 496 1604L1708 1604Q1678 1157 1659 1004L1907 1004ZM1538 1448L883 1448Q1110 1366 1325 1147L1210 1038Q1046 1235 735 1366L825 1448L641 1448L584 1004L1499 1004ZM1487 848L813 848Q1107 700 1260 485L1139 385Q969 608 678 770L780 848L563 848Q532 588 492 358L1446 358Q1489 772 1487 848Z"/></g><g transform="translate(2048 2048) scale (1 -1)"><path d="M1886 745L1141 745L1141 61Q1141 -10 1096 -55Q1051 -100 971 -100L719 -100L645 59L903 47Q985 44 985 143L985 745L201 745L201 895L985 895L985 1100Q1234 1263 1409 1462L453 1462L453 1612L1632 1612L1632 1497Q1420 1214 1141 1024L1141 895L1886 895Z"/></g><g transform="translate(4096 2048) scale (1 -1)"><path d="M1133 0Q1133 -127 1084.5 -194Q1036 -261 965 -289L916 -213Q1028 -165 1029 0L928 0L928 205L1133 205Z"/></g><g transform="translate(6144 2048) scale (1 -1)"><path d="M1931 57L1829 -84Q1201 168 1055 694Q892 172 270 -104L152 35Q754 282 893 729L266 729L266 879L926 879Q948 983 961 1227L393 1227L393 1382L963 1382L963 1708L1130 1708L1130 1382L1683 1382L1683 1227L1124 1227Q1118 986 1100 879L1817 879L1817 729L1214 729Q1352 282 1931 57Z"/></g><g transform="translate(8192 2048) scale (1 -1)"><path d="M1915 926L1706 926L1706 678L395 678L395 827L946 827L946 926L164 926L164 1075L946 1075L946 1178L395 1178L395 1327L946 1327L946 1427L217 1427L217 1577L946 1577L946 1714L1102 1714L1102 1577L1845 1577L1845 1427L1102 1427L1102 1327L1706 1327L1706 1075L1915 1075ZM1550 1075L1550 1178L1102 1178L1102 1075ZM1550 827L1550 926L1102 926L1102 827ZM1901 377L1528 377Q1450 277 1331 178Q1679 88 1868 -16L1767 -143Q1500 -4 1169 66Q812 -117 242 -135L166 18Q651 28 930 117L930 121Q595 183 446 193Q486 223 631 377L164 377L164 526L748 526Q781 565 860 676L1014 616L948 526L1901 526ZM1323 377L836 377L745 285Q903 265 1133 223Q1261 300 1323 377Z"/></g></g></g><g transform="translate(-60,-70)"><path d="M29,62Q29,-20 78,14" stroke="#707070" stroke-width="1"/></g><g transform="translate(-60,-22)"><path d="M48,14L78,14" stroke="#707070" stroke-width="1"/></g><g transform="translate(-60,-22)"><path d="M29,14Q29,96 78,62" stroke="#707070" stroke-width="1"/></g><g transform="translate(-206 -26)"><rect x="0" y="0" width="34" height="28" rx="10" ry="10" style="fill:#22AAE0;stroke:#707070;stroke-width:1px;"/><g transform="translate (5 5) scale(0.005859375)" style="fill:#4F4F4F;"><g transform="translate(0 2048) scale (1 -1)"><path d="M1939 649L137 649L137 840L924 840L924 944L303 944L303 1135L924 1135L924 1239L213 1239L213 1430L700 1430Q603 1536 489 1602L641 1739Q797 1644 903 1507L797 1430L1243 1430L1165 1493Q1313 1594 1407 1745L1581 1636Q1498 1513 1399 1430L1845 1430L1845 1239L1139 1239L1139 1135L1757 1135L1757 944L1139 944L1139 840L1939 840ZM1927 -96L137 -96L137 94L334 94L334 561L1729 561L1729 94L1927 94ZM1524 94L1524 369L1325 369L1325 94ZM1130 94L1130 369L932 369L932 94ZM737 94L737 369L539 369L539 94Z"/></g><g transform="translate(2048 2048) scale (1 -1)"><path d="M1946 -53L123 -53L123 156L733 156L733 1421L182 1421L182 1630L1872 1630L1872 1421L1335 1421L1335 156L1946 156ZM1128 156L1128 1421L938 1421L938 156ZM1853 1165Q1774 642 1587 307L1399 408Q1609 816 1647 1231ZM684 373L465 311Q401 754 186 1141L389 1229Q598 854 684 373Z"/></g></g></g><g transform="translate(-60 -22)"><rect x="0" y="0" width="58" height="28" rx="10" ry="10" style="fill:#E0E0E0;stroke:#707070;stroke-width:1px;"/><g transform="translate (5 5) scale(0.005859375)" style="fill:#4F4F4F;"><g transform="translate(0 2048) scale (1 -1)"><path d="M1870 745Q1870 438 1840 217.5Q1810 -3 1734.5 -66Q1659 -129 1530 -129Q1417 -129 1280 -111L1214 102Q1385 76 1524 76Q1559 76 1583 100.5Q1607 125 1630 264.5Q1653 404 1653 555L414 555L414 1528L752 1528Q796 1617 819 1733L1034 1665Q1016 1592 981 1528L1556 1528L1557 1443Q1557 1285 1537.5 1091.5Q1518 898 1438 853Q1358 808 1237 808Q1126 808 1030 825L983 1034Q1101 1011 1186 1011Q1269 1011 1303 1044.5Q1337 1078 1337 1337L623 1337L623 745ZM1538 252L150 252L150 442L1538 442Z"/></g><g transform="translate(2048 2048) scale (1 -1)"><path d="M1907 1128L852 1128L852 1346L1232 1346L1232 1712L1441 1712L1441 1346L1907 1346ZM821 750Q683 668 610 631L610 72Q610 -133 428 -133L221 -133L162 88Q217 80 288 80Q355 80 378 96Q401 112 401 154L401 528Q316 488 186 434L102 645Q249 692 401 762L401 1143L141 1143L141 1356L401 1356L401 1712L610 1712L610 1356L801 1356L801 1143L610 1143L610 864Q765 946 821 979ZM1952 -63L743 -63L743 155L1368 155Q1508 531 1559 1069L1790 1001Q1723 531 1585 155L1952 155ZM1290 317L1077 244Q1036 685 907 940L1108 1026Q1260 699 1290 317Z"/></g><g transform="translate(4096 2048) scale (1 -1)"><path d="M1913 1333L1653 1333L1653 1149L1448 1149L1448 1333L1118 1333L1118 1149L913 1149L913 1333L664 1333L664 1530L913 1530L913 1712L1118 1712L1118 1530L1448 1530L1448 1712L1653 1712L1653 1530L1913 1530ZM631 1397L453 1243Q365 1414 193 1559L350 1700Q498 1586 631 1397ZM1929 831L1260 831Q1216 738 1153 651L1776 651L1776 -135L1571 -135L1571 -33L1147 -33L1147 -135L942 -135L942 420Q899 379 791 287L668 457Q901 633 1022 831L676 831L676 1028L1118 1028Q1160 1147 1178 1270L1378 1229Q1359 1133 1331 1028L1929 1028ZM1571 164L1571 455L1147 455L1147 164ZM737 90L426 -121L319 59Q373 96 373 152L373 909L133 909L133 1118L582 1118L582 225L733 319Z"/></g><g transform="translate(6144 2048) scale (1 -1)"><path d="M1942 903L1757 903L1757 -135L1552 -135L1552 903L1405 903L1405 596Q1405 337 1366.5 179Q1328 21 1208 -154L1028 -49Q1117 72 1158.5 184.5Q1200 297 1200 537L1200 1561Q1548 1572 1806 1716L1933 1536Q1646 1398 1405 1382L1405 1116L1942 1116ZM1161 324L129 324L129 514L303 514L303 1329L145 1329L145 1520L303 1520L303 1712L508 1712L508 1520L801 1520L801 1712L1006 1712L1006 1520L1145 1520L1145 1329L1006 1329L1006 514L1161 514ZM801 1184L801 1329L508 1329L508 1184ZM801 850L801 997L508 997L508 850ZM801 514L801 664L508 664L508 514ZM1085 104L913 -49Q820 86 668 162L834 295Q966 229 1085 104ZM606 168Q413 -47 219 -152L74 14Q248 96 440 295Z"/></g></g></g><g transform="translate(18 -70)"><rect x="0" y="0" width="70" height="28" rx="10" ry="10" style="fill:#E0E0E0;stroke:#707070;stroke-width:1px;"/><g transform="translate (5 5) scale(0.005859375)" style="fill:#4F4F4F;"><g transform="translate(0 2048) scale (1 -1)"><path d="M1907 760L1147 760L1147 -133L915 -133L915 760L158 760L158 973L915 973L915 1712L1147 1712L1147 973L1907 973Z"/></g><g transform="translate(2048 2048) scale (1 -1)"><path d="M1778 1192L291 1192L291 1405L1778 1405ZM1942 178L127 178L127 391L1942 391Z"/></g><g transform="translate(4096 2048) scale (1 -1)"><path d="M1978 127L1911 -92L1509 -92Q1176 -92 965 90Q883 -35 739 -141L584 2Q875 190 924 612L1133 575Q1103 391 1059 272Q1136 199 1245 154L1245 655L750 655L750 731L571 631L571 80Q571 -139 381 -139L215 -139L145 86Q215 78 285 78Q362 78 362 154L362 526L180 444L86 647Q195 687 362 766L362 1143L137 1143L137 1356L362 1356L362 1712L571 1712L571 1356L772 1356L772 1143L571 1143L571 866Q699 930 782 979L782 848L1939 848L1939 655L1450 655L1450 514L1808 514L1808 322L1450 322L1450 111L1761 111Q1879 111 1978 127ZM1819 926L850 926L850 1659L1819 1659ZM1614 1393L1614 1473L1055 1473L1055 1393ZM1614 1112L1614 1208L1055 1208L1055 1112Z"/></g><g transform="translate(6144 2048) scale (1 -1)"><path d="M770 332Q579 220 176 43L76 258Q195 298 362 375L362 977L139 977L139 1190L362 1190L362 1677L571 1677L571 1190L762 1190L762 977L571 977L571 477L770 584ZM1806 251L1597 251L1597 391L1059 391L1059 251L850 251L850 1657L1806 1657ZM1597 1133L1597 1460L1059 1460L1059 1133ZM1597 588L1597 936L1059 936L1059 588ZM1960 -74L682 -74L682 123L1960 123Z"/></g><g transform="translate(8192 2048) scale (1 -1)"><path d="M1907 344L1475 344L1475 -135L1268 -135L1268 344L834 344L834 594L672 469Q620 593 553 688L553 -133L346 -133L346 559Q281 498 221 449L76 606Q372 820 512 1169L139 1169L139 1379L349 1379L349 1706L556 1706L556 1379L715 1379L715 1187Q675 982 553 801L553 758L670 864Q773 749 834 625L834 1417L1268 1417L1268 1714L1475 1714L1475 1417L1907 1417ZM1702 991L1702 1208L1475 1208L1475 991ZM1268 991L1268 1208L1038 1208L1038 991ZM1702 553L1702 782L1475 782L1475 553ZM1268 553L1268 782L1038 782L1038 553Z"/></g></g></g><g transform="translate(18 -22)"><rect x="0" y="0" width="82" height="28" rx="10" ry="10" style="fill:#E0E0E0;stroke:#707070;stroke-width:1px;"/><g transform="translate (5 5) scale(0.005859375)" style="fill:#4F4F4F;"><g transform="translate(0 2048) scale (1 -1)"><path d="M1823 1331L246 1331L246 1540L1823 1540ZM1741 709L328 709L328 918L1741 918ZM1925 33L143 33L143 242L1925 242Z"/></g><g transform="translate(2048 2048) scale (1 -1)"><path d="M1978 999L1839 819Q1369 1014 1016 1423Q675 1005 211 819L74 999Q613 1189 979 1743L1182 1647L1145 1591Q1475 1187 1978 999ZM1147 -133L920 -133L920 1171L1147 1171Z"/></g><g transform="translate(4096 2048) scale (1 -1)"><path d="M1962 -70L1766 -139Q1742 -38 1699 62Q1221 -26 836 -89L752 112L1217 172L1217 514L809 514L809 1364L1217 1364L1217 1712L1432 1712L1432 1364L1839 1364L1839 514L1432 514L1432 202L1614 236Q1574 305 1527 377L1708 463Q1893 208 1962 -70ZM1624 717L1624 1161L1432 1161L1432 717ZM1217 717L1217 1161L1026 1161L1026 717ZM774 1622Q713 1451 586 1276Q742 943 742 463Q742 246 698 59.5Q654 -127 459 -127Q369 -127 274 -109L229 109Q368 77 433 77Q460 77 482.5 92.5Q505 108 524 256Q543 404 543 531L541 616Q418 442 233 291L106 473Q363 674 500 926Q481 1007 442 1108Q337 997 217 913L86 1090Q220 1161 346 1300Q257 1441 123 1542L287 1675Q389 1584 473 1468Q550 1593 584 1710Z"/></g><g transform="translate(6144 2048) scale (1 -1)"><path d="M1653 -133L1438 -133L1438 -6L627 -6L627 -133L412 -133L412 1638L1653 1638ZM1438 1155L1438 1440L627 1440L627 1155ZM1438 674L1438 958L627 958L627 674ZM1438 190L1438 477L627 477L627 190Z"/></g><g transform="translate(8192 2048) scale (1 -1)"><path d="M1939 -72L504 -72L504 -155L289 -155L289 1645L1896 1645L1896 1448L504 1448L504 1155L1690 1155L1690 445L504 445L504 125L1939 125ZM1475 642L1475 958L504 958L504 642Z"/></g><g transform="translate(10240 2048) scale (1 -1)"><path d="M1960 45L1825 -152Q1236 185 1020 705Q831 201 252 -152L96 10Q545 287 730 611.5Q915 936 915 1421L915 1716L1137 1716L1137 1423Q1137 1310 1116 1094Q1116 1056 1187 872.5Q1258 689 1358.5 542.5Q1459 396 1605.5 272Q1752 148 1960 45Z"/></g></g></g><g transform="translate(18 26)"><rect x="0" y="0" width="82" height="28" rx="10" ry="10" style="fill:#E0E0E0;stroke:#707070;stroke-width:1px;"/><g transform="translate (5 5) scale(0.005859375)" style="fill:#4F4F4F;"><g transform="translate(0 2048) scale (1 -1)"><path d="M1823 1331L246 1331L246 1540L1823 1540ZM1741 709L328 709L328 918L1741 918ZM1925 33L143 33L143 242L1925 242Z"/></g><g transform="translate(2048 2048) scale (1 -1)"><path d="M1978 999L1839 819Q1369 1014 1016 1423Q675 1005 211 819L74 999Q613 1189 979 1743L1182 1647L1145 1591Q1475 1187 1978 999ZM1147 -133L920 -133L920 1171L1147 1171Z"/></g><g transform="translate(4096 2048) scale (1 -1)"><path d="M1911 1446L1161 1446Q1125 1337 1059 1206L1660 1206L1660 -137L1445 -137L1445 -16L607 -16L607 -137L392 -137L392 1206L819 1206Q885 1333 924 1446L147 1446L147 1642L1911 1642ZM1445 705L1445 1010L607 1010L607 705ZM1445 180L1445 508L607 508L607 180Z"/></g><g transform="translate(6144 2048) scale (1 -1)"><path d="M1935 1155L1608 1155L1608 1092L1884 1092L1884 928L1608 928L1608 778L1393 778L1393 928L1116 928L1116 1092L1393 1092L1393 1155L1067 1155L1067 1319L1245 1319Q1237 1354 1210 1389L1317 1434L1088 1434L1088 1597L1393 1597L1393 1712L1608 1712L1608 1597L1922 1597L1922 1434L1696 1434L1806 1395Q1792 1367 1759 1319L1935 1319ZM1618 1434L1399 1434Q1430 1378 1450 1319L1550 1319Q1594 1387 1618 1434ZM1004 1274L453 1274Q442 944 268 772L104 909Q195 1022 221.5 1102.5Q248 1183 248 1294L248 1653L1004 1653ZM799 1427L799 1501L453 1501L453 1427ZM1020 803L469 803L469 1198L1020 1198ZM815 956L815 1047L674 1047L674 956ZM1667 121Q1667 -13 1605.5 -73Q1544 -133 1411 -133L1194 -133L1130 55Q1252 44 1352 44Q1415 44 1433.5 55.5Q1452 67 1452 100L1452 131L676 131L676 -133L461 -133L461 731L1667 731ZM1452 496L1452 565L676 565L676 496ZM1452 281L1452 348L676 348L676 281Z"/></g><g transform="translate(8192 2048) scale (1 -1)"><path d="M1939 -72L504 -72L504 -155L289 -155L289 1645L1896 1645L1896 1448L504 1448L504 1155L1690 1155L1690 445L504 445L504 125L1939 125ZM1475 642L1475 958L504 958L504 642Z"/></g><g transform="translate(10240 2048) scale (1 -1)"><path d="M1960 45L1825 -152Q1236 185 1020 705Q831 201 252 -152L96 10Q545 287 730 611.5Q915 936 915 1421L915 1716L1137 1716L1137 1423Q1137 1310 1116 1094Q1116 1056 1187 872.5Q1258 689 1358.5 542.5Q1459 396 1605.5 272Q1752 148 1960 45Z"/></g></g></g></g></svg>