<?xml version="1.0" encoding="UTF-8"?>
<svg xmlns="http://www.w3.org/2000/svg" xmlns:xlink="http://www.w3.org/1999/xlink" width="529.2059999999999" height="287.933"><rect width="100%" height="100%" fill="#FFFFFF"/><g transform="scale(1.333) translate(-30,131)" style="fill:none;"><g transform="translate(57,29)"><path d="M24,14L196,14" stroke="#707070" stroke-width="1"/></g><g transform="translate(57,-104)"><path d="M23,28L17,133" stroke-dasharray="8, 8" stroke="#707070" stroke-width="2"/></g><g transform="translate(65,-41)"><rect x="0" y="2" width="24" height="12" fill="#FFFFFF" stroke="#FFFFFF"/><g transform="scale(0.005859375)" style="fill:#4F4F4F;"><g transform="translate(0 2048) scale (1 -1)"><path d="M1935 301Q1904 60 1841 -26.5Q1778 -113 1726 -113L1427 -113Q1262 -84 1262 63L1262 985L1640 985L1640 1468L1219 1468L1219 1618L1796 1618L1796 766L1640 766L1640 836L1423 836L1423 78Q1423 29 1501 29L1671 29Q1740 29 1780 352ZM1176 1468L872 1468L872 1257L1139 1257L1139 -137L977 -137L977 12L358 12L358 -137L203 -137L203 1257L481 1257L481 1468L129 1468L129 1618L1176 1618ZM719 1251L719 1468L637 1468L637 1251ZM977 725L977 1102L866 1102L866 756Q876 722 977 725ZM977 453L977 588L856 588Q783 601 751 655.5Q719 710 719 750L719 1102L639 1102Q627 706 444 489L358 539L358 453ZM481 1102L356 1102L356 625Q478 798 481 1102ZM983 162L983 303L358 303L358 162Z"/></g><g transform="translate(2048 2048) scale (1 -1)"><path d="M688 1655Q665 1547 602 1379L539 1214L539 -127L383 -127L383 944Q346 864 219 731L78 819Q367 1124 545 1712ZM1858 59Q1858 4 1810.5 -53.5Q1763 -111 1651 -111L1518 -111L1464 45L1653 39Q1702 36 1702 88L1702 522L1350 522L1350 344L1438 358Q1436 365 1374 449L1513 494Q1647 339 1675 147L1526 104Q1522 153 1501 229L961 139L897 285Q1129 312 1188 322L1188 522L829 522L829 -127L674 -127L674 672L1188 672L1188 815L776 815L776 1622L1759 1622L1759 815L1350 815L1350 672L1858 672ZM1604 1294L1604 1473L1350 1473L1350 1294ZM1188 1294L1188 1473L932 1473L932 1294ZM1597 965L1597 1145L1350 1145L1350 965ZM1188 965L1188 1145L932 1145L932 965Z"/></g></g></g><g transform="translate(63 -104)"><rect x="0" y="0" width="34" height="28" rx="10" ry="10" style="fill:#22AAE0;stroke:#707070;stroke-width:1px;"/><g transform="translate (5 5) scale(0.005859375)" style="fill:#4F4F4F;"><g transform="translate(0 2048) scale (1 -1)"><path d="M1735 -133L1526 -133L1526 2L541 2L541 -133L332 -133L332 983L929 983L929 1212L1138 1212L1138 983L1735 983ZM1526 592L1526 786L1138 786L1138 592ZM929 592L929 786L541 786L541 592ZM1526 199L1526 395L1138 395L1138 199ZM929 199L929 395L541 395L541 199ZM1876 1071L1661 1071L1661 1291L405 1291L405 1071L190 1071L190 1488L925 1488L925 1712L1141 1712L1141 1488L1876 1488Z"/></g><g transform="translate(2048 2048) scale (1 -1)"><path d="M1942 903L1757 903L1757 -135L1552 -135L1552 903L1405 903L1405 596Q1405 337 1366.5 179Q1328 21 1208 -154L1028 -49Q1117 72 1158.5 184.5Q1200 297 1200 537L1200 1561Q1548 1572 1806 1716L1933 1536Q1646 1398 1405 1382L1405 1116L1942 1116ZM1161 324L129 324L129 514L303 514L303 1329L145 1329L145 1520L303 1520L303 1712L508 1712L508 1520L801 1520L801 1712L1006 1712L1006 1520L1145 1520L1145 1329L1006 1329L1006 514L1161 514ZM801 1184L801 1329L508 1329L508 1184ZM801 850L801 997L508 997L508 850ZM801 514L801 664L508 664L508 514ZM1085 104L913 -49Q820 86 668 162L834 295Q966 229 1085 104ZM606 168Q413 -47 219 -152L74 14Q248 96 440 295Z"/></g></g></g><g transform="translate(57 29)"><rect x="0" y="0" width="34" height="28" rx="10" ry="10" style="fill:#22AAE0;stroke:#707070;stroke-width:1px;"/><g transform="translate (5 5) scale(0.005859375)" style="fill:#4F4F4F;"><g transform="translate(0 2048) scale (1 -1)"><path d="M711 1675Q685 1559 625 1384L565 1219L565 -137L356 -137L356 786Q310 703 231 584L59 733Q363 1163 496 1733ZM1954 1024L1780 1024L1780 461L1567 461L1567 598L1262 598Q1247 347 1149 190Q1051 33 768 -158L608 16Q870 171 952 291Q1034 411 1049 598L750 598L750 809L1055 809L1055 1024L643 1024L643 1233L1055 1233L1055 1446L750 1446L750 1657L1780 1657L1780 1233L1954 1233ZM1567 1233L1567 1446L1266 1446L1266 1233ZM1567 809L1567 1024L1266 1024L1266 809Z"/></g><g transform="translate(2048 2048) scale (1 -1)"><path d="M1980 242Q1944 6 1888.5 -68Q1833 -142 1759 -142Q1694 -142 1611 -75.5Q1528 -9 1460 121Q1384 39 1272 -55L1128 113Q1284 228 1380 336Q1313 592 1305 954L1090 954L1090 731L1245 786L1245 573L1090 510L1090 117Q1090 -14 1037 -71.5Q984 -129 870 -129L700 -129L633 86Q741 76 816 76Q887 76 887 152L887 432L653 348L580 553Q677 583 887 657L887 954L621 954L621 1161L887 1161L887 1401Q763 1364 696 1350L606 1511L551 1298L551 -133L346 -133L346 784Q297 691 236 598L70 741Q316 1107 432 1733L641 1677L612 1540Q911 1585 1126 1722L1260 1559Q1195 1518 1090 1473L1090 1161L1303 1161L1303 1712L1505 1712L1505 1161L1919 1161L1919 954L1507 954Q1511 723 1538 549Q1623 698 1675 891L1858 815Q1783 544 1604 297Q1680 118 1732 118Q1757 118 1765.5 151Q1774 184 1792 336ZM1894 1323L1702 1239Q1662 1390 1536 1520L1702 1626Q1858 1462 1894 1323Z"/></g></g></g><g transform="translate(253 29)"><rect x="0" y="0" width="146" height="28" rx="10" ry="10" style="fill:#E0E0E0;stroke:#707070;stroke-width:1px;"/><g transform="translate (5 5) scale(0.005859375)" style="fill:#4F4F4F;"><g transform="translate(56.83333333333394 2048) scale (1 -1)"><path d="M1933 1464L500 1464L500 760Q500 420 445 216Q390 12 281 -141L100 0Q291 225 291 758L291 1661L1933 1661ZM1950 377Q1928 182 1860 55Q1792 -72 1599 -72L979 -72Q735 -72 735 150L735 1237L1724 1237L1725 1141Q1725 996 1719.5 818Q1714 640 1704.5 594Q1695 548 1668 514.5Q1641 481 1601 465Q1561 449 1464 449Q1277 449 1186 459L1133 676Q1231 662 1374 662Q1478 662 1492.5 694.5Q1507 727 1507 930L1505 1040L946 1040L946 184Q946 129 1001 129L1575 129Q1624 129 1659.5 159.5Q1695 190 1713 299.5Q1731 409 1731 463Z"/></g><g transform="translate(2104.833333333334 2048) scale (1 -1)"><path d="M1892 -133L1688 -133L1688 -16L1217 -16L1217 -133L1012 -133L1012 1446L1284 1446Q1355 1622 1374 1757L1604 1710Q1562 1560 1503 1446L1892 1446ZM1688 825L1688 1237L1217 1237L1217 825ZM1688 193L1688 616L1217 616L1217 193ZM907 477Q907 319 776 319L688 319L637 467L637 -135L434 -135L434 1122L344 1122L344 334L164 334L164 1335L434 1335L434 1712L637 1712L637 1335L907 1335ZM727 545L727 1122L637 1122L637 510L696 510Q727 510 727 545Z"/></g><g transform="translate(4152.833333333334 2048) scale (1 -1)"><path d="M1948 1483L731 1483L731 1667L1948 1667ZM1806 891L879 891L879 1401L1806 1401ZM1602 1077L1602 1217L1083 1217L1083 1077ZM1872 -133L1667 -133L1667 -37L1020 -37L1020 -133L815 -133L815 435L670 345Q620 547 539 666L539 -133L332 -133L332 561Q273 509 217 467L59 623Q375 839 510 1168L133 1168L133 1379L336 1379L336 1706L543 1706L543 1379L733 1379L733 1195Q658 962 539 784L539 717L675 829Q762 691 815 541L815 807L1872 807ZM1667 479L1667 623L1448 623L1448 479ZM1243 479L1243 623L1020 623L1020 479ZM1667 147L1667 295L1448 295L1448 147ZM1243 147L1243 295L1020 295L1020 147Z"/></g><g transform="translate(6200.833333333334 2048) scale (1 -1)"><path d="M1942 903L1757 903L1757 -135L1552 -135L1552 903L1405 903L1405 596Q1405 337 1366.5 179Q1328 21 1208 -154L1028 -49Q1117 72 1158.5 184.5Q1200 297 1200 537L1200 1561Q1548 1572 1806 1716L1933 1536Q1646 1398 1405 1382L1405 1116L1942 1116ZM1161 324L129 324L129 514L303 514L303 1329L145 1329L145 1520L303 1520L303 1712L508 1712L508 1520L801 1520L801 1712L1006 1712L1006 1520L1145 1520L1145 1329L1006 1329L1006 514L1161 514ZM801 1184L801 1329L508 1329L508 1184ZM801 850L801 997L508 997L508 850ZM801 514L801 664L508 664L508 514ZM1085 104L913 -49Q820 86 668 162L834 295Q966 229 1085 104ZM606 168Q413 -47 219 -152L74 14Q248 96 440 295Z"/></g><g transform="translate(8817.833333333334 2048) scale (1 -1)"><path d="M1933 1391L1624 1391Q1667 1342 1704 1262L1491 1184Q1450 1311 1378 1391L1315 1391Q1261 1280 1192 1190L981 1280Q1142 1436 1206 1739L1421 1692Q1409 1636 1391 1581L1933 1581ZM1059 1391L819 1391Q874 1326 899 1243L692 1180Q663 1290 588 1391L524 1391Q427 1264 315 1182L115 1313Q376 1478 465 1735L682 1677Q666 1634 641 1581L1059 1581ZM1855 559Q1838 240 1782.5 118Q1727 -4 1563 -4Q1479 -4 1325 33L1303 254Q1486 198 1551 198Q1584 198 1599 222Q1614 246 1630 368L1159 368L1159 -133L950 -133L950 342Q673 -18 184 -96L96 123Q457 147 698 368L469 368L442 263L238 291L350 858L950 858L950 977L283 977L283 1167L1772 1167L1772 668L1159 668L1159 559ZM1563 858L1563 977L1159 977L1159 858ZM950 559L950 668L530 668L504 559Z"/></g><g transform="translate(10865.833333333334 2048) scale (1 -1)"><path d="M1919 688L145 688L145 901L1919 901Z"/></g><g transform="translate(12913.833333333334 2048) scale (1 -1)"><path d="M758 1677Q728 1556 668 1389L608 1235L608 -137L399 -137L399 834Q334 728 231 598L70 741Q425 1222 545 1733ZM2001 283Q1978 119 1919.5 -13Q1861 -145 1724 -145Q1540 -145 1342 72.5Q1144 290 1077 850L698 799L680 1008L1057 1057Q1024 1407 1020 1698L1239 1698Q1246 1346 1270 1085L1901 1171L1919 963L1294 879Q1342 452 1474 269.5Q1606 87 1682 87Q1722 87 1744 131Q1766 175 1788 373ZM1798 1343L1624 1196Q1480 1416 1348 1530L1503 1667Q1661 1532 1798 1343Z"/></g><g transform="translate(14961.833333333334 2048) scale (1 -1)"><path d="M2009 12L1876 -178Q1469 -53 1333 354Q1170 -16 680 -178L559 12Q968 118 1116 399L772 399L772 596L1188 596Q1210 684 1217 811L1044 811Q988 726 877 608L700 748Q897 918 965 1133L807 1120L723 1334L890 1341Q1040 1515 1141 1729L1366 1622Q1252 1459 1130 1339Q1335 1348 1559 1370Q1482 1460 1417 1513L1597 1626Q1800 1460 1946 1202L1757 1071Q1719 1151 1681 1206Q1448 1174 1049 1141L1184 1090L1151 1008L1817 1008L1817 811L1430 811Q1423 681 1407 596L1921 596L1921 399L1528 399Q1667 92 2009 12ZM748 975L561 975L561 430L733 500L733 279Q457 154 158 41L72 246L352 350L352 975L133 975L133 1186L352 1186L352 1653L561 1653L561 1186L748 1186Z"/></g><g transform="translate(17009.833333333336 2048) scale (1 -1)"><path d="M1970 43L1837 -150Q1516 -63 1210 184Q957 -25 627 -150L494 20Q797 129 1053 330Q819 580 696 854Q696 331 274 -145L96 -18Q499 412 499 891L499 1440L223 1440L223 1649L1501 1649L1501 1460Q1430 1273 1366 1118L1737 1118Q1699 681 1366 330Q1665 90 1970 43ZM1473 909L1264 909L1205 811L1004 893Q1161 1160 1253 1440L708 1440L708 1391Q846 861 1210 473Q1414 687 1473 909Z"/></g><g transform="translate(19057.833333333336 2048) scale (1 -1)"><path d="M1876 -133L1671 -133L1671 -49L401 -49L401 -133L197 -133L197 1653L1876 1653ZM1667 141L1667 1462L406 1462L406 141ZM1610 287L459 287L459 477L918 477L918 770L524 770L524 961L918 961L918 1145L479 1145L479 1335L1587 1335L1587 1145L1126 1145L1126 961L1536 961L1536 770L1126 770L1126 477L1368 477Q1297 568 1190 627L1325 752Q1442 690 1544 559L1448 477L1610 477Z"/></g><g transform="translate(21105.833333333336 2048) scale (1 -1)"><path d="M1919 -12L152 -12L152 197L920 197L920 711L371 711L371 920L920 920L920 1370L236 1370L236 1579L1835 1579L1835 1370L1151 1370L1151 920L1700 920L1700 711L1151 711L1151 197L1919 197Z"/></g></g></g></g></svg>