<?xml version="1.0" encoding="UTF-8"?>
<svg xmlns="http://www.w3.org/2000/svg" xmlns:xlink="http://www.w3.org/1999/xlink" width="605.1869999999999" height="622.5160000000001"><rect width="100%" height="100%" fill="#FFFFFF"/><g transform="scale(1.333) translate(64.5,207)" style="fill:none;"><g transform="translate(117.5,-180)"><path d="M54,206Q54,-20 126,14" stroke="#707070" stroke-width="1"/></g><g transform="translate(117.5,-132)"><path d="M54,158Q54,-20 126,14" stroke="#707070" stroke-width="1"/></g><g transform="translate(117.5,-84)"><path d="M54,110Q54,-20 126,14" stroke="#707070" stroke-width="1"/></g><g transform="translate(117.5,12)"><path d="M54,14Q54,96 126,62" stroke="#707070" stroke-width="1"/></g><g transform="translate(117.5,12)"><path d="M54,14Q54,144 126,110" stroke="#707070" stroke-width="1"/></g><g transform="translate(117.5,12)"><path d="M54,14Q54,192 126,158" stroke="#707070" stroke-width="1"/></g><g transform="translate(117.5,12)"><path d="M54,14Q54,240 126,206" stroke="#707070" stroke-width="1"/></g><g transform="translate(117.5,-36)"><path d="M54,62Q54,-20 126,14" stroke="#707070" stroke-width="1"/></g><g transform="translate(117.5,12)"><path d="M96,14L126,14" stroke="#707070" stroke-width="1"/></g><g transform="translate(-37.5,12)"><path d="M125,14L155,14" stroke="#707070" stroke-width="1"/></g><g transform="translate(-37.5,-122)"><path d="M75,28L68,134" stroke-dasharray="8, 8" stroke="#707070" stroke-width="2"/></g><g transform="translate(22.5,-59)"><rect x="0" y="2" width="24" height="12" fill="#FFFFFF" stroke="#FFFFFF"/><g transform="scale(0.005859375)" style="fill:#4F4F4F;"><g transform="translate(0 2048) scale (1 -1)"><path d="M1935 301Q1904 60 1841 -26.5Q1778 -113 1726 -113L1427 -113Q1262 -84 1262 63L1262 985L1640 985L1640 1468L1219 1468L1219 1618L1796 1618L1796 766L1640 766L1640 836L1423 836L1423 78Q1423 29 1501 29L1671 29Q1740 29 1780 352ZM1176 1468L872 1468L872 1257L1139 1257L1139 -137L977 -137L977 12L358 12L358 -137L203 -137L203 1257L481 1257L481 1468L129 1468L129 1618L1176 1618ZM719 1251L719 1468L637 1468L637 1251ZM977 725L977 1102L866 1102L866 756Q876 722 977 725ZM977 453L977 588L856 588Q783 601 751 655.5Q719 710 719 750L719 1102L639 1102Q627 706 444 489L358 539L358 453ZM481 1102L356 1102L356 625Q478 798 481 1102ZM983 162L983 303L358 303L358 162Z"/></g><g transform="translate(2048 2048) scale (1 -1)"><path d="M688 1655Q665 1547 602 1379L539 1214L539 -127L383 -127L383 944Q346 864 219 731L78 819Q367 1124 545 1712ZM1858 59Q1858 4 1810.5 -53.5Q1763 -111 1651 -111L1518 -111L1464 45L1653 39Q1702 36 1702 88L1702 522L1350 522L1350 344L1438 358Q1436 365 1374 449L1513 494Q1647 339 1675 147L1526 104Q1522 153 1501 229L961 139L897 285Q1129 312 1188 322L1188 522L829 522L829 -127L674 -127L674 672L1188 672L1188 815L776 815L776 1622L1759 1622L1759 815L1350 815L1350 672L1858 672ZM1604 1294L1604 1473L1350 1473L1350 1294ZM1188 1294L1188 1473L932 1473L932 1294ZM1597 965L1597 1145L1350 1145L1350 965ZM1188 965L1188 1145L932 1145L932 965Z"/></g></g></g><g transform="translate(-37.5 12)"><rect x="0" y="0" width="135" height="28" rx="10" ry="10" style="fill:#22AAE0;stroke:#707070;stroke-width:1px;"/><g transform="translate (5 5) scale(0.005859375)" style="fill:#4F4F4F;"><g transform="translate(28.16666666666606 2048) scale (1 -1)"><path d="M651 1372L473 1219Q386 1390 213 1534L369 1675Q521 1558 651 1372ZM1968 348Q1939 124 1868 14Q1797 -96 1630 -96L1116 -96Q1009 -96 950 -32.5Q891 31 891 141L891 1036L1597 1036L1597 1440L825 1440L825 1649L1806 1649L1806 731L1597 731L1597 825L1102 825L1102 203Q1102 113 1190 113L1569 113Q1639 113 1683 161Q1727 209 1749 420ZM829 111L418 -150L319 39Q381 81 381 131L381 909L133 909L133 1118L590 1118L590 211L829 362Z"/></g><g transform="translate(2076.166666666666 2048) scale (1 -1)"><path d="M928 887L748 793Q715 974 614 1159L614 -133L401 -133L401 1169Q359 932 258 723L80 823Q186 1042 231 1317L401 1251L401 1712L614 1712L614 1262L725 1335Q879 1131 928 887ZM1972 387Q1953 142 1886.5 43.5Q1820 -55 1667 -55L995 -55Q869 -55 800.5 13Q732 81 732 184Q732 245 757 310Q782 375 911.5 575.5Q1041 776 1203.5 985Q1366 1194 1544 1391L758 1391L758 1604L1849 1604L1849 1391Q1642 1190 1454.5 960.5Q1267 731 1118.5 507Q970 283 961.5 260.5Q953 238 953 222Q953 160 1016 160L1628 160Q1723 160 1746 260Q1769 360 1769 469Z"/></g><g transform="translate(4124.166666666666 2048) scale (1 -1)"><path d="M1921 1077L1571 1077Q1451 655 1221 389Q1705 182 1886 27L1745 -143Q1555 15 1051 225Q750 -20 217 -145L100 35Q547 126 819 315Q517 429 297 481Q471 762 623 1077L145 1077L145 1290L721 1290Q830 1541 885 1741L1102 1655Q1035 1463 963 1290L1921 1290ZM1346 1077L870 1077Q730 761 625 592Q740 577 1008 475Q1230 703 1346 1077Z"/></g><g transform="translate(6172.166666666666 2048) scale (1 -1)"><path d="M1907 344L1475 344L1475 -135L1268 -135L1268 344L834 344L834 594L672 469Q620 593 553 688L553 -133L346 -133L346 559Q281 498 221 449L76 606Q372 820 512 1169L139 1169L139 1379L349 1379L349 1706L556 1706L556 1379L715 1379L715 1187Q675 982 553 801L553 758L670 864Q773 749 834 625L834 1417L1268 1417L1268 1714L1475 1714L1475 1417L1907 1417ZM1702 991L1702 1208L1475 1208L1475 991ZM1268 991L1268 1208L1038 1208L1038 991ZM1702 553L1702 782L1475 782L1475 553ZM1268 553L1268 782L1038 782L1038 553Z"/></g><g transform="translate(8789.166666666666 2048) scale (1 -1)"><path d="M1919 1380L1659 1380L1659 1264L1450 1264L1450 1380L1167 1380L1167 1264L958 1264L958 1380L692 1380L692 1571L958 1571L958 1712L1167 1712L1167 1571L1450 1571L1450 1712L1659 1712L1659 1571L1919 1571ZM651 1372L473 1219Q386 1390 213 1534L369 1675Q521 1558 651 1372ZM1987 16L1884 -174Q1480 -96 1307 223Q1182 -61 721 -174L629 16Q991 100 1090 250L754 250L754 152L414 -86L307 94Q373 138 373 186L373 909L133 909L133 1118L582 1118L582 260L692 340L692 440L1165 440Q1178 496 1184 559L793 559L793 1221L1821 1221L1821 559L1397 559Q1386 485 1376 440L1923 440L1923 250L1530 250Q1704 42 1987 16ZM1612 967L1612 1036L1001 1036L1001 967ZM1612 745L1612 817L1001 817L1001 745Z"/></g><g transform="translate(11406.166666666666 2048) scale (1 -1)"><path d="M692 1384L553 1214Q374 1418 178 1511L309 1675Q531 1565 692 1384ZM1827 762L750 762L750 1661L1827 1661ZM1618 1309L1618 1470L958 1470L958 1309ZM1618 952L1618 1116L958 1116L958 952ZM629 907L489 737Q326 928 94 1040L223 1206Q486 1073 629 907ZM1954 -90L563 -90L563 100L1163 100L1163 317L696 317L696 508L1163 508L1163 713L1378 713L1378 508L1872 508L1872 317L1378 317L1378 100L1954 100ZM651 586Q510 150 297 -145L119 -14Q364 346 459 674Z"/></g><g transform="translate(14023.166666666666 2048) scale (1 -1)"><path d="M1950 86L1286 86Q1286 -28 1244.5 -79.5Q1203 -131 1087 -131L883 -131L817 33Q920 22 990 22Q1046 22 1061.5 37Q1077 52 1077 86L459 86L459 250L1077 250L1077 307L614 307L614 471L1077 471L1077 532Q906 525 763 525L592 528L532 688Q656 680 809 680Q1342 680 1688 762L1804 612Q1576 567 1286 545L1286 471L1782 471L1782 307L1286 307L1286 250L1950 250ZM1952 872L1840 728Q1704 824 1616 936L1616 771L1424 771L1424 936Q1328 808 1200 720L1072 864Q1280 976 1384 1136L1216 1136L1216 1300L1424 1300L1424 1397L920 1397L920 1300L1160 1300L1160 1136L920 1136L920 1040L1000 1120Q1088 1048 1160 968L1024 856Q976 928 920 984L920 739L728 739L728 936Q664 824 536 736L448 840L448 600Q448 360 404 204Q360 48 240 -144L64 8Q240 234 240 576L240 1579L984 1579L984 1712L1192 1712L1192 1579L1952 1579L1952 1397L1616 1397L1616 1300L1896 1300L1896 1136L1648 1136Q1782 976 1952 872ZM728 1397L448 1397L448 896Q600 992 688 1136L488 1136L488 1300L728 1300Z"/></g><g transform="translate(16640.166666666664 2048) scale (1 -1)"><path d="M1944 698L1144 698L1144 485L1772 485L1772 289L1144 289L1144 -137L921 -137L921 289L293 289L293 485L921 485L921 698L121 698L121 895L719 895Q617 1104 485 1219L627 1303L237 1303L237 1499L921 1499L921 1710L1144 1710L1144 1499L1828 1499L1828 1303L1405 1303L1571 1229Q1463 1029 1341 895L1944 895ZM1362 1303L688 1303Q839 1160 924 963L782 895L1085 895Q1259 1097 1362 1303Z"/></g><g transform="translate(19257.166666666664 2048) scale (1 -1)"><path d="M692 1384L553 1214Q374 1418 178 1511L309 1675Q531 1565 692 1384ZM1827 762L750 762L750 1661L1827 1661ZM1618 1309L1618 1470L958 1470L958 1309ZM1618 952L1618 1116L958 1116L958 952ZM629 907L489 737Q326 928 94 1040L223 1206Q486 1073 629 907ZM1954 -90L563 -90L563 100L1163 100L1163 317L696 317L696 508L1163 508L1163 713L1378 713L1378 508L1872 508L1872 317L1378 317L1378 100L1954 100ZM651 586Q510 150 297 -145L119 -14Q364 346 459 674Z"/></g></g></g><g transform="translate(20 -122)"><rect x="0" y="0" width="34" height="28" rx="10" ry="10" style="fill:#22AAE0;stroke:#707070;stroke-width:1px;"/><g transform="translate (5 5) scale(0.005859375)" style="fill:#4F4F4F;"><g transform="translate(0 2048) scale (1 -1)"><path d="M1735 -133L1526 -133L1526 2L541 2L541 -133L332 -133L332 983L929 983L929 1212L1138 1212L1138 983L1735 983ZM1526 592L1526 786L1138 786L1138 592ZM929 592L929 786L541 786L541 592ZM1526 199L1526 395L1138 395L1138 199ZM929 199L929 395L541 395L541 199ZM1876 1071L1661 1071L1661 1291L405 1291L405 1071L190 1071L190 1488L925 1488L925 1712L1141 1712L1141 1488L1876 1488Z"/></g><g transform="translate(2048 2048) scale (1 -1)"><path d="M1942 903L1757 903L1757 -135L1552 -135L1552 903L1405 903L1405 596Q1405 337 1366.5 179Q1328 21 1208 -154L1028 -49Q1117 72 1158.5 184.5Q1200 297 1200 537L1200 1561Q1548 1572 1806 1716L1933 1536Q1646 1398 1405 1382L1405 1116L1942 1116ZM1161 324L129 324L129 514L303 514L303 1329L145 1329L145 1520L303 1520L303 1712L508 1712L508 1520L801 1520L801 1712L1006 1712L1006 1520L1145 1520L1145 1329L1006 1329L1006 514L1161 514ZM801 1184L801 1329L508 1329L508 1184ZM801 850L801 997L508 997L508 850ZM801 514L801 664L508 664L508 514ZM1085 104L913 -49Q820 86 668 162L834 295Q966 229 1085 104ZM606 168Q413 -47 219 -152L74 14Q248 96 440 295Z"/></g></g></g><g transform="translate(243.5 -180)"><rect x="0" y="0" width="106" height="28" rx="10" ry="10" style="fill:#E0E0E0;stroke:#707070;stroke-width:1px;"/><g transform="translate (5 5) scale(0.005859375)" style="fill:#4F4F4F;"><g transform="translate(0 2048) scale (1 -1)"><path d="M1862 141Q1862 3 1807.5 -63Q1753 -129 1624 -129L1397 -129L1319 102Q1516 88 1565 88Q1653 88 1653 186L1653 1456L256 1456L256 1647L1862 1647ZM1544 1104L152 1104L152 1294L1544 1294ZM1333 166L1128 166L1128 268L561 268L561 166L356 166L356 954L1333 954ZM1128 459L1128 764L561 764L561 459Z"/></g><g transform="translate(2048 2048) scale (1 -1)"><path d="M1989 70L1905 -139L1819 -140Q1250 -140 809 82Q613 -55 193 -158L100 49Q457 127 602 207Q436 327 315 496L502 614Q622 450 778 340Q894 465 918 662L328 662L328 1397L924 1397L924 1714L1133 1714L1133 1397L1729 1397L1729 662L1126 662Q1100 396 971 231Q1310 70 1930 70ZM1520 860L1520 1198L1133 1198L1133 860ZM924 860L924 1198L537 1198L537 860Z"/></g><g transform="translate(4096 2048) scale (1 -1)"><path d="M1911 883L731 883L731 1079L1206 1079L1206 1296L799 1296L799 1493L1206 1493L1206 1712L1415 1712L1415 1493L1841 1493L1841 1296L1415 1296L1415 1079L1911 1079ZM651 1372L473 1219Q386 1390 213 1534L369 1675Q521 1558 651 1372ZM799 135L426 -141L319 39Q373 75 373 131L373 909L133 909L133 1118L582 1118L582 205L799 369ZM1937 489L1724 489L1724 135Q1724 -2 1671.5 -67.5Q1619 -133 1491 -133L1290 -133L1223 98Q1384 84 1432 84Q1516 84 1516 182L1516 489L1067 489Q1230 400 1323 272L1165 137Q1069 278 887 369L1012 489L694 489L694 686L1516 686L1516 817L1724 817L1724 686L1937 686Z"/></g><g transform="translate(6144 2048) scale (1 -1)"><path d="M1886 1399L1886 1326Q1886 1010 1870 571.5Q1854 133 1830.5 62Q1807 -9 1747.5 -70Q1688 -131 1523 -131Q1420 -131 1235 -104L1176 115Q1389 75 1502 75Q1554 75 1580 89.5Q1606 104 1620 129Q1634 154 1647.5 308Q1661 462 1668 692.5Q1675 923 1675 1190L1262 1190Q1193 979 1096 815L934 936L934 -96L725 -96L725 49L428 49L428 -96L219 -96L219 1368L408 1368Q478 1521 518 1729L739 1681Q702 1525 623 1368L934 1368L934 991Q1113 1313 1157 1718L1374 1677Q1350 1537 1319 1399ZM723 813L723 1159L426 1159L426 813ZM723 258L723 604L426 604L426 258ZM1604 492L1409 362Q1320 604 1124 793L1282 932Q1471 763 1604 492Z"/></g><g transform="translate(8192 2048) scale (1 -1)"><path d="M1948 758L1057 758L1057 -133L842 -133L842 758L121 758L121 967L811 967L811 1712L1026 1712L1026 1436L1794 1436L1794 1227L1026 1227L1026 967L1948 967ZM1808 313L1669 129Q1393 353 1092 471L1204 641Q1560 511 1808 313Z"/></g><g transform="translate(10240 2048) scale (1 -1)"><path d="M1251 459L1081 328Q1007 546 799 748L799 -133L590 -133L590 606Q457 402 254 211L82 365Q412 631 582 1012L143 1012L143 1208L590 1208L590 1450Q402 1432 219 1425L127 1628L239 1626Q762 1626 1122 1739L1237 1561Q1064 1510 799 1473L799 1208L1217 1208L1217 1012L799 1012L799 813L915 909Q1141 692 1251 459ZM1888 121Q1888 -133 1657 -133L1458 -133L1393 100Q1524 80 1608 80Q1679 80 1679 160L1679 1720L1888 1720ZM1538 307L1329 307L1329 1501L1538 1501Z"/></g><g transform="translate(12288 2048) scale (1 -1)"><path d="M1980 242Q1944 6 1888.5 -68Q1833 -142 1759 -142Q1694 -142 1611 -75.5Q1528 -9 1460 121Q1384 39 1272 -55L1128 113Q1284 228 1380 336Q1313 592 1305 954L1090 954L1090 731L1245 786L1245 573L1090 510L1090 117Q1090 -14 1037 -71.5Q984 -129 870 -129L700 -129L633 86Q741 76 816 76Q887 76 887 152L887 432L653 348L580 553Q677 583 887 657L887 954L621 954L621 1161L887 1161L887 1401Q763 1364 696 1350L606 1511L551 1298L551 -133L346 -133L346 784Q297 691 236 598L70 741Q316 1107 432 1733L641 1677L612 1540Q911 1585 1126 1722L1260 1559Q1195 1518 1090 1473L1090 1161L1303 1161L1303 1712L1505 1712L1505 1161L1919 1161L1919 954L1507 954Q1511 723 1538 549Q1623 698 1675 891L1858 815Q1783 544 1604 297Q1680 118 1732 118Q1757 118 1765.5 151Q1774 184 1792 336ZM1894 1323L1702 1239Q1662 1390 1536 1520L1702 1626Q1858 1462 1894 1323Z"/></g><g transform="translate(14336 2048) scale (1 -1)"><path d="M1872 -133L1663 -133L1663 -16L1128 -16L1128 -133L920 -133L920 1446L1204 1446Q1285 1596 1305 1755L1534 1708Q1488 1539 1427 1446L1872 1446ZM1663 825L1663 1237L1128 1237L1128 825ZM1663 193L1663 616L1128 616L1128 193ZM862 336Q450 143 182 57L106 252Q206 282 403 356L403 813L195 813L195 1010L403 1010L403 1374L168 1374L168 1571L831 1571L831 1374L612 1374L612 1010L788 1010L788 813L612 813L612 438Q713 479 862 547Z"/></g></g></g><g transform="translate(243.5 -132)"><rect x="0" y="0" width="118" height="28" rx="10" ry="10" style="fill:#E0E0E0;stroke:#707070;stroke-width:1px;"/><g transform="translate (5 5) scale(0.005859375)" style="fill:#4F4F4F;"><g transform="translate(0 2048) scale (1 -1)"><path d="M1862 141Q1862 3 1807.5 -63Q1753 -129 1624 -129L1397 -129L1319 102Q1516 88 1565 88Q1653 88 1653 186L1653 1456L256 1456L256 1647L1862 1647ZM1544 1104L152 1104L152 1294L1544 1294ZM1333 166L1128 166L1128 268L561 268L561 166L356 166L356 954L1333 954ZM1128 459L1128 764L561 764L561 459Z"/></g><g transform="translate(2048 2048) scale (1 -1)"><path d="M870 1143L649 1143L649 848L844 954L844 729L649 618L649 84Q649 -133 463 -133L229 -133L160 76Q257 68 362 68Q440 68 440 135L440 522Q295 457 188 414L96 614Q245 669 440 754L440 1143L137 1143L137 1352L440 1352L440 1696L649 1696L649 1352L870 1352ZM1956 1047Q1913 750 1808 483L1602 555Q1659 695 1696 838L1489 838L1489 121Q1489 -133 1255 -133L1055 -133L987 98Q1146 84 1202 84Q1280 84 1280 168L1280 838L891 838L891 1047L1370 1047Q1208 1165 1016 1241L1159 1399Q1262 1355 1364 1296Q1471 1378 1540 1444L924 1444L924 1653L1849 1653L1849 1444Q1704 1307 1548 1178Q1614 1137 1634 1116L1556 1047Z"/></g><g transform="translate(4096 2048) scale (1 -1)"><path d="M1952 918L709 918L709 1098L1210 1098L1210 1178L840 1178L840 1350L1210 1350L1210 1423L754 1423L754 1604L1210 1604L1210 1712L1425 1712L1425 1604L1872 1604L1872 1423L1425 1423L1425 1350L1794 1350L1794 1178L1425 1178L1425 1098L1952 1098ZM823 1190L670 1098Q640 1188 573 1309L573 -133L365 -133L365 1249Q333 1011 233 788L63 879Q160 1060 197 1354L365 1303L365 1712L573 1712L573 1358L694 1438Q768 1323 823 1190ZM1792 121Q1792 -133 1552 -133L1397 -133L1325 74Q1482 63 1522 63Q1577 63 1577 115L1577 170L1059 170L1059 -133L844 -133L844 848L1792 848ZM1577 590L1577 668L1059 668L1059 590ZM1577 342L1577 418L1059 418L1059 342Z"/></g><g transform="translate(6144 2048) scale (1 -1)"><path d="M1911 883L731 883L731 1079L1206 1079L1206 1296L799 1296L799 1493L1206 1493L1206 1712L1415 1712L1415 1493L1841 1493L1841 1296L1415 1296L1415 1079L1911 1079ZM651 1372L473 1219Q386 1390 213 1534L369 1675Q521 1558 651 1372ZM799 135L426 -141L319 39Q373 75 373 131L373 909L133 909L133 1118L582 1118L582 205L799 369ZM1937 489L1724 489L1724 135Q1724 -2 1671.5 -67.5Q1619 -133 1491 -133L1290 -133L1223 98Q1384 84 1432 84Q1516 84 1516 182L1516 489L1067 489Q1230 400 1323 272L1165 137Q1069 278 887 369L1012 489L694 489L694 686L1516 686L1516 817L1724 817L1724 686L1937 686Z"/></g><g transform="translate(8192 2048) scale (1 -1)"><path d="M1886 1399L1886 1326Q1886 1010 1870 571.5Q1854 133 1830.5 62Q1807 -9 1747.5 -70Q1688 -131 1523 -131Q1420 -131 1235 -104L1176 115Q1389 75 1502 75Q1554 75 1580 89.5Q1606 104 1620 129Q1634 154 1647.5 308Q1661 462 1668 692.5Q1675 923 1675 1190L1262 1190Q1193 979 1096 815L934 936L934 -96L725 -96L725 49L428 49L428 -96L219 -96L219 1368L408 1368Q478 1521 518 1729L739 1681Q702 1525 623 1368L934 1368L934 991Q1113 1313 1157 1718L1374 1677Q1350 1537 1319 1399ZM723 813L723 1159L426 1159L426 813ZM723 258L723 604L426 604L426 258ZM1604 492L1409 362Q1320 604 1124 793L1282 932Q1471 763 1604 492Z"/></g><g transform="translate(10240 2048) scale (1 -1)"><path d="M1956 1427Q1923 1148 1839 885L1649 956Q1703 1090 1720 1214L1348 1214Q1275 1021 1151 819L987 944Q1220 1294 1260 1718L1466 1677Q1446 1553 1413 1427ZM1976 18L1825 -135Q1592 75 1491 362Q1327 28 1114 -156L922 -29Q979 10 1016 45L379 45L379 -75L172 -75L172 1651L1067 1651L1067 1452L379 1452L379 246L1069 246L1069 96Q1366 401 1366 834L1366 1102L1571 1102L1571 715Q1685 282 1976 18ZM1133 397L922 303Q870 448 788 637Q703 475 578 293L406 426Q584 673 670 877Q564 1067 418 1251L590 1384Q700 1235 762 1139Q802 1272 834 1413L1034 1339Q969 1068 905 901Q1032 668 1133 397Z"/></g><g transform="translate(12288 2048) scale (1 -1)"><path d="M1884 1532L1739 1393Q1670 1490 1518 1585L1642 1722Q1802 1650 1884 1532ZM1999 227Q1927 -139 1758 -139Q1592 -139 1457 229Q1322 597 1274 1171L129 1171L129 1380L1262 1380Q1254 1528 1254 1646L1255 1714L1460 1714Q1460 1542 1468 1380L1937 1380L1937 1171L1481 1171Q1521 663 1612.5 392.5Q1704 122 1748 122Q1787 122 1810 317ZM1010 743L819 657Q719 913 592 1034L778 1128Q936 954 1010 743ZM1112 330Q1094 105 1023 18.5Q952 -68 795 -68L690 -68Q465 -68 465 152L465 870L674 870L674 197Q674 141 729 141L786 141Q832 141 855 159.5Q878 178 894.5 261.5Q911 345 913 403ZM1393 244L1219 150Q1138 426 983 598L1163 696Q1345 462 1393 244ZM438 608Q383 336 250 129L70 227Q190 378 256 672Z"/></g><g transform="translate(14336 2048) scale (1 -1)"><path d="M1927 334L1561 297L1561 -133L1346 -133L1346 274L178 154L104 344L494 383L494 1460L188 1460L188 1657L1868 1657L1868 1460L1561 1460L1561 494L1927 530ZM1346 1264L1346 1460L709 1460L709 1264ZM1346 870L1346 1067L709 1067L709 870ZM1346 471L1346 674L709 674L709 406Z"/></g><g transform="translate(16384 2048) scale (1 -1)"><path d="M1872 -133L1663 -133L1663 -16L1128 -16L1128 -133L920 -133L920 1446L1204 1446Q1285 1596 1305 1755L1534 1708Q1488 1539 1427 1446L1872 1446ZM1663 825L1663 1237L1128 1237L1128 825ZM1663 193L1663 616L1128 616L1128 193ZM862 336Q450 143 182 57L106 252Q206 282 403 356L403 813L195 813L195 1010L403 1010L403 1374L168 1374L168 1571L831 1571L831 1374L612 1374L612 1010L788 1010L788 813L612 813L612 438Q713 479 862 547Z"/></g></g></g><g transform="translate(243.5 -84)"><rect x="0" y="0" width="94" height="28" rx="10" ry="10" style="fill:#E0E0E0;stroke:#707070;stroke-width:1px;"/><g transform="translate (5 5) scale(0.005859375)" style="fill:#4F4F4F;"><g transform="translate(0 2048) scale (1 -1)"><path d="M1862 141Q1862 3 1807.5 -63Q1753 -129 1624 -129L1397 -129L1319 102Q1516 88 1565 88Q1653 88 1653 186L1653 1456L256 1456L256 1647L1862 1647ZM1544 1104L152 1104L152 1294L1544 1294ZM1333 166L1128 166L1128 268L561 268L561 166L356 166L356 954L1333 954ZM1128 459L1128 764L561 764L561 459Z"/></g><g transform="translate(2048 2048) scale (1 -1)"><path d="M1952 918L709 918L709 1098L1210 1098L1210 1178L840 1178L840 1350L1210 1350L1210 1423L754 1423L754 1604L1210 1604L1210 1712L1425 1712L1425 1604L1872 1604L1872 1423L1425 1423L1425 1350L1794 1350L1794 1178L1425 1178L1425 1098L1952 1098ZM823 1190L670 1098Q640 1188 573 1309L573 -133L365 -133L365 1249Q333 1011 233 788L63 879Q160 1060 197 1354L365 1303L365 1712L573 1712L573 1358L694 1438Q768 1323 823 1190ZM1792 121Q1792 -133 1552 -133L1397 -133L1325 74Q1482 63 1522 63Q1577 63 1577 115L1577 170L1059 170L1059 -133L844 -133L844 848L1792 848ZM1577 590L1577 668L1059 668L1059 590ZM1577 342L1577 418L1059 418L1059 342Z"/></g><g transform="translate(4096 2048) scale (1 -1)"><path d="M1935 1413Q1910 1131 1837 874L1651 944Q1699 1111 1712 1200L1442 1200Q1396 1087 1288 910L1118 1038Q1234 1214 1277.5 1346Q1321 1478 1341 1735L1554 1694Q1533 1525 1507 1413ZM1991 14L1843 -156Q1609 60 1520 313Q1431 83 1243 -150L1083 -20Q1037 -133 901 -133L702 -133L641 72Q739 59 827 59Q903 59 903 139L903 700L117 700L117 884L1227 884L1227 700L1108 700L1108 125Q1108 56 1094 4Q1407 350 1407 829L1407 1065L1616 1065L1616 879L1608 696Q1608 619 1702.5 398.5Q1797 178 1991 14ZM809 109L612 109L612 154L459 154L459 68L262 68L262 634L809 634ZM612 330L612 458L459 458L459 330ZM726 980L264 980L264 1416L808 1416L808 1112L864 1112Q896 1112 896 1160L896 1472L160 1472L160 1656L1208 1656L1208 1472L1104 1472L1104 1096Q1104 920 896 920L744 920ZM608 1148L608 1248L456 1248L456 1148Z"/></g><g transform="translate(6144 2048) scale (1 -1)"><path d="M1886 1399L1886 1326Q1886 1010 1870 571.5Q1854 133 1830.5 62Q1807 -9 1747.5 -70Q1688 -131 1523 -131Q1420 -131 1235 -104L1176 115Q1389 75 1502 75Q1554 75 1580 89.5Q1606 104 1620 129Q1634 154 1647.5 308Q1661 462 1668 692.5Q1675 923 1675 1190L1262 1190Q1193 979 1096 815L934 936L934 -96L725 -96L725 49L428 49L428 -96L219 -96L219 1368L408 1368Q478 1521 518 1729L739 1681Q702 1525 623 1368L934 1368L934 991Q1113 1313 1157 1718L1374 1677Q1350 1537 1319 1399ZM723 813L723 1159L426 1159L426 813ZM723 258L723 604L426 604L426 258ZM1604 492L1409 362Q1320 604 1124 793L1282 932Q1471 763 1604 492Z"/></g><g transform="translate(8192 2048) scale (1 -1)"><path d="M2009 12L1876 -178Q1469 -53 1333 354Q1170 -16 680 -178L559 12Q968 118 1116 399L772 399L772 596L1188 596Q1210 684 1217 811L1044 811Q988 726 877 608L700 748Q897 918 965 1133L807 1120L723 1334L890 1341Q1040 1515 1141 1729L1366 1622Q1252 1459 1130 1339Q1335 1348 1559 1370Q1482 1460 1417 1513L1597 1626Q1800 1460 1946 1202L1757 1071Q1719 1151 1681 1206Q1448 1174 1049 1141L1184 1090L1151 1008L1817 1008L1817 811L1430 811Q1423 681 1407 596L1921 596L1921 399L1528 399Q1667 92 2009 12ZM748 975L561 975L561 430L733 500L733 279Q457 154 158 41L72 246L352 350L352 975L133 975L133 1186L352 1186L352 1653L561 1653L561 1186L748 1186Z"/></g><g transform="translate(10240 2048) scale (1 -1)"><path d="M1907 1128L852 1128L852 1346L1232 1346L1232 1712L1441 1712L1441 1346L1907 1346ZM821 750Q683 668 610 631L610 72Q610 -133 428 -133L221 -133L162 88Q217 80 288 80Q355 80 378 96Q401 112 401 154L401 528Q316 488 186 434L102 645Q249 692 401 762L401 1143L141 1143L141 1356L401 1356L401 1712L610 1712L610 1356L801 1356L801 1143L610 1143L610 864Q765 946 821 979ZM1952 -63L743 -63L743 155L1368 155Q1508 531 1559 1069L1790 1001Q1723 531 1585 155L1952 155ZM1290 317L1077 244Q1036 685 907 940L1108 1026Q1260 699 1290 317Z"/></g><g transform="translate(12288 2048) scale (1 -1)"><path d="M1954 304Q1954 142 1891 19Q1828 -104 1688 -104L1417 -104Q1316 -104 1260 -45.5Q1204 13 1204 104L1204 660L852 597L842 806L1204 871L1204 1327Q1026 1289 924 1278L840 1489Q1350 1531 1745 1714L1870 1530Q1705 1457 1421 1380L1421 909L1917 1006L1927 798L1421 700L1421 164Q1421 100 1483 100L1624 100Q1745 100 1745 390L1745 399L1954 319ZM840 1143L606 1143L606 854L788 954L788 729Q680 664 606 625L606 80Q606 -137 416 -137L233 -137L164 88Q234 78 279 78Q347 78 372 92Q397 106 397 154L397 520Q318 482 193 428L100 629Q259 688 397 752L397 1143L143 1143L143 1356L397 1356L397 1712L606 1712L606 1356L840 1356Z"/></g></g></g><g transform="translate(243.5 60)"><rect x="0" y="0" width="118" height="28" rx="10" ry="10" style="fill:#E0E0E0;stroke:#707070;stroke-width:1px;"/><g transform="translate (5 5) scale(0.005859375)" style="fill:#4F4F4F;"><g transform="translate(0 2048) scale (1 -1)"><path d="M1862 141Q1862 3 1807.5 -63Q1753 -129 1624 -129L1397 -129L1319 102Q1516 88 1565 88Q1653 88 1653 186L1653 1456L256 1456L256 1647L1862 1647ZM1544 1104L152 1104L152 1294L1544 1294ZM1333 166L1128 166L1128 268L561 268L561 166L356 166L356 954L1333 954ZM1128 459L1128 764L561 764L561 459Z"/></g><g transform="translate(2048 2048) scale (1 -1)"><path d="M1954 1079L1657 1079L1657 934L1917 934L1917 741L522 741L698 688Q683 656 655 612L1030 612Q955 -4 176 -152L82 31Q311 75 451 137Q401 183 356 211L506 340Q583 292 631 244Q718 324 762 422L514 422Q412 312 264 197L98 336Q339 468 489 741L135 741L135 934L403 934L403 1079L104 1079L104 1270L403 1270L403 1415Q331 1354 250 1305L102 1440Q357 1594 481 1753L705 1696Q664 1645 621 1602L1843 1602L1843 1411L1657 1411L1657 1270L1954 1270ZM1468 1270L1468 1411L1303 1411L1303 1270ZM1114 1270L1114 1411L948 1411L948 1270ZM758 1270L758 1411L594 1411L594 1270ZM1468 934L1468 1079L1303 1079L1303 934ZM1114 934L1114 1079L948 1079L948 934ZM758 934L758 1079L594 1079L594 934ZM1952 51L1609 51L1609 -135L1413 -135L1413 51L967 51L967 242L1062 242L1062 612L1413 612L1413 709L1609 709L1609 612L1890 612L1890 420L1609 420L1609 242L1952 242ZM1413 242L1413 420L1252 420L1252 242Z"/></g><g transform="translate(4096 2048) scale (1 -1)"><path d="M1944 1565Q1444 1376 870 1364L797 1565Q1376 1565 1808 1741ZM799 195Q481 33 168 -72L76 117L178 150L178 836L346 836L346 211L422 242L422 1026L184 1026L184 1663L756 1663L756 1026L627 1026L627 793L772 793L772 594L627 594L627 330L799 408ZM551 1229L551 1464L389 1464L389 1229ZM1154 1285Q1086 1056 989 929L778 1013Q889 1153 947 1344ZM1526 1059L1310 1004Q1289 1177 1211 1315L1412 1381Q1490 1256 1526 1059ZM1916 1109L1717 1021Q1631 1258 1556 1377L1741 1461Q1849 1308 1916 1109ZM1870 -133L1665 -133L1665 -35L1051 -35L1051 -133L846 -133L846 868Q1051 910 1247 1038L1341 866Q1208 768 1051 729L1051 565L1311 565L1311 375L1051 375L1051 156L1665 156L1665 375L1417 375L1417 565L1665 565L1665 762L1378 762L1378 952L1870 952Z"/></g><g transform="translate(6144 2048) scale (1 -1)"><path d="M1886 1399L1886 1326Q1886 1010 1870 571.5Q1854 133 1830.5 62Q1807 -9 1747.5 -70Q1688 -131 1523 -131Q1420 -131 1235 -104L1176 115Q1389 75 1502 75Q1554 75 1580 89.5Q1606 104 1620 129Q1634 154 1647.5 308Q1661 462 1668 692.5Q1675 923 1675 1190L1262 1190Q1193 979 1096 815L934 936L934 -96L725 -96L725 49L428 49L428 -96L219 -96L219 1368L408 1368Q478 1521 518 1729L739 1681Q702 1525 623 1368L934 1368L934 991Q1113 1313 1157 1718L1374 1677Q1350 1537 1319 1399ZM723 813L723 1159L426 1159L426 813ZM723 258L723 604L426 604L426 258ZM1604 492L1409 362Q1320 604 1124 793L1282 932Q1471 763 1604 492Z"/></g><g transform="translate(8192 2048) scale (1 -1)"><path d="M1884 1532L1739 1393Q1670 1490 1518 1585L1642 1722Q1802 1650 1884 1532ZM1999 227Q1927 -139 1758 -139Q1592 -139 1457 229Q1322 597 1274 1171L129 1171L129 1380L1262 1380Q1254 1528 1254 1646L1255 1714L1460 1714Q1460 1542 1468 1380L1937 1380L1937 1171L1481 1171Q1521 663 1612.5 392.5Q1704 122 1748 122Q1787 122 1810 317ZM1010 743L819 657Q719 913 592 1034L778 1128Q936 954 1010 743ZM1112 330Q1094 105 1023 18.5Q952 -68 795 -68L690 -68Q465 -68 465 152L465 870L674 870L674 197Q674 141 729 141L786 141Q832 141 855 159.5Q878 178 894.5 261.5Q911 345 913 403ZM1393 244L1219 150Q1138 426 983 598L1163 696Q1345 462 1393 244ZM438 608Q383 336 250 129L70 227Q190 378 256 672Z"/></g><g transform="translate(10240 2048) scale (1 -1)"><path d="M1927 334L1561 297L1561 -133L1346 -133L1346 274L178 154L104 344L494 383L494 1460L188 1460L188 1657L1868 1657L1868 1460L1561 1460L1561 494L1927 530ZM1346 1264L1346 1460L709 1460L709 1264ZM1346 870L1346 1067L709 1067L709 870ZM1346 471L1346 674L709 674L709 406Z"/></g><g transform="translate(12288 2048) scale (1 -1)"><path d="M1942 1446L1309 1446L1309 1165L1794 1165L1794 -133L1589 -133L1589 25L473 25L473 -133L268 -133L268 1165L715 1165L715 1446L115 1446L115 1642L1942 1642ZM1105 1165L1105 1446L920 1446L920 1165ZM1589 221L1589 969L1309 969L1309 622Q1309 571 1341 571Q1370 571 1381 606Q1403 684 1406 802L1571 738L1571 732Q1571 606 1533 501Q1495 374 1356 374L1271 374Q1105 374 1105 555L1105 969L918 969Q915 583 657 326L487 446Q710 657 713 969L473 969L473 221Z"/></g><g transform="translate(14336 2048) scale (1 -1)"><path d="M985 639L834 518Q744 648 657 729L657 -135L449 -135L449 618Q335 409 236 274L63 408Q285 666 434 1012L129 1012L129 1208L449 1208L449 1403Q323 1374 227 1362L133 1544Q551 1608 815 1729L932 1552Q819 1503 657 1456L657 1208L936 1208L936 1012L657 1012L657 858L725 920Q889 802 985 639ZM1952 520L1708 461L1708 -135L1499 -135L1499 410L856 250L821 455L1499 623L1499 1712L1708 1712L1708 674L1931 729ZM1440 1280L1286 1116Q1166 1280 958 1438L1110 1585Q1334 1411 1440 1280ZM1403 793L1249 629Q1152 763 907 950L1059 1098Q1256 970 1403 793Z"/></g><g transform="translate(16384 2048) scale (1 -1)"><path d="M1843 1163L764 1163L764 1616L958 1616L958 1360L1206 1360L1206 1712L1401 1712L1401 1360L1649 1360L1649 1616L1843 1616ZM711 293Q328 115 158 57L82 252Q195 289 313 332L313 813L168 813L168 1010L313 1010L313 1374L143 1374L143 1571L705 1571L705 1374L518 1374L518 1010L670 1010L670 813L518 813L518 414L711 496ZM1952 856L1425 856Q1400 780 1374 717L1862 717L1862 63Q1862 -42 1816 -87.5Q1770 -133 1655 -133L1542 -133L1526 -63L1364 -63L1364 518L1253 518L1253 -63L1063 -63L1063 518L952 518L952 -133L756 -133L756 717L1155 717Q1177 770 1204 856L707 856L707 1053L1952 1053ZM1667 131L1667 518L1554 518L1554 72L1584 70Q1667 70 1667 131Z"/></g></g></g><g transform="translate(243.5 108)"><rect x="0" y="0" width="94" height="28" rx="10" ry="10" style="fill:#E0E0E0;stroke:#707070;stroke-width:1px;"/><g transform="translate (5 5) scale(0.005859375)" style="fill:#4F4F4F;"><g transform="translate(0 2048) scale (1 -1)"><path d="M1862 141Q1862 3 1807.5 -63Q1753 -129 1624 -129L1397 -129L1319 102Q1516 88 1565 88Q1653 88 1653 186L1653 1456L256 1456L256 1647L1862 1647ZM1544 1104L152 1104L152 1294L1544 1294ZM1333 166L1128 166L1128 268L561 268L561 166L356 166L356 954L1333 954ZM1128 459L1128 764L561 764L561 459Z"/></g><g transform="translate(2048 2048) scale (1 -1)"><path d="M1921 1460L489 1460L489 584Q489 141 262 -152L92 -10Q281 230 281 584L281 1665L1921 1665ZM1827 1116L1828 1048Q1828 821 1798 470Q1768 119 1693.5 0Q1619 -119 1432 -119Q1340 -119 1229 -94L1186 139Q1330 104 1431 104Q1487 104 1518.5 142Q1550 180 1581 414.5Q1612 649 1614 911L1196 911Q1172 521 1047 280.5Q922 40 670 -156L512 2Q735 172 842.5 365.5Q950 559 977 911L569 911L569 1116L989 1116L991 1409L1206 1409L1208 1258L1206 1116Z"/></g><g transform="translate(4096 2048) scale (1 -1)"><path d="M1989 70L1905 -139L1819 -140Q1250 -140 809 82Q613 -55 193 -158L100 49Q457 127 602 207Q436 327 315 496L502 614Q622 450 778 340Q894 465 918 662L328 662L328 1397L924 1397L924 1714L1133 1714L1133 1397L1729 1397L1729 662L1126 662Q1100 396 971 231Q1310 70 1930 70ZM1520 860L1520 1198L1133 1198L1133 860ZM924 860L924 1198L537 1198L537 860Z"/></g><g transform="translate(6144 2048) scale (1 -1)"><path d="M1886 1399L1886 1326Q1886 1010 1870 571.5Q1854 133 1830.5 62Q1807 -9 1747.5 -70Q1688 -131 1523 -131Q1420 -131 1235 -104L1176 115Q1389 75 1502 75Q1554 75 1580 89.5Q1606 104 1620 129Q1634 154 1647.5 308Q1661 462 1668 692.5Q1675 923 1675 1190L1262 1190Q1193 979 1096 815L934 936L934 -96L725 -96L725 49L428 49L428 -96L219 -96L219 1368L408 1368Q478 1521 518 1729L739 1681Q702 1525 623 1368L934 1368L934 991Q1113 1313 1157 1718L1374 1677Q1350 1537 1319 1399ZM723 813L723 1159L426 1159L426 813ZM723 258L723 604L426 604L426 258ZM1604 492L1409 362Q1320 604 1124 793L1282 932Q1471 763 1604 492Z"/></g><g transform="translate(8192 2048) scale (1 -1)"><path d="M1964 324Q1946 204 1907 94Q1868 -16 1811.5 -56Q1755 -96 1645 -96L1335 -96Q1230 -96 1179 -55.5Q1128 -15 1128 104L1128 498L930 498Q892 -71 199 -152L123 43Q444 86 573 191.5Q702 297 721 498L412 498L412 1163L926 1163L926 1323L193 1323L193 1520L926 1520L926 1710L1141 1710L1141 1520L1880 1520L1880 1323L1141 1323L1141 1163L1659 1163L1659 498L1333 498L1333 168Q1333 113 1384 113L1620 113Q1659 113 1683 132Q1707 151 1734 237.5Q1761 324 1765 397ZM1454 694L1454 967L616 967L616 694Z"/></g><g transform="translate(10240 2048) scale (1 -1)"><path d="M1251 459L1081 328Q1007 546 799 748L799 -133L590 -133L590 606Q457 402 254 211L82 365Q412 631 582 1012L143 1012L143 1208L590 1208L590 1450Q402 1432 219 1425L127 1628L239 1626Q762 1626 1122 1739L1237 1561Q1064 1510 799 1473L799 1208L1217 1208L1217 1012L799 1012L799 813L915 909Q1141 692 1251 459ZM1888 121Q1888 -133 1657 -133L1458 -133L1393 100Q1524 80 1608 80Q1679 80 1679 160L1679 1720L1888 1720ZM1538 307L1329 307L1329 1501L1538 1501Z"/></g><g transform="translate(12288 2048) scale (1 -1)"><path d="M1980 242Q1944 6 1888.5 -68Q1833 -142 1759 -142Q1694 -142 1611 -75.5Q1528 -9 1460 121Q1384 39 1272 -55L1128 113Q1284 228 1380 336Q1313 592 1305 954L1090 954L1090 731L1245 786L1245 573L1090 510L1090 117Q1090 -14 1037 -71.5Q984 -129 870 -129L700 -129L633 86Q741 76 816 76Q887 76 887 152L887 432L653 348L580 553Q677 583 887 657L887 954L621 954L621 1161L887 1161L887 1401Q763 1364 696 1350L606 1511L551 1298L551 -133L346 -133L346 784Q297 691 236 598L70 741Q316 1107 432 1733L641 1677L612 1540Q911 1585 1126 1722L1260 1559Q1195 1518 1090 1473L1090 1161L1303 1161L1303 1712L1505 1712L1505 1161L1919 1161L1919 954L1507 954Q1511 723 1538 549Q1623 698 1675 891L1858 815Q1783 544 1604 297Q1680 118 1732 118Q1757 118 1765.5 151Q1774 184 1792 336ZM1894 1323L1702 1239Q1662 1390 1536 1520L1702 1626Q1858 1462 1894 1323Z"/></g></g></g><g transform="translate(243.5 156)"><rect x="0" y="0" width="106" height="28" rx="10" ry="10" style="fill:#E0E0E0;stroke:#707070;stroke-width:1px;"/><g transform="translate (5 5) scale(0.005859375)" style="fill:#4F4F4F;"><g transform="translate(0 2048) scale (1 -1)"><path d="M1862 141Q1862 3 1807.5 -63Q1753 -129 1624 -129L1397 -129L1319 102Q1516 88 1565 88Q1653 88 1653 186L1653 1456L256 1456L256 1647L1862 1647ZM1544 1104L152 1104L152 1294L1544 1294ZM1333 166L1128 166L1128 268L561 268L561 166L356 166L356 954L1333 954ZM1128 459L1128 764L561 764L561 459Z"/></g><g transform="translate(2048 2048) scale (1 -1)"><path d="M1956 45L1808 -165Q1297 30 1052 633Q861 113 264 -162L123 25Q700 238 866 791L275 791L275 999L909 999Q920 1091 920 1171L920 1425L190 1425L190 1634L1869 1634L1869 1425L1137 1425L1137 1198Q1137 1108 1126 999L1784 999L1784 791L1204 791Q1408 249 1956 45Z"/></g><g transform="translate(4096 2048) scale (1 -1)"><path d="M1980 29L1839 -150Q1343 8 1032 258Q724 -1 227 -158L82 20Q565 133 881 395Q559 716 504 1164L143 1164L143 1373L921 1373L921 1706L1144 1706L1144 1373L1923 1373L1923 1164L1542 1164Q1472 716 1182 403Q1521 132 1980 29ZM1327 1164L719 1164Q756 822 1022 543Q1273 805 1327 1164Z"/></g><g transform="translate(6144 2048) scale (1 -1)"><path d="M1886 1399L1886 1326Q1886 1010 1870 571.5Q1854 133 1830.5 62Q1807 -9 1747.5 -70Q1688 -131 1523 -131Q1420 -131 1235 -104L1176 115Q1389 75 1502 75Q1554 75 1580 89.5Q1606 104 1620 129Q1634 154 1647.5 308Q1661 462 1668 692.5Q1675 923 1675 1190L1262 1190Q1193 979 1096 815L934 936L934 -96L725 -96L725 49L428 49L428 -96L219 -96L219 1368L408 1368Q478 1521 518 1729L739 1681Q702 1525 623 1368L934 1368L934 991Q1113 1313 1157 1718L1374 1677Q1350 1537 1319 1399ZM723 813L723 1159L426 1159L426 813ZM723 258L723 604L426 604L426 258ZM1604 492L1409 362Q1320 604 1124 793L1282 932Q1471 763 1604 492Z"/></g><g transform="translate(8192 2048) scale (1 -1)"><path d="M1870 745Q1870 438 1840 217.5Q1810 -3 1734.5 -66Q1659 -129 1530 -129Q1417 -129 1280 -111L1214 102Q1385 76 1524 76Q1559 76 1583 100.5Q1607 125 1630 264.5Q1653 404 1653 555L414 555L414 1528L752 1528Q796 1617 819 1733L1034 1665Q1016 1592 981 1528L1556 1528L1557 1443Q1557 1285 1537.5 1091.5Q1518 898 1438 853Q1358 808 1237 808Q1126 808 1030 825L983 1034Q1101 1011 1186 1011Q1269 1011 1303 1044.5Q1337 1078 1337 1337L623 1337L623 745ZM1538 252L150 252L150 442L1538 442Z"/></g><g transform="translate(10240 2048) scale (1 -1)"><path d="M1907 1128L852 1128L852 1346L1232 1346L1232 1712L1441 1712L1441 1346L1907 1346ZM821 750Q683 668 610 631L610 72Q610 -133 428 -133L221 -133L162 88Q217 80 288 80Q355 80 378 96Q401 112 401 154L401 528Q316 488 186 434L102 645Q249 692 401 762L401 1143L141 1143L141 1356L401 1356L401 1712L610 1712L610 1356L801 1356L801 1143L610 1143L610 864Q765 946 821 979ZM1952 -63L743 -63L743 155L1368 155Q1508 531 1559 1069L1790 1001Q1723 531 1585 155L1952 155ZM1290 317L1077 244Q1036 685 907 940L1108 1026Q1260 699 1290 317Z"/></g><g transform="translate(12288 2048) scale (1 -1)"><path d="M1866 1022L492 1022L492 760Q492 389 435 194.5Q378 0 274 -147L94 -20Q287 210 287 758L287 1653L1866 1653ZM1661 1212L1661 1462L492 1462L492 1212ZM1974 362Q1960 268 1916 132.5Q1872 -3 1807.5 -49.5Q1743 -96 1606 -96L973 -96Q861 -96 805.5 -41Q750 14 750 150L750 954L958 954L958 545Q1322 642 1612 860L1776 709Q1412 451 958 352L958 166Q958 96 1022 96L1577 96Q1626 96 1660.5 114.5Q1695 133 1733 263.5Q1771 394 1778 444Z"/></g><g transform="translate(14336 2048) scale (1 -1)"><path d="M1946 -53L123 -53L123 156L733 156L733 1421L182 1421L182 1630L1872 1630L1872 1421L1335 1421L1335 156L1946 156ZM1128 156L1128 1421L938 1421L938 156ZM1853 1165Q1774 642 1587 307L1399 408Q1609 816 1647 1231ZM684 373L465 311Q401 754 186 1141L389 1229Q598 854 684 373Z"/></g></g></g><g transform="translate(243.5 204)"><rect x="0" y="0" width="118" height="28" rx="10" ry="10" style="fill:#E0E0E0;stroke:#707070;stroke-width:1px;"/><g transform="translate (5 5) scale(0.005859375)" style="fill:#4F4F4F;"><g transform="translate(0 2048) scale (1 -1)"><path d="M1862 141Q1862 3 1807.5 -63Q1753 -129 1624 -129L1397 -129L1319 102Q1516 88 1565 88Q1653 88 1653 186L1653 1456L256 1456L256 1647L1862 1647ZM1544 1104L152 1104L152 1294L1544 1294ZM1333 166L1128 166L1128 268L561 268L561 166L356 166L356 954L1333 954ZM1128 459L1128 764L561 764L561 459Z"/></g><g transform="translate(2048 2048) scale (1 -1)"><path d="M1980 868L1843 666Q1302 788 1028 936Q644 735 199 668L72 862Q524 918 825 1061Q620 1209 463 1432L264 1432L264 1628L1677 1628L1677 1425Q1481 1220 1239 1061Q1476 956 1980 868ZM1370 1432L723 1432Q860 1280 1028 1171Q1198 1278 1370 1432ZM1917 -57L145 -57L145 139L920 139L920 387L334 387L334 584L920 584L920 815L1141 815L1141 584L1733 584L1733 387L1141 387L1141 139L1917 139Z"/></g><g transform="translate(4096 2048) scale (1 -1)"><path d="M1935 1413Q1910 1131 1837 874L1651 944Q1699 1111 1712 1200L1442 1200Q1396 1087 1288 910L1118 1038Q1234 1214 1277.5 1346Q1321 1478 1341 1735L1554 1694Q1533 1525 1507 1413ZM1991 14L1843 -156Q1609 60 1520 313Q1431 83 1243 -150L1083 -20Q1037 -133 901 -133L702 -133L641 72Q739 59 827 59Q903 59 903 139L903 700L117 700L117 884L1227 884L1227 700L1108 700L1108 125Q1108 56 1094 4Q1407 350 1407 829L1407 1065L1616 1065L1616 879L1608 696Q1608 619 1702.5 398.5Q1797 178 1991 14ZM809 109L612 109L612 154L459 154L459 68L262 68L262 634L809 634ZM612 330L612 458L459 458L459 330ZM726 980L264 980L264 1416L808 1416L808 1112L864 1112Q896 1112 896 1160L896 1472L160 1472L160 1656L1208 1656L1208 1472L1104 1472L1104 1096Q1104 920 896 920L744 920ZM608 1148L608 1248L456 1248L456 1148Z"/></g><g transform="translate(6144 2048) scale (1 -1)"><path d="M1886 1399L1886 1326Q1886 1010 1870 571.5Q1854 133 1830.5 62Q1807 -9 1747.5 -70Q1688 -131 1523 -131Q1420 -131 1235 -104L1176 115Q1389 75 1502 75Q1554 75 1580 89.5Q1606 104 1620 129Q1634 154 1647.5 308Q1661 462 1668 692.5Q1675 923 1675 1190L1262 1190Q1193 979 1096 815L934 936L934 -96L725 -96L725 49L428 49L428 -96L219 -96L219 1368L408 1368Q478 1521 518 1729L739 1681Q702 1525 623 1368L934 1368L934 991Q1113 1313 1157 1718L1374 1677Q1350 1537 1319 1399ZM723 813L723 1159L426 1159L426 813ZM723 258L723 604L426 604L426 258ZM1604 492L1409 362Q1320 604 1124 793L1282 932Q1471 763 1604 492Z"/></g><g transform="translate(8192 2048) scale (1 -1)"><path d="M1970 33L1862 -164Q1588 -79 1370 113Q1196 -43 961 -152L829 27Q1062 125 1227 258Q1047 474 995 723L915 723L915 668Q915 369 850.5 181Q786 -7 639 -162L451 -39Q598 114 652.5 255.5Q707 397 707 666L707 1452L1184 1452L1184 1710L1393 1710L1393 1452L1896 1452Q1850 1157 1800 1014L1579 1040Q1603 1101 1638 1243L1393 1243L1393 932L1743 932L1743 917Q1743 548 1509 258Q1711 100 1970 33ZM1184 932L1184 1243L915 1243L915 932ZM1524 723L1212 723Q1239 545 1366 395Q1491 548 1524 723ZM635 1432L496 1262Q360 1418 164 1516L293 1681Q516 1569 635 1432ZM571 954L432 784Q302 941 80 1044L209 1210Q472 1077 571 954ZM602 606Q520 300 293 -123L100 0Q286 310 397 696Z"/></g><g transform="translate(10240 2048) scale (1 -1)"><path d="M1640 899L436 899L436 1649L1640 1649ZM1425 1100L1425 1460L649 1460L649 1100ZM1755 -141L1540 -131L1540 -4L530 -4L530 -139L317 -141L317 762L1755 762ZM1540 190L1540 573L530 573L530 190Z"/></g><g transform="translate(12288 2048) scale (1 -1)"><path d="M1946 625L1450 625L1450 -133L1241 -133L1241 625L725 625L725 838L1241 838L1241 1262L1040 1262Q973 1086 846 889L657 993Q885 1340 940 1724L1143 1679Q1122 1555 1104 1475L1833 1475L1833 1262L1450 1262L1450 838L1946 838ZM651 1372L473 1219Q386 1390 213 1534L369 1675Q521 1558 651 1372ZM844 158L426 -141L319 39Q373 76 373 135L373 909L133 909L133 1118L582 1118L582 205L844 391Z"/></g><g transform="translate(14336 2048) scale (1 -1)"><path d="M1866 1022L492 1022L492 760Q492 389 435 194.5Q378 0 274 -147L94 -20Q287 210 287 758L287 1653L1866 1653ZM1661 1212L1661 1462L492 1462L492 1212ZM1974 362Q1960 268 1916 132.5Q1872 -3 1807.5 -49.5Q1743 -96 1606 -96L973 -96Q861 -96 805.5 -41Q750 14 750 150L750 954L958 954L958 545Q1322 642 1612 860L1776 709Q1412 451 958 352L958 166Q958 96 1022 96L1577 96Q1626 96 1660.5 114.5Q1695 133 1733 263.5Q1771 394 1778 444Z"/></g><g transform="translate(16384 2048) scale (1 -1)"><path d="M1946 -53L123 -53L123 156L733 156L733 1421L182 1421L182 1630L1872 1630L1872 1421L1335 1421L1335 156L1946 156ZM1128 156L1128 1421L938 1421L938 156ZM1853 1165Q1774 642 1587 307L1399 408Q1609 816 1647 1231ZM684 373L465 311Q401 754 186 1141L389 1229Q598 854 684 373Z"/></g></g></g><g transform="translate(243.5 -36)"><rect x="0" y="0" width="118" height="28" rx="10" ry="10" style="fill:#E0E0E0;stroke:#707070;stroke-width:1px;"/><g transform="translate (5 5) scale(0.005859375)" style="fill:#4F4F4F;"><g transform="translate(0 2048) scale (1 -1)"><path d="M1862 141Q1862 3 1807.5 -63Q1753 -129 1624 -129L1397 -129L1319 102Q1516 88 1565 88Q1653 88 1653 186L1653 1456L256 1456L256 1647L1862 1647ZM1544 1104L152 1104L152 1294L1544 1294ZM1333 166L1128 166L1128 268L561 268L561 166L356 166L356 954L1333 954ZM1128 459L1128 764L561 764L561 459Z"/></g><g transform="translate(2048 2048) scale (1 -1)"><path d="M1898 713L1317 713L1317 528L1102 528L1102 1712L1317 1712L1317 1540L1872 1540L1872 1350L1317 1350L1317 1231L1778 1231L1778 1040L1317 1040L1317 903L1898 903ZM485 455L335 625Q467 686 560 766L225 713L160 924Q387 942 705 981Q721 1028 729 1067L279 1067L279 1257L748 1257L750 1350L190 1350L190 1540L750 1540L750 1712L965 1712L965 1269Q965 728 485 455ZM1227 328L1047 209Q945 413 807 524L979 631Q1119 522 1227 328ZM1966 98L1774 -35Q1689 165 1497 389L1675 520Q1851 335 1966 98ZM1530 266Q1511 64 1440 -16Q1369 -96 1210 -96L838 -96Q610 -96 610 125L610 473L821 473L821 158Q821 102 877 102L1186 102Q1317 102 1317 340ZM559 377Q467 167 258 -49L88 100Q262 236 369 463Z"/></g><g transform="translate(4096 2048) scale (1 -1)"><path d="M1892 121Q1892 -137 1686 -137L1477 -137L1399 88Q1531 76 1629 76Q1696 76 1696 156L1696 1712L1892 1712ZM1274 758L963 758L963 561L1223 561L1223 -133L1028 -133L1028 -57L707 -57L707 -133L512 -133L512 561L768 561L768 758L420 758Q420 402 395.5 241Q371 80 272 -154L86 -47Q172 141 198.5 297.5Q225 454 225 694L225 1659L1221 1659L1221 1137L420 1137L420 950L768 950L768 1100L963 1100L963 950L1274 950ZM1026 1327L1026 1468L420 1468L420 1327ZM1028 147L1028 356L707 356L707 147ZM1556 299L1360 299L1360 1491L1556 1491Z"/></g><g transform="translate(6144 2048) scale (1 -1)"><path d="M1886 1399L1886 1326Q1886 1010 1870 571.5Q1854 133 1830.5 62Q1807 -9 1747.5 -70Q1688 -131 1523 -131Q1420 -131 1235 -104L1176 115Q1389 75 1502 75Q1554 75 1580 89.5Q1606 104 1620 129Q1634 154 1647.5 308Q1661 462 1668 692.5Q1675 923 1675 1190L1262 1190Q1193 979 1096 815L934 936L934 -96L725 -96L725 49L428 49L428 -96L219 -96L219 1368L408 1368Q478 1521 518 1729L739 1681Q702 1525 623 1368L934 1368L934 991Q1113 1313 1157 1718L1374 1677Q1350 1537 1319 1399ZM723 813L723 1159L426 1159L426 813ZM723 258L723 604L426 604L426 258ZM1604 492L1409 362Q1320 604 1124 793L1282 932Q1471 763 1604 492Z"/></g><g transform="translate(8192 2048) scale (1 -1)"><path d="M1950 -84L127 -84L127 84L915 84L915 190L293 190L293 356L915 356L915 449L780 389Q723 511 645 592L811 664L451 664L569 541Q448 454 242 377L119 547Q312 598 399 664L145 664L145 825L928 825L928 891L264 891L264 1041L928 1041L928 1107L330 1107L330 1655L1733 1655L1733 1107L1137 1107L1137 1041L1808 1041L1808 891L1137 891L1137 825L1919 825L1919 664L1765 664Q1859 587 1944 477L1743 381Q1642 518 1530 598L1636 664L1284 664Q1364 586 1427 477L1233 397Q1187 495 1092 594L1266 664L840 664Q919 583 979 477L934 457L1147 457L1147 356L1778 356L1778 190L1147 190L1147 84L1950 84ZM1522 1519L1137 1519L1137 1447L1522 1447ZM928 1447L928 1519L541 1519L541 1447ZM1522 1315L1137 1315L1137 1243L1522 1243ZM928 1243L928 1315L541 1315L541 1243Z"/></g><g transform="translate(10240 2048) scale (1 -1)"><path d="M1845 1262Q1845 1253 1771 1131Q1697 1009 1618 918L1444 1030Q1542 1141 1614 1262L621 1262Q442 960 242 754L94 928Q418 1236 604 1733L817 1655Q775 1553 731 1466L1845 1466ZM1147 96Q1147 -133 942 -133L733 -133L678 80Q765 61 856 61Q938 61 938 135L938 1169L1147 1169ZM1972 207L1788 96Q1597 492 1272 799L1440 930Q1791 599 1972 207ZM834 821Q591 334 268 31L117 172Q448 471 655 928Z"/></g><g transform="translate(12288 2048) scale (1 -1)"><path d="M1970 33L1862 -164Q1588 -79 1370 113Q1196 -43 961 -152L829 27Q1062 125 1227 258Q1047 474 995 723L915 723L915 668Q915 369 850.5 181Q786 -7 639 -162L451 -39Q598 114 652.5 255.5Q707 397 707 666L707 1452L1184 1452L1184 1710L1393 1710L1393 1452L1896 1452Q1850 1157 1800 1014L1579 1040Q1603 1101 1638 1243L1393 1243L1393 932L1743 932L1743 917Q1743 548 1509 258Q1711 100 1970 33ZM1184 932L1184 1243L915 1243L915 932ZM1524 723L1212 723Q1239 545 1366 395Q1491 548 1524 723ZM635 1432L496 1262Q360 1418 164 1516L293 1681Q516 1569 635 1432ZM571 954L432 784Q302 941 80 1044L209 1210Q472 1077 571 954ZM602 606Q520 300 293 -123L100 0Q286 310 397 696Z"/></g><g transform="translate(14336 2048) scale (1 -1)"><path d="M1950 -84L127 -84L127 84L915 84L915 190L293 190L293 356L915 356L915 449L780 389Q723 511 645 592L811 664L451 664L569 541Q448 454 242 377L119 547Q312 598 399 664L145 664L145 825L928 825L928 891L264 891L264 1041L928 1041L928 1107L330 1107L330 1655L1733 1655L1733 1107L1137 1107L1137 1041L1808 1041L1808 891L1137 891L1137 825L1919 825L1919 664L1765 664Q1859 587 1944 477L1743 381Q1642 518 1530 598L1636 664L1284 664Q1364 586 1427 477L1233 397Q1187 495 1092 594L1266 664L840 664Q919 583 979 477L934 457L1147 457L1147 356L1778 356L1778 190L1147 190L1147 84L1950 84ZM1522 1519L1137 1519L1137 1447L1522 1447ZM928 1447L928 1519L541 1519L541 1447ZM1522 1315L1137 1315L1137 1243L1522 1243ZM928 1243L928 1315L541 1315L541 1243Z"/></g><g transform="translate(16384 2048) scale (1 -1)"><path d="M692 1384L553 1214Q374 1418 178 1511L309 1675Q531 1565 692 1384ZM1827 762L750 762L750 1661L1827 1661ZM1618 1309L1618 1470L958 1470L958 1309ZM1618 952L1618 1116L958 1116L958 952ZM629 907L489 737Q326 928 94 1040L223 1206Q486 1073 629 907ZM1954 -90L563 -90L563 100L1163 100L1163 317L696 317L696 508L1163 508L1163 713L1378 713L1378 508L1872 508L1872 317L1378 317L1378 100L1954 100ZM651 586Q510 150 297 -145L119 -14Q364 346 459 674Z"/></g></g></g><g transform="translate(243.5 12)"><rect x="0" y="0" width="94" height="28" rx="10" ry="10" style="fill:#E0E0E0;stroke:#707070;stroke-width:1px;"/><g transform="translate (5 5) scale(0.005859375)" style="fill:#4F4F4F;"><g transform="translate(0 2048) scale (1 -1)"><path d="M1862 141Q1862 3 1807.5 -63Q1753 -129 1624 -129L1397 -129L1319 102Q1516 88 1565 88Q1653 88 1653 186L1653 1456L256 1456L256 1647L1862 1647ZM1544 1104L152 1104L152 1294L1544 1294ZM1333 166L1128 166L1128 268L561 268L561 166L356 166L356 954L1333 954ZM1128 459L1128 764L561 764L561 459Z"/></g><g transform="translate(2048 2048) scale (1 -1)"><path d="M1901 1434L1137 1434L1137 1358L1749 1358L1749 1192L317 1192L317 1358L922 1358L922 1434L158 1434L158 1604L922 1604L922 1712L1137 1712L1137 1604L1901 1604ZM1948 438L115 438L115 608L651 608Q618 674 586 717L395 717L395 1114L1671 1114L1671 717L1475 717Q1442 660 1403 608L1948 608ZM1466 874L1466 956L600 956L600 874ZM1237 717L819 717Q852 668 879 608L1165 608Q1207 663 1237 717ZM1708 -135L1493 -135L1493 -66L580 -66L580 -135L365 -135L365 362L1708 362ZM1493 104L1493 193L580 193L580 104Z"/></g><g transform="translate(4096 2048) scale (1 -1)"><path d="M1892 121Q1892 -137 1686 -137L1477 -137L1399 88Q1531 76 1629 76Q1696 76 1696 156L1696 1712L1892 1712ZM1274 758L963 758L963 561L1223 561L1223 -133L1028 -133L1028 -57L707 -57L707 -133L512 -133L512 561L768 561L768 758L420 758Q420 402 395.5 241Q371 80 272 -154L86 -47Q172 141 198.5 297.5Q225 454 225 694L225 1659L1221 1659L1221 1137L420 1137L420 950L768 950L768 1100L963 1100L963 950L1274 950ZM1026 1327L1026 1468L420 1468L420 1327ZM1028 147L1028 356L707 356L707 147ZM1556 299L1360 299L1360 1491L1556 1491Z"/></g><g transform="translate(6144 2048) scale (1 -1)"><path d="M1886 1399L1886 1326Q1886 1010 1870 571.5Q1854 133 1830.5 62Q1807 -9 1747.5 -70Q1688 -131 1523 -131Q1420 -131 1235 -104L1176 115Q1389 75 1502 75Q1554 75 1580 89.5Q1606 104 1620 129Q1634 154 1647.5 308Q1661 462 1668 692.5Q1675 923 1675 1190L1262 1190Q1193 979 1096 815L934 936L934 -96L725 -96L725 49L428 49L428 -96L219 -96L219 1368L408 1368Q478 1521 518 1729L739 1681Q702 1525 623 1368L934 1368L934 991Q1113 1313 1157 1718L1374 1677Q1350 1537 1319 1399ZM723 813L723 1159L426 1159L426 813ZM723 258L723 604L426 604L426 258ZM1604 492L1409 362Q1320 604 1124 793L1282 932Q1471 763 1604 492Z"/></g><g transform="translate(8192 2048) scale (1 -1)"><path d="M1914 1317L1699 1317L1699 1114L1492 1114L1492 1317L1126 1317L1126 1126L918 1126L918 1317L704 1317L704 1513L918 1513L918 1712L1126 1712L1126 1513L1492 1513L1492 1712L1699 1712L1699 1513L1914 1513ZM729 303Q447 179 170 74L88 274L342 367L342 975L137 975L137 1186L342 1186L342 1653L551 1653L551 1186L727 1186L727 975L551 975L551 449L729 520ZM1982 709L1864 520Q1687 604 1540 717L1540 606L1049 606L1049 709Q941 616 766 502L641 688Q1055 900 1245 1270L1446 1194L1409 1128Q1615 857 1982 709ZM1438 803Q1354 877 1292 961Q1232 884 1151 803ZM1763 -133L1554 -133L1554 -59L1063 -59L1063 -133L854 -133L854 510L1763 510ZM1554 137L1554 313L1063 313L1063 137Z"/></g><g transform="translate(10240 2048) scale (1 -1)"><path d="M1251 459L1081 328Q1007 546 799 748L799 -133L590 -133L590 606Q457 402 254 211L82 365Q412 631 582 1012L143 1012L143 1208L590 1208L590 1450Q402 1432 219 1425L127 1628L239 1626Q762 1626 1122 1739L1237 1561Q1064 1510 799 1473L799 1208L1217 1208L1217 1012L799 1012L799 813L915 909Q1141 692 1251 459ZM1888 121Q1888 -133 1657 -133L1458 -133L1393 100Q1524 80 1608 80Q1679 80 1679 160L1679 1720L1888 1720ZM1538 307L1329 307L1329 1501L1538 1501Z"/></g><g transform="translate(12288 2048) scale (1 -1)"><path d="M1946 -53L123 -53L123 156L733 156L733 1421L182 1421L182 1630L1872 1630L1872 1421L1335 1421L1335 156L1946 156ZM1128 156L1128 1421L938 1421L938 156ZM1853 1165Q1774 642 1587 307L1399 408Q1609 816 1647 1231ZM684 373L465 311Q401 754 186 1141L389 1229Q598 854 684 373Z"/></g></g></g><g transform="translate(117.5 12)"><rect x="0" y="0" width="106" height="28" rx="10" ry="10" style="fill:#FFFFFF;stroke:#707070;stroke-width:1px;"/><g transform="translate (5 5) scale(0.005859375)" style="fill:#000000;"><g transform="translate(0 2048) scale (1 -1)"><path d="M1939 -80L127 -80L127 129L922 129L922 535L379 535L379 743L922 743L922 1102L549 1102Q462 898 285 664L92 786Q379 1109 451 1552L668 1489Q643 1379 623 1311L922 1311L922 1712L1137 1712L1137 1311L1819 1311L1819 1102L1137 1102L1137 743L1724 743L1724 535L1137 535L1137 129L1939 129Z"/></g><g transform="translate(2048 2048) scale (1 -1)"><path d="M1921 1425L1055 1425L1055 -133L831 -133L831 1425L147 1425L147 1638L1921 1638ZM1819 670L1663 524Q1389 837 1100 946L1221 1126Q1581 957 1819 670Z"/></g><g transform="translate(4096 2048) scale (1 -1)"><path d="M1966 330Q1935 64 1878.5 -19Q1822 -102 1694 -102L1473 -102Q1251 -102 1251 131Q1251 400 1305 1085L936 1085L936 1079Q936 604 767 329.5Q598 55 242 -141L72 -4Q431 208 574.5 450Q718 692 721 1085L176 1085L176 1296L721 1296L721 1712L936 1712L936 1296L1540 1296Q1464 400 1464 156Q1464 106 1518 106L1665 106Q1690 106 1708 122Q1726 138 1741.5 225Q1757 312 1761 397Z"/></g><g transform="translate(6144 2048) scale (1 -1)"><path d="M698 1677Q636 1405 571 1262L571 -137L367 -137L367 836Q292 706 219 598L57 741Q384 1182 489 1733ZM1901 1111L668 1111L668 1320L1182 1320L1182 1712L1387 1712L1387 1320L1901 1320ZM1942 -51L651 -51L651 158L1335 158Q1518 615 1573 1055L1802 988Q1722 484 1571 158L1942 158ZM1180 328L967 254Q913 634 770 916L967 1010Q1123 709 1180 328Z"/></g><g transform="translate(8192 2048) scale (1 -1)"><path d="M752 1257Q594 884 408 604Q607 659 702 690L702 489Q446 413 176 346L109 518Q237 657 381 926L172 895L111 1071Q294 1342 424 1724L627 1634Q507 1360 354 1139L496 1159Q535 1247 571 1346ZM1847 969L1653 969L1653 1487L1300 1487L1300 1665L1847 1665ZM1991 698L1886 514Q1567 605 1288 850Q1100 685 809 567L696 733Q948 811 1135 965L1044 965L1044 1487L702 1487L702 1665L1239 1665L1239 1065L1260 1087L1333 1067L1290 1139Q1420 1177 1614 1260L1614 1100Q1573 1081 1448 1036L1468 1030L1421 979Q1659 766 1991 698ZM1587 1346L1477 1235Q1395 1314 1294 1354L1411 1462Q1515 1419 1587 1346ZM989 1325L866 1225Q800 1302 707 1350L819 1456Q918 1402 989 1325ZM1006 1087L776 973L700 1110Q925 1210 1006 1251ZM1434 666Q1288 493 918 350L809 489Q1130 604 1294 772ZM1642 512Q1367 248 877 96L770 256Q952 288 1164 400Q1376 512 1491 627ZM1866 369Q1517 20 834 -172L709 0Q1288 105 1724 483ZM735 156Q469 24 197 -51L123 158Q388 226 735 360Z"/></g><g transform="translate(10240 2048) scale (1 -1)"><path d="M1942 903L1757 903L1757 -135L1552 -135L1552 903L1405 903L1405 596Q1405 337 1366.5 179Q1328 21 1208 -154L1028 -49Q1117 72 1158.5 184.5Q1200 297 1200 537L1200 1561Q1548 1572 1806 1716L1933 1536Q1646 1398 1405 1382L1405 1116L1942 1116ZM1161 324L129 324L129 514L303 514L303 1329L145 1329L145 1520L303 1520L303 1712L508 1712L508 1520L801 1520L801 1712L1006 1712L1006 1520L1145 1520L1145 1329L1006 1329L1006 514L1161 514ZM801 1184L801 1329L508 1329L508 1184ZM801 850L801 997L508 997L508 850ZM801 514L801 664L508 664L508 514ZM1085 104L913 -49Q820 86 668 162L834 295Q966 229 1085 104ZM606 168Q413 -47 219 -152L74 14Q248 96 440 295Z"/></g><g transform="translate(12288 2048) scale (1 -1)"><path d="M1921 1077L1571 1077Q1451 655 1221 389Q1705 182 1886 27L1745 -143Q1555 15 1051 225Q750 -20 217 -145L100 35Q547 126 819 315Q517 429 297 481Q471 762 623 1077L145 1077L145 1290L721 1290Q830 1541 885 1741L1102 1655Q1035 1463 963 1290L1921 1290ZM1346 1077L870 1077Q730 761 625 592Q740 577 1008 475Q1230 703 1346 1077Z"/></g><g transform="translate(14336 2048) scale (1 -1)"><path d="M1907 344L1475 344L1475 -135L1268 -135L1268 344L834 344L834 594L672 469Q620 593 553 688L553 -133L346 -133L346 559Q281 498 221 449L76 606Q372 820 512 1169L139 1169L139 1379L349 1379L349 1706L556 1706L556 1379L715 1379L715 1187Q675 982 553 801L553 758L670 864Q773 749 834 625L834 1417L1268 1417L1268 1714L1475 1714L1475 1417L1907 1417ZM1702 991L1702 1208L1475 1208L1475 991ZM1268 991L1268 1208L1038 1208L1038 991ZM1702 553L1702 782L1475 782L1475 553ZM1268 553L1268 782L1038 782L1038 553Z"/></g></g></g></g></svg>