<?xml version="1.0" encoding="UTF-8"?>
<svg xmlns="http://www.w3.org/2000/svg" xmlns:xlink="http://www.w3.org/1999/xlink" width="458.86945519999995" height="486.54999999999995"><rect width="100%" height="100%" fill="#FFFFFF"/><g transform="scale(1.333) translate(210,294)" style="fill:none;"><g transform="translate(-83.7656,-113)"><path d="M44,14Q44,38 74,38" stroke="#707070" stroke-width="1"/></g><g transform="translate(-83.7656,-142)"><path d="M27,43Q27,-8 80,14" stroke="#707070" stroke-width="1"/></g><g transform="translate(-83.7656,-204)"><path d="M27,105Q27,-20 106,14" stroke="#707070" stroke-width="1"/></g><g transform="translate(-83.7656,-113)"><path d="M27,14Q27,120 110,86" stroke="#707070" stroke-width="1"/></g><g transform="translate(-83.7656,-113)"><path d="M27,14Q27,176 116,142" stroke="#707070" stroke-width="1"/></g><g transform="translate(-83.7656,-267)"><path d="M27,168Q27,-20 76,14" stroke="#707070" stroke-width="1"/></g><g transform="translate(-183,-187)"><path d="M58,14L99,88" stroke-dasharray="8, 8" stroke="#707070" stroke-width="2"/></g><g transform="translate(-116,-154)"><rect x="0" y="2" width="24" height="12" fill="#FFFFFF" stroke="#FFFFFF"/><g transform="scale(0.005859375)" style="fill:#4F4F4F;"><g transform="translate(0 2048) scale (1 -1)"><path d="M1931 57L1829 -84Q1201 168 1055 694Q892 172 270 -104L152 35Q754 282 893 729L266 729L266 879L926 879Q948 983 961 1227L393 1227L393 1382L963 1382L963 1708L1130 1708L1130 1382L1683 1382L1683 1227L1124 1227Q1118 986 1100 879L1817 879L1817 729L1214 729Q1352 282 1931 57Z"/></g><g transform="translate(2048 2048) scale (1 -1)"><path d="M1915 926L1706 926L1706 678L395 678L395 827L946 827L946 926L164 926L164 1075L946 1075L946 1178L395 1178L395 1327L946 1327L946 1427L217 1427L217 1577L946 1577L946 1714L1102 1714L1102 1577L1845 1577L1845 1427L1102 1427L1102 1327L1706 1327L1706 1075L1915 1075ZM1550 1075L1550 1178L1102 1178L1102 1075ZM1550 827L1550 926L1102 926L1102 827ZM1901 377L1528 377Q1450 277 1331 178Q1679 88 1868 -16L1767 -143Q1500 -4 1169 66Q812 -117 242 -135L166 18Q651 28 930 117L930 121Q595 183 446 193Q486 223 631 377L164 377L164 526L748 526Q781 565 860 676L1014 616L948 526L1901 526ZM1323 377L836 377L745 285Q903 265 1133 223Q1261 300 1323 377Z"/></g></g></g><g transform="translate(-183 -187)"><rect x="0" y="0" width="58" height="28" rx="10" ry="10" style="fill:#FF0000;stroke:#707070;stroke-width:1px;"/><g transform="translate (5 5) scale(0.005859375)" style="fill:#EEEEEE;"><g transform="translate(0 2048) scale (1 -1)"><path d="M1964 324Q1946 204 1907 94Q1868 -16 1811.5 -56Q1755 -96 1645 -96L1335 -96Q1230 -96 1179 -55.5Q1128 -15 1128 104L1128 498L930 498Q892 -71 199 -152L123 43Q444 86 573 191.5Q702 297 721 498L412 498L412 1163L926 1163L926 1323L193 1323L193 1520L926 1520L926 1710L1141 1710L1141 1520L1880 1520L1880 1323L1141 1323L1141 1163L1659 1163L1659 498L1333 498L1333 168Q1333 113 1384 113L1620 113Q1659 113 1683 132Q1707 151 1734 237.5Q1761 324 1765 397ZM1454 694L1454 967L616 967L616 694Z"/></g><g transform="translate(2048 2048) scale (1 -1)"><path d="M1847 1053L879 1053L981 1001Q955 949 932 913L1720 913L1720 715Q1551 376 1195.5 170Q840 -36 221 -143L119 74Q620 125 954 279Q837 416 670 508L831 664Q1005 560 1155 389Q1364 526 1491 717L770 717Q564 511 274 342L135 530Q540 721 756 1053L229 1053L229 1659L1847 1659ZM1642 1249L1642 1462L1376 1462L1376 1249ZM1171 1249L1171 1462L905 1462L905 1249ZM700 1249L700 1462L434 1462L434 1249Z"/></g><g transform="translate(4096 2048) scale (1 -1)"><path d="M1913 1333L1653 1333L1653 1149L1448 1149L1448 1333L1118 1333L1118 1149L913 1149L913 1333L664 1333L664 1530L913 1530L913 1712L1118 1712L1118 1530L1448 1530L1448 1712L1653 1712L1653 1530L1913 1530ZM631 1397L453 1243Q365 1414 193 1559L350 1700Q498 1586 631 1397ZM1929 831L1260 831Q1216 738 1153 651L1776 651L1776 -135L1571 -135L1571 -33L1147 -33L1147 -135L942 -135L942 420Q899 379 791 287L668 457Q901 633 1022 831L676 831L676 1028L1118 1028Q1160 1147 1178 1270L1378 1229Q1359 1133 1331 1028L1929 1028ZM1571 164L1571 455L1147 455L1147 164ZM737 90L426 -121L319 59Q373 96 373 152L373 909L133 909L133 1118L582 1118L582 225L733 319Z"/></g><g transform="translate(6144 2048) scale (1 -1)"><path d="M1942 903L1757 903L1757 -135L1552 -135L1552 903L1405 903L1405 596Q1405 337 1366.5 179Q1328 21 1208 -154L1028 -49Q1117 72 1158.5 184.5Q1200 297 1200 537L1200 1561Q1548 1572 1806 1716L1933 1536Q1646 1398 1405 1382L1405 1116L1942 1116ZM1161 324L129 324L129 514L303 514L303 1329L145 1329L145 1520L303 1520L303 1712L508 1712L508 1520L801 1520L801 1712L1006 1712L1006 1520L1145 1520L1145 1329L1006 1329L1006 514L1161 514ZM801 1184L801 1329L508 1329L508 1184ZM801 850L801 997L508 997L508 850ZM801 514L801 664L508 664L508 514ZM1085 104L913 -49Q820 86 668 162L834 295Q966 229 1085 104ZM606 168Q413 -47 219 -152L74 14Q248 96 440 295Z"/></g></g></g><g transform="translate(-83.7656 -113)"><rect x="0" y="0" width="54.4688" height="28" rx="10" ry="10" style="fill:#22AAE0;stroke:#707070;stroke-width:1px;"/><g transform="translate (15 5) scale(0.005859375)" style="fill:#4F4F4F;"><g transform="translate(0 2048) scale (1 -1)"><path d="M1843 1163L764 1163L764 1616L958 1616L958 1360L1206 1360L1206 1712L1401 1712L1401 1360L1649 1360L1649 1616L1843 1616ZM711 293Q328 115 158 57L82 252Q195 289 313 332L313 813L168 813L168 1010L313 1010L313 1374L143 1374L143 1571L705 1571L705 1374L518 1374L518 1010L670 1010L670 813L518 813L518 414L711 496ZM1952 856L1425 856Q1400 780 1374 717L1862 717L1862 63Q1862 -42 1816 -87.5Q1770 -133 1655 -133L1542 -133L1526 -63L1364 -63L1364 518L1253 518L1253 -63L1063 -63L1063 518L952 518L952 -133L756 -133L756 717L1155 717Q1177 770 1204 856L707 856L707 1053L1952 1053ZM1667 131L1667 518L1554 518L1554 72L1584 70Q1667 70 1667 131Z"/></g><g transform="translate(2048 2048) scale (1 -1)"><path d="M1946 -53L123 -53L123 156L733 156L733 1421L182 1421L182 1630L1872 1630L1872 1421L1335 1421L1335 156L1946 156ZM1128 156L1128 1421L938 1421L938 156ZM1853 1165Q1774 642 1587 307L1399 408Q1609 816 1647 1231ZM684 373L465 311Q401 754 186 1141L389 1229Q598 854 684 373Z"/></g></g></g><g transform="translate(-9.296799999999998 -89)"><rect x="0" y="0" width="98" height="28" rx="10" ry="10" style="fill:#E0E0E0;stroke:#707070;stroke-width:1px;"/><g transform="translate (5 5) scale(0.005859375)" style="fill:#4F4F4F;"><g transform="translate(56.83333333333303 2048) scale (1 -1)"><path d="M1921 1077L1571 1077Q1451 655 1221 389Q1705 182 1886 27L1745 -143Q1555 15 1051 225Q750 -20 217 -145L100 35Q547 126 819 315Q517 429 297 481Q471 762 623 1077L145 1077L145 1290L721 1290Q830 1541 885 1741L1102 1655Q1035 1463 963 1290L1921 1290ZM1346 1077L870 1077Q730 761 625 592Q740 577 1008 475Q1230 703 1346 1077Z"/></g><g transform="translate(2104.833333333333 2048) scale (1 -1)"><path d="M1006 342L836 193Q760 339 633 432Q558 141 270 -141L94 0Q467 287 467 831L467 1714L682 1714L682 1290Q773 1393 821 1464L979 1327Q846 1166 682 1024L682 854Q682 742 674 664Q869 528 1006 342ZM1946 -63L776 -63L776 150L1251 150L1251 854L844 854L844 1067L1251 1067L1251 1712L1466 1712L1466 1067L1890 1067L1890 854L1466 854L1466 150L1946 150ZM375 1337Q375 1038 307 788L125 844Q193 1108 193 1384L375 1362Z"/></g><g transform="translate(4152.833333333333 2048) scale (1 -1)"><path d="M1907 344L1475 344L1475 -135L1268 -135L1268 344L834 344L834 594L672 469Q620 593 553 688L553 -133L346 -133L346 559Q281 498 221 449L76 606Q372 820 512 1169L139 1169L139 1379L349 1379L349 1706L556 1706L556 1379L715 1379L715 1187Q675 982 553 801L553 758L670 864Q773 749 834 625L834 1417L1268 1417L1268 1714L1475 1714L1475 1417L1907 1417ZM1702 991L1702 1208L1475 1208L1475 991ZM1268 991L1268 1208L1038 1208L1038 991ZM1702 553L1702 782L1475 782L1475 553ZM1268 553L1268 782L1038 782L1038 553Z"/></g><g transform="translate(6769.833333333333 2048) scale (1 -1)"><path d="M1933 932L1716 932L1716 72Q1716 -12 1673 -66.5Q1630 -121 1550 -121L1415 -121L1360 72Q1430 59 1483 59Q1536 59 1536 119L1536 932L1466 932L1466 647Q1466 104 1141 -143L989 -10Q1134 90 1210 241.5Q1286 393 1286 647L1286 932L1040 932L1040 1122L1376 1122L1376 1300L1122 1300L1122 1491L1376 1491L1376 1712L1581 1712L1581 1491L1858 1491L1858 1300L1581 1300L1581 1122L1933 1122ZM991 932L813 932L813 61Q813 -22 769.5 -76.5Q726 -131 647 -131L516 -131L461 61Q530 49 580 49Q633 49 633 106L633 932L567 932L567 629Q567 309 485.5 139.5Q404 -30 256 -160L121 -27Q247 72 317 215Q387 358 387 629L387 932L143 932L143 1122L467 1122L467 1300L213 1300L213 1491L467 1491L467 1712L672 1712L672 1491L938 1491L938 1300L672 1300L672 1122L991 1122ZM1970 315L1815 270Q1803 551 1737 774L1876 821Q1953 604 1970 315ZM1255 774Q1224 468 1135 217L989 262Q1006 299 1028 375L903 350Q892 569 836 762L969 799Q1026 580 1040 422Q1090 611 1110 815ZM354 768Q332 445 246 240L98 283Q188 485 211 797Z"/></g><g transform="translate(8817.833333333332 2048) scale (1 -1)"><path d="M1942 903L1757 903L1757 -135L1552 -135L1552 903L1405 903L1405 596Q1405 337 1366.5 179Q1328 21 1208 -154L1028 -49Q1117 72 1158.5 184.5Q1200 297 1200 537L1200 1561Q1548 1572 1806 1716L1933 1536Q1646 1398 1405 1382L1405 1116L1942 1116ZM1161 324L129 324L129 514L303 514L303 1329L145 1329L145 1520L303 1520L303 1712L508 1712L508 1520L801 1520L801 1712L1006 1712L1006 1520L1145 1520L1145 1329L1006 1329L1006 514L1161 514ZM801 1184L801 1329L508 1329L508 1184ZM801 850L801 997L508 997L508 850ZM801 514L801 664L508 664L508 514ZM1085 104L913 -49Q820 86 668 162L834 295Q966 229 1085 104ZM606 168Q413 -47 219 -152L74 14Q248 96 440 295Z"/></g><g transform="translate(10865.833333333332 2048) scale (1 -1)"><path d="M1978 127L1911 -92L1509 -92Q1176 -92 965 90Q883 -35 739 -141L584 2Q875 190 924 612L1133 575Q1103 391 1059 272Q1136 199 1245 154L1245 655L750 655L750 731L571 631L571 80Q571 -139 381 -139L215 -139L145 86Q215 78 285 78Q362 78 362 154L362 526L180 444L86 647Q195 687 362 766L362 1143L137 1143L137 1356L362 1356L362 1712L571 1712L571 1356L772 1356L772 1143L571 1143L571 866Q699 930 782 979L782 848L1939 848L1939 655L1450 655L1450 514L1808 514L1808 322L1450 322L1450 111L1761 111Q1879 111 1978 127ZM1819 926L850 926L850 1659L1819 1659ZM1614 1393L1614 1473L1055 1473L1055 1393ZM1614 1112L1614 1208L1055 1208L1055 1112Z"/></g><g transform="translate(12913.833333333332 2048) scale (1 -1)"><path d="M1946 -53L123 -53L123 156L733 156L733 1421L182 1421L182 1630L1872 1630L1872 1421L1335 1421L1335 156L1946 156ZM1128 156L1128 1421L938 1421L938 156ZM1853 1165Q1774 642 1587 307L1399 408Q1609 816 1647 1231ZM684 373L465 311Q401 754 186 1141L389 1229Q598 854 684 373Z"/></g></g></g><g transform="translate(-3.765599999999999 -142)"><rect x="0" y="0" width="110" height="28" rx="10" ry="10" style="fill:#E0E0E0;stroke:#707070;stroke-width:1px;"/><g transform="translate (5 5) scale(0.005859375)" style="fill:#4F4F4F;"><g transform="translate(56.83333333333394 2048) scale (1 -1)"><path d="M1982 27L1815 -139Q1449 174 1267.5 493Q1086 812 1040 1247L1028 1247Q948 1038 807 829L807 145Q1031 202 1276 291L1276 78Q927 -48 578 -127L514 68Q592 110 592 190L592 551Q423 366 238 236L90 399Q590 779 799 1247L379 1247L379 1069L170 1069L170 1452L881 1452Q932 1601 963 1722L1167 1675Q1133 1532 1106 1452L1894 1452L1894 1069L1686 1069L1686 1247L1231 1247Q1275 981 1362 780Q1520 856 1702 1010L1835 860Q1684 723 1450 604Q1631 291 1982 27Z"/></g><g transform="translate(2104.833333333334 2048) scale (1 -1)"><path d="M1948 -88L121 -88L121 125L729 125L729 1681L942 1681L942 125L1126 125L1126 1681L1339 1681L1339 125L1948 125ZM1882 1257Q1768 723 1599 336L1382 426Q1599 866 1673 1331ZM657 426L434 336Q374 909 197 1257L391 1331Q575 947 657 426Z"/></g><g transform="translate(4152.833333333334 2048) scale (1 -1)"><path d="M1921 1077L1571 1077Q1451 655 1221 389Q1705 182 1886 27L1745 -143Q1555 15 1051 225Q750 -20 217 -145L100 35Q547 126 819 315Q517 429 297 481Q471 762 623 1077L145 1077L145 1290L721 1290Q830 1541 885 1741L1102 1655Q1035 1463 963 1290L1921 1290ZM1346 1077L870 1077Q730 761 625 592Q740 577 1008 475Q1230 703 1346 1077Z"/></g><g transform="translate(6200.833333333334 2048) scale (1 -1)"><path d="M1907 344L1475 344L1475 -135L1268 -135L1268 344L834 344L834 594L672 469Q620 593 553 688L553 -133L346 -133L346 559Q281 498 221 449L76 606Q372 820 512 1169L139 1169L139 1379L349 1379L349 1706L556 1706L556 1379L715 1379L715 1187Q675 982 553 801L553 758L670 864Q773 749 834 625L834 1417L1268 1417L1268 1714L1475 1714L1475 1417L1907 1417ZM1702 991L1702 1208L1475 1208L1475 991ZM1268 991L1268 1208L1038 1208L1038 991ZM1702 553L1702 782L1475 782L1475 553ZM1268 553L1268 782L1038 782L1038 553Z"/></g><g transform="translate(8817.833333333334 2048) scale (1 -1)"><path d="M698 1612Q525 1324 274 1096L113 1245Q376 1459 512 1718ZM1782 926L776 926L776 1659L1782 1659ZM1573 1386L1573 1475L985 1475L985 1386ZM1573 1110L1573 1202L985 1202L985 1110ZM723 1114Q649 986 559 870L559 -133L350 -133L350 631Q288 568 209 506L66 670Q379 919 539 1227ZM1937 389L1702 389L1702 158Q1702 -133 1468 -133L1255 -133L1198 63Q1357 49 1405 49Q1493 49 1493 147L1493 389L950 389Q1126 321 1260 188L1110 39Q966 178 797 248L920 389L614 389L614 573L1493 573L1493 664L684 664L684 848L1872 848L1872 664L1702 664L1702 573L1937 573Z"/></g><g transform="translate(10865.833333333334 2048) scale (1 -1)"><path d="M1950 -84L127 -84L127 84L915 84L915 190L293 190L293 356L915 356L915 449L780 389Q723 511 645 592L811 664L451 664L569 541Q448 454 242 377L119 547Q312 598 399 664L145 664L145 825L928 825L928 891L264 891L264 1041L928 1041L928 1107L330 1107L330 1655L1733 1655L1733 1107L1137 1107L1137 1041L1808 1041L1808 891L1137 891L1137 825L1919 825L1919 664L1765 664Q1859 587 1944 477L1743 381Q1642 518 1530 598L1636 664L1284 664Q1364 586 1427 477L1233 397Q1187 495 1092 594L1266 664L840 664Q919 583 979 477L934 457L1147 457L1147 356L1778 356L1778 190L1147 190L1147 84L1950 84ZM1522 1519L1137 1519L1137 1447L1522 1447ZM928 1447L928 1519L541 1519L541 1447ZM1522 1315L1137 1315L1137 1243L1522 1243ZM928 1243L928 1315L541 1315L541 1243Z"/></g><g transform="translate(12913.833333333334 2048) scale (1 -1)"><path d="M1884 1532L1739 1393Q1670 1490 1518 1585L1642 1722Q1802 1650 1884 1532ZM1999 227Q1927 -139 1758 -139Q1592 -139 1457 229Q1322 597 1274 1171L129 1171L129 1380L1262 1380Q1254 1528 1254 1646L1255 1714L1460 1714Q1460 1542 1468 1380L1937 1380L1937 1171L1481 1171Q1521 663 1612.5 392.5Q1704 122 1748 122Q1787 122 1810 317ZM1010 743L819 657Q719 913 592 1034L778 1128Q936 954 1010 743ZM1112 330Q1094 105 1023 18.5Q952 -68 795 -68L690 -68Q465 -68 465 152L465 870L674 870L674 197Q674 141 729 141L786 141Q832 141 855 159.5Q878 178 894.5 261.5Q911 345 913 403ZM1393 244L1219 150Q1138 426 983 598L1163 696Q1345 462 1393 244ZM438 608Q383 336 250 129L70 227Q190 378 256 672Z"/></g><g transform="translate(14961.833333333334 2048) scale (1 -1)"><path d="M1927 334L1561 297L1561 -133L1346 -133L1346 274L178 154L104 344L494 383L494 1460L188 1460L188 1657L1868 1657L1868 1460L1561 1460L1561 494L1927 530ZM1346 1264L1346 1460L709 1460L709 1264ZM1346 870L1346 1067L709 1067L709 870ZM1346 471L1346 674L709 674L709 406Z"/></g></g></g><g transform="translate(22.2344 -204)"><rect x="0" y="0" width="34" height="28" rx="10" ry="10" style="fill:#FF6600;stroke:#707070;stroke-width:1px;"/><g transform="translate (5 5) scale(0.005859375)" style="fill:#EEEEEE;"><g transform="translate(0 2048) scale (1 -1)"><path d="M1933 932L1716 932L1716 72Q1716 -12 1673 -66.5Q1630 -121 1550 -121L1415 -121L1360 72Q1430 59 1483 59Q1536 59 1536 119L1536 932L1466 932L1466 647Q1466 104 1141 -143L989 -10Q1134 90 1210 241.5Q1286 393 1286 647L1286 932L1040 932L1040 1122L1376 1122L1376 1300L1122 1300L1122 1491L1376 1491L1376 1712L1581 1712L1581 1491L1858 1491L1858 1300L1581 1300L1581 1122L1933 1122ZM991 932L813 932L813 61Q813 -22 769.5 -76.5Q726 -131 647 -131L516 -131L461 61Q530 49 580 49Q633 49 633 106L633 932L567 932L567 629Q567 309 485.5 139.5Q404 -30 256 -160L121 -27Q247 72 317 215Q387 358 387 629L387 932L143 932L143 1122L467 1122L467 1300L213 1300L213 1491L467 1491L467 1712L672 1712L672 1491L938 1491L938 1300L672 1300L672 1122L991 1122ZM1970 315L1815 270Q1803 551 1737 774L1876 821Q1953 604 1970 315ZM1255 774Q1224 468 1135 217L989 262Q1006 299 1028 375L903 350Q892 569 836 762L969 799Q1026 580 1040 422Q1090 611 1110 815ZM354 768Q332 445 246 240L98 283Q188 485 211 797Z"/></g><g transform="translate(2048 2048) scale (1 -1)"><path d="M1907 1128L852 1128L852 1346L1232 1346L1232 1712L1441 1712L1441 1346L1907 1346ZM821 750Q683 668 610 631L610 72Q610 -133 428 -133L221 -133L162 88Q217 80 288 80Q355 80 378 96Q401 112 401 154L401 528Q316 488 186 434L102 645Q249 692 401 762L401 1143L141 1143L141 1356L401 1356L401 1712L610 1712L610 1356L801 1356L801 1143L610 1143L610 864Q765 946 821 979ZM1952 -63L743 -63L743 155L1368 155Q1508 531 1559 1069L1790 1001Q1723 531 1585 155L1952 155ZM1290 317L1077 244Q1036 685 907 940L1108 1026Q1260 699 1290 317Z"/></g></g></g><g transform="translate(26.2344 -41)"><rect x="0" y="0" width="46" height="28" rx="10" ry="10" style="fill:#E0E0E0;stroke:#707070;stroke-width:1px;"/><g transform="translate (5 5) scale(0.005859375)" style="fill:#4F4F4F;"><g transform="translate(0 2048) scale (1 -1)"><path d="M1991 918L1848 756Q1736 849 1636 971L1636 864L1040 864L1040 975Q931 854 807 756L709 877L709 309L510 309L510 428L365 428L365 256L166 256L166 1513L709 1513L709 944Q1092 1263 1270 1718L1470 1667L1444 1595Q1665 1160 1991 918ZM1554 1061Q1417 1222 1335 1380Q1241 1217 1114 1061ZM510 641L510 1300L365 1300L365 641ZM1788 -133L1583 -133L1583 -18L1116 -18L1116 -133L911 -133L911 674L1788 674ZM1583 178L1583 477L1116 477L1116 178Z"/></g><g transform="translate(2048 2048) scale (1 -1)"><path d="M698 1612Q525 1324 274 1096L113 1245Q376 1459 512 1718ZM1782 926L776 926L776 1659L1782 1659ZM1573 1386L1573 1475L985 1475L985 1386ZM1573 1110L1573 1202L985 1202L985 1110ZM723 1114Q649 986 559 870L559 -133L350 -133L350 631Q288 568 209 506L66 670Q379 919 539 1227ZM1937 389L1702 389L1702 158Q1702 -133 1468 -133L1255 -133L1198 63Q1357 49 1405 49Q1493 49 1493 147L1493 389L950 389Q1126 321 1260 188L1110 39Q966 178 797 248L920 389L614 389L614 573L1493 573L1493 664L684 664L684 848L1872 848L1872 664L1702 664L1702 573L1937 573Z"/></g><g transform="translate(4096 2048) scale (1 -1)"><path d="M1942 903L1757 903L1757 -135L1552 -135L1552 903L1405 903L1405 596Q1405 337 1366.5 179Q1328 21 1208 -154L1028 -49Q1117 72 1158.5 184.5Q1200 297 1200 537L1200 1561Q1548 1572 1806 1716L1933 1536Q1646 1398 1405 1382L1405 1116L1942 1116ZM1161 324L129 324L129 514L303 514L303 1329L145 1329L145 1520L303 1520L303 1712L508 1712L508 1520L801 1520L801 1712L1006 1712L1006 1520L1145 1520L1145 1329L1006 1329L1006 514L1161 514ZM801 1184L801 1329L508 1329L508 1184ZM801 850L801 997L508 997L508 850ZM801 514L801 664L508 664L508 514ZM1085 104L913 -49Q820 86 668 162L834 295Q966 229 1085 104ZM606 168Q413 -47 219 -152L74 14Q248 96 440 295Z"/></g></g></g><g transform="translate(32.2344 15)"><rect x="0" y="0" width="46" height="28" rx="10" ry="10" style="fill:#E0E0E0;stroke:#707070;stroke-width:1px;"/><g transform="translate (5 5) scale(0.005859375)" style="fill:#4F4F4F;"><g transform="translate(0 2048) scale (1 -1)"><path d="M1970 33L1862 -164Q1588 -79 1370 113Q1196 -43 961 -152L829 27Q1062 125 1227 258Q1047 474 995 723L915 723L915 668Q915 369 850.5 181Q786 -7 639 -162L451 -39Q598 114 652.5 255.5Q707 397 707 666L707 1452L1184 1452L1184 1710L1393 1710L1393 1452L1896 1452Q1850 1157 1800 1014L1579 1040Q1603 1101 1638 1243L1393 1243L1393 932L1743 932L1743 917Q1743 548 1509 258Q1711 100 1970 33ZM1184 932L1184 1243L915 1243L915 932ZM1524 723L1212 723Q1239 545 1366 395Q1491 548 1524 723ZM635 1432L496 1262Q360 1418 164 1516L293 1681Q516 1569 635 1432ZM571 954L432 784Q302 941 80 1044L209 1210Q472 1077 571 954ZM602 606Q520 300 293 -123L100 0Q286 310 397 696Z"/></g><g transform="translate(2048 2048) scale (1 -1)"><path d="M1894 1227L1686 1227L1686 1405L395 1405L395 1227L184 1227L184 1577L927 1577L927 1712L1150 1712L1150 1577L1894 1577ZM1976 365L1884 180Q1660 243 1513 334L1513 217L1139 217L1139 94L1901 94L1901 -76L166 -76L166 94L930 94L930 217L543 217L543 330Q409 246 178 180L88 360Q379 418 569 580L166 580L166 750L664 750L664 840L469 840L469 1012L664 1012L664 1102L446 1102L446 1274L664 1274L664 1368L868 1368L868 1274L1204 1274L1204 1368L1409 1368L1409 1274L1626 1274L1626 1102L1409 1102L1409 1012L1595 1012L1595 840L1409 840L1409 750L1901 750L1901 580L1493 580Q1715 388 1976 365ZM1204 1012L1204 1102L868 1102L868 1012ZM1204 750L1204 840L868 840L868 750ZM1434 389Q1343 459 1243 580L817 580Q714 454 629 389L930 389L930 524L1139 524L1139 389Z"/></g><g transform="translate(4096 2048) scale (1 -1)"><path d="M1995 637L1896 430Q1333 579 1020 774Q691 563 195 422L92 623Q566 736 844 899Q698 1015 588 1155Q445 1006 324 924L162 1065Q520 1323 748 1718L954 1638L895 1544L1577 1544L1577 1335Q1434 1090 1206 907Q1476 749 1995 637ZM1327 1335L743 1335L729 1317Q868 1146 1028 1024Q1202 1162 1327 1335ZM1489 408L1358 244Q1110 380 733 469L858 633Q1204 565 1489 408ZM1542 31L1397 -137Q990 73 455 166L580 340Q1094 253 1542 31Z"/></g></g></g><g transform="translate(-7.765599999999999 -267)"><rect x="0" y="0" width="50" height="28" rx="10" ry="10" style="fill:#FF0000;stroke:#707070;stroke-width:1px;"/><g transform="translate (13 5) scale(0.005859375)" style="fill:#EEEEEE;"><g transform="translate(0 2048) scale (1 -1)"><path d="M1735 -133L1526 -133L1526 2L541 2L541 -133L332 -133L332 983L929 983L929 1212L1138 1212L1138 983L1735 983ZM1526 592L1526 786L1138 786L1138 592ZM929 592L929 786L541 786L541 592ZM1526 199L1526 395L1138 395L1138 199ZM929 199L929 395L541 395L541 199ZM1876 1071L1661 1071L1661 1291L405 1291L405 1071L190 1071L190 1488L925 1488L925 1712L1141 1712L1141 1488L1876 1488Z"/></g><g transform="translate(2048 2048) scale (1 -1)"><path d="M1942 903L1757 903L1757 -135L1552 -135L1552 903L1405 903L1405 596Q1405 337 1366.5 179Q1328 21 1208 -154L1028 -49Q1117 72 1158.5 184.5Q1200 297 1200 537L1200 1561Q1548 1572 1806 1716L1933 1536Q1646 1398 1405 1382L1405 1116L1942 1116ZM1161 324L129 324L129 514L303 514L303 1329L145 1329L145 1520L303 1520L303 1712L508 1712L508 1520L801 1520L801 1712L1006 1712L1006 1520L1145 1520L1145 1329L1006 1329L1006 514L1161 514ZM801 1184L801 1329L508 1329L508 1184ZM801 850L801 997L508 997L508 850ZM801 514L801 664L508 664L508 514ZM1085 104L913 -49Q820 86 668 162L834 295Q966 229 1085 104ZM606 168Q413 -47 219 -152L74 14Q248 96 440 295Z"/></g></g></g></g></svg>