<?xml version="1.0" encoding="UTF-8"?>
<svg xmlns="http://www.w3.org/2000/svg" xmlns:xlink="http://www.w3.org/1999/xlink" width="1053.075" height="663.8389999999999"><rect width="100%" height="100%" fill="#FFFFFF"/><g transform="scale(1.333) translate(892,399)" style="fill:none;"><g transform="translate(-865,27)"><path d="M60,14Q60,30 469,30" stroke="#707070" stroke-width="1"/></g><g transform="translate(-857,-191)"><path d="M31,46Q31,-10 149,14" stroke-dasharray="8, 8" stroke="#707070" stroke-width="1"/></g><g transform="translate(-807,-202)"><g transform="scale(0.005859375)" style="fill:#4F4F4F;"><g transform="translate(0 2048) scale (1 -1)"><path d="M1907 848L1645 848Q1621 496 1604 358L1833 358L1833 203L1587 203Q1568 -40 1495.5 -87.5Q1423 -135 1325 -135Q1211 -135 1075 -113L1014 63Q1223 20 1366 20Q1419 20 1430 203L473 203L455 109L295 135L408 848L158 848L158 1004L424 1004Q464 1283 496 1604L1708 1604Q1678 1157 1659 1004L1907 1004ZM1538 1448L883 1448Q1110 1366 1325 1147L1210 1038Q1046 1235 735 1366L825 1448L641 1448L584 1004L1499 1004ZM1487 848L813 848Q1107 700 1260 485L1139 385Q969 608 678 770L780 848L563 848Q532 588 492 358L1446 358Q1489 772 1487 848Z"/></g><g transform="translate(2048 2048) scale (1 -1)"><path d="M1886 745L1141 745L1141 61Q1141 -10 1096 -55Q1051 -100 971 -100L719 -100L645 59L903 47Q985 44 985 143L985 745L201 745L201 895L985 895L985 1100Q1234 1263 1409 1462L453 1462L453 1612L1632 1612L1632 1497Q1420 1214 1141 1024L1141 895L1886 895Z"/></g><g transform="translate(4096 2048) scale (1 -1)"><path d="M1133 0Q1133 -127 1084.5 -194Q1036 -261 965 -289L916 -213Q1028 -165 1029 0L928 0L928 205L1133 205Z"/></g><g transform="translate(6144 2048) scale (1 -1)"><path d="M1931 57L1829 -84Q1201 168 1055 694Q892 172 270 -104L152 35Q754 282 893 729L266 729L266 879L926 879Q948 983 961 1227L393 1227L393 1382L963 1382L963 1708L1130 1708L1130 1382L1683 1382L1683 1227L1124 1227Q1118 986 1100 879L1817 879L1817 729L1214 729Q1352 282 1931 57Z"/></g><g transform="translate(8192 2048) scale (1 -1)"><path d="M1915 926L1706 926L1706 678L395 678L395 827L946 827L946 926L164 926L164 1075L946 1075L946 1178L395 1178L395 1327L946 1327L946 1427L217 1427L217 1577L946 1577L946 1714L1102 1714L1102 1577L1845 1577L1845 1427L1102 1427L1102 1327L1706 1327L1706 1075L1915 1075ZM1550 1075L1550 1178L1102 1178L1102 1075ZM1550 827L1550 926L1102 926L1102 827ZM1901 377L1528 377Q1450 277 1331 178Q1679 88 1868 -16L1767 -143Q1500 -4 1169 66Q812 -117 242 -135L166 18Q651 28 930 117L930 121Q595 183 446 193Q486 223 631 377L164 377L164 526L748 526Q781 565 860 676L1014 616L948 526L1901 526ZM1323 377L836 377L745 285Q903 265 1133 223Q1261 300 1323 377Z"/></g></g></g><g transform="translate(-708,-372)"><path d="M23,195Q23,-20 66,14" stroke="#707070" stroke-width="1"/></g><g transform="translate(-708,-235)"><path d="M23,58Q23,-19 66,14" stroke="#707070" stroke-width="1"/></g><g transform="translate(-708,-191)"><path d="M36,14Q36,18 107,18" stroke="#707070" stroke-width="1"/></g><g transform="translate(-708,-191)"><path d="M23,14Q23,96 66,62" stroke="#707070" stroke-width="1"/></g><g transform="translate(-708,-191)"><path d="M23,14Q23,201 69,167" stroke="#707070" stroke-width="1"/></g><g transform="translate(-601,-213)"><path d="M29,40Q29,-5 244,14" stroke="#707070" stroke-width="1"/></g><g transform="translate(-357,-292)"><path d="M29,93Q29,-13 78,21" stroke="#707070" stroke-width="1"/></g><g transform="translate(-357,-230)"><path d="M48,31Q48,14 78,14" stroke="#707070" stroke-width="1"/></g><g transform="translate(-357,-213)"><path d="M29,14Q29,68 78,45" stroke="#707070" stroke-width="1"/></g><g transform="translate(-357,-213)"><path d="M29,14Q29,127 78,93" stroke="#707070" stroke-width="1"/></g><g transform="translate(-865,-159)"><path d="M39,28L35,186" stroke-dasharray="4, 4" stroke="#707070" stroke-width="1"/></g><g transform="translate(-840,-70)"><rect x="0" y="2" width="24" height="12" fill="#FFFFFF" stroke="#FFFFFF"/><g transform="scale(0.005859375)" style="fill:#4F4F4F;"><g transform="translate(0 2048) scale (1 -1)"><path d="M1931 57L1829 -84Q1201 168 1055 694Q892 172 270 -104L152 35Q754 282 893 729L266 729L266 879L926 879Q948 983 961 1227L393 1227L393 1382L963 1382L963 1708L1130 1708L1130 1382L1683 1382L1683 1227L1124 1227Q1118 986 1100 879L1817 879L1817 729L1214 729Q1352 282 1931 57Z"/></g><g transform="translate(2048 2048) scale (1 -1)"><path d="M1915 926L1706 926L1706 678L395 678L395 827L946 827L946 926L164 926L164 1075L946 1075L946 1178L395 1178L395 1327L946 1327L946 1427L217 1427L217 1577L946 1577L946 1714L1102 1714L1102 1577L1845 1577L1845 1427L1102 1427L1102 1327L1706 1327L1706 1075L1915 1075ZM1550 1075L1550 1178L1102 1178L1102 1075ZM1550 827L1550 926L1102 926L1102 827ZM1901 377L1528 377Q1450 277 1331 178Q1679 88 1868 -16L1767 -143Q1500 -4 1169 66Q812 -117 242 -135L166 18Q651 28 930 117L930 121Q595 183 446 193Q486 223 631 377L164 377L164 526L748 526Q781 565 860 676L1014 616L948 526L1901 526ZM1323 377L836 377L745 285Q903 265 1133 223Q1261 300 1323 377Z"/></g></g></g><g transform="translate(-642,-187)"><path d="M41,14L17,44" stroke-dasharray="4, 4" stroke="#707070" stroke-width="1"/></g><g transform="translate(-643,-176)"><rect x="0" y="2" width="60" height="12" fill="#FFFFFF" stroke="#FFFFFF"/><g transform="scale(0.005859375)" style="fill:#4F4F4F;"><g transform="translate(0 2048) scale (1 -1)"><path d="M1931 57L1829 -84Q1201 168 1055 694Q892 172 270 -104L152 35Q754 282 893 729L266 729L266 879L926 879Q948 983 961 1227L393 1227L393 1382L963 1382L963 1708L1130 1708L1130 1382L1683 1382L1683 1227L1124 1227Q1118 986 1100 879L1817 879L1817 729L1214 729Q1352 282 1931 57Z"/></g><g transform="translate(2048 2048) scale (1 -1)"><path d="M1915 926L1706 926L1706 678L395 678L395 827L946 827L946 926L164 926L164 1075L946 1075L946 1178L395 1178L395 1327L946 1327L946 1427L217 1427L217 1577L946 1577L946 1714L1102 1714L1102 1577L1845 1577L1845 1427L1102 1427L1102 1327L1706 1327L1706 1075L1915 1075ZM1550 1075L1550 1178L1102 1178L1102 1075ZM1550 827L1550 926L1102 926L1102 827ZM1901 377L1528 377Q1450 277 1331 178Q1679 88 1868 -16L1767 -143Q1500 -4 1169 66Q812 -117 242 -135L166 18Q651 28 930 117L930 121Q595 183 446 193Q486 223 631 377L164 377L164 526L748 526Q781 565 860 676L1014 616L948 526L1901 526ZM1323 377L836 377L745 285Q903 265 1133 223Q1261 300 1323 377Z"/></g><g transform="translate(4096 2048) scale (1 -1)"><path d="M1133 0Q1133 -127 1084.5 -194Q1036 -261 965 -289L916 -213Q1028 -165 1029 0L928 0L928 205L1133 205Z"/></g><g transform="translate(6144 2048) scale (1 -1)"><path d="M1909 362Q1870 170 1805 65.5Q1740 -39 1597 -39L1376 -39Q1159 -39 1159 156L1159 776L932 776Q919 412 762.5 197.5Q606 -17 268 -133L174 10Q780 174 768 776L457 776L457 1589L1628 1589L1628 776L1315 776L1315 180Q1315 144 1340.5 127.5Q1366 111 1386 111L1616 111Q1684 111 1708 205L1763 426ZM1466 926L1466 1440L627 1440L627 926Z"/></g><g transform="translate(8192 2048) scale (1 -1)"><path d="M2003 170L1864 47Q1507 307 1407 770L1407 -131L1251 -131L1247 780Q1190 369 813 27L682 141Q836 251 957 436Q1078 621 1114 799L801 799L801 948L1251 948L1251 1266L885 1266L885 1415L1251 1415L1251 1706L1407 1706L1407 1415L1772 1415L1772 1266L1407 1266L1407 948L1845 948L1845 799L1538 799Q1674 316 2003 170ZM805 1290Q790 778 623 422Q725 349 770 307L666 190Q597 256 553 287Q405 38 180 -145L61 -29Q314 174 420 371Q334 426 166 492Q263 849 317 1141L117 1141L117 1290L346 1290L408 1655L559 1620Q537 1498 508 1290ZM643 1141L477 1141Q424 879 342 578Q397 547 489 510Q582 726 643 1141Z"/></g></g></g><g transform="translate(-396.5,-213)"><path d="M69,28L43,256" stroke-dasharray="8, 8" stroke="#707070" stroke-width="2"/></g><g transform="translate(-352.5,-89)"><rect x="0" y="2" width="24" height="12" fill="#FFFFFF" stroke="#FFFFFF"/><g transform="scale(0.005859375)" style="fill:#4F4F4F;"><g transform="translate(0 2048) scale (1 -1)"><path d="M1931 57L1829 -84Q1201 168 1055 694Q892 172 270 -104L152 35Q754 282 893 729L266 729L266 879L926 879Q948 983 961 1227L393 1227L393 1382L963 1382L963 1708L1130 1708L1130 1382L1683 1382L1683 1227L1124 1227Q1118 986 1100 879L1817 879L1817 729L1214 729Q1352 282 1931 57Z"/></g><g transform="translate(2048 2048) scale (1 -1)"><path d="M1915 926L1706 926L1706 678L395 678L395 827L946 827L946 926L164 926L164 1075L946 1075L946 1178L395 1178L395 1327L946 1327L946 1427L217 1427L217 1577L946 1577L946 1714L1102 1714L1102 1577L1845 1577L1845 1427L1102 1427L1102 1327L1706 1327L1706 1075L1915 1075ZM1550 1075L1550 1178L1102 1178L1102 1075ZM1550 827L1550 926L1102 926L1102 827ZM1901 377L1528 377Q1450 277 1331 178Q1679 88 1868 -16L1767 -143Q1500 -4 1169 66Q812 -117 242 -135L166 18Q651 28 930 117L930 121Q595 183 446 193Q486 223 631 377L164 377L164 526L748 526Q781 565 860 676L1014 616L948 526L1901 526ZM1323 377L836 377L745 285Q903 265 1133 223Q1261 300 1323 377Z"/></g></g></g><g transform="translate(-857 -159)"><rect x="0" y="0" width="62" height="28" rx="10" ry="10" style="fill:#22AAE0;stroke:#707070;stroke-width:1px;"/><g transform="translate (5 5) scale(0.005859375)" style="fill:#4F4F4F;"><g transform="translate(56.83333333333303 2048) scale (1 -1)"><path d="M1982 303Q1959 77 1886 -16Q1813 -109 1636 -109L1053 -109Q946 -109 886.5 -45Q827 19 827 129L827 760L698 702L662 907L827 979L827 1442L1034 1442L1034 1067L1225 1149L1225 1712L1432 1712L1432 1237L1868 1423L1869 1348Q1869 1189 1858 923.5Q1847 658 1836 589.5Q1825 521 1777.5 468.5Q1730 416 1614 416Q1567 416 1511 426L1456 649Q1510 641 1567 641Q1601 641 1617.5 661.5Q1634 682 1642.5 822Q1651 962 1651 1120L1432 1024L1432 248L1225 248L1225 934L1034 850L1034 190Q1034 100 1122 100L1597 100Q1676 100 1714 154Q1752 208 1761 383ZM768 326Q528 221 160 80L78 281L352 381L352 1006L121 1006L121 1217L352 1217L352 1681L561 1681L561 1217L752 1217L752 1006L561 1006L561 461L768 543Z"/></g><g transform="translate(2104.833333333333 2048) scale (1 -1)"><path d="M1907 344L1475 344L1475 -135L1268 -135L1268 344L834 344L834 594L672 469Q620 593 553 688L553 -133L346 -133L346 559Q281 498 221 449L76 606Q372 820 512 1169L139 1169L139 1379L349 1379L349 1706L556 1706L556 1379L715 1379L715 1187Q675 982 553 801L553 758L670 864Q773 749 834 625L834 1417L1268 1417L1268 1714L1475 1714L1475 1417L1907 1417ZM1702 991L1702 1208L1475 1208L1475 991ZM1268 991L1268 1208L1038 1208L1038 991ZM1702 553L1702 782L1475 782L1475 553ZM1268 553L1268 782L1038 782L1038 553Z"/></g><g transform="translate(4721.833333333333 2048) scale (1 -1)"><path d="M1939 649L137 649L137 840L924 840L924 944L303 944L303 1135L924 1135L924 1239L213 1239L213 1430L700 1430Q603 1536 489 1602L641 1739Q797 1644 903 1507L797 1430L1243 1430L1165 1493Q1313 1594 1407 1745L1581 1636Q1498 1513 1399 1430L1845 1430L1845 1239L1139 1239L1139 1135L1757 1135L1757 944L1139 944L1139 840L1939 840ZM1927 -96L137 -96L137 94L334 94L334 561L1729 561L1729 94L1927 94ZM1524 94L1524 369L1325 369L1325 94ZM1130 94L1130 369L932 369L932 94ZM737 94L737 369L539 369L539 94Z"/></g><g transform="translate(6769.833333333333 2048) scale (1 -1)"><path d="M1946 -53L123 -53L123 156L733 156L733 1421L182 1421L182 1630L1872 1630L1872 1421L1335 1421L1335 156L1946 156ZM1128 156L1128 1421L938 1421L938 156ZM1853 1165Q1774 642 1587 307L1399 408Q1609 816 1647 1231ZM684 373L465 311Q401 754 186 1141L389 1229Q598 854 684 373Z"/></g></g></g><g transform="translate(-865 27)"><rect x="0" y="0" width="70" height="28" rx="10" ry="10" style="fill:#22AAE0;stroke:#707070;stroke-width:1px;"/><g transform="translate (5 5) scale(0.005859375)" style="fill:#4F4F4F;"><g transform="translate(0 2048) scale (1 -1)"><path d="M1914 1317L1699 1317L1699 1114L1492 1114L1492 1317L1126 1317L1126 1126L918 1126L918 1317L704 1317L704 1513L918 1513L918 1712L1126 1712L1126 1513L1492 1513L1492 1712L1699 1712L1699 1513L1914 1513ZM729 303Q447 179 170 74L88 274L342 367L342 975L137 975L137 1186L342 1186L342 1653L551 1653L551 1186L727 1186L727 975L551 975L551 449L729 520ZM1982 709L1864 520Q1687 604 1540 717L1540 606L1049 606L1049 709Q941 616 766 502L641 688Q1055 900 1245 1270L1446 1194L1409 1128Q1615 857 1982 709ZM1438 803Q1354 877 1292 961Q1232 884 1151 803ZM1763 -133L1554 -133L1554 -59L1063 -59L1063 -133L854 -133L854 510L1763 510ZM1554 137L1554 313L1063 313L1063 137Z"/></g><g transform="translate(2048 2048) scale (1 -1)"><path d="M1845 1262Q1845 1253 1771 1131Q1697 1009 1618 918L1444 1030Q1542 1141 1614 1262L621 1262Q442 960 242 754L94 928Q418 1236 604 1733L817 1655Q775 1553 731 1466L1845 1466ZM1147 96Q1147 -133 942 -133L733 -133L678 80Q765 61 856 61Q938 61 938 135L938 1169L1147 1169ZM1972 207L1788 96Q1597 492 1272 799L1440 930Q1791 599 1972 207ZM834 821Q591 334 268 31L117 172Q448 471 655 928Z"/></g><g transform="translate(4096 2048) scale (1 -1)"><path d="M1914 1317L1699 1317L1699 1114L1492 1114L1492 1317L1126 1317L1126 1126L918 1126L918 1317L704 1317L704 1513L918 1513L918 1712L1126 1712L1126 1513L1492 1513L1492 1712L1699 1712L1699 1513L1914 1513ZM729 303Q447 179 170 74L88 274L342 367L342 975L137 975L137 1186L342 1186L342 1653L551 1653L551 1186L727 1186L727 975L551 975L551 449L729 520ZM1982 709L1864 520Q1687 604 1540 717L1540 606L1049 606L1049 709Q941 616 766 502L641 688Q1055 900 1245 1270L1446 1194L1409 1128Q1615 857 1982 709ZM1438 803Q1354 877 1292 961Q1232 884 1151 803ZM1763 -133L1554 -133L1554 -59L1063 -59L1063 -133L854 -133L854 510L1763 510ZM1554 137L1554 313L1063 313L1063 137Z"/></g><g transform="translate(6144 2048) scale (1 -1)"><path d="M1847 1053L879 1053L981 1001Q955 949 932 913L1720 913L1720 715Q1551 376 1195.5 170Q840 -36 221 -143L119 74Q620 125 954 279Q837 416 670 508L831 664Q1005 560 1155 389Q1364 526 1491 717L770 717Q564 511 274 342L135 530Q540 721 756 1053L229 1053L229 1659L1847 1659ZM1642 1249L1642 1462L1376 1462L1376 1249ZM1171 1249L1171 1462L905 1462L905 1249ZM700 1249L700 1462L434 1462L434 1249Z"/></g><g transform="translate(8192 2048) scale (1 -1)"><path d="M1942 903L1757 903L1757 -135L1552 -135L1552 903L1405 903L1405 596Q1405 337 1366.5 179Q1328 21 1208 -154L1028 -49Q1117 72 1158.5 184.5Q1200 297 1200 537L1200 1561Q1548 1572 1806 1716L1933 1536Q1646 1398 1405 1382L1405 1116L1942 1116ZM1161 324L129 324L129 514L303 514L303 1329L145 1329L145 1520L303 1520L303 1712L508 1712L508 1520L801 1520L801 1712L1006 1712L1006 1520L1145 1520L1145 1329L1006 1329L1006 514L1161 514ZM801 1184L801 1329L508 1329L508 1184ZM801 850L801 997L508 997L508 850ZM801 514L801 664L508 664L508 514ZM1085 104L913 -49Q820 86 668 162L834 295Q966 229 1085 104ZM606 168Q413 -47 219 -152L74 14Q248 96 440 295Z"/></g></g></g><g transform="translate(-396.5 43)"><rect x="0" y="0" width="86" height="28" rx="10" ry="10" style="fill:#E0E0E0;stroke:#707070;stroke-width:1px;"/><g transform="translate (5 5) scale(0.005859375)" style="fill:#4F4F4F;"><g transform="translate(56.83333333333303 2048) scale (1 -1)"><path d="M1911 1446L1161 1446Q1125 1337 1059 1206L1660 1206L1660 -137L1445 -137L1445 -16L607 -16L607 -137L392 -137L392 1206L819 1206Q885 1333 924 1446L147 1446L147 1642L1911 1642ZM1445 705L1445 1010L607 1010L607 705ZM1445 180L1445 508L607 508L607 180Z"/></g><g transform="translate(2104.833333333333 2048) scale (1 -1)"><path d="M1919 1294L1161 1294Q1137 1208 1106 1128L1686 1128L1686 -131L1477 -131L1477 -16L594 -16L594 -131L385 -131L385 1128L868 1128Q914 1222 936 1294L147 1294L147 1489L635 1489Q583 1575 498 1657L711 1749Q810 1659 897 1489L1186 1489Q1284 1603 1348 1749L1565 1671Q1516 1571 1460 1489L1919 1489ZM1477 807L1477 938L594 938L594 807ZM1477 492L1477 623L594 623L594 492ZM1477 174L1477 307L594 307L594 174Z"/></g><g transform="translate(4152.833333333333 2048) scale (1 -1)"><path d="M887 1006L702 911Q676 1061 588 1212L588 -133L373 -133L373 1196Q331 968 246 745L66 842Q164 1044 203 1315L373 1247L373 1712L588 1712L588 1270L727 1356Q829 1198 887 1006ZM1987 784L1882 590Q1558 670 1284 895Q1015 692 739 600L633 795Q903 879 1130 1040Q955 1233 879 1454L784 1454L784 1651L1780 1651L1780 1448Q1633 1210 1450 1036Q1671 873 1987 784ZM1532 1454L1100 1454Q1165 1309 1294 1174Q1430 1300 1532 1454ZM1919 -80L666 -80L666 117L1178 117L1178 367L788 367L788 563L1178 563L1178 776L1393 776L1393 563L1790 563L1790 367L1393 367L1393 117L1919 117Z"/></g><g transform="translate(6200.833333333333 2048) scale (1 -1)"><path d="M1898 1405Q1898 702 1860 372Q1822 42 1758 -40.5Q1694 -123 1536 -123Q1467 -123 1380 -117L1327 109Q1437 84 1495 84Q1573 84 1605.5 133Q1638 182 1664.5 471.5Q1691 761 1691 1098L1690 1196L1630 1196Q1604 700 1461.5 415.5Q1319 131 995 -137L834 18Q1167 276 1286 533.5Q1405 791 1425 1196L1350 1196Q1287 533 868 229L739 391Q1122 694 1149 1196L1092 1196Q1011 980 885 788L711 920Q943 1264 999 1720L1219 1677Q1191 1519 1159 1405ZM856 553L674 485L674 -131L469 -131L469 420Q330 377 203 348L111 532Q261 568 469 631L469 1106L358 1106Q325 915 264 801L78 874Q205 1131 211 1550L399 1518L385 1315L469 1315L469 1714L674 1714L674 1315L797 1315L797 1106L674 1106L674 698Q789 735 856 762Z"/></g><g transform="translate(8817.833333333332 2048) scale (1 -1)"><path d="M1823 926L872 926L872 1659L1823 1659ZM1618 1393L1618 1473L1077 1473L1077 1393ZM1618 1112L1618 1208L1077 1208L1077 1112ZM772 319Q490 196 170 74L88 274Q245 329 346 369L346 975L137 975L137 1186L346 1186L346 1653L555 1653L555 1186L737 1186L737 975L555 975L555 449L772 537ZM1982 127L1915 -92L1513 -92Q1169 -92 956 100Q871 -27 719 -141L563 2Q873 200 918 612L1126 575Q1102 411 1053 283Q1131 202 1249 154L1249 655L733 655L733 848L1944 848L1944 655L1454 655L1454 514L1812 514L1812 322L1454 322L1454 111L1765 111Q1884 111 1982 127Z"/></g><g transform="translate(10865.833333333332 2048) scale (1 -1)"><path d="M1925 359L1145 359L1145 -137L922 -137L922 359L142 359L142 568L922 568L922 799L274 799L274 1008L922 1008L922 1217Q534 1177 299 1177L248 1178L162 1379Q570 1382 922 1426L922 1714L1145 1714L1145 1459Q1448 1505 1723 1600L1841 1404Q1557 1313 1145 1248L1145 1008L1793 1008L1793 799L1145 799L1145 568L1925 568Z"/></g></g></g><g transform="translate(-708 -191)"><rect x="0" y="0" width="46" height="28" rx="10" ry="10" style="fill:#E0E0E0;stroke:#707070;stroke-width:1px;"/><g transform="translate (5 5) scale(0.005859375)" style="fill:#4F4F4F;"><g transform="translate(0 2048) scale (1 -1)"><path d="M572 1099L407 987Q305 1167 156 1280L304 1397Q463 1269 572 1099ZM1944 932L1876 762Q1497 791 1271 877Q976 779 665 754L586 913Q859 930 1092 979Q1025 1025 963 1085Q860 1026 742 981L617 1120Q918 1241 1065 1405L1255 1352L1206 1292L1733 1292L1733 1137Q1627 1040 1496 973Q1657 932 1909 932ZM1466 1137L1151 1137Q1219 1089 1291 1051Q1389 1089 1466 1137ZM1968 70L1892 -94L967 -94Q643 -94 454 101L223 -160L84 18L372 246L372 694L139 694L139 858L581 858L581 217Q744 70 981 70L1177 70L1177 178L678 178L678 328L1177 328L1177 387L809 387L809 520L1177 520L1177 578L754 578L754 727L1177 727L1177 811L1381 811L1381 727L1804 727L1804 578L1381 578L1381 520L1755 520L1755 387L1381 387L1381 328L1890 328L1890 178L1381 178L1381 70ZM1924 1436L1506 1436L1506 1346L1291 1346L1291 1436L770 1436L770 1292L555 1292L555 1436L137 1436L137 1597L555 1597L555 1712L770 1712L770 1597L1291 1597L1291 1712L1506 1712L1506 1597L1924 1597Z"/></g><g transform="translate(2048 2048) scale (1 -1)"><path d="M1954 304Q1954 142 1891 19Q1828 -104 1688 -104L1417 -104Q1316 -104 1260 -45.5Q1204 13 1204 104L1204 660L852 597L842 806L1204 871L1204 1327Q1026 1289 924 1278L840 1489Q1350 1531 1745 1714L1870 1530Q1705 1457 1421 1380L1421 909L1917 1006L1927 798L1421 700L1421 164Q1421 100 1483 100L1624 100Q1745 100 1745 390L1745 399L1954 319ZM840 1143L606 1143L606 854L788 954L788 729Q680 664 606 625L606 80Q606 -137 416 -137L233 -137L164 88Q234 78 279 78Q347 78 372 92Q397 106 397 154L397 520Q318 482 193 428L100 629Q259 688 397 752L397 1143L143 1143L143 1356L397 1356L397 1712L606 1712L606 1356L840 1356Z"/></g><g transform="translate(4096 2048) scale (1 -1)"><path d="M1942 903L1757 903L1757 -135L1552 -135L1552 903L1405 903L1405 596Q1405 337 1366.5 179Q1328 21 1208 -154L1028 -49Q1117 72 1158.5 184.5Q1200 297 1200 537L1200 1561Q1548 1572 1806 1716L1933 1536Q1646 1398 1405 1382L1405 1116L1942 1116ZM1161 324L129 324L129 514L303 514L303 1329L145 1329L145 1520L303 1520L303 1712L508 1712L508 1520L801 1520L801 1712L1006 1712L1006 1520L1145 1520L1145 1329L1006 1329L1006 514L1161 514ZM801 1184L801 1329L508 1329L508 1184ZM801 850L801 997L508 997L508 850ZM801 514L801 664L508 664L508 514ZM1085 104L913 -49Q820 86 668 162L834 295Q966 229 1085 104ZM606 168Q413 -47 219 -152L74 14Q248 96 440 295Z"/></g></g></g><g transform="translate(-642 -372)"><rect x="0" y="0" width="86" height="28" rx="10" ry="10" style="fill:#E0E0E0;stroke:#707070;stroke-width:1px;"/><g transform="translate (5 5) scale(0.005859375)" style="fill:#4F4F4F;"><g transform="translate(56.83333333333303 2048) scale (1 -1)"><path d="M1923 797L1208 797Q1035 672 868 578L868 459Q1313 505 1628 731L1763 565Q1432 341 868 254L868 166Q868 111 924 111L1485 111Q1550 111 1579.5 149.5Q1609 188 1630 375L1833 276Q1812 69 1738.5 -13.5Q1665 -96 1509 -96L885 -96Q771 -96 715 -45.5Q659 5 659 125L659 467Q471 374 252 299L119 475Q521 600 850 797L152 797L152 993L815 993L815 1260L342 1260L342 1456L815 1456L815 1712L1024 1712L1024 1456L1409 1456L1409 1260L1024 1260L1024 993L1141 993Q1488 1259 1698 1577L1872 1458Q1713 1223 1454 993L1923 993Z"/></g><g transform="translate(2104.833333333333 2048) scale (1 -1)"><path d="M1946 604L1753 604L1733 342L1917 342L1917 151L1720 151Q1692 -144 1457 -144Q1393 -144 1276 -125L1221 80Q1316 52 1408 52Q1510 52 1517 151L924 151L915 48L706 51L780 604L587 603L587 795L805 795L842 1136Q768 1021 679 925L532 1079Q774 1355 890 1737L1095 1686Q1082 1624 1056 1563L1919 1563L1919 1373L974 1373Q942 1302 899 1220L1796 1220L1765 795L1946 795ZM1210 1030L1043 1030L1008 795L1182 795ZM1165 604L985 604L946 342L1136 342ZM664 1432L524 1262Q389 1418 193 1516L322 1681Q545 1569 664 1432ZM600 954L461 784Q331 941 109 1044L238 1210Q500 1077 600 954ZM1581 1030L1413 1030L1385 795L1562 795ZM1550 604L1368 604L1339 342L1530 342ZM651 546Q543 207 322 -123L129 0Q347 293 446 636Z"/></g><g transform="translate(4152.833333333333 2048) scale (1 -1)"><path d="M1907 344L1475 344L1475 -135L1268 -135L1268 344L834 344L834 594L672 469Q620 593 553 688L553 -133L346 -133L346 559Q281 498 221 449L76 606Q372 820 512 1169L139 1169L139 1379L349 1379L349 1706L556 1706L556 1379L715 1379L715 1187Q675 982 553 801L553 758L670 864Q773 749 834 625L834 1417L1268 1417L1268 1714L1475 1714L1475 1417L1907 1417ZM1702 991L1702 1208L1475 1208L1475 991ZM1268 991L1268 1208L1038 1208L1038 991ZM1702 553L1702 782L1475 782L1475 553ZM1268 553L1268 782L1038 782L1038 553Z"/></g><g transform="translate(6769.833333333333 2048) scale (1 -1)"><path d="M692 1384L553 1214Q374 1418 178 1511L309 1675Q531 1565 692 1384ZM1827 762L750 762L750 1661L1827 1661ZM1618 1309L1618 1470L958 1470L958 1309ZM1618 952L1618 1116L958 1116L958 952ZM629 907L489 737Q326 928 94 1040L223 1206Q486 1073 629 907ZM1954 -90L563 -90L563 100L1163 100L1163 317L696 317L696 508L1163 508L1163 713L1378 713L1378 508L1872 508L1872 317L1378 317L1378 100L1954 100ZM651 586Q510 150 297 -145L119 -14Q364 346 459 674Z"/></g><g transform="translate(8817.833333333332 2048) scale (1 -1)"><path d="M1917 1307Q1873 1074 1765 827L1552 872Q1608 975 1657 1124L1323 1124L1323 924Q1323 743 1130 743L864 743L819 932Q606 770 215 668L113 848Q553 932 762 1124L211 1124L211 1307L850 1307Q694 1358 530 1393L674 1501L401 1501L401 1677L1688 1677L1688 1497Q1549 1403 1325 1307ZM1305 1501L762 1501Q880 1466 1071 1380Q1199 1429 1305 1501ZM1104 975L1104 1124L1018 1124Q937 1022 836 944Q968 936 1067 936Q1104 936 1104 975ZM1982 90L1858 -104Q1387 36 1141 399L1141 -133L926 -133L926 391Q666 50 188 -96L72 86Q477 188 705 430L147 430L147 612L926 612L926 713L1141 713L1141 612L1921 612L1921 430L1364 430Q1570 168 1982 90Z"/></g><g transform="translate(10865.833333333332 2048) scale (1 -1)"><path d="M1942 903L1757 903L1757 -135L1552 -135L1552 903L1405 903L1405 596Q1405 337 1366.5 179Q1328 21 1208 -154L1028 -49Q1117 72 1158.5 184.5Q1200 297 1200 537L1200 1561Q1548 1572 1806 1716L1933 1536Q1646 1398 1405 1382L1405 1116L1942 1116ZM1161 324L129 324L129 514L303 514L303 1329L145 1329L145 1520L303 1520L303 1712L508 1712L508 1520L801 1520L801 1712L1006 1712L1006 1520L1145 1520L1145 1329L1006 1329L1006 514L1161 514ZM801 1184L801 1329L508 1329L508 1184ZM801 850L801 997L508 997L508 850ZM801 514L801 664L508 664L508 514ZM1085 104L913 -49Q820 86 668 162L834 295Q966 229 1085 104ZM606 168Q413 -47 219 -152L74 14Q248 96 440 295Z"/></g></g></g><g transform="translate(-642 -235)"><rect x="0" y="0" width="46" height="28" rx="10" ry="10" style="fill:#E0E0E0;stroke:#707070;stroke-width:1px;"/><g transform="translate (5 5) scale(0.005859375)" style="fill:#4F4F4F;"><g transform="translate(0 2048) scale (1 -1)"><path d="M1909 1526L1909 1371Q1909 612 1882 172Q1874 48 1803 -43Q1732 -134 1551 -134Q1477 -134 1377 -123L1324 98Q1444 76 1537 76Q1601 76 1630.5 102Q1660 128 1669.5 165.5Q1679 203 1690.5 467.5Q1702 732 1702 1014Q1702 1182 1698 1335L1032 1335Q955 1176 819 1020L664 1157Q891 1406 963 1735L1168 1694Q1137 1584 1116 1526ZM596 991Q746 798 746 499Q746 387 684.5 319.5Q623 252 500 252Q442 252 362 274L362 -133L164 -133L164 1647L731 1647L731 1438Q667 1165 596 991ZM362 471Q419 455 475 455Q541 455 541 522Q541 763 395 973Q469 1152 522 1438L362 1438ZM1642 600L1315 600L1315 360L1405 360L1405 553L1593 553L1593 129L1405 129L1405 169L1030 169L1030 71L842 71L842 553L1030 553L1030 360L1120 360L1120 600L784 600L784 790L1120 790L1120 952L1090 952Q1046 893 971 815L813 928Q1005 1094 1057 1286L1252 1255Q1232 1191 1207 1143L1588 1143L1588 952L1315 952L1315 790L1642 790Z"/></g><g transform="translate(2048 2048) scale (1 -1)"><path d="M1892 911L1893 776Q1893 213 1843.5 49.5Q1794 -114 1562 -114Q1477 -114 1372 -100L1323 123Q1461 90 1552 90Q1595 90 1631 126.5Q1667 163 1676 350Q1685 537 1685 631L1683 707L942 707L942 913Q1009 1160 1030 1405L1229 1370Q1208 1140 1149 911L1454 911L1548 1460L911 1460L911 1665L1747 1665L1747 1421L1657 911ZM848 309Q516 169 158 45L82 240Q187 272 387 340L387 813L176 813L176 1010L387 1010L387 1374L143 1374L143 1571L834 1571L834 1374L592 1374L592 1010L791 1010L791 813L592 813L592 414Q703 456 848 516ZM1599 322L883 322L883 526L1599 526Z"/></g><g transform="translate(4096 2048) scale (1 -1)"><path d="M1942 903L1757 903L1757 -135L1552 -135L1552 903L1405 903L1405 596Q1405 337 1366.5 179Q1328 21 1208 -154L1028 -49Q1117 72 1158.5 184.5Q1200 297 1200 537L1200 1561Q1548 1572 1806 1716L1933 1536Q1646 1398 1405 1382L1405 1116L1942 1116ZM1161 324L129 324L129 514L303 514L303 1329L145 1329L145 1520L303 1520L303 1712L508 1712L508 1520L801 1520L801 1712L1006 1712L1006 1520L1145 1520L1145 1329L1006 1329L1006 514L1161 514ZM801 1184L801 1329L508 1329L508 1184ZM801 850L801 997L508 997L508 850ZM801 514L801 664L508 664L508 514ZM1085 104L913 -49Q820 86 668 162L834 295Q966 229 1085 104ZM606 168Q413 -47 219 -152L74 14Q248 96 440 295Z"/></g></g></g><g transform="translate(-601 -187)"><rect x="0" y="0" width="58" height="28" rx="10" ry="10" style="fill:#E0E0E0;stroke:#707070;stroke-width:1px;"/><g transform="translate (5 5) scale(0.005859375)" style="fill:#4F4F4F;"><g transform="translate(0 2048) scale (1 -1)"><path d="M1948 1483L731 1483L731 1667L1948 1667ZM1806 891L879 891L879 1401L1806 1401ZM1602 1077L1602 1217L1083 1217L1083 1077ZM1872 -133L1667 -133L1667 -37L1020 -37L1020 -133L815 -133L815 435L670 345Q620 547 539 666L539 -133L332 -133L332 561Q273 509 217 467L59 623Q375 839 510 1168L133 1168L133 1379L336 1379L336 1706L543 1706L543 1379L733 1379L733 1195Q658 962 539 784L539 717L675 829Q762 691 815 541L815 807L1872 807ZM1667 479L1667 623L1448 623L1448 479ZM1243 479L1243 623L1020 623L1020 479ZM1667 147L1667 295L1448 295L1448 147ZM1243 147L1243 295L1020 295L1020 147Z"/></g><g transform="translate(2048 2048) scale (1 -1)"><path d="M1927 334L1561 297L1561 -133L1346 -133L1346 274L178 154L104 344L494 383L494 1460L188 1460L188 1657L1868 1657L1868 1460L1561 1460L1561 494L1927 530ZM1346 1264L1346 1460L709 1460L709 1264ZM1346 870L1346 1067L709 1067L709 870ZM1346 471L1346 674L709 674L709 406Z"/></g><g transform="translate(4096 2048) scale (1 -1)"><path d="M1960 285L1370 285L1370 -133L1161 -133L1161 285L543 285L543 469L1161 469L1161 610L688 610L688 795L807 1036L551 1036L551 1221L897 1221L977 1384L494 1384L494 760Q494 439 454.5 242Q415 45 291 -150L111 -27Q285 215 285 750L285 1569L973 1569Q937 1622 891 1665L1104 1747Q1181 1670 1239 1569L1917 1569L1917 1384L997 1384L1167 1300L1128 1221L1874 1221L1874 1036L1038 1036L920 795L1161 795L1161 987L1370 987L1370 795L1786 795L1786 610L1370 610L1370 469L1960 469Z"/></g><g transform="translate(6144 2048) scale (1 -1)"><path d="M1942 903L1757 903L1757 -135L1552 -135L1552 903L1405 903L1405 596Q1405 337 1366.5 179Q1328 21 1208 -154L1028 -49Q1117 72 1158.5 184.5Q1200 297 1200 537L1200 1561Q1548 1572 1806 1716L1933 1536Q1646 1398 1405 1382L1405 1116L1942 1116ZM1161 324L129 324L129 514L303 514L303 1329L145 1329L145 1520L303 1520L303 1712L508 1712L508 1520L801 1520L801 1712L1006 1712L1006 1520L1145 1520L1145 1329L1006 1329L1006 514L1161 514ZM801 1184L801 1329L508 1329L508 1184ZM801 850L801 997L508 997L508 850ZM801 514L801 664L508 664L508 514ZM1085 104L913 -49Q820 86 668 162L834 295Q966 229 1085 104ZM606 168Q413 -47 219 -152L74 14Q248 96 440 295Z"/></g></g></g><g transform="translate(-642 -143)"><rect x="0" y="0" width="34" height="28" rx="10" ry="10" style="fill:#E0E0E0;stroke:#707070;stroke-width:1px;"/><g transform="translate (5 5) scale(0.005859375)" style="fill:#4F4F4F;"><g transform="translate(0 2048) scale (1 -1)"><path d="M1270 1298L760 1298Q678 1128 562 969Q630 935 695 889Q830 1068 888 1226L1095 1152Q924 808 724 602.5Q524 397 201 236L59 418Q339 526 536 728Q385 829 158 918L251 1107L359 1053Q464 1185 512 1298L135 1298L135 1495L601 1494L601 1712L810 1712L810 1494L1270 1495ZM1886 121Q1886 -137 1679 -137L1460 -137L1395 88Q1518 77 1575 77Q1634 77 1655.5 92.5Q1677 108 1677 156L1677 1712L1886 1712ZM1538 279L1329 279L1329 1491L1538 1491ZM1323 -33L1126 -170Q1010 24 791 188Q529 -30 209 -162L61 4Q785 296 1053 854L1245 770Q1144 545 954 342Q1167 183 1323 -33Z"/></g><g transform="translate(2048 2048) scale (1 -1)"><path d="M1954 304Q1954 142 1891 19Q1828 -104 1688 -104L1417 -104Q1316 -104 1260 -45.5Q1204 13 1204 104L1204 660L852 597L842 806L1204 871L1204 1327Q1026 1289 924 1278L840 1489Q1350 1531 1745 1714L1870 1530Q1705 1457 1421 1380L1421 909L1917 1006L1927 798L1421 700L1421 164Q1421 100 1483 100L1624 100Q1745 100 1745 390L1745 399L1954 319ZM840 1143L606 1143L606 854L788 954L788 729Q680 664 606 625L606 80Q606 -137 416 -137L233 -137L164 88Q234 78 279 78Q347 78 372 92Q397 106 397 154L397 520Q318 482 193 428L100 629Q259 688 397 752L397 1143L143 1143L143 1356L397 1356L397 1712L606 1712L606 1356L840 1356Z"/></g></g></g><g transform="translate(-639 -38)"><rect x="0" y="0" width="58" height="28" rx="10" ry="10" style="fill:#E0E0E0;stroke:#707070;stroke-width:1px;"/><g transform="translate (5 5) scale(0.005859375)" style="fill:#4F4F4F;"><g transform="translate(0 2048) scale (1 -1)"><path d="M1956 1427Q1923 1148 1839 885L1649 956Q1703 1090 1720 1214L1348 1214Q1275 1021 1151 819L987 944Q1220 1294 1260 1718L1466 1677Q1446 1553 1413 1427ZM1976 18L1825 -135Q1592 75 1491 362Q1327 28 1114 -156L922 -29Q979 10 1016 45L379 45L379 -75L172 -75L172 1651L1067 1651L1067 1452L379 1452L379 246L1069 246L1069 96Q1366 401 1366 834L1366 1102L1571 1102L1571 715Q1685 282 1976 18ZM1133 397L922 303Q870 448 788 637Q703 475 578 293L406 426Q584 673 670 877Q564 1067 418 1251L590 1384Q700 1235 762 1139Q802 1272 834 1413L1034 1339Q969 1068 905 901Q1032 668 1133 397Z"/></g><g transform="translate(2048 2048) scale (1 -1)"><path d="M690 1612Q517 1324 266 1096L100 1247Q364 1461 500 1720ZM1944 172L1358 172L1358 -135L1147 -135L1147 172L618 172L618 365L1147 365L1147 489L676 489L676 682L1147 682L1147 791L768 791L768 983L1147 983L1147 1096L702 1096Q636 985 551 872L551 -133L342 -133L342 633Q263 554 195 502L55 672Q360 912 514 1212L657 1139L657 1288L1147 1288L1147 1399L768 1399L768 1591L1147 1591L1147 1712L1358 1712L1358 1591L1798 1591L1798 1288L1935 1288L1935 1096L1798 1096L1798 791L1358 791L1358 682L1858 682L1858 489L1358 489L1358 365L1944 365ZM1589 1288L1589 1399L1358 1399L1358 1288ZM1589 983L1589 1096L1358 1096L1358 983Z"/></g><g transform="translate(4096 2048) scale (1 -1)"><path d="M1964 362Q1943 152 1888.5 37Q1834 -78 1677 -78L1317 -78Q1092 -78 1092 141L1092 1712L1300 1712L1300 973Q1655 1134 1782 1323L1933 1163Q1737 931 1300 752L1300 186Q1300 131 1352 131L1653 131Q1682 131 1702.5 152Q1723 173 1737 275Q1751 377 1751 461ZM1032 156Q630 -9 202 -109L123 104L301 139L301 1712L510 1712L510 1143L1020 1143L1020 930L510 930L510 193Q806 279 1032 383Z"/></g><g transform="translate(6144 2048) scale (1 -1)"><path d="M1946 -53L123 -53L123 156L733 156L733 1421L182 1421L182 1630L1872 1630L1872 1421L1335 1421L1335 156L1946 156ZM1128 156L1128 1421L938 1421L938 156ZM1853 1165Q1774 642 1587 307L1399 408Q1609 816 1647 1231ZM684 373L465 311Q401 754 186 1141L389 1229Q598 854 684 373Z"/></g></g></g><g transform="translate(-357 -213)"><rect x="0" y="0" width="58" height="28" rx="10" ry="10" style="fill:#E0E0E0;stroke:#707070;stroke-width:1px;"/><g transform="translate (5 5) scale(0.005859375)" style="fill:#4F4F4F;"><g transform="translate(0 2048) scale (1 -1)"><path d="M1933 1464L500 1464L500 760Q500 420 445 216Q390 12 281 -141L100 0Q291 225 291 758L291 1661L1933 1661ZM1950 377Q1928 182 1860 55Q1792 -72 1599 -72L979 -72Q735 -72 735 150L735 1237L1724 1237L1725 1141Q1725 996 1719.5 818Q1714 640 1704.5 594Q1695 548 1668 514.5Q1641 481 1601 465Q1561 449 1464 449Q1277 449 1186 459L1133 676Q1231 662 1374 662Q1478 662 1492.5 694.5Q1507 727 1507 930L1505 1040L946 1040L946 184Q946 129 1001 129L1575 129Q1624 129 1659.5 159.5Q1695 190 1713 299.5Q1731 409 1731 463Z"/></g><g transform="translate(2048 2048) scale (1 -1)"><path d="M672 408L376 408L376 288L168 288L168 1488L672 1488L672 568Q936 632 1136 752L1040 848Q960 752 912 712L728 832Q976 1024 1072 1328L952 1328L952 1160L752 1160L752 1520L1220 1520L1220 1712L1428 1712L1428 1520L1896 1520L1896 1160L1744 1160L1744 1008Q1648 880 1504 768Q1744 632 2016 592L1912 376Q1808 408 1752 432L1752 -136L1544 -136L1544 -56L1112 -56L1112 -136L904 -136L904 432Q840 400 744 368L672 504ZM1696 1200L1696 1328L1120 1328L1280 1280L1248 1200ZM1456 1008L1168 1008Q1240 944 1320 880Q1400 936 1456 1008ZM1536 512Q1408 568 1312 624Q1208 560 1096 512ZM1544 136L1544 320L1112 320L1112 136ZM472 624L472 1272L376 1272L376 624Z"/></g><g transform="translate(4096 2048) scale (1 -1)"><path d="M659 1622Q467 1304 254 1112L92 1262Q354 1472 485 1735ZM1921 1411L1395 1411L1395 1315L1854 1315L1854 756L727 756L727 1315L1186 1315L1186 1411L668 1411L668 1591L1186 1591L1186 1712L1395 1712L1395 1591L1921 1591ZM1668 936L1668 1133L1535 1133L1535 936ZM1349 936L1349 1133L1224 1133L1224 936ZM1037 936L1037 1133L913 1133L913 936ZM680 1116Q610 992 532 885L532 -133L324 -133L324 639Q273 591 201 532L61 698Q346 917 512 1237ZM1950 498L1329 498Q1424 397 1493 281L1346 166Q1278 293 1149 424L1249 498L637 498L637 678L1950 678ZM1999 53L1817 -43Q1763 155 1604 315L1776 408Q1916 276 1999 53ZM944 303Q858 99 705 -41L561 88Q681 202 786 397ZM1690 178Q1656 -4 1602 -51Q1548 -98 1423 -98L1190 -98Q1079 -98 1025 -50.5Q971 -3 971 121L971 383L1161 383L1161 137Q1161 82 1217 82L1395 82Q1494 82 1503 248Z"/></g><g transform="translate(6144 2048) scale (1 -1)"><path d="M1108 1655L1109 1422Q1109 797 1078 433Q1047 69 977.5 -17Q908 -103 761 -103Q695 -103 588 -90L532 127Q672 101 722 101Q802 101 836.5 179Q871 257 883 508L621 508Q524 90 236 -152L76 -25Q329 182 418 508L211 508L211 705L459 705Q476 817 483 993L213 993L213 1190L489 1190L487 1462L156 1462L156 1655ZM909 1190L910 1280Q910 1390 901 1462L688 1462L688 1190ZM905 993L680 993Q674 847 655 705L895 705Q905 823 905 993ZM1737 1008Q1956 777 1956 489Q1956 150 1654 150Q1604 150 1532 160L1485 377Q1547 355 1613 355Q1746 355 1746 512Q1746 745 1481 973Q1622 1251 1671 1444L1438 1444L1438 -133L1233 -133L1233 1653L1905 1653L1905 1444Q1863 1309 1737 1008Z"/></g></g></g><g transform="translate(-279 -292)"><rect x="0" y="0" width="149" height="42" rx="10" ry="10" style="fill:#E0E0E0;stroke:#707070;stroke-width:1px;"/><g transform="translate (5 5) scale(0.005859375)" style="fill:#4F4F4F;"><g transform="translate(28.33333333333394 2048) scale (1 -1)"><path d="M2009 29L1853 -135Q1580 93 1403 365Q1213 112 903 -135L754 29Q1092 257 1290 561Q1117 912 1042 1450L987 1450L987 1663L1815 1663Q1795 1003 1528 553Q1717 235 2009 29ZM1587 1450L1249 1450Q1285 1089 1413 784Q1550 1077 1587 1450ZM1047 365L850 258Q795 439 709 608Q540 264 236 -14L86 150Q430 448 582 827Q426 1063 227 1243L387 1364Q528 1247 662 1069Q704 1231 727 1450L129 1450L129 1663L948 1663Q934 1214 809 850Q943 629 1047 365Z"/></g><g transform="translate(2076.333333333334 2048) scale (1 -1)"><path d="M1911 547L1223 547L1219 535Q1609 301 1886 2L1720 -162Q1462 136 1120 348Q884 -3 242 -156L129 45Q788 170 983 547L143 547L143 760L1061 760Q1094 907 1094 1065L1094 1712L1309 1712L1309 1090Q1309 905 1282 760L1911 760ZM967 1251L807 1087Q690 1290 446 1466L592 1626Q837 1451 967 1251ZM760 944L596 780Q450 984 252 1124L399 1284Q618 1129 760 944Z"/></g><g transform="translate(4124.333333333334 2048) scale (1 -1)"><path d="M1903 1227Q1903 195 1852.5 29Q1802 -137 1614 -137Q1528 -137 1401 -119L1346 96Q1481 69 1572 69Q1636 69 1655 111.5Q1674 154 1686.5 427.5Q1699 701 1699 976L1696 1229L1108 1229Q1067 1144 1014 1067L1542 1067L1542 256L1346 256L1346 358L1118 358L1118 227L922 227L922 948Q882 902 836 856L698 983Q752 759 752 506Q752 129 688.5 -4Q625 -137 430 -137Q355 -137 295 -127L250 100Q367 73 425 73Q498 73 514.5 143.5Q531 214 531 471L528 600Q401 425 250 307L119 487Q353 659 500 893Q478 1007 455 1075Q341 975 238 915L106 1087Q234 1163 352 1278Q250 1436 139 1524L283 1683Q414 1577 500 1454Q581 1575 623 1714L825 1628Q760 1427 614 1243Q660 1133 688 1022Q985 1314 1030 1704L1235 1669Q1206 1505 1180 1417L1903 1417ZM1346 547L1346 881L1118 881L1118 547Z"/></g><g transform="translate(6741.333333333334 2048) scale (1 -1)"><path d="M1982 303Q1959 77 1886 -16Q1813 -109 1636 -109L1053 -109Q946 -109 886.5 -45Q827 19 827 129L827 760L698 702L662 907L827 979L827 1442L1034 1442L1034 1067L1225 1149L1225 1712L1432 1712L1432 1237L1868 1423L1869 1348Q1869 1189 1858 923.5Q1847 658 1836 589.5Q1825 521 1777.5 468.5Q1730 416 1614 416Q1567 416 1511 426L1456 649Q1510 641 1567 641Q1601 641 1617.5 661.5Q1634 682 1642.5 822Q1651 962 1651 1120L1432 1024L1432 248L1225 248L1225 934L1034 850L1034 190Q1034 100 1122 100L1597 100Q1676 100 1714 154Q1752 208 1761 383ZM768 326Q528 221 160 80L78 281L352 381L352 1006L121 1006L121 1217L352 1217L352 1681L561 1681L561 1217L752 1217L752 1006L561 1006L561 461L768 543Z"/></g><g transform="translate(8789.333333333334 2048) scale (1 -1)"><path d="M1997 27L1833 -133Q1626 165 1507 524Q1415 142 1180 -135L1008 14Q1351 392 1358 956L1061 956L1061 1161L1358 1161L1358 1712L1559 1712L1559 1161L1939 1161L1939 956L1591 956Q1664 472 1997 27ZM727 1618Q661 1431 535 1264Q657 937 657 484Q657 40 592.5 -45.5Q528 -131 395 -131Q314 -131 221 -113L176 104Q313 73 370 73Q402 73 424 92.5Q446 112 452.5 269.5Q459 427 459 478L457 584Q343 391 193 270L66 453Q281 620 422 901Q402 1003 379 1087Q293 1005 199 940L68 1116Q192 1183 299 1296Q221 1449 102 1538L264 1671Q351 1598 432 1470Q503 1585 541 1706ZM1921 1323L1737 1227Q1699 1422 1589 1579L1751 1675Q1870 1515 1921 1323ZM1075 1352L891 1249Q841 1415 723 1544L883 1655Q996 1539 1075 1352ZM1165 283L815 2L717 182Q780 227 780 281L780 915L643 915L643 1124L975 1124L975 365L1165 516Z"/></g><g transform="translate(10837.333333333334 2048) scale (1 -1)"><path d="M1935 958L852 958L791 881L1675 881L1675 -135L1462 -135L1462 -47L707 -47L707 -135L489 -135L489 598Q385 515 225 401L72 575Q408 755 590 958L135 958L135 1128L721 1128Q738 1153 766 1206L293 1206L293 1374L846 1374L881 1460Q621 1448 362 1448L258 1448L205 1628L370 1626Q987 1626 1714 1722L1817 1552Q1490 1503 1100 1475L1065 1374L1788 1374L1788 1206L995 1206L956 1128L1935 1128ZM1462 616L1462 707L707 707L707 616ZM1462 371L1462 461L707 461L707 371ZM1462 123L1462 213L707 213L707 123Z"/></g><g transform="translate(12885.333333333334 2048) scale (1 -1)"><path d="M829 1409L659 1268Q517 1460 324 1577L479 1712Q653 1621 829 1409ZM1853 92Q1853 -133 1624 -133L1382 -133L1307 74Q1416 67 1536 67Q1608 67 1628.5 84.5Q1649 102 1649 141L1649 1432L899 1432L899 1636L1853 1636ZM422 -133L217 -133L217 1343L422 1343Z"/></g><g transform="translate(14933.333333333334 2048) scale (1 -1)"><path d="M1903 1227Q1903 195 1852.5 29Q1802 -137 1614 -137Q1528 -137 1401 -119L1346 96Q1481 69 1572 69Q1636 69 1655 111.5Q1674 154 1686.5 427.5Q1699 701 1699 976L1696 1229L1108 1229Q1067 1144 1014 1067L1542 1067L1542 256L1346 256L1346 358L1118 358L1118 227L922 227L922 948Q882 902 836 856L698 983Q752 759 752 506Q752 129 688.5 -4Q625 -137 430 -137Q355 -137 295 -127L250 100Q367 73 425 73Q498 73 514.5 143.5Q531 214 531 471L528 600Q401 425 250 307L119 487Q353 659 500 893Q478 1007 455 1075Q341 975 238 915L106 1087Q234 1163 352 1278Q250 1436 139 1524L283 1683Q414 1577 500 1454Q581 1575 623 1714L825 1628Q760 1427 614 1243Q660 1133 688 1022Q985 1314 1030 1704L1235 1669Q1206 1505 1180 1417L1903 1417ZM1346 547L1346 881L1118 881L1118 547Z"/></g><g transform="translate(17550.333333333336 2048) scale (1 -1)"><path d="M1270 1298L760 1298Q678 1128 562 969Q630 935 695 889Q830 1068 888 1226L1095 1152Q924 808 724 602.5Q524 397 201 236L59 418Q339 526 536 728Q385 829 158 918L251 1107L359 1053Q464 1185 512 1298L135 1298L135 1495L601 1494L601 1712L810 1712L810 1494L1270 1495ZM1886 121Q1886 -137 1679 -137L1460 -137L1395 88Q1518 77 1575 77Q1634 77 1655.5 92.5Q1677 108 1677 156L1677 1712L1886 1712ZM1538 279L1329 279L1329 1491L1538 1491ZM1323 -33L1126 -170Q1010 24 791 188Q529 -30 209 -162L61 4Q785 296 1053 854L1245 770Q1144 545 954 342Q1167 183 1323 -33Z"/></g><g transform="translate(19598.333333333336 2048) scale (1 -1)"><path d="M1927 334L1561 297L1561 -133L1346 -133L1346 274L178 154L104 344L494 383L494 1460L188 1460L188 1657L1868 1657L1868 1460L1561 1460L1561 494L1927 530ZM1346 1264L1346 1460L709 1460L709 1264ZM1346 870L1346 1067L709 1067L709 870ZM1346 471L1346 674L709 674L709 406Z"/></g><g transform="translate(21646.333333333336 2048) scale (1 -1)"><path d="M1866 -133L1657 -133L1657 -16L1122 -16L1122 -133L913 -133L913 1446L1198 1446Q1278 1596 1298 1755L1528 1708Q1482 1539 1421 1446L1866 1446ZM1657 825L1657 1237L1122 1237L1122 825ZM1657 193L1657 616L1122 616L1122 193ZM877 635L698 543Q653 717 594 815L594 -133L389 -133L389 592Q306 397 229 289L80 432Q272 690 365 1108L143 1108L143 1317L389 1317L389 1712L594 1712L594 1317L819 1317L819 1108L594 1108L594 940L690 1004Q812 845 877 635Z"/></g><g transform="translate(9813.333333333334 4778.666666666666) scale (1 -1)"><path d="M1978 725L1864 532L1786 561L1786 -133L1577 -133L1577 -37L1049 -37L1049 -133L840 -133L840 569L764 532L643 725Q939 823 1161 967Q1049 1076 981 1184Q914 1106 811 1008L645 1155Q969 1454 1061 1731L1284 1683Q1262 1620 1229 1550L1815 1550L1815 1352Q1687 1129 1499 967Q1736 794 1978 725ZM1563 1352L1128 1352Q1210 1220 1337 1102Q1470 1222 1563 1352ZM1624 637Q1472 717 1319 831Q1182 741 977 637ZM1577 160L1577 440L1049 440L1049 160ZM698 1419L545 1249Q405 1409 193 1516L322 1681Q575 1554 698 1419ZM618 952L479 782Q357 929 109 1044L238 1210Q506 1081 618 952ZM645 606Q578 350 322 -123L129 0Q342 355 440 696Z"/></g><g transform="translate(11861.333333333334 4778.666666666666) scale (1 -1)"><path d="M1942 903L1757 903L1757 -135L1552 -135L1552 903L1405 903L1405 596Q1405 337 1366.5 179Q1328 21 1208 -154L1028 -49Q1117 72 1158.5 184.5Q1200 297 1200 537L1200 1561Q1548 1572 1806 1716L1933 1536Q1646 1398 1405 1382L1405 1116L1942 1116ZM1161 324L129 324L129 514L303 514L303 1329L145 1329L145 1520L303 1520L303 1712L508 1712L508 1520L801 1520L801 1712L1006 1712L1006 1520L1145 1520L1145 1329L1006 1329L1006 514L1161 514ZM801 1184L801 1329L508 1329L508 1184ZM801 850L801 997L508 997L508 850ZM801 514L801 664L508 664L508 514ZM1085 104L913 -49Q820 86 668 162L834 295Q966 229 1085 104ZM606 168Q413 -47 219 -152L74 14Q248 96 440 295Z"/></g></g></g><g transform="translate(-279 -230)"><rect x="0" y="0" width="70" height="28" rx="10" ry="10" style="fill:#E0E0E0;stroke:#707070;stroke-width:1px;"/><g transform="translate (5 5) scale(0.005859375)" style="fill:#4F4F4F;"><g transform="translate(0 2048) scale (1 -1)"><path d="M692 1384L553 1214Q374 1418 178 1511L309 1675Q531 1565 692 1384ZM1827 762L750 762L750 1661L1827 1661ZM1618 1309L1618 1470L958 1470L958 1309ZM1618 952L1618 1116L958 1116L958 952ZM629 907L489 737Q326 928 94 1040L223 1206Q486 1073 629 907ZM1954 -90L563 -90L563 100L1163 100L1163 317L696 317L696 508L1163 508L1163 713L1378 713L1378 508L1872 508L1872 317L1378 317L1378 100L1954 100ZM651 586Q510 150 297 -145L119 -14Q364 346 459 674Z"/></g><g transform="translate(2048 2048) scale (1 -1)"><path d="M1950 -84L127 -84L127 84L915 84L915 190L293 190L293 356L915 356L915 449L780 389Q723 511 645 592L811 664L451 664L569 541Q448 454 242 377L119 547Q312 598 399 664L145 664L145 825L928 825L928 891L264 891L264 1041L928 1041L928 1107L330 1107L330 1655L1733 1655L1733 1107L1137 1107L1137 1041L1808 1041L1808 891L1137 891L1137 825L1919 825L1919 664L1765 664Q1859 587 1944 477L1743 381Q1642 518 1530 598L1636 664L1284 664Q1364 586 1427 477L1233 397Q1187 495 1092 594L1266 664L840 664Q919 583 979 477L934 457L1147 457L1147 356L1778 356L1778 190L1147 190L1147 84L1950 84ZM1522 1519L1137 1519L1137 1447L1522 1447ZM928 1447L928 1519L541 1519L541 1447ZM1522 1315L1137 1315L1137 1243L1522 1243ZM928 1243L928 1315L541 1315L541 1243Z"/></g><g transform="translate(4096 2048) scale (1 -1)"><path d="M1946 -53L123 -53L123 156L733 156L733 1421L182 1421L182 1630L1872 1630L1872 1421L1335 1421L1335 156L1946 156ZM1128 156L1128 1421L938 1421L938 156ZM1853 1165Q1774 642 1587 307L1399 408Q1609 816 1647 1231ZM684 373L465 311Q401 754 186 1141L389 1229Q598 854 684 373Z"/></g><g transform="translate(6144 2048) scale (1 -1)"><path d="M1116 545Q1116 329 1060 180Q1004 31 852 -158L692 -12Q821 110 876.5 236Q932 362 932 553L932 1712L1116 1712ZM709 1624Q637 1425 522 1264Q624 925 624 419Q624 289 613.5 135Q603 -19 535.5 -73Q468 -127 367 -127Q293 -127 203 -109L158 109Q292 77 342 77Q402 77 413.5 147Q425 217 425 421L422 567Q305 374 184 276L57 459Q260 618 395 899Q386 975 362 1079Q282 1002 201 946L70 1122Q191 1189 289 1296Q206 1475 90 1559L254 1692Q349 1608 424 1485Q481 1588 518 1712ZM1939 1436L1636 1436L1636 1245L1894 1245L1894 342Q1894 147 1700 147L1636 338L1636 -133L1452 -133L1452 1034L1362 1034L1362 145L1192 145L1192 1245L1452 1245L1452 1436L1161 1436L1161 1645L1939 1645ZM1726 381L1726 1034L1636 1034L1636 356Q1659 351 1682 351Q1726 351 1726 381ZM870 346L692 346L692 1405L870 1405Z"/></g><g transform="translate(8192 2048) scale (1 -1)"><path d="M1921 725L1165 725L1165 98Q1165 -133 954 -133L684 -133L616 100Q810 80 848 80Q942 80 942 182L942 725L145 725L145 934L942 934L942 1118Q1268 1336 1362 1446L373 1446L373 1655L1647 1655L1647 1444Q1507 1246 1165 1022L1165 934L1921 934Z"/></g></g></g><g transform="translate(-279 -182)"><rect x="0" y="0" width="46" height="28" rx="10" ry="10" style="fill:#E0E0E0;stroke:#707070;stroke-width:1px;"/><g transform="translate (5 5) scale(0.005859375)" style="fill:#4F4F4F;"><g transform="translate(0 2048) scale (1 -1)"><path d="M672 408L376 408L376 288L168 288L168 1488L672 1488L672 568Q936 632 1136 752L1040 848Q960 752 912 712L728 832Q976 1024 1072 1328L952 1328L952 1160L752 1160L752 1520L1220 1520L1220 1712L1428 1712L1428 1520L1896 1520L1896 1160L1744 1160L1744 1008Q1648 880 1504 768Q1744 632 2016 592L1912 376Q1808 408 1752 432L1752 -136L1544 -136L1544 -56L1112 -56L1112 -136L904 -136L904 432Q840 400 744 368L672 504ZM1696 1200L1696 1328L1120 1328L1280 1280L1248 1200ZM1456 1008L1168 1008Q1240 944 1320 880Q1400 936 1456 1008ZM1536 512Q1408 568 1312 624Q1208 560 1096 512ZM1544 136L1544 320L1112 320L1112 136ZM472 624L472 1272L376 1272L376 624Z"/></g><g transform="translate(2048 2048) scale (1 -1)"><path d="M1879 1430L1184 1430L1184 1164L1755 1164Q1755 600 1741.5 437Q1728 274 1658 216Q1588 158 1421 158L1241 158L1191 387Q1367 369 1393 369Q1450 369 1478 391Q1506 413 1513 451.5Q1520 490 1530 682.5Q1540 875 1540 968L1182 968Q1175 693 1093.5 521Q1012 349 827 186L651 324Q852 498 913.5 649Q975 800 975 1070L975 1430L678 1430L678 1639L1879 1639ZM632 1311L460 1174Q353 1367 191 1538L353 1663Q522 1512 632 1311ZM1972 90L1882 -100L1069 -100Q860 -100 739.5 -57.5Q619 -15 500 86Q394 -35 248 -150L104 -10Q271 130 397 303L397 860L133 860L133 1051L596 1051L596 332Q596 207 724.5 148.5Q853 90 1030 90Z"/></g><g transform="translate(4096 2048) scale (1 -1)"><path d="M1907 1128L852 1128L852 1346L1232 1346L1232 1712L1441 1712L1441 1346L1907 1346ZM821 750Q683 668 610 631L610 72Q610 -133 428 -133L221 -133L162 88Q217 80 288 80Q355 80 378 96Q401 112 401 154L401 528Q316 488 186 434L102 645Q249 692 401 762L401 1143L141 1143L141 1356L401 1356L401 1712L610 1712L610 1356L801 1356L801 1143L610 1143L610 864Q765 946 821 979ZM1952 -63L743 -63L743 155L1368 155Q1508 531 1559 1069L1790 1001Q1723 531 1585 155L1952 155ZM1290 317L1077 244Q1036 685 907 940L1108 1026Q1260 699 1290 317Z"/></g></g></g><g transform="translate(-279 -134)"><rect x="0" y="0" width="58" height="28" rx="10" ry="10" style="fill:#E0E0E0;stroke:#707070;stroke-width:1px;"/><g transform="translate (5 5) scale(0.005859375)" style="fill:#4F4F4F;"><g transform="translate(0 2048) scale (1 -1)"><path d="M1942 903L1757 903L1757 -135L1552 -135L1552 903L1405 903L1405 596Q1405 337 1366.5 179Q1328 21 1208 -154L1028 -49Q1117 72 1158.5 184.5Q1200 297 1200 537L1200 1561Q1548 1572 1806 1716L1933 1536Q1646 1398 1405 1382L1405 1116L1942 1116ZM1161 324L129 324L129 514L303 514L303 1329L145 1329L145 1520L303 1520L303 1712L508 1712L508 1520L801 1520L801 1712L1006 1712L1006 1520L1145 1520L1145 1329L1006 1329L1006 514L1161 514ZM801 1184L801 1329L508 1329L508 1184ZM801 850L801 997L508 997L508 850ZM801 514L801 664L508 664L508 514ZM1085 104L913 -49Q820 86 668 162L834 295Q966 229 1085 104ZM606 168Q413 -47 219 -152L74 14Q248 96 440 295Z"/></g><g transform="translate(2048 2048) scale (1 -1)"><path d="M1987 641L1870 465Q1726 524 1597 618Q1584 349 1552 101Q1509 -118 1267 -118Q1123 -118 1036 -106L983 109Q1148 86 1237 86Q1322 86 1340 145Q1370 294 1378 475L1049 475Q938 157 757.5 24.5Q577 -108 213 -143L94 53Q402 55 571 155Q740 255 825 475L543 475L543 643Q402 532 227 459L100 641Q504 787 709 1153L883 1036Q750 819 578 672L1530 672Q1357 815 1286 961L911 961L911 1157L1415 1157Q1488 981 1650 835.5Q1812 690 1987 641ZM1929 1363L1477 1363L1477 1205L1262 1205L1262 1363L788 1363L788 1205L573 1205L573 1363L121 1363L121 1560L573 1560L573 1712L788 1712L788 1560L1262 1560L1262 1712L1477 1712L1477 1560L1929 1560Z"/></g><g transform="translate(4096 2048) scale (1 -1)"><path d="M1964 324Q1946 204 1907 94Q1868 -16 1811.5 -56Q1755 -96 1645 -96L1335 -96Q1230 -96 1179 -55.5Q1128 -15 1128 104L1128 498L930 498Q892 -71 199 -152L123 43Q444 86 573 191.5Q702 297 721 498L412 498L412 1163L926 1163L926 1323L193 1323L193 1520L926 1520L926 1710L1141 1710L1141 1520L1880 1520L1880 1323L1141 1323L1141 1163L1659 1163L1659 498L1333 498L1333 168Q1333 113 1384 113L1620 113Q1659 113 1683 132Q1707 151 1734 237.5Q1761 324 1765 397ZM1454 694L1454 967L616 967L616 694Z"/></g><g transform="translate(6144 2048) scale (1 -1)"><path d="M1942 903L1757 903L1757 -135L1552 -135L1552 903L1405 903L1405 596Q1405 337 1366.5 179Q1328 21 1208 -154L1028 -49Q1117 72 1158.5 184.5Q1200 297 1200 537L1200 1561Q1548 1572 1806 1716L1933 1536Q1646 1398 1405 1382L1405 1116L1942 1116ZM1161 324L129 324L129 514L303 514L303 1329L145 1329L145 1520L303 1520L303 1712L508 1712L508 1520L801 1520L801 1712L1006 1712L1006 1520L1145 1520L1145 1329L1006 1329L1006 514L1161 514ZM801 1184L801 1329L508 1329L508 1184ZM801 850L801 997L508 997L508 850ZM801 514L801 664L508 664L508 514ZM1085 104L913 -49Q820 86 668 162L834 295Q966 229 1085 104ZM606 168Q413 -47 219 -152L74 14Q248 96 440 295Z"/></g></g></g></g></svg>